<svg version="1.1" xmlns="http://www.w3.org/2000/svg" xmlns:xlink="http://www.w3.org/1999/xlink" width="319.07781982421875" height="184" viewBox=" 23 22.000001907348633 319.07781982421875 184"><defs><style type="text/css" xmlns="http://www.w3.org/1999/xhtml"><![CDATA[.blocklySvg {background-color: #fff;outline: none;overflow: hidden;display: block;}.blocklyWidgetDiv {display: none;position: absolute;z-index: 99999;}.injectionDiv {height: 100%;position: relative;}.blocklyNonSelectable {user-select: none;-moz-user-select: none;-webkit-user-select: none;-ms-user-select: none;}.blocklyTooltipDiv {background-color: #ffffc7;border: 1px solid #ddc;box-shadow: 4px 4px 20px 1px rgba(0,0,0,.15);color: #000;display: none;font-family: sans-serif;font-size: 9pt;opacity: 0.9;padding: 2px;position: absolute;z-index: 100000;}.blocklyResizeSE {cursor: se-resize;fill: #aaa;}.blocklyResizeSW {cursor: sw-resize;fill: #aaa;}.blocklyResizeLine {stroke: #888;stroke-width: 1;}.blocklyHighlightedConnectionPath {fill: none;stroke: #fc3;stroke-width: 4px;}.blocklyPathLight {fill: none;stroke-linecap: round;stroke-width: 1;}.blocklySelected>.blocklyPath {stroke: #fc3;stroke-width: 3px;}.blocklySelected>.blocklyPathLight {display: none;}.blocklyDragging>.blocklyPath,.blocklyDragging>.blocklyPathLight {fill-opacity: .8;stroke-opacity: .8;}.blocklyDragging>.blocklyPathDark {display: none;}.blocklyDisabled>.blocklyPath {fill-opacity: .5;stroke-opacity: .5;}.blocklyDisabled>.blocklyPathLight,.blocklyDisabled>.blocklyPathDark {display: none;}.blocklyText {cursor: default;fill: #fff;font-family: sans-serif;font-size: 11pt;}.blocklyNonEditableText>text {pointer-events: none;}.blocklyNonEditableText>rect,.blocklyEditableText>rect {fill: #fff;fill-opacity: .6;}.blocklyNonEditableText>text,.blocklyEditableText>text {fill: #000;}.blocklyEditableText:hover>rect {stroke: #fff;stroke-width: 2;}.blocklyBubbleText {fill: #000;}.blocklyFlyoutButton {fill: #888;cursor: default;}.blocklyFlyoutButtonShadow {fill: #666;}.blocklyFlyoutButton:hover {fill: #aaa;}.blocklySvg text {user-select: none;-moz-user-select: none;-webkit-user-select: none;cursor: inherit;}.blocklyHidden {display: none;}.blocklyFieldDropdown:not(.blocklyHidden) {display: block;}.blocklyIconGroup {cursor: default;}.blocklyIconGroup:not(:hover),.blocklyIconGroupReadonly {opacity: .6;}.blocklyIconShape {fill: #00f;stroke: #fff;stroke-width: 1px;}.blocklyIconSymbol {fill: #fff;}.blocklyMinimalBody {margin: 0;padding: 0;}.blocklyCommentTextarea {background-color: #ffc;border: 0;margin: 0;padding: 2px;resize: none;}.blocklyHtmlInput {border: none;border-radius: 4px;font-family: sans-serif;height: 100%;margin: 0;outline: none;padding: 0 1px;width: 100%}.blocklyMainBackground {stroke-width: 1;stroke: #c6c6c6;}.blocklyMutatorBackground {fill: #fff;stroke: #ddd;stroke-width: 1;}.blocklyFlyoutBackground {fill: #ddd;fill-opacity: .8;}.blocklyScrollbarBackground {opacity: 0;}.blocklyScrollbarHandle {fill: #ccc;}.blocklyScrollbarBackground:hover+.blocklyScrollbarHandle,.blocklyScrollbarHandle:hover {fill: #bbb;}.blocklyZoom>image {opacity: .4;}.blocklyZoom>image:hover {opacity: .6;}.blocklyZoom>image:active {opacity: .8;}.blocklyFlyout .blocklyScrollbarHandle {fill: #bbb;}.blocklyFlyout .blocklyScrollbarBackground:hover+.blocklyScrollbarHandle,.blocklyFlyout .blocklyScrollbarHandle:hover {fill: #aaa;}.blocklyInvalidInput {background: #faa;}.blocklyAngleCircle {stroke: #444;stroke-width: 1;fill: #ddd;fill-opacity: .8;}.blocklyAngleMarks {stroke: #444;stroke-width: 1;}.blocklyAngleGauge {fill: #f88;fill-opacity: .8;}.blocklyAngleLine {stroke: #f00;stroke-width: 2;stroke-linecap: round;}.blocklyContextMenu {border-radius: 4px;}.blocklyDropdownMenu {padding: 0 !important;}.blocklyWidgetDiv .goog-option-selected .goog-menuitem-checkbox,.blocklyWidgetDiv .goog-option-selected .goog-menuitem-icon {background: url(<<<PATH>>>/sprites.png) no-repeat -48px -16px !important;}.blocklyToolboxDiv {background-color: #ddd;overflow-x: visible;overflow-y: auto;position: absolute;}.blocklyTreeRoot {padding: 4px 0;}.blocklyTreeRoot:focus {outline: none;}.blocklyTreeRow {height: 22px;line-height: 22px;margin-bottom: 3px;padding-right: 8px;white-space: nowrap;}.blocklyHorizontalTree {float: left;margin: 1px 5px 8px 0;}.blocklyHorizontalTreeRtl {float: right;margin: 1px 0 8px 5px;}.blocklyToolboxDiv[dir="RTL"] .blocklyTreeRow {margin-left: 8px;}.blocklyTreeRow:not(.blocklyTreeSelected):hover {background-color: #e4e4e4;}.blocklyTreeSeparator {border-bottom: solid #e5e5e5 1px;height: 0;margin: 5px 0;}.blocklyTreeSeparatorHorizontal {border-right: solid #e5e5e5 1px;width: 0;padding: 5px 0;margin: 0 5px;}.blocklyTreeIcon {background-image: url(<<<PATH>>>/sprites.png);height: 16px;vertical-align: middle;width: 16px;}.blocklyTreeIconClosedLtr {background-position: -32px -1px;}.blocklyTreeIconClosedRtl {background-position: 0px -1px;}.blocklyTreeIconOpen {background-position: -16px -1px;}.blocklyTreeSelected>.blocklyTreeIconClosedLtr {background-position: -32px -17px;}.blocklyTreeSelected>.blocklyTreeIconClosedRtl {background-position: 0px -17px;}.blocklyTreeSelected>.blocklyTreeIconOpen {background-position: -16px -17px;}.blocklyTreeIconNone,.blocklyTreeSelected>.blocklyTreeIconNone {background-position: -48px -1px;}.blocklyTreeLabel {cursor: default;font-family: sans-serif;font-size: 16px;padding: 0 3px;vertical-align: middle;}.blocklyTreeSelected .blocklyTreeLabel {color: #fff;}.blocklyWidgetDiv .goog-palette {outline: none;cursor: default;}.blocklyWidgetDiv .goog-palette-table {border: 1px solid #666;border-collapse: collapse;}.blocklyWidgetDiv .goog-palette-cell {height: 13px;width: 15px;margin: 0;border: 0;text-align: center;vertical-align: middle;border-right: 1px solid #666;font-size: 1px;}.blocklyWidgetDiv .goog-palette-colorswatch {position: relative;height: 13px;width: 15px;border: 1px solid #666;}.blocklyWidgetDiv .goog-palette-cell-hover .goog-palette-colorswatch {border: 1px solid #FFF;}.blocklyWidgetDiv .goog-palette-cell-selected .goog-palette-colorswatch {border: 1px solid #000;color: #fff;}.blocklyWidgetDiv .goog-menu {background: #fff;border-color: #ccc #666 #666 #ccc;border-style: solid;border-width: 1px;cursor: default;font: normal 13px Arial, sans-serif;margin: 0;outline: none;padding: 4px 0;position: absolute;overflow-y: auto;overflow-x: hidden;max-height: 100%;z-index: 20000;}.blocklyWidgetDiv .goog-menuitem {color: #000;font: normal 13px Arial, sans-serif;list-style: none;margin: 0;padding: 4px 7em 4px 28px;white-space: nowrap;}.blocklyWidgetDiv .goog-menuitem.goog-menuitem-rtl {padding-left: 7em;padding-right: 28px;}.blocklyWidgetDiv .goog-menu-nocheckbox .goog-menuitem,.blocklyWidgetDiv .goog-menu-noicon .goog-menuitem {padding-left: 12px;}.blocklyWidgetDiv .goog-menu-noaccel .goog-menuitem {padding-right: 20px;}.blocklyWidgetDiv .goog-menuitem-content {color: #000;font: normal 13px Arial, sans-serif;}.blocklyWidgetDiv .goog-menuitem-disabled .goog-menuitem-accel,.blocklyWidgetDiv .goog-menuitem-disabled .goog-menuitem-content {color: #ccc !important;}.blocklyWidgetDiv .goog-menuitem-disabled .goog-menuitem-icon {opacity: 0.3;-moz-opacity: 0.3;filter: alpha(opacity=30);}.blocklyWidgetDiv .goog-menuitem-highlight,.blocklyWidgetDiv .goog-menuitem-hover {background-color: #d6e9f8;border-color: #d6e9f8;border-style: dotted;border-width: 1px 0;padding-bottom: 3px;padding-top: 3px;}.blocklyWidgetDiv .goog-menuitem-checkbox,.blocklyWidgetDiv .goog-menuitem-icon {background-repeat: no-repeat;height: 16px;left: 6px;position: absolute;right: auto;vertical-align: middle;width: 16px;}.blocklyWidgetDiv .goog-menuitem-rtl .goog-menuitem-checkbox,.blocklyWidgetDiv .goog-menuitem-rtl .goog-menuitem-icon {left: auto;right: 6px;}.blocklyWidgetDiv .goog-option-selected .goog-menuitem-checkbox,.blocklyWidgetDiv .goog-option-selected .goog-menuitem-icon {background: url(//ssl.gstatic.com/editor/editortoolbar.png) no-repeat -512px 0;}.blocklyWidgetDiv .goog-menuitem-accel {color: #999;direction: ltr;left: auto;padding: 0 6px;position: absolute;right: 0;text-align: right;}.blocklyWidgetDiv .goog-menuitem-rtl .goog-menuitem-accel {left: 0;right: auto;text-align: left;}.blocklyWidgetDiv .goog-menuitem-mnemonic-hint {text-decoration: underline;}.blocklyWidgetDiv .goog-menuitem-mnemonic-separator {color: #999;font-size: 12px;padding-left: 4px;}.blocklyWidgetDiv .goog-menuseparator {border-top: 1px solid #ccc;margin: 4px 0;padding: 0;}]]></style></defs><g xmlns="http://www.w3.org/2000/svg" class="blocklyBlockCanvas"><g class="blocklyDraggable" transform="translate(22.999999999999886,22.000001907348633)"><path class="blocklyPathDark" transform="translate(1,1)" fill="#7a00b7" d="m 0,8 A 8,8 0 0,1 8,0 H 15 l 6,4 3,0 6,-4 H 134.4301528930664 v 5 c 0,10 -8,-8 -8,7.5 s 8,-2.5 8,7.5 v 5 H 29.5 l -6,4 -3,0 -6,-4 H 0 z&#10;"/><path class="blocklyPath" fill="#9900e5" d="m 0,8 A 8,8 0 0,1 8,0 H 15 l 6,4 3,0 6,-4 H 134.4301528930664 v 5 c 0,10 -8,-8 -8,7.5 s 8,-2.5 8,7.5 v 5 H 29.5 l -6,4 -3,0 -6,-4 H 0 z&#10;"/><path class="blocklyPathLight" stroke="#b84ded" d="m 0.5,7.5 A 7.5,7.5 0 0,1 8,0.5 H 15 l 6,4 3,0 6,-4 H 133.9301528930664 M 133.9301528930664,0.5 M 129.4301528930664,19.3 l 3.68,-2.1 M 0.5,24.5 V 8&#10;"/><text class="blocklyText" y="12.5" transform="translate(10,5)">nastavi</text><g class="blocklyEditableText" transform="translate(66.46219635009766,5)" style="cursor: default;"><rect rx="4" ry="4" x="-5" y="0" height="16" width="33.65714073181152"/><text class="blocklyText" y="12.5">x<tspan style="fill: rgb(153, 0, 229);"> ▾</tspan></text></g><text class="blocklyText" y="12.5" transform="translate(100.11933708190918,5)">na</text><g class="blocklyDraggable" transform="translate(135.4301528930664,0)"><path class="blocklyPathDark" transform="translate(1,1)" fill="#003db7" d="m 0,0 H 28.155407905578613 v 25 H 0 V 20 c 0,-10 -8,8 -8,-7.5 s 8,2.5 8,-7.5 z&#10;"/><path class="blocklyPath" fill="#004ce5" d="m 0,0 H 28.155407905578613 v 25 H 0 V 20 c 0,-10 -8,8 -8,-7.5 s 8,2.5 8,-7.5 z&#10;"/><path class="blocklyPathLight" stroke="#4d82ed" d="m 0.5,0.5 H 27.655407905578613 M 27.655407905578613,0.5 M 0.5,24.5 V 18.5 m -7.36,-0.5 q -1.52,-5.5 0,-11 m 7.36,1 V 0.5 H 1&#10;"/><g class="blocklyEditableText" transform="translate(10,5)" style="cursor: text;"><rect rx="4" ry="4" x="-5" y="0" height="16" width="18.155407905578613"/><text class="blocklyText" y="12.5">2</text></g></g><g class="blocklyDraggable" transform="translate(0,26)"><path class="blocklyPathDark" transform="translate(1,1)" fill="#b7007a" d="m 0,0 H 15 l 6,4 3,0 6,-4 H 156.2211799621582 v 5 c 0,10 -8,-8 -8,7.5 s 8,-2.5 8,7.5 v 16 H 87.49052810668945 l -6,4 -3,0 -6,-4 h -7 a 8,8 0 0,0 -8,8 v 91 a 8,8 0 0,0 8,8 H 156.2211799621582 v 10 H 29.5 l -6,4 -3,0 -6,-4 H 8 a 8,8 0 0,1 -8,-8 z&#10;"/><path class="blocklyPath" fill="#e50099" d="m 0,0 H 15 l 6,4 3,0 6,-4 H 156.2211799621582 v 5 c 0,10 -8,-8 -8,7.5 s 8,-2.5 8,7.5 v 16 H 87.49052810668945 l -6,4 -3,0 -6,-4 h -7 a 8,8 0 0,0 -8,8 v 91 a 8,8 0 0,0 8,8 H 156.2211799621582 v 10 H 29.5 l -6,4 -3,0 -6,-4 H 8 a 8,8 0 0,1 -8,-8 z&#10;"/><path class="blocklyPathLight" stroke="#ed4db8" d="m 0.5,0.5 H 15 l 6,4 3,0 6,-4 H 155.7211799621582 M 155.7211799621582,0.5 M 151.2211799621582,19.3 l 3.68,-2.1 M 155.7211799621582,36.5 M 59.4801204666038,141.01040764008565 a 8.5,8.5 0 0,0 6.0104076400856545,2.4895923599143455 H 155.7211799621582 M 2.6966991411008934,150.3033008588991 A 7.5,7.5 0 0,1 0.5,145 V 0.5&#10;"/><text class="blocklyText" y="12.5" transform="translate(10,5)">ponavljaj</text><g class="blocklyEditableText" transform="translate(77.88261795043945,5)" style="cursor: default;"><rect rx="4" ry="4" x="-5" y="0" height="16" width="70.33856201171875"/><text class="blocklyText" y="12.5"> dokler<tspan style="fill: rgb(229, 0, 153);"> ▾</tspan></text></g><text class="blocklyText" y="12.5" transform="translate(10,41)">izvedi</text><g class="blocklyDraggable" transform="translate(157.2211799621582,0)"><path class="blocklyPathDark" transform="translate(1,1)" fill="#007ab7" d="m 0,0 H 20 H 160.85663986206055 v 36 H 0 V 20 c 0,-10 -8,8 -8,-7.5 s 8,2.5 8,-7.5 z&#10;M 61.65714073181152,5 h -45.65714073181152 v 5 c 0,10 -8,-8 -8,7.5 s 8,-2.5 8,7.5 v 7 h 45.65714073181152 z M 150.85663986206055,5 h -38.31081581115723 v 5 c 0,10 -8,-8 -8,7.5 s 8,-2.5 8,7.5 v 7 h 38.31081581115723 z"/><path class="blocklyPath" fill="#0098e5" d="m 0,0 H 20 H 160.85663986206055 v 36 H 0 V 20 c 0,-10 -8,8 -8,-7.5 s 8,2.5 8,-7.5 z&#10;M 61.65714073181152,5 h -45.65714073181152 v 5 c 0,10 -8,-8 -8,7.5 s 8,-2.5 8,7.5 v 7 h 45.65714073181152 z M 150.85663986206055,5 h -38.31081581115723 v 5 c 0,10 -8,-8 -8,7.5 s 8,-2.5 8,7.5 v 7 h 38.31081581115723 z"/><path class="blocklyPathLight" stroke="#4db7ed" d="m 0.5,0.5 H 19.5 M 19.5,0.5 H 160.35663986206055 M 0.5,35.5 V 18.5 m -7.36,-0.5 q -1.52,-5.5 0,-11 m 7.36,1 V 0.5 H 1&#10;M 62.15714073181152,5.5 v 27 h -45.65714073181152 M 10.9,24.3 l 3.68,-2.1 M 151.35663986206055,5.5 v 27 h -38.31081581115723 M 107.44582405090333,24.3 l 3.68,-2.1"/><g class="blocklyEditableText" transform="translate(71.65714073181152,10)" style="cursor: default;"><rect rx="4" ry="4" x="-5" y="0" height="16" width="34.8886833190918"/><text class="blocklyText" y="12.5">&lt;<tspan style="fill: rgb(0, 152, 229);"> ▾</tspan></text></g><g class="blocklyDraggable" transform="translate(17,6)"><path class="blocklyPathDark" transform="translate(1,1)" fill="#7a00b7" d="m 0,0 H 43.65714073181152 v 25 H 0 V 20 c 0,-10 -8,8 -8,-7.5 s 8,2.5 8,-7.5 z&#10;"/><path class="blocklyPath" fill="#9900e5" d="m 0,0 H 43.65714073181152 v 25 H 0 V 20 c 0,-10 -8,8 -8,-7.5 s 8,2.5 8,-7.5 z&#10;"/><path class="blocklyPathLight" stroke="#b84ded" d="m 0.5,0.5 H 43.15714073181152 M 43.15714073181152,0.5 M 0.5,24.5 V 18.5 m -7.36,-0.5 q -1.52,-5.5 0,-11 m 7.36,1 V 0.5 H 1&#10;"/><g class="blocklyEditableText" transform="translate(10,5)" style="cursor: default;"><rect rx="4" ry="4" x="-5" y="0" height="16" width="33.65714073181152"/><text class="blocklyText" y="12.5">x<tspan style="fill: rgb(153, 0, 229);"> ▾</tspan></text></g></g><g class="blocklyDraggable" transform="translate(113.54582405090332,6)"><path class="blocklyPathDark" transform="translate(1,1)" fill="#003db7" d="m 0,0 H 36.31081581115723 v 25 H 0 V 20 c 0,-10 -8,8 -8,-7.5 s 8,2.5 8,-7.5 z&#10;"/><path class="blocklyPath" fill="#004ce5" d="m 0,0 H 36.31081581115723 v 25 H 0 V 20 c 0,-10 -8,8 -8,-7.5 s 8,2.5 8,-7.5 z&#10;"/><path class="blocklyPathLight" stroke="#4d82ed" d="m 0.5,0.5 H 35.81081581115723 M 35.81081581115723,0.5 M 0.5,24.5 V 18.5 m -7.36,-0.5 q -1.52,-5.5 0,-11 m 7.36,1 V 0.5 H 1&#10;"/><g class="blocklyEditableText" transform="translate(10,5)" style="cursor: text;"><rect rx="4" ry="4" x="-5" y="0" height="16" width="26.310815811157227"/><text class="blocklyText" y="12.5">65</text></g></g></g><g class="blocklyDraggable" transform="translate(58.49052810668945,37)"><path class="blocklyPathDark" transform="translate(1,1)" fill="#b79900" d="m 0,8 A 8,8 0 0,1 8,0 H 15 l 6,4 3,0 6,-4 H 60.592979431152344 v 5 c 0,10 -8,-8 -8,7.5 s 8,-2.5 8,7.5 v 5 H 29.5 l -6,4 -3,0 -6,-4 H 0 z&#10;"/><path class="blocklyPath" fill="#e5bf00" d="m 0,8 A 8,8 0 0,1 8,0 H 15 l 6,4 3,0 6,-4 H 60.592979431152344 v 5 c 0,10 -8,-8 -8,7.5 s 8,-2.5 8,7.5 v 5 H 29.5 l -6,4 -3,0 -6,-4 H 0 z&#10;"/><path class="blocklyPathLight" stroke="#edd24d" d="m 0.5,7.5 A 7.5,7.5 0 0,1 8,0.5 H 15 l 6,4 3,0 6,-4 H 60.092979431152344 M 60.092979431152344,0.5 M 55.592979431152344,19.3 l 3.68,-2.1 M 0.5,24.5 V 8&#10;"/><text class="blocklyText" y="12.5" transform="translate(10,5)">izpiši</text><g class="blocklyDraggable" transform="translate(61.592979431152344,0)"><path class="blocklyPathDark" transform="translate(1,1)" fill="#7a00b7" d="m 0,0 H 43.65714073181152 v 25 H 0 V 20 c 0,-10 -8,8 -8,-7.5 s 8,2.5 8,-7.5 z&#10;"/><path class="blocklyPath" fill="#9900e5" d="m 0,0 H 43.65714073181152 v 25 H 0 V 20 c 0,-10 -8,8 -8,-7.5 s 8,2.5 8,-7.5 z&#10;"/><path class="blocklyPathLight" stroke="#b84ded" d="m 0.5,0.5 H 43.15714073181152 M 43.15714073181152,0.5 M 0.5,24.5 V 18.5 m -7.36,-0.5 q -1.52,-5.5 0,-11 m 7.36,1 V 0.5 H 1&#10;"/><g class="blocklyEditableText" transform="translate(10,5)" style="cursor: default;"><rect rx="4" ry="4" x="-5" y="0" height="16" width="33.65714073181152"/><text class="blocklyText" y="12.5">x<tspan style="fill: rgb(153, 0, 229);"> ▾</tspan></text></g></g><g class="blocklyDraggable" transform="translate(0,26)"><path class="blocklyPathDark" transform="translate(1,1)" fill="#7a00b7" d="m 0,0 H 15 l 6,4 3,0 6,-4 H 134.4301528930664 v 5 c 0,10 -8,-8 -8,7.5 s 8,-2.5 8,7.5 v 5 H 29.5 l -6,4 -3,0 -6,-4 H 0 z&#10;"/><path class="blocklyPath" fill="#9900e5" d="m 0,0 H 15 l 6,4 3,0 6,-4 H 134.4301528930664 v 5 c 0,10 -8,-8 -8,7.5 s 8,-2.5 8,7.5 v 5 H 29.5 l -6,4 -3,0 -6,-4 H 0 z&#10;"/><path class="blocklyPathLight" stroke="#b84ded" d="m 0.5,0.5 H 15 l 6,4 3,0 6,-4 H 133.9301528930664 M 133.9301528930664,0.5 M 129.4301528930664,19.3 l 3.68,-2.1 M 0.5,24.5 V 0.5&#10;"/><text class="blocklyText" y="12.5" transform="translate(10,5)">nastavi</text><g class="blocklyEditableText" transform="translate(66.46219635009766,5)" style="cursor: default;"><rect rx="4" ry="4" x="-5" y="0" height="16" width="33.65714073181152"/><text class="blocklyText" y="12.5">x<tspan style="fill: rgb(153, 0, 229);"> ▾</tspan></text></g><text class="blocklyText" y="12.5" transform="translate(100.11933708190918,5)">na</text><g class="blocklyDraggable" transform="translate(0,26)"><path class="blocklyPathDark" transform="translate(1,1)" fill="#b79900" d="m 0,0 H 15 l 6,4 3,0 6,-4 H 60.592979431152344 v 5 c 0,10 -8,-8 -8,7.5 s 8,-2.5 8,7.5 v 5 H 29.5 l -6,4 -3,0 -6,-4 H 0 z&#10;"/><path class="blocklyPath" fill="#e5bf00" d="m 0,0 H 15 l 6,4 3,0 6,-4 H 60.592979431152344 v 5 c 0,10 -8,-8 -8,7.5 s 8,-2.5 8,7.5 v 5 H 29.5 l -6,4 -3,0 -6,-4 H 0 z&#10;"/><path class="blocklyPathLight" stroke="#edd24d" d="m 0.5,0.5 H 15 l 6,4 3,0 6,-4 H 60.092979431152344 M 60.092979431152344,0.5 M 55.592979431152344,19.3 l 3.68,-2.1 M 0.5,24.5 V 0.5&#10;"/><g class="blocklyDraggable" transform="translate(61.592979431152344,0)"><path class="blocklyPathDark" transform="translate(1,1)" fill="#7a00b7" d="m 0,0 H 43.65714073181152 v 25 H 0 V 20 c 0,-10 -8,8 -8,-7.5 s 8,2.5 8,-7.5 z&#10;"/><path class="blocklyPath" fill="#9900e5" d="m 0,0 H 43.65714073181152 v 25 H 0 V 20 c 0,-10 -8,8 -8,-7.5 s 8,2.5 8,-7.5 z&#10;"/><path class="blocklyPathLight" stroke="#b84ded" d="m 0.5,0.5 H 43.15714073181152 M 43.15714073181152,0.5 M 0.5,24.5 V 18.5 m -7.36,-0.5 q -1.52,-5.5 0,-11 m 7.36,1 V 0.5 H 1&#10;"/><g class="blocklyEditableText" transform="translate(10,5)" style="cursor: default;"><rect rx="4" ry="4" x="-5" y="0" height="16" width="33.65714073181152"/><text class="blocklyText" y="12.5">x<tspan style="fill: rgb(153, 0, 229);"> ▾</tspan></text></g></g><text class="blocklyText" y="12.5" transform="translate(10,5)">izpiši</text><g class="blocklyDraggable" transform="translate(0,26)"><path class="blocklyPathDark" transform="translate(1,1)" fill="#7a00b7" d="m 0,0 H 15 l 6,4 3,0 6,-4 H 134.4301528930664 v 5 c 0,10 -8,-8 -8,7.5 s 8,-2.5 8,7.5 v 5 H 29.5 l -6,4 -3,0 -6,-4 H 8 a 8,8 0 0,1 -8,-8 z&#10;"/><path class="blocklyPath" fill="#9900e5" d="m 0,0 H 15 l 6,4 3,0 6,-4 H 134.4301528930664 v 5 c 0,10 -8,-8 -8,7.5 s 8,-2.5 8,7.5 v 5 H 29.5 l -6,4 -3,0 -6,-4 H 8 a 8,8 0 0,1 -8,-8 z&#10;"/><path class="blocklyPathLight" stroke="#b84ded" d="m 0.5,0.5 H 15 l 6,4 3,0 6,-4 H 133.9301528930664 M 133.9301528930664,0.5 M 129.4301528930664,19.3 l 3.68,-2.1 M 2.6966991411008934,22.303300858899107 A 7.5,7.5 0 0,1 0.5,17 V 0.5&#10;"/><g class="blocklyDraggable" transform="translate(135.4301528930664,0)"><path class="blocklyPathDark" transform="translate(1,1)" fill="#003db7" d="m 0,0 H 52.199180603027344 l 8,0 0,4 8,4 -16,8 8,4 v 4 H 0 V 20 c 0,-10 -8,8 -8,-7.5 s 8,2.5 8,-7.5 z&#10;"/><path class="blocklyPath" fill="#004ce5" d="m 0,0 H 52.199180603027344 l 8,0 0,4 8,4 -16,8 8,4 v 4 H 0 V 20 c 0,-10 -8,8 -8,-7.5 s 8,2.5 8,-7.5 z&#10;"/><path class="blocklyPathLight" stroke="#4d82ed" d="m 0.5,0.5 H 51.699180603027344 M 51.699180603027344,0.5 h 8 M 0.5,23.5 V 18.5 m -7.36,-0.5 q -1.52,-5.5 0,-11 m 7.36,1 V 0.5 H 1&#10;"/><g class="blocklyDraggable" style="display: none;"><path class="blocklyPathDark" transform="translate(1,1)" fill="#7a00b7" d="m 0,0 H 43.65714073181152 v 25 H 0 V 20 c 0,-10 -8,8 -8,-7.5 s 8,2.5 8,-7.5 z&#10;"/><path class="blocklyPath" fill="#9900e5" d="m 0,0 H 43.65714073181152 v 25 H 0 V 20 c 0,-10 -8,8 -8,-7.5 s 8,2.5 8,-7.5 z&#10;"/><path class="blocklyPathLight" stroke="#b84ded" d="m 0.5,0.5 H 43.15714073181152 M 43.15714073181152,0.5 M 0.5,24.5 V 18.5 m -7.36,-0.5 q -1.52,-5.5 0,-11 m 7.36,1 V 0.5 H 1&#10;"/><g class="blocklyEditableText" transform="translate(10,5)" style="cursor: default;"><rect rx="4" ry="4" x="-5" y="0" height="16" width="33.65714073181152"/><text class="blocklyText" y="12.5">x<tspan style="fill: rgb(153, 0, 229);"> ▾</tspan></text></g></g><g class="blocklyDraggable" style="display: none;"><path class="blocklyPathDark" transform="translate(1,1)" fill="#003db7" d="m 0,0 H 28.155407905578613 v 25 H 0 V 20 c 0,-10 -8,8 -8,-7.5 s 8,2.5 8,-7.5 z&#10;"/><path class="blocklyPath" fill="#004ce5" d="m 0,0 H 28.155407905578613 v 25 H 0 V 20 c 0,-10 -8,8 -8,-7.5 s 8,2.5 8,-7.5 z&#10;"/><path class="blocklyPathLight" stroke="#4d82ed" d="m 0.5,0.5 H 27.655407905578613 M 27.655407905578613,0.5 M 0.5,24.5 V 18.5 m -7.36,-0.5 q -1.52,-5.5 0,-11 m 7.36,1 V 0.5 H 1&#10;"/><g class="blocklyEditableText" transform="translate(10,5)" style="cursor: text;"><rect rx="4" ry="4" x="-5" y="0" height="16" width="18.155407905578613"/><text class="blocklyText" y="12.5">1</text></g></g><text class="blocklyText" y="12.5" transform="translate(10,5)">x + 1</text><g class="blocklyEditableText" style="display: none; cursor: default;"><rect rx="4" ry="4" x="-5" y="0" height="16"/><text class="blocklyText" y="12.5">+<tspan style="fill: rgb(0, 76, 229);"> ▾</tspan></text></g></g><text class="blocklyText" y="12.5" transform="translate(10,5)">nastavi</text><g class="blocklyEditableText" transform="translate(66.46219635009766,5)" style="cursor: default;"><rect rx="4" ry="4" x="-5" y="0" height="16" width="33.65714073181152"/><text class="blocklyText" y="12.5">x<tspan style="fill: rgb(153, 0, 229);"> ▾</tspan></text></g><text class="blocklyText" y="12.5" transform="translate(100.11933708190918,5)">na</text></g></g><g class="blocklyDraggable" transform="translate(135.4301528930664,0)"><path class="blocklyPathDark" transform="translate(1,1)" fill="#003db7" d="m 0,0 H 60.354591369628906 l 8,0 0,4 8,4 -16,8 8,4 v 4 H 0 V 20 c 0,-10 -8,8 -8,-7.5 s 8,2.5 8,-7.5 z&#10;"/><path class="blocklyPath" fill="#004ce5" d="m 0,0 H 60.354591369628906 l 8,0 0,4 8,4 -16,8 8,4 v 4 H 0 V 20 c 0,-10 -8,8 -8,-7.5 s 8,2.5 8,-7.5 z&#10;"/><path class="blocklyPathLight" stroke="#4d82ed" d="m 0.5,0.5 H 59.854591369628906 M 59.854591369628906,0.5 h 8 M 0.5,23.5 V 18.5 m -7.36,-0.5 q -1.52,-5.5 0,-11 m 7.36,1 V 0.5 H 1&#10;"/><g class="blocklyEditableText" transform="translate(71.65714073181152,10)" style="cursor: default; display: none;"><rect rx="4" ry="4" x="-5" y="0" height="16" width="34.8886833190918"/><text class="blocklyText" y="12.5">×<tspan style="fill: rgb(0, 76, 229);"> ▾</tspan></text></g><g class="blocklyDraggable" transform="translate(17,6)" style="display: none;"><path class="blocklyPathDark" transform="translate(1,1)" fill="#7a00b7" d="m 0,0 H 43.65714073181152 v 25 H 0 V 20 c 0,-10 -8,8 -8,-7.5 s 8,2.5 8,-7.5 z&#10;"/><path class="blocklyPath" fill="#9900e5" d="m 0,0 H 43.65714073181152 v 25 H 0 V 20 c 0,-10 -8,8 -8,-7.5 s 8,2.5 8,-7.5 z&#10;"/><path class="blocklyPathLight" stroke="#b84ded" d="m 0.5,0.5 H 43.15714073181152 M 43.15714073181152,0.5 M 0.5,24.5 V 18.5 m -7.36,-0.5 q -1.52,-5.5 0,-11 m 7.36,1 V 0.5 H 1&#10;"/><g class="blocklyEditableText" transform="translate(10,5)" style="cursor: default;"><rect rx="4" ry="4" x="-5" y="0" height="16" width="33.65714073181152"/><text class="blocklyText" y="12.5">x<tspan style="fill: rgb(153, 0, 229);"> ▾</tspan></text></g></g><g class="blocklyDraggable" transform="translate(113.54582405090332,6)" style="display: none;"><path class="blocklyPathDark" transform="translate(1,1)" fill="#003db7" d="m 0,0 H 36.31081581115723 v 25 H 0 V 20 c 0,-10 -8,8 -8,-7.5 s 8,2.5 8,-7.5 z&#10;"/><path class="blocklyPath" fill="#004ce5" d="m 0,0 H 36.31081581115723 v 25 H 0 V 20 c 0,-10 -8,8 -8,-7.5 s 8,2.5 8,-7.5 z&#10;"/><path class="blocklyPathLight" stroke="#4d82ed" d="m 0.5,0.5 H 35.81081581115723 M 35.81081581115723,0.5 M 0.5,24.5 V 18.5 m -7.36,-0.5 q -1.52,-5.5 0,-11 m 7.36,1 V 0.5 H 1&#10;"/><g class="blocklyEditableText" transform="translate(10,5)" style="cursor: text;"><rect rx="4" ry="4" x="-5" y="0" height="16" width="26.310815811157227"/><text class="blocklyText" y="12.5">10</text></g></g><text class="blocklyText" y="12.5" transform="translate(10,5)">x × 10</text></g></g></g></g></g></g></svg>