<svg xmlns="http://www.w3.org/2000/svg" viewBox="8 8 520.8030548095703 440" class="blocklySvg geras-renderer rin_light-theme" width="520.8030548095703" height="440" style="background-color: transparent"><style xmlns="http://www.w3.org/1999/xhtml">.geras-renderer.rin_light-theme .blocklyText, 
.geras-renderer.rin_light-theme .blocklyFlyoutLabelText {
font: normal 11pt sans-serif;
}
.geras-renderer.rin_light-theme .blocklyText {
fill: #fff;
}
.geras-renderer.rin_light-theme .blocklyNonEditableText&gt;rect,
.geras-renderer.rin_light-theme .blocklyEditableText&gt;rect {
fill: #fff;
fill-opacity: .6;
stroke: none;
}
.geras-renderer.rin_light-theme .blocklyNonEditableText&gt;text,
.geras-renderer.rin_light-theme .blocklyEditableText&gt;text {
fill: #000;
}
.geras-renderer.rin_light-theme .blocklyFlyoutLabelText {
fill: #000;
}
.geras-renderer.rin_light-theme .blocklyText.blocklyBubbleText {
fill: #000;
}
.geras-renderer.rin_light-theme .blocklyEditableText:not(.editing):hover&gt;rect {
stroke: #fff;
stroke-width: 2;
}
.geras-renderer.rin_light-theme .blocklyHtmlInput {
font-family: sans-serif;
font-weight: normal;
}
.geras-renderer.rin_light-theme .blocklySelected&gt;.blocklyPath {
stroke: #fc3;
stroke-width: 3px;
}
.geras-renderer.rin_light-theme .blocklyHighlightedConnectionPath {
stroke: #fc3;
}
.geras-renderer.rin_light-theme .blocklyReplaceable .blocklyPath {
fill-opacity: .5;
}
.geras-renderer.rin_light-theme .blocklyReplaceable .blocklyPathLight,
.geras-renderer.rin_light-theme .blocklyReplaceable .blocklyPathDark {
display: none;
}
.geras-renderer.rin_light-theme .blocklyInsertionMarker&gt;.blocklyPath {
fill-opacity: 0.2;
stroke: none;
}
.geras-renderer.rin_light-theme .blocklyInsertionMarker&gt;.blocklyPathLight,
.geras-renderer.rin_light-theme .blocklyInsertionMarker&gt;.blocklyPathDark {
fill-opacity: 0.2;
stroke: none;
}
.blocklySvg {
background-color: #fff;
outline: none;
overflow: hidden;
position: absolute;
display: block;
}
.blocklyWidgetDiv {
display: none;
position: absolute;
z-index: 99999;
}
.injectionDiv {
height: 100%;
position: relative;
overflow: hidden;
touch-action: none;
}
.blocklyNonSelectable {
user-select: none;
-ms-user-select: none;
-webkit-user-select: none;
}
.blocklyWsDragSurface {
display: none;
position: absolute;
top: 0;
left: 0;
}
.blocklyWsDragSurface.blocklyOverflowVisible {
overflow: visible;
}
.blocklyBlockDragSurface {
display: none;
position: absolute;
top: 0;
left: 0;
right: 0;
bottom: 0;
overflow: visible !important;
z-index: 50;
}
.blocklyBlockCanvas.blocklyCanvasTransitioning,
.blocklyBubbleCanvas.blocklyCanvasTransitioning {
transition: transform .5s;
}
.blocklyTooltipDiv {
background-color: #ffffc7;
border: 1px solid #ddc;
box-shadow: 4px 4px 20px 1px rgba(0,0,0,.15);
color: #000;
display: none;
font: 9pt sans-serif;
opacity: .9;
padding: 2px;
position: absolute;
z-index: 100000;
}
.blocklyDropDownDiv {
position: absolute;
left: 0;
top: 0;
z-index: 1000;
display: none;
border: 1px solid;
border-color: #dadce0;
background-color: #fff;
border-radius: 2px;
padding: 4px;
box-shadow: 0 0 3px 1px rgba(0,0,0,.3);
}
.blocklyDropDownDiv.blocklyFocused {
box-shadow: 0 0 6px 1px rgba(0,0,0,.3);
}
.blocklyDropDownContent {
max-height: 300px;
overflow: auto;
overflow-x: hidden;
position: relative;
}
.blocklyDropDownArrow {
position: absolute;
left: 0;
top: 0;
width: 16px;
height: 16px;
z-index: -1;
background-color: inherit;
border-color: inherit;
}
.blocklyDropDownButton {
display: inline-block;
float: left;
padding: 0;
margin: 4px;
border-radius: 4px;
outline: none;
border: 1px solid;
transition: box-shadow .1s;
cursor: pointer;
}
.blocklyArrowTop {
border-top: 1px solid;
border-left: 1px solid;
border-top-left-radius: 4px;
border-color: inherit;
}
.blocklyArrowBottom {
border-bottom: 1px solid;
border-right: 1px solid;
border-bottom-right-radius: 4px;
border-color: inherit;
}
.blocklyResizeSE {
cursor: se-resize;
fill: #aaa;
}
.blocklyResizeSW {
cursor: sw-resize;
fill: #aaa;
}
.blocklyResizeLine {
stroke: #515A5A;
stroke-width: 1;
}
.blocklyHighlightedConnectionPath {
fill: none;
stroke: #fc3;
stroke-width: 4px;
}
.blocklyPathLight {
fill: none;
stroke-linecap: round;
stroke-width: 1;
}
.blocklySelected&gt;.blocklyPathLight {
display: none;
}
.blocklyDraggable {
cursor: url("blockly/media/handopen.cur"), auto;
cursor: grab;
cursor: -webkit-grab;
}
.blocklyDragging {
cursor: url("blockly/media/handclosed.cur"), auto;
cursor: grabbing;
cursor: -webkit-grabbing;
}
.blocklyDraggable:active {
cursor: url("blockly/media/handclosed.cur"), auto;
cursor: grabbing;
cursor: -webkit-grabbing;
}
.blocklyBlockDragSurface .blocklyDraggable {
cursor: url("blockly/media/handclosed.cur"), auto;
cursor: grabbing;
cursor: -webkit-grabbing;
}
.blocklyDragging.blocklyDraggingDelete {
cursor: url("blockly/media/handdelete.cur"), auto;
}
.blocklyDragging&gt;.blocklyPath,
.blocklyDragging&gt;.blocklyPathLight {
fill-opacity: .8;
stroke-opacity: .8;
}
.blocklyDragging&gt;.blocklyPathDark {
display: none;
}
.blocklyDisabled&gt;.blocklyPath {
fill-opacity: .5;
stroke-opacity: .5;
}
.blocklyDisabled&gt;.blocklyPathLight,
.blocklyDisabled&gt;.blocklyPathDark {
display: none;
}
.blocklyInsertionMarker&gt;.blocklyPath,
.blocklyInsertionMarker&gt;.blocklyPathLight,
.blocklyInsertionMarker&gt;.blocklyPathDark {
fill-opacity: .2;
stroke: none;
}
.blocklyMultilineText {
font-family: monospace;
}
.blocklyNonEditableText&gt;text {
pointer-events: none;
}
.blocklyFlyout {
position: absolute;
z-index: 20;
}
.blocklyText text {
cursor: default;
}
.blocklySvg text,
.blocklyBlockDragSurface text {
user-select: none;
-ms-user-select: none;
-webkit-user-select: none;
cursor: inherit;
}
.blocklyHidden {
display: none;
}
.blocklyFieldDropdown:not(.blocklyHidden) {
display: block;
}
.blocklyIconGroup {
cursor: default;
}
.blocklyIconGroup:not(:hover),
.blocklyIconGroupReadonly {
opacity: .6;
}
.blocklyIconShape {
fill: #00f;
stroke: #fff;
stroke-width: 1px;
}
.blocklyIconSymbol {
fill: #fff;
}
.blocklyMinimalBody {
margin: 0;
padding: 0;
}
.blocklyHtmlInput {
border: none;
border-radius: 4px;
height: 100%;
margin: 0;
outline: none;
padding: 0;
width: 100%;
text-align: center;
display: block;
box-sizing: border-box;
}
.blocklyHtmlInput::-ms-clear {
display: none;
}
.blocklyMainBackground {
stroke-width: 1;
stroke: #c6c6c6;
}
.blocklyMutatorBackground {
fill: #fff;
stroke: #ddd;
stroke-width: 1;
}
.blocklyFlyoutBackground {
fill: #ddd;
fill-opacity: .8;
}
.blocklyMainWorkspaceScrollbar {
z-index: 20;
}
.blocklyFlyoutScrollbar {
z-index: 30;
}
.blocklyScrollbarHorizontal,
.blocklyScrollbarVertical {
position: absolute;
outline: none;
}
.blocklyScrollbarBackground {
opacity: 0;
}
.blocklyScrollbarHandle {
fill: #ccc;
}
.blocklyScrollbarBackground:hover+.blocklyScrollbarHandle,
.blocklyScrollbarHandle:hover {
fill: #bbb;
}
.blocklyFlyout .blocklyScrollbarHandle {
fill: #bbb;
}
.blocklyFlyout .blocklyScrollbarBackground:hover+.blocklyScrollbarHandle,
.blocklyFlyout .blocklyScrollbarHandle:hover {
fill: #aaa;
}
.blocklyInvalidInput {
background: #faa;
}
.blocklyVerticalMarker {
stroke-width: 3px;
fill: rgba(255,255,255,.5);
pointer-events: none;
}
.blocklyComputeCanvas {
position: absolute;
width: 0;
height: 0;
}
.blocklyNoPointerEvents {
pointer-events: none;
}
.blocklyContextMenu {
border-radius: 4px;
max-height: 100%;
}
.blocklyDropdownMenu {
border-radius: 2px;
padding: 0 !important;
}
.blocklyDropdownMenu .blocklyMenuItem {
padding-left: 28px;
}
.blocklyDropdownMenu .blocklyMenuItemRtl {
padding-left: 5px;
padding-right: 28px;
}
.blocklyWidgetDiv .blocklyMenu {
background: #fff;
border: 1px solid transparent;
box-shadow: 0 0 3px 1px rgba(0,0,0,.3);
font: normal 13px Arial, sans-serif;
margin: 0;
outline: none;
padding: 4px 0;
position: absolute;
overflow-y: auto;
overflow-x: hidden;
max-height: 100%;
z-index: 20000;
}
.blocklyWidgetDiv .blocklyMenu.blocklyFocused {
box-shadow: 0 0 6px 1px rgba(0,0,0,.3);
}
.blocklyDropDownDiv .blocklyMenu {
font: normal 13px "Helvetica Neue", Helvetica, sans-serif;
outline: none;
z-index: 20000;
}
.blocklyMenuItem {
border: none;
color: #000;
cursor: pointer;
list-style: none;
margin: 0;
min-width: 7em;
padding: 6px 15px;
white-space: nowrap;
}
.blocklyMenuItemDisabled {
color: #ccc;
cursor: inherit;
}
.blocklyMenuItemHighlight {
background-color: rgba(0,0,0,.1);
}
.blocklyMenuItemCheckbox {
height: 16px;
position: absolute;
width: 16px;
}
.blocklyMenuItemSelected .blocklyMenuItemCheckbox {
background: url(blockly/media/sprites.png) no-repeat -48px -16px;
float: left;
margin-left: -24px;
position: static;
}
.blocklyMenuItemRtl .blocklyMenuItemCheckbox {
float: right;
margin-right: -24px;
}
.blocklyCommentTextarea {
background-color: #fef49c;
border: 0;
outline: 0;
margin: 0;
padding: 3px;
resize: none;
display: block;
overflow: hidden;
}
.blocklyFlyoutButton {
fill: #888;
cursor: default;
}
.blocklyFlyoutButtonShadow {
fill: #666;
}
.blocklyFlyoutButton:hover {
fill: #aaa;
}
.blocklyFlyoutLabel {
cursor: default;
}
.blocklyFlyoutLabelBackground {
opacity: 0;
}
.blocklyTreeRow:not(.blocklyTreeSelected):hover {
background-color: rgba(255, 255, 255, 0.2);
}
.blocklyToolboxDiv[layout="h"] .blocklyToolboxCategory {
margin: 1px 5px 1px 0;
}
.blocklyToolboxDiv[dir="RTL"][layout="h"] .blocklyToolboxCategory {
margin: 1px 0 1px 5px;
}
.blocklyTreeRow {
height: 22px;
line-height: 22px;
margin-bottom: 3px;
padding-right: 8px;
white-space: nowrap;
}
.blocklyToolboxDiv[dir="RTL"] .blocklyTreeRow {
margin-left: 8px;
padding-right: 0px
}
.blocklyTreeIcon {
background-image: url(blockly/media/sprites.png);
height: 16px;
vertical-align: middle;
visibility: hidden;
width: 16px;
}
.blocklyTreeIconClosed {
background-position: -32px -1px;
}
.blocklyToolboxDiv[dir="RTL"] .blocklyTreeIconClosed {
background-position: 0 -1px;
}
.blocklyTreeSelected&gt;.blocklyTreeIconClosed {
background-position: -32px -17px;
}
.blocklyToolboxDiv[dir="RTL"] .blocklyTreeSelected&gt;.blocklyTreeIconClosed {
background-position: 0 -17px;
}
.blocklyTreeIconOpen {
background-position: -16px -1px;
}
.blocklyTreeSelected&gt;.blocklyTreeIconOpen {
background-position: -16px -17px;
}
.blocklyTreeLabel {
cursor: default;
font: 16px sans-serif;
padding: 0 3px;
vertical-align: middle;
}
.blocklyToolboxDelete .blocklyTreeLabel {
cursor: url("blockly/media/handdelete.cur"), auto;
}
.blocklyTreeSelected .blocklyTreeLabel {
color: #fff;
}
.blocklyTreeSeparator {
border-bottom: solid #e5e5e5 1px;
height: 0;
margin: 5px 0;
}
.blocklyToolboxDiv[layout="h"] .blocklyTreeSeparator {
border-right: solid #e5e5e5 1px;
border-bottom: none;
height: auto;
margin: 0 5px 0 5px;
padding: 5px 0;
width: 0;
}
.blocklyToolboxDelete {
cursor: url("blockly/media/handdelete.cur"), auto;
}
.blocklyToolboxGrab {
cursor: url("blockly/media/handclosed.cur"), auto;
cursor: grabbing;
cursor: -webkit-grabbing;
}
.blocklyToolboxDiv {
background-color: #ddd;
overflow-x: visible;
overflow-y: auto;
padding: 4px 0 4px 0;
position: absolute;
z-index: 70;
-webkit-tap-highlight-color: transparent;
}
.blocklyToolboxContents {
display: flex;
flex-wrap: wrap;
flex-direction: column;
}
.blocklyToolboxContents:focus {
outline: none;
}
.blocklyZoom&gt;image, .blocklyZoom&gt;svg&gt;image {
opacity: .4;
}
.blocklyZoom&gt;image:hover, .blocklyZoom&gt;svg&gt;image:hover {
opacity: .6;
}
.blocklyZoom&gt;image:active, .blocklyZoom&gt;svg&gt;image:active {
opacity: .8;
}
.blocklyAngleCircle {
stroke: #444;
stroke-width: 1;
fill: #ddd;
fill-opacity: .8;
}
.blocklyAngleMarks {
stroke: #444;
stroke-width: 1;
}
.blocklyAngleGauge {
fill: #f88;
fill-opacity: .8;
pointer-events: none;
}
.blocklyAngleLine {
stroke: #f00;
stroke-width: 2;
stroke-linecap: round;
pointer-events: none;
}
.blocklyColourTable {
border-collapse: collapse;
display: block;
outline: none;
padding: 1px;
}
.blocklyColourTable&gt;tr&gt;td {
border: .5px solid #888;
box-sizing: border-box;
cursor: pointer;
display: inline-block;
height: 20px;
padding: 0;
width: 20px;
}
.blocklyColourTable&gt;tr&gt;td.blocklyColourHighlighted {
border-color: #eee;
box-shadow: 2px 2px 7px 2px rgba(0,0,0,.3);
position: relative;
}
.blocklyColourSelected, .blocklyColourSelected:hover {
border-color: #eee !important;
outline: 1px solid #333;
position: relative;
}
.blocklyHtmlTextAreaInput {
font-family: monospace;
resize: none;
overflow: hidden;
height: 100%;
text-align: left;
}
undefined</style><g class="blocklyBlockCanvas"><g class="blocklyMarker"><g width="100" height="5"><rect width="100" height="5" style="display: none"/><rect class="blocklyVerticalMarker" rx="10" ry="10" style="display: none"/><path transform="" style="display: none"/><path transform="" style="display: none" fill="none" stroke-width="4"/></g></g><g class="blocklyCursor"><g width="100" height="5"><rect width="100" height="5" style="display: none"><animate attributeType="XML" attributeName="fill" dur="1s" values="#cc0a0a;transparent;transparent;" repeatCount="indefinite"/></rect><rect class="blocklyVerticalMarker" rx="10" ry="10" style="display: none"/><path transform="" style="display: none"><animate attributeType="XML" attributeName="fill" dur="1s" values="#cc0a0a;transparent;transparent;" repeatCount="indefinite"/></path><path transform="" style="display: none" fill="none" stroke-width="4"><animate attributeType="XML" attributeName="stroke" dur="1s" values="#cc0a0a;transparent;transparent;" repeatCount="indefinite"/></path></g></g><g data-id=")IM58-Vfb_v3:k-VM@+L" class="blocklyDraggable" transform="translate(8,8)"><path class="blocklyPathDark" transform="translate(1,1)" fill="#7a00b7" d=" m 0,0  m 0,8 a 8 8 0 0,1 8,-8  h 7  l 6,4  3,0  6,-4  h 105.22975158691406  v 5  H 135.22975158691406  V 5  H 135.22975158691406  c 0,10  -8,-8  -8,7.5  s 8,-2.5  8,7.5  v 3  H 135.22975158691406  V 23  V 27  h -105.72975158691406  l -6,4  -3,0  -6,-4  h -14.5  H 0 z&#10;"/><path class="blocklyPath" stroke="none" fill="#9900e5" d=" m 0,0  m 0,8 a 8 8 0 0,1 8,-8  h 7  l 6,4  3,0  6,-4  h 105.22975158691406  v 5  H 135.22975158691406  V 5  H 135.22975158691406  c 0,10  -8,-8  -8,7.5  s 8,-2.5  8,7.5  v 3  H 135.22975158691406  V 23  V 27  h -105.72975158691406  l -6,4  -3,0  -6,-4  h -14.5  H 0 z&#10;"/><path class="blocklyPathLight" stroke="#b84ded" d=" m 0,0  m 0.5,8 a 7.5 7.5 0 0,1 8,-7.5  H 14.5  h 0.5  l 6,4  3,0  6,-4  H 134.72975158691406  H 134.72975158691406  M 135.22975158691406,5  m -5,14.3  l 3.68,-2.1  M 0.5,26.5  V 8 &#10;"/><g data-id="-).FqpSoDo/lm4CdZ(%M" class="blocklyDraggable" style="display: block;" transform="translate(128.22975158691406,0)"><path class="blocklyPathDark" transform="translate(1,1)" fill="#003db7" d=" m 8,0  h 36.306365966796875  v 5  H 44.306365966796875  V 5  H 44.306365966796875  V 23  H 44.306365966796875  V 23  V 27  h -36.306365966796875  H 8  V 20  c 0,-10  -8,8  -8,-7.5  s 8,2.5  8,-7.5 z&#10;"/><path class="blocklyPath" stroke="none" fill="#004ce5" d=" m 8,0  h 36.306365966796875  v 5  H 44.306365966796875  V 5  H 44.306365966796875  V 23  H 44.306365966796875  V 23  V 27  h -36.306365966796875  H 8  V 20  c 0,-10  -8,8  -8,-7.5  s 8,2.5  8,-7.5 z&#10;"/><path class="blocklyPathLight" stroke="#4d82ed" d=" m 8,0  m 0.5,0.5  H 43.806365966796875  H 43.806365966796875  M 8.5,26.5  M 8.5,26.5  V 20  v -1.5  m -7.36,-0.5  q -1.52,-5.5  0,-11  m 7.36,1  V 0.5 &#10;"/><g class="blocklyEditableText" transform="translate(13,5)" style="cursor: text;"><rect rx="4" ry="4" x="0" y="0" height="18" width="26.306365966796875" class="blocklyFieldRect"/><text class="blocklyText" x="5" y="14">10</text></g></g><g transform="translate(10,5)"><text class="blocklyText" x="0" y="14">nastavi</text></g><g class="blocklyEditableText" transform="translate(61.44950866699219,5)" style="cursor: default;"><rect rx="4" ry="4" x="0" y="0" height="18" width="34.473876953125" class="blocklyFieldRect blocklyDropdownRect" stroke="#b84ded" fill="transparent"/><text class="blocklyText blocklyDropdownText" text-anchor="start" x="5" y="14">a<tspan style="fill: rgb(153, 0, 229);"> ▾</tspan></text><image style="display: none;"/></g><g transform="translate(100.92338562011719,5)"><text class="blocklyText" x="0" y="14">na</text></g><g data-id="T~+nyDB:4c8mTPJ|B|MJ" class="blocklyDraggable" transform="translate(0,28)"><path class="blocklyPathDark" transform="translate(1,1)" fill="#7a00b7" d=" m 0,0  h 15  l 6,4  3,0  6,-4  h 105.22975158691406  v 5  H 135.22975158691406  V 5  H 135.22975158691406  c 0,10  -8,-8  -8,7.5  s 8,-2.5  8,7.5  v 3  H 135.22975158691406  V 23  V 27  h -105.72975158691406  l -6,4  -3,0  -6,-4  h -14.5  H 0 z&#10;"/><path class="blocklyPath" stroke="none" fill="#9900e5" d=" m 0,0  h 15  l 6,4  3,0  6,-4  h 105.22975158691406  v 5  H 135.22975158691406  V 5  H 135.22975158691406  c 0,10  -8,-8  -8,7.5  s 8,-2.5  8,7.5  v 3  H 135.22975158691406  V 23  V 27  h -105.72975158691406  l -6,4  -3,0  -6,-4  h -14.5  H 0 z&#10;"/><path class="blocklyPathLight" stroke="#b84ded" d=" m 0,0  m 0.5,0.5  H 14.5  h 0.5  l 6,4  3,0  6,-4  H 134.72975158691406  H 134.72975158691406  M 135.22975158691406,5  m -5,14.3  l 3.68,-2.1  M 0.5,26.5  V 0.5 &#10;"/><g data-id="hiH@-kfS}0]fyDBzVNq`" class="blocklyDraggable" style="display: block;" transform="translate(128.22975158691406,0)"><path class="blocklyPathDark" transform="translate(1,1)" fill="#003db7" d=" m 8,0  h 28.153182983398438  v 5  H 36.15318298339844  V 5  H 36.15318298339844  V 23  H 36.15318298339844  V 23  V 27  h -28.153182983398438  H 8  V 20  c 0,-10  -8,8  -8,-7.5  s 8,2.5  8,-7.5 z&#10;"/><path class="blocklyPath" stroke="none" fill="#004ce5" d=" m 8,0  h 28.153182983398438  v 5  H 36.15318298339844  V 5  H 36.15318298339844  V 23  H 36.15318298339844  V 23  V 27  h -28.153182983398438  H 8  V 20  c 0,-10  -8,8  -8,-7.5  s 8,2.5  8,-7.5 z&#10;"/><path class="blocklyPathLight" stroke="#4d82ed" d=" m 8,0  m 0.5,0.5  H 35.65318298339844  H 35.65318298339844  M 8.5,26.5  M 8.5,26.5  V 20  v -1.5  m -7.36,-0.5  q -1.52,-5.5  0,-11  m 7.36,1  V 0.5 &#10;"/><g class="blocklyEditableText" transform="translate(13,5)" style="cursor: text;"><rect rx="4" ry="4" x="0" y="0" height="18" width="18.153182983398438" class="blocklyFieldRect"/><text class="blocklyText" x="5" y="14">3</text></g></g><g transform="translate(10,5)"><text class="blocklyText" x="0" y="14">nastavi</text></g><g class="blocklyEditableText" transform="translate(61.44950866699219,5)" style="cursor: default;"><rect rx="4" ry="4" x="0" y="0" height="18" width="34.473876953125" class="blocklyFieldRect blocklyDropdownRect" stroke="#b84ded" fill="transparent"/><text class="blocklyText blocklyDropdownText" text-anchor="start" x="5" y="14">u<tspan style="fill: rgb(153, 0, 229);"> ▾</tspan></text><image style="display: none;"/></g><g transform="translate(100.92338562011719,5)"><text class="blocklyText" x="0" y="14">na</text></g><g data-id="zcT5LqHmf1I:(6|[r-P!" class="blocklyDraggable" transform="translate(0,28)"><path class="blocklyPathDark" transform="translate(1,1)" fill="#7a00b7" d=" m 0,0  h 15  l 6,4  3,0  6,-4  h 109.2884521484375  v 5  H 139.2884521484375  V 5  H 139.2884521484375  c 0,10  -8,-8  -8,7.5  s 8,-2.5  8,7.5  v 3  H 139.2884521484375  V 23  V 27  h -109.7884521484375  l -6,4  -3,0  -6,-4  h -14.5  H 0 z&#10;"/><path class="blocklyPath" stroke="none" fill="#9900e5" d=" m 0,0  h 15  l 6,4  3,0  6,-4  h 109.2884521484375  v 5  H 139.2884521484375  V 5  H 139.2884521484375  c 0,10  -8,-8  -8,7.5  s 8,-2.5  8,7.5  v 3  H 139.2884521484375  V 23  V 27  h -109.7884521484375  l -6,4  -3,0  -6,-4  h -14.5  H 0 z&#10;"/><path class="blocklyPathLight" stroke="#b84ded" d=" m 0,0  m 0.5,0.5  H 14.5  h 0.5  l 6,4  3,0  6,-4  H 138.7884521484375  H 138.7884521484375  M 139.2884521484375,5  m -5,14.3  l 3.68,-2.1  M 0.5,26.5  V 0.5 &#10;"/><g data-id="cD[@FQ.{S{d5Vb$+A#bR" class="blocklyDraggable" style="display: block;" transform="translate(132.2884521484375,0)"><path class="blocklyPathDark" transform="translate(1,1)" fill="#003db7" d=" m 8,0  h 28.153182983398438  v 5  H 36.15318298339844  V 5  H 36.15318298339844  V 23  H 36.15318298339844  V 23  V 27  h -28.153182983398438  H 8  V 20  c 0,-10  -8,8  -8,-7.5  s 8,2.5  8,-7.5 z&#10;"/><path class="blocklyPath" stroke="none" fill="#004ce5" d=" m 8,0  h 28.153182983398438  v 5  H 36.15318298339844  V 5  H 36.15318298339844  V 23  H 36.15318298339844  V 23  V 27  h -28.153182983398438  H 8  V 20  c 0,-10  -8,8  -8,-7.5  s 8,2.5  8,-7.5 z&#10;"/><path class="blocklyPathLight" stroke="#4d82ed" d=" m 8,0  m 0.5,0.5  H 35.65318298339844  H 35.65318298339844  M 8.5,26.5  M 8.5,26.5  V 20  v -1.5  m -7.36,-0.5  q -1.52,-5.5  0,-11  m 7.36,1  V 0.5 &#10;"/><g class="blocklyEditableText" transform="translate(13,5)" style="cursor: text;"><rect rx="4" ry="4" x="0" y="0" height="18" width="18.153182983398438" class="blocklyFieldRect"/><text class="blocklyText" x="5" y="14">5</text></g></g><g transform="translate(10,5)"><text class="blocklyText" x="0" y="14">nastavi</text></g><g class="blocklyEditableText" transform="translate(61.44950866699219,5)" style="cursor: default;"><rect rx="4" ry="4" x="0" y="0" height="18" width="38.53257751464844" class="blocklyFieldRect blocklyDropdownRect" stroke="#b84ded" fill="transparent"/><text class="blocklyText blocklyDropdownText" text-anchor="start" x="5" y="14">m<tspan style="fill: rgb(153, 0, 229);"> ▾</tspan></text><image style="display: none;"/></g><g transform="translate(104.98208618164062,5)"><text class="blocklyText" x="0" y="14">na</text></g><g data-id="a(Hm9@LVc,ZfQ{UitylU" class="blocklyDraggable" transform="translate(0,28)"><path class="blocklyPathDark" transform="translate(1,1)" fill="#7a00b7" d=" m 0,0  h 15  l 6,4  3,0  6,-4  h 105.22975158691406  v 5  H 135.22975158691406  V 5  H 135.22975158691406  c 0,10  -8,-8  -8,7.5  s 8,-2.5  8,7.5  v 3  H 135.22975158691406  V 23  V 27  h -105.72975158691406  l -6,4  -3,0  -6,-4  h -14.5  H 0 z&#10;"/><path class="blocklyPath" stroke="none" fill="#9900e5" d=" m 0,0  h 15  l 6,4  3,0  6,-4  h 105.22975158691406  v 5  H 135.22975158691406  V 5  H 135.22975158691406  c 0,10  -8,-8  -8,7.5  s 8,-2.5  8,7.5  v 3  H 135.22975158691406  V 23  V 27  h -105.72975158691406  l -6,4  -3,0  -6,-4  h -14.5  H 0 z&#10;"/><path class="blocklyPathLight" stroke="#b84ded" d=" m 0,0  m 0.5,0.5  H 14.5  h 0.5  l 6,4  3,0  6,-4  H 134.72975158691406  H 134.72975158691406  M 135.22975158691406,5  m -5,14.3  l 3.68,-2.1  M 0.5,26.5  V 0.5 &#10;"/><g data-id="/jb^n)9F0[:]|6Rf0wf^" class="blocklyDraggable" style="display: block;" transform="translate(128.22975158691406,0)"><path class="blocklyPathDark" transform="translate(1,1)" fill="#003db7" d=" m 8,0  h 36.306365966796875  v 5  H 44.306365966796875  V 5  H 44.306365966796875  V 23  H 44.306365966796875  V 23  V 27  h -36.306365966796875  H 8  V 20  c 0,-10  -8,8  -8,-7.5  s 8,2.5  8,-7.5 z&#10;"/><path class="blocklyPath" stroke="none" fill="#004ce5" d=" m 8,0  h 36.306365966796875  v 5  H 44.306365966796875  V 5  H 44.306365966796875  V 23  H 44.306365966796875  V 23  V 27  h -36.306365966796875  H 8  V 20  c 0,-10  -8,8  -8,-7.5  s 8,2.5  8,-7.5 z&#10;"/><path class="blocklyPathLight" stroke="#4d82ed" d=" m 8,0  m 0.5,0.5  H 43.806365966796875  H 43.806365966796875  M 8.5,26.5  M 8.5,26.5  V 20  v -1.5  m -7.36,-0.5  q -1.52,-5.5  0,-11  m 7.36,1  V 0.5 &#10;"/><g class="blocklyEditableText" transform="translate(13,5)" style="cursor: text;"><rect rx="4" ry="4" x="0" y="0" height="18" width="26.306365966796875" class="blocklyFieldRect"/><text class="blocklyText" x="5" y="14">20</text></g></g><g transform="translate(10,5)"><text class="blocklyText" x="0" y="14">nastavi</text></g><g class="blocklyEditableText" transform="translate(61.44950866699219,5)" style="cursor: default;"><rect rx="4" ry="4" x="0" y="0" height="18" width="34.473876953125" class="blocklyFieldRect blocklyDropdownRect" stroke="#b84ded" fill="transparent"/><text class="blocklyText blocklyDropdownText" text-anchor="start" x="5" y="14">b<tspan style="fill: rgb(153, 0, 229);"> ▾</tspan></text><image style="display: none;"/></g><g transform="translate(100.92338562011719,5)"><text class="blocklyText" x="0" y="14">na</text></g><g data-id="*{3#B;ZV)*W@{=~7[V_a" class="blocklyDraggable" transform="translate(0,28)"><path class="blocklyPathDark" transform="translate(1,1)" fill="#7a00b7" d=" m 0,0  h 15  l 6,4  3,0  6,-4  h 105.22975158691406  v 5  H 135.22975158691406  V 5  H 135.22975158691406  c 0,10  -8,-8  -8,7.5  s 8,-2.5  8,7.5  v 3  H 135.22975158691406  V 23  V 27  h -105.72975158691406  l -6,4  -3,0  -6,-4  h -14.5  H 0 z&#10;"/><path class="blocklyPath" stroke="none" fill="#9900e5" d=" m 0,0  h 15  l 6,4  3,0  6,-4  h 105.22975158691406  v 5  H 135.22975158691406  V 5  H 135.22975158691406  c 0,10  -8,-8  -8,7.5  s 8,-2.5  8,7.5  v 3  H 135.22975158691406  V 23  V 27  h -105.72975158691406  l -6,4  -3,0  -6,-4  h -14.5  H 0 z&#10;"/><path class="blocklyPathLight" stroke="#b84ded" d=" m 0,0  m 0.5,0.5  H 14.5  h 0.5  l 6,4  3,0  6,-4  H 134.72975158691406  H 134.72975158691406  M 135.22975158691406,5  m -5,14.3  l 3.68,-2.1  M 0.5,26.5  V 0.5 &#10;"/><g data-id="II`I;lFXm?v3!sB:)Oy@" class="blocklyDraggable" style="display: block;" transform="translate(128.22975158691406,0)"><path class="blocklyPathDark" transform="translate(1,1)" fill="#003db7" d=" m 8,0  h 36.306365966796875  v 5  H 44.306365966796875  V 5  H 44.306365966796875  V 23  H 44.306365966796875  V 23  V 27  h -36.306365966796875  H 8  V 20  c 0,-10  -8,8  -8,-7.5  s 8,2.5  8,-7.5 z&#10;"/><path class="blocklyPath" stroke="none" fill="#004ce5" d=" m 8,0  h 36.306365966796875  v 5  H 44.306365966796875  V 5  H 44.306365966796875  V 23  H 44.306365966796875  V 23  V 27  h -36.306365966796875  H 8  V 20  c 0,-10  -8,8  -8,-7.5  s 8,2.5  8,-7.5 z&#10;"/><path class="blocklyPathLight" stroke="#4d82ed" d=" m 8,0  m 0.5,0.5  H 43.806365966796875  H 43.806365966796875  M 8.5,26.5  M 8.5,26.5  V 20  v -1.5  m -7.36,-0.5  q -1.52,-5.5  0,-11  m 7.36,1  V 0.5 &#10;"/><g class="blocklyEditableText" transform="translate(13,5)" style="cursor: text;"><rect rx="4" ry="4" x="0" y="0" height="18" width="26.306365966796875" class="blocklyFieldRect"/><text class="blocklyText" x="5" y="14">30</text></g></g><g transform="translate(10,5)"><text class="blocklyText" x="0" y="14">nastavi</text></g><g class="blocklyEditableText" transform="translate(61.44950866699219,5)" style="cursor: default;"><rect rx="4" ry="4" x="0" y="0" height="18" width="34.473876953125" class="blocklyFieldRect blocklyDropdownRect" stroke="#b84ded" fill="transparent"/><text class="blocklyText blocklyDropdownText" text-anchor="start" x="5" y="14">n<tspan style="fill: rgb(153, 0, 229);"> ▾</tspan></text><image style="display: none;"/></g><g transform="translate(100.92338562011719,5)"><text class="blocklyText" x="0" y="14">na</text></g><g data-id="Y%sh0_U)B:B;Pj.9ukI!" class="blocklyDraggable" transform="translate(0,28)"><path class="blocklyPathDark" transform="translate(1,1)" fill="#b79900" d=" m 0,0  h 15  l 6,4  3,0  6,-4  h 383.7865295410156  v 5  H 413.7865295410156  V 5  H 413.7865295410156  V 23  H 413.7865295410156  V 23  V 27  h -384.2865295410156  l -6,4  -3,0  -6,-4  h -14.5  H 0 z&#10;"/><path class="blocklyPath" stroke="none" fill="#e5bf00" d=" m 0,0  h 15  l 6,4  3,0  6,-4  h 383.7865295410156  v 5  H 413.7865295410156  V 5  H 413.7865295410156  V 23  H 413.7865295410156  V 23  V 27  h -384.2865295410156  l -6,4  -3,0  -6,-4  h -14.5  H 0 z&#10;"/><path class="blocklyPathLight" stroke="#edd24d" d=" m 0,0  m 0.5,0.5  H 14.5  h 0.5  l 6,4  3,0  6,-4  H 413.2865295410156  H 413.2865295410156  M 0.5,26.5  V 0.5 &#10;"/><g transform="translate(10,5)"><text class="blocklyText" x="0" y="14">komentiraj</text></g><g class="blocklyEditableText" transform="translate(82.62344360351562,5)" style="cursor: text;"><rect rx="4" ry="4" x="0" y="0" height="18" width="326.1630859375" class="blocklyFieldRect"/><text class="blocklyText" x="5" y="14">koliko časa en delavec porabi za m metrov kabla</text></g><g data-id="As.RNGQ#]$CG9kJ_Kp9r" class="blocklyDraggable" transform="translate(0,28)"><path class="blocklyPathDark" transform="translate(1,1)" fill="#7a00b7" d=" m 0,0  h 15  l 6,4  3,0  6,-4  h 191.59335327148438  v 5  H 221.59335327148438  V 5  H 221.59335327148438  c 0,10  -8,-8  -8,7.5  s 8,-2.5  8,7.5  v 14  H 221.59335327148438  V 34  V 38  h -192.09335327148438  l -6,4  -3,0  -6,-4  h -14.5  H 0 z&#10;"/><path class="blocklyPath" stroke="none" fill="#9900e5" d=" m 0,0  h 15  l 6,4  3,0  6,-4  h 191.59335327148438  v 5  H 221.59335327148438  V 5  H 221.59335327148438  c 0,10  -8,-8  -8,7.5  s 8,-2.5  8,7.5  v 14  H 221.59335327148438  V 34  V 38  h -192.09335327148438  l -6,4  -3,0  -6,-4  h -14.5  H 0 z&#10;"/><path class="blocklyPathLight" stroke="#b84ded" d=" m 0,0  m 0.5,0.5  H 14.5  h 0.5  l 6,4  3,0  6,-4  H 221.09335327148438  H 221.09335327148438  M 221.59335327148438,5  m -5,14.3  l 3.68,-2.1  M 0.5,37.5  V 0.5 &#10;"/><g data-id="e#CjKwJae}ID}gU/x=|D" class="blocklyDraggable" style="display: block;" transform="translate(214.59335327148438,0)"><path class="blocklyPathDark" transform="translate(1,1)" fill="#003db7" d=" m 8,0  h 169.82965087890625  v 5  H 177.82965087890625  V 5  H 177.82965087890625  V 34  H 177.82965087890625  V 34  V 38  h -169.82965087890625  H 8  V 20  c 0,-10  -8,8  -8,-7.5  s 8,2.5  8,-7.5 z&#10; M 24,5  v 5  c 0,10  -8,-8  -8,7.5  s 8,-2.5  8,7.5  v 9  h 46.473876953125  v -29 z M 121.35577392578125,5  v 5  c 0,10  -8,-8  -8,7.5  s 8,-2.5  8,7.5  v 9  h 46.473876953125  v -29 z"/><path class="blocklyPath" stroke="none" fill="#004ce5" d=" m 8,0  h 169.82965087890625  v 5  H 177.82965087890625  V 5  H 177.82965087890625  V 34  H 177.82965087890625  V 34  V 38  h -169.82965087890625  H 8  V 20  c 0,-10  -8,8  -8,-7.5  s 8,2.5  8,-7.5 z&#10; M 24,5  v 5  c 0,10  -8,-8  -8,7.5  s 8,-2.5  8,7.5  v 9  h 46.473876953125  v -29 z M 121.35577392578125,5  v 5  c 0,10  -8,-8  -8,7.5  s 8,-2.5  8,7.5  v 9  h 46.473876953125  v -29 z"/><path class="blocklyPathLight" stroke="#4d82ed" d=" m 8,0  m 0.5,0.5  H 177.32965087890625  H 177.32965087890625  M 8.5,37.5  M 8.5,37.5  V 20  v -1.5  m -7.36,-0.5  q -1.52,-5.5  0,-11  m 7.36,1  V 0.5 &#10; M 70.973876953125,5.5  v 29  h -46.473876953125  M 24,10  m -5,14.3  l 3.68,-2.1  M 168.32965087890625,5.5  v 29  h -46.473876953125  M 121.35577392578125,10  m -5,14.3  l 3.68,-2.1 "/><g data-id="i?i.MAbIe9m0bkc0x!wV" class="blocklyDraggable" style="display: block;" transform="translate(17,6)"><path class="blocklyPathDark" transform="translate(1,1)" fill="#7a00b7" d=" m 8,0  h 44.473876953125  v 5  H 52.473876953125  V 5  H 52.473876953125  V 23  H 52.473876953125  V 23  V 27  h -44.473876953125  H 8  V 20  c 0,-10  -8,8  -8,-7.5  s 8,2.5  8,-7.5 z&#10;"/><path class="blocklyPath" stroke="none" fill="#9900e5" d=" m 8,0  h 44.473876953125  v 5  H 52.473876953125  V 5  H 52.473876953125  V 23  H 52.473876953125  V 23  V 27  h -44.473876953125  H 8  V 20  c 0,-10  -8,8  -8,-7.5  s 8,2.5  8,-7.5 z&#10;"/><path class="blocklyPathLight" stroke="#b84ded" d=" m 8,0  m 0.5,0.5  H 51.973876953125  H 51.973876953125  M 8.5,26.5  M 8.5,26.5  V 20  v -1.5  m -7.36,-0.5  q -1.52,-5.5  0,-11  m 7.36,1  V 0.5 &#10;"/><g class="blocklyEditableText" transform="translate(13,5)" style="cursor: default;"><rect rx="4" ry="4" x="0" y="0" height="18" width="34.473876953125" class="blocklyFieldRect blocklyDropdownRect" stroke="#b84ded" fill="transparent"/><text class="blocklyText blocklyDropdownText" text-anchor="start" x="5" y="14">a<tspan style="fill: rgb(153, 0, 229);"> ▾</tspan></text><image style="display: none;"/></g></g><g data-id="#l;#r.)Yu5kU+S+aXIQH" class="blocklyDraggable" style="display: block;" transform="translate(114.35577392578125,6)"><path class="blocklyPathDark" transform="translate(1,1)" fill="#7a00b7" d=" m 8,0  h 44.473876953125  v 5  H 52.473876953125  V 5  H 52.473876953125  V 23  H 52.473876953125  V 23  V 27  h -44.473876953125  H 8  V 20  c 0,-10  -8,8  -8,-7.5  s 8,2.5  8,-7.5 z&#10;"/><path class="blocklyPath" stroke="none" fill="#9900e5" d=" m 8,0  h 44.473876953125  v 5  H 52.473876953125  V 5  H 52.473876953125  V 23  H 52.473876953125  V 23  V 27  h -44.473876953125  H 8  V 20  c 0,-10  -8,8  -8,-7.5  s 8,2.5  8,-7.5 z&#10;"/><path class="blocklyPathLight" stroke="#b84ded" d=" m 8,0  m 0.5,0.5  H 51.973876953125  H 51.973876953125  M 8.5,26.5  M 8.5,26.5  V 20  v -1.5  m -7.36,-0.5  q -1.52,-5.5  0,-11  m 7.36,1  V 0.5 &#10;"/><g class="blocklyEditableText" transform="translate(13,5)" style="cursor: default;"><rect rx="4" ry="4" x="0" y="0" height="18" width="34.473876953125" class="blocklyFieldRect blocklyDropdownRect" stroke="#b84ded" fill="transparent"/><text class="blocklyText blocklyDropdownText" text-anchor="start" x="5" y="14">u<tspan style="fill: rgb(153, 0, 229);"> ▾</tspan></text><image style="display: none;"/></g></g><g class="blocklyEditableText" transform="translate(75.473876953125,10)" style="cursor: default;"><rect rx="4" ry="4" x="0" y="0" height="18" width="34.88189697265625" class="blocklyFieldRect blocklyDropdownRect" stroke="#4d82ed" fill="transparent"/><text class="blocklyText blocklyDropdownText" text-anchor="start" x="5" y="14">×<tspan style="fill: rgb(0, 76, 229);"> ▾</tspan></text><image style="display: none;"/></g></g><g transform="translate(10,5)"><text class="blocklyText" x="0" y="14">nastavi</text></g><g class="blocklyEditableText" transform="translate(61.44950866699219,5)" style="cursor: default;"><rect rx="4" ry="4" x="0" y="0" height="18" width="120.83747863769531" class="blocklyFieldRect blocklyDropdownRect" stroke="#b84ded" fill="transparent"/><text class="blocklyText blocklyDropdownText" text-anchor="start" x="5" y="14">casNaDelavca<tspan style="fill: rgb(153, 0, 229);"> ▾</tspan></text><image style="display: none;"/></g><g transform="translate(187.2869873046875,5)"><text class="blocklyText" x="0" y="14">na</text></g><g data-id="%xDW[RKi*x1$u_(kp`W1" class="blocklyDraggable" transform="translate(0,39)"><path class="blocklyPathDark" transform="translate(1,1)" fill="#b79900" d=" m 0,0  h 15  l 6,4  3,0  6,-4  h 380.5509948730469  v 5  H 410.5509948730469  V 5  H 410.5509948730469  V 23  H 410.5509948730469  V 23  V 27  h -381.0509948730469  l -6,4  -3,0  -6,-4  h -14.5  H 0 z&#10;"/><path class="blocklyPath" stroke="none" fill="#e5bf00" d=" m 0,0  h 15  l 6,4  3,0  6,-4  h 380.5509948730469  v 5  H 410.5509948730469  V 5  H 410.5509948730469  V 23  H 410.5509948730469  V 23  V 27  h -381.0509948730469  l -6,4  -3,0  -6,-4  h -14.5  H 0 z&#10;"/><path class="blocklyPathLight" stroke="#edd24d" d=" m 0,0  m 0.5,0.5  H 14.5  h 0.5  l 6,4  3,0  6,-4  H 410.0509948730469  H 410.0509948730469  M 0.5,26.5  V 0.5 &#10;"/><g transform="translate(10,5)"><text class="blocklyText" x="0" y="14">komentiraj</text></g><g class="blocklyEditableText" transform="translate(82.62344360351562,5)" style="cursor: text;"><rect rx="4" ry="4" x="0" y="0" height="18" width="322.92755126953125" class="blocklyFieldRect"/><text class="blocklyText" x="5" y="14">koliko časa en delavec porabi za en meter kabla</text></g><g data-id="g}tydRJO-7p:M?n{UqLb" class="blocklyDraggable" transform="translate(0,28)"><path class="blocklyPathDark" transform="translate(1,1)" fill="#7a00b7" d=" m 0,0  h 15  l 6,4  3,0  6,-4  h 229.06649780273438  v 5  H 259.0664978027344  V 5  H 259.0664978027344  c 0,10  -8,-8  -8,7.5  s 8,-2.5  8,7.5  v 14  H 259.0664978027344  V 34  V 38  h -229.56649780273438  l -6,4  -3,0  -6,-4  h -14.5  H 0 z&#10;"/><path class="blocklyPath" stroke="none" fill="#9900e5" d=" m 0,0  h 15  l 6,4  3,0  6,-4  h 229.06649780273438  v 5  H 259.0664978027344  V 5  H 259.0664978027344  c 0,10  -8,-8  -8,7.5  s 8,-2.5  8,7.5  v 14  H 259.0664978027344  V 34  V 38  h -229.56649780273438  l -6,4  -3,0  -6,-4  h -14.5  H 0 z&#10;"/><path class="blocklyPathLight" stroke="#b84ded" d=" m 0,0  m 0.5,0.5  H 14.5  h 0.5  l 6,4  3,0  6,-4  H 258.5664978027344  H 258.5664978027344  M 259.0664978027344,5  m -5,14.3  l 3.68,-2.1  M 0.5,37.5  V 0.5 &#10;"/><g data-id=".)U~n19Hd2r=)4$7~w6i" class="blocklyDraggable" style="display: block;" transform="translate(252.06649780273438,0)"><path class="blocklyPathDark" transform="translate(1,1)" fill="#003db7" d=" m 8,0  h 259.73655700683594  v 5  H 267.73655700683594  V 5  H 267.73655700683594  V 34  H 267.73655700683594  V 34  V 38  h -259.73655700683594  H 8  V 20  c 0,-10  -8,8  -8,-7.5  s 8,2.5  8,-7.5 z&#10; M 24,5  v 5  c 0,10  -8,-8  -8,7.5  s 8,-2.5  8,7.5  v 9  h 132.8374786376953  v -29 z M 207.2039794921875,5  v 5  c 0,10  -8,-8  -8,7.5  s 8,-2.5  8,7.5  v 9  h 50.53257751464844  v -29 z"/><path class="blocklyPath" stroke="none" fill="#004ce5" d=" m 8,0  h 259.73655700683594  v 5  H 267.73655700683594  V 5  H 267.73655700683594  V 34  H 267.73655700683594  V 34  V 38  h -259.73655700683594  H 8  V 20  c 0,-10  -8,8  -8,-7.5  s 8,2.5  8,-7.5 z&#10; M 24,5  v 5  c 0,10  -8,-8  -8,7.5  s 8,-2.5  8,7.5  v 9  h 132.8374786376953  v -29 z M 207.2039794921875,5  v 5  c 0,10  -8,-8  -8,7.5  s 8,-2.5  8,7.5  v 9  h 50.53257751464844  v -29 z"/><path class="blocklyPathLight" stroke="#4d82ed" d=" m 8,0  m 0.5,0.5  H 267.23655700683594  H 267.23655700683594  M 8.5,37.5  M 8.5,37.5  V 20  v -1.5  m -7.36,-0.5  q -1.52,-5.5  0,-11  m 7.36,1  V 0.5 &#10; M 157.3374786376953,5.5  v 29  h -132.8374786376953  M 24,10  m -5,14.3  l 3.68,-2.1  M 258.23655700683594,5.5  v 29  h -50.53257751464844  M 207.2039794921875,10  m -5,14.3  l 3.68,-2.1 "/><g data-id="|Wf]#ib%yNL7;%YR|nt2" class="blocklyDraggable" style="display: block;" transform="translate(17,6)"><path class="blocklyPathDark" transform="translate(1,1)" fill="#7a00b7" d=" m 8,0  h 130.8374786376953  v 5  H 138.8374786376953  V 5  H 138.8374786376953  V 23  H 138.8374786376953  V 23  V 27  h -130.8374786376953  H 8  V 20  c 0,-10  -8,8  -8,-7.5  s 8,2.5  8,-7.5 z&#10;"/><path class="blocklyPath" stroke="none" fill="#9900e5" d=" m 8,0  h 130.8374786376953  v 5  H 138.8374786376953  V 5  H 138.8374786376953  V 23  H 138.8374786376953  V 23  V 27  h -130.8374786376953  H 8  V 20  c 0,-10  -8,8  -8,-7.5  s 8,2.5  8,-7.5 z&#10;"/><path class="blocklyPathLight" stroke="#b84ded" d=" m 8,0  m 0.5,0.5  H 138.3374786376953  H 138.3374786376953  M 8.5,26.5  M 8.5,26.5  V 20  v -1.5  m -7.36,-0.5  q -1.52,-5.5  0,-11  m 7.36,1  V 0.5 &#10;"/><g class="blocklyEditableText" transform="translate(13,5)" style="cursor: default;"><rect rx="4" ry="4" x="0" y="0" height="18" width="120.83747863769531" class="blocklyFieldRect blocklyDropdownRect" stroke="#b84ded" fill="transparent"/><text class="blocklyText blocklyDropdownText" text-anchor="start" x="5" y="14">casNaDelavca<tspan style="fill: rgb(153, 0, 229);"> ▾</tspan></text><image style="display: none;"/></g></g><g data-id="MJLsG`yp;DvR$~tR@Cb!" class="blocklyDraggable" style="display: block;" transform="translate(200.2039794921875,6)"><path class="blocklyPathDark" transform="translate(1,1)" fill="#7a00b7" d=" m 8,0  h 48.53257751464844  v 5  H 56.53257751464844  V 5  H 56.53257751464844  V 23  H 56.53257751464844  V 23  V 27  h -48.53257751464844  H 8  V 20  c 0,-10  -8,8  -8,-7.5  s 8,2.5  8,-7.5 z&#10;"/><path class="blocklyPath" stroke="none" fill="#9900e5" d=" m 8,0  h 48.53257751464844  v 5  H 56.53257751464844  V 5  H 56.53257751464844  V 23  H 56.53257751464844  V 23  V 27  h -48.53257751464844  H 8  V 20  c 0,-10  -8,8  -8,-7.5  s 8,2.5  8,-7.5 z&#10;"/><path class="blocklyPathLight" stroke="#b84ded" d=" m 8,0  m 0.5,0.5  H 56.03257751464844  H 56.03257751464844  M 8.5,26.5  M 8.5,26.5  V 20  v -1.5  m -7.36,-0.5  q -1.52,-5.5  0,-11  m 7.36,1  V 0.5 &#10;"/><g class="blocklyEditableText" transform="translate(13,5)" style="cursor: default;"><rect rx="4" ry="4" x="0" y="0" height="18" width="38.53257751464844" class="blocklyFieldRect blocklyDropdownRect" stroke="#b84ded" fill="transparent"/><text class="blocklyText blocklyDropdownText" text-anchor="start" x="5" y="14">m<tspan style="fill: rgb(153, 0, 229);"> ▾</tspan></text><image style="display: none;"/></g></g><g class="blocklyEditableText" transform="translate(161.8374786376953,10)" style="cursor: default;"><rect rx="4" ry="4" x="0" y="0" height="18" width="34.36650085449219" class="blocklyFieldRect blocklyDropdownRect" stroke="#4d82ed" fill="transparent"/><text class="blocklyText blocklyDropdownText" text-anchor="start" x="5" y="14">÷<tspan style="fill: rgb(0, 76, 229);"> ▾</tspan></text><image style="display: none;"/></g></g><g transform="translate(10,5)"><text class="blocklyText" x="0" y="14">nastavi</text></g><g class="blocklyEditableText" transform="translate(61.44950866699219,5)" style="cursor: default;"><rect rx="4" ry="4" x="0" y="0" height="18" width="158.3106231689453" class="blocklyFieldRect blocklyDropdownRect" stroke="#b84ded" fill="transparent"/><text class="blocklyText blocklyDropdownText" text-anchor="start" x="5" y="14">casNaDelavcaMeter<tspan style="fill: rgb(153, 0, 229);"> ▾</tspan></text><image style="display: none;"/></g><g transform="translate(224.7601318359375,5)"><text class="blocklyText" x="0" y="14">na</text></g><g data-id="rUVMSVlmnzoZjq2siTp`" class="blocklyDraggable" transform="translate(0,39)"><path class="blocklyPathDark" transform="translate(1,1)" fill="#b79900" d=" m 0,0  h 15  l 6,4  3,0  6,-4  h 379.7278137207031  v 5  H 409.7278137207031  V 5  H 409.7278137207031  V 23  H 409.7278137207031  V 23  V 27  h -380.2278137207031  l -6,4  -3,0  -6,-4  h -14.5  H 0 z&#10;"/><path class="blocklyPath" stroke="none" fill="#e5bf00" d=" m 0,0  h 15  l 6,4  3,0  6,-4  h 379.7278137207031  v 5  H 409.7278137207031  V 5  H 409.7278137207031  V 23  H 409.7278137207031  V 23  V 27  h -380.2278137207031  l -6,4  -3,0  -6,-4  h -14.5  H 0 z&#10;"/><path class="blocklyPathLight" stroke="#edd24d" d=" m 0,0  m 0.5,0.5  H 14.5  h 0.5  l 6,4  3,0  6,-4  H 409.2278137207031  H 409.2278137207031  M 0.5,26.5  V 0.5 &#10;"/><g transform="translate(10,5)"><text class="blocklyText" x="0" y="14">komentiraj</text></g><g class="blocklyEditableText" transform="translate(82.62344360351562,5)" style="cursor: text;"><rect rx="4" ry="4" x="0" y="0" height="18" width="322.1043701171875" class="blocklyFieldRect"/><text class="blocklyText" x="5" y="14">koliko časa b delavcev porabi za en meter kabla</text></g><g data-id="/X{LJog`Ng-4o;}F6T74" class="blocklyDraggable" transform="translate(0,28)"><path class="blocklyPathDark" transform="translate(1,1)" fill="#7a00b7" d=" m 0,0  h 15  l 6,4  3,0  6,-4  h 176.10302734375  v 5  H 206.10302734375  V 5  H 206.10302734375  c 0,10  -8,-8  -8,7.5  s 8,-2.5  8,7.5  v 14  H 206.10302734375  V 34  V 38  h -176.60302734375  l -6,4  -3,0  -6,-4  h -14.5  H 0 z&#10;"/><path class="blocklyPath" stroke="none" fill="#9900e5" d=" m 0,0  h 15  l 6,4  3,0  6,-4  h 176.10302734375  v 5  H 206.10302734375  V 5  H 206.10302734375  c 0,10  -8,-8  -8,7.5  s 8,-2.5  8,7.5  v 14  H 206.10302734375  V 34  V 38  h -176.60302734375  l -6,4  -3,0  -6,-4  h -14.5  H 0 z&#10;"/><path class="blocklyPathLight" stroke="#b84ded" d=" m 0,0  m 0.5,0.5  H 14.5  h 0.5  l 6,4  3,0  6,-4  H 205.60302734375  H 205.60302734375  M 206.10302734375,5  m -5,14.3  l 3.68,-2.1  M 0.5,37.5  V 0.5 &#10;"/><g data-id="/p{[$,(1*_U~#%#N.wjn" class="blocklyDraggable" style="display: block;" transform="translate(199.10302734375,0)"><path class="blocklyPathDark" transform="translate(1,1)" fill="#003db7" d=" m 8,0  h 293.1510009765625  v 5  H 301.1510009765625  V 5  H 301.1510009765625  V 34  H 301.1510009765625  V 34  V 38  h -293.1510009765625  H 8  V 20  c 0,-10  -8,8  -8,-7.5  s 8,2.5  8,-7.5 z&#10; M 24,5  v 5  c 0,10  -8,-8  -8,7.5  s 8,-2.5  8,7.5  v 9  h 170.3106231689453  v -29 z M 244.6771240234375,5  v 5  c 0,10  -8,-8  -8,7.5  s 8,-2.5  8,7.5  v 9  h 46.473876953125  v -29 z"/><path class="blocklyPath" stroke="none" fill="#004ce5" d=" m 8,0  h 293.1510009765625  v 5  H 301.1510009765625  V 5  H 301.1510009765625  V 34  H 301.1510009765625  V 34  V 38  h -293.1510009765625  H 8  V 20  c 0,-10  -8,8  -8,-7.5  s 8,2.5  8,-7.5 z&#10; M 24,5  v 5  c 0,10  -8,-8  -8,7.5  s 8,-2.5  8,7.5  v 9  h 170.3106231689453  v -29 z M 244.6771240234375,5  v 5  c 0,10  -8,-8  -8,7.5  s 8,-2.5  8,7.5  v 9  h 46.473876953125  v -29 z"/><path class="blocklyPathLight" stroke="#4d82ed" d=" m 8,0  m 0.5,0.5  H 300.6510009765625  H 300.6510009765625  M 8.5,37.5  M 8.5,37.5  V 20  v -1.5  m -7.36,-0.5  q -1.52,-5.5  0,-11  m 7.36,1  V 0.5 &#10; M 194.8106231689453,5.5  v 29  h -170.3106231689453  M 24,10  m -5,14.3  l 3.68,-2.1  M 291.6510009765625,5.5  v 29  h -46.473876953125  M 244.6771240234375,10  m -5,14.3  l 3.68,-2.1 "/><g data-id="eV0fwitOgz#%KUOCz[o." class="blocklyDraggable" style="display: block;" transform="translate(17,6)"><path class="blocklyPathDark" transform="translate(1,1)" fill="#7a00b7" d=" m 8,0  h 168.3106231689453  v 5  H 176.3106231689453  V 5  H 176.3106231689453  V 23  H 176.3106231689453  V 23  V 27  h -168.3106231689453  H 8  V 20  c 0,-10  -8,8  -8,-7.5  s 8,2.5  8,-7.5 z&#10;"/><path class="blocklyPath" stroke="none" fill="#9900e5" d=" m 8,0  h 168.3106231689453  v 5  H 176.3106231689453  V 5  H 176.3106231689453  V 23  H 176.3106231689453  V 23  V 27  h -168.3106231689453  H 8  V 20  c 0,-10  -8,8  -8,-7.5  s 8,2.5  8,-7.5 z&#10;"/><path class="blocklyPathLight" stroke="#b84ded" d=" m 8,0  m 0.5,0.5  H 175.8106231689453  H 175.8106231689453  M 8.5,26.5  M 8.5,26.5  V 20  v -1.5  m -7.36,-0.5  q -1.52,-5.5  0,-11  m 7.36,1  V 0.5 &#10;"/><g class="blocklyEditableText" transform="translate(13,5)" style="cursor: default;"><rect rx="4" ry="4" x="0" y="0" height="18" width="158.3106231689453" class="blocklyFieldRect blocklyDropdownRect" stroke="#b84ded" fill="transparent"/><text class="blocklyText blocklyDropdownText" text-anchor="start" x="5" y="14">casNaDelavcaMeter<tspan style="fill: rgb(153, 0, 229);"> ▾</tspan></text><image style="display: none;"/></g></g><g data-id="JUbNwwp*pZF:m-b77Lvk" class="blocklyDraggable" style="display: block;" transform="translate(237.6771240234375,6)"><path class="blocklyPathDark" transform="translate(1,1)" fill="#7a00b7" d=" m 8,0  h 44.473876953125  v 5  H 52.473876953125  V 5  H 52.473876953125  V 23  H 52.473876953125  V 23  V 27  h -44.473876953125  H 8  V 20  c 0,-10  -8,8  -8,-7.5  s 8,2.5  8,-7.5 z&#10;"/><path class="blocklyPath" stroke="none" fill="#9900e5" d=" m 8,0  h 44.473876953125  v 5  H 52.473876953125  V 5  H 52.473876953125  V 23  H 52.473876953125  V 23  V 27  h -44.473876953125  H 8  V 20  c 0,-10  -8,8  -8,-7.5  s 8,2.5  8,-7.5 z&#10;"/><path class="blocklyPathLight" stroke="#b84ded" d=" m 8,0  m 0.5,0.5  H 51.973876953125  H 51.973876953125  M 8.5,26.5  M 8.5,26.5  V 20  v -1.5  m -7.36,-0.5  q -1.52,-5.5  0,-11  m 7.36,1  V 0.5 &#10;"/><g class="blocklyEditableText" transform="translate(13,5)" style="cursor: default;"><rect rx="4" ry="4" x="0" y="0" height="18" width="34.473876953125" class="blocklyFieldRect blocklyDropdownRect" stroke="#b84ded" fill="transparent"/><text class="blocklyText blocklyDropdownText" text-anchor="start" x="5" y="14">b<tspan style="fill: rgb(153, 0, 229);"> ▾</tspan></text><image style="display: none;"/></g></g><g class="blocklyEditableText" transform="translate(199.3106231689453,10)" style="cursor: default;"><rect rx="4" ry="4" x="0" y="0" height="18" width="34.36650085449219" class="blocklyFieldRect blocklyDropdownRect" stroke="#4d82ed" fill="transparent"/><text class="blocklyText blocklyDropdownText" text-anchor="start" x="5" y="14">÷<tspan style="fill: rgb(0, 76, 229);"> ▾</tspan></text><image style="display: none;"/></g></g><g transform="translate(10,5)"><text class="blocklyText" x="0" y="14">nastavi</text></g><g class="blocklyEditableText" transform="translate(61.44950866699219,5)" style="cursor: default;"><rect rx="4" ry="4" x="0" y="0" height="18" width="105.34715270996094" class="blocklyFieldRect blocklyDropdownRect" stroke="#b84ded" fill="transparent"/><text class="blocklyText blocklyDropdownText" text-anchor="start" x="5" y="14">casNaMeter<tspan style="fill: rgb(153, 0, 229);"> ▾</tspan></text><image style="display: none;"/></g><g transform="translate(171.79666137695312,5)"><text class="blocklyText" x="0" y="14">na</text></g><g data-id="!XU!8@:*mV:-~nD1hbRA" class="blocklyDraggable" transform="translate(0,39)"><path class="blocklyPathDark" transform="translate(1,1)" fill="#b79900" d=" m 0,0  h 15  l 6,4  3,0  6,-4  h 378.9046325683594  v 5  H 408.9046325683594  V 5  H 408.9046325683594  V 23  H 408.9046325683594  V 23  V 27  h -379.4046325683594  l -6,4  -3,0  -6,-4  h -14.5  H 0 z&#10;"/><path class="blocklyPath" stroke="none" fill="#e5bf00" d=" m 0,0  h 15  l 6,4  3,0  6,-4  h 378.9046325683594  v 5  H 408.9046325683594  V 5  H 408.9046325683594  V 23  H 408.9046325683594  V 23  V 27  h -379.4046325683594  l -6,4  -3,0  -6,-4  h -14.5  H 0 z&#10;"/><path class="blocklyPathLight" stroke="#edd24d" d=" m 0,0  m 0.5,0.5  H 14.5  h 0.5  l 6,4  3,0  6,-4  H 408.4046325683594  H 408.4046325683594  M 0.5,26.5  V 0.5 &#10;"/><g data-id="WeH)BNJWJv`*BBpL9+OK" class="blocklyDraggable" transform="translate(0,28)"><path class="blocklyPathDark" transform="translate(1,1)" fill="#7a00b7" d=" m 0,0  h 15  l 6,4  3,0  6,-4  h 145.15098571777344  v 5  H 175.15098571777344  V 5  H 175.15098571777344  c 0,10  -8,-8  -8,7.5  s 8,-2.5  8,7.5  v 14  H 175.15098571777344  V 34  V 38  h -145.65098571777344  l -6,4  -3,0  -6,-4  h -14.5  H 0 z&#10;"/><path class="blocklyPath" stroke="none" fill="#9900e5" d=" m 0,0  h 15  l 6,4  3,0  6,-4  h 145.15098571777344  v 5  H 175.15098571777344  V 5  H 175.15098571777344  c 0,10  -8,-8  -8,7.5  s 8,-2.5  8,7.5  v 14  H 175.15098571777344  V 34  V 38  h -145.65098571777344  l -6,4  -3,0  -6,-4  h -14.5  H 0 z&#10;"/><path class="blocklyPathLight" stroke="#b84ded" d=" m 0,0  m 0.5,0.5  H 14.5  h 0.5  l 6,4  3,0  6,-4  H 174.65098571777344  H 174.65098571777344  M 175.15098571777344,5  m -5,14.3  l 3.68,-2.1  M 0.5,37.5  V 0.5 &#10;"/><g data-id="}EloK$XLRfC9Ce{bed%c" class="blocklyDraggable" style="display: block;" transform="translate(168.15098571777344,0)"><path class="blocklyPathDark" transform="translate(1,1)" fill="#003db7" d=" m 8,0  h 240.7029266357422  v 5  H 248.7029266357422  V 5  H 248.7029266357422  V 34  H 248.7029266357422  V 34  V 38  h -240.7029266357422  H 8  V 20  c 0,-10  -8,8  -8,-7.5  s 8,2.5  8,-7.5 z&#10; M 24,5  v 5  c 0,10  -8,-8  -8,7.5  s 8,-2.5  8,7.5  v 9  h 117.34715270996094  v -29 z M 192.2290496826172,5  v 5  c 0,10  -8,-8  -8,7.5  s 8,-2.5  8,7.5  v 9  h 46.473876953125  v -29 z"/><path class="blocklyPath" stroke="none" fill="#004ce5" d=" m 8,0  h 240.7029266357422  v 5  H 248.7029266357422  V 5  H 248.7029266357422  V 34  H 248.7029266357422  V 34  V 38  h -240.7029266357422  H 8  V 20  c 0,-10  -8,8  -8,-7.5  s 8,2.5  8,-7.5 z&#10; M 24,5  v 5  c 0,10  -8,-8  -8,7.5  s 8,-2.5  8,7.5  v 9  h 117.34715270996094  v -29 z M 192.2290496826172,5  v 5  c 0,10  -8,-8  -8,7.5  s 8,-2.5  8,7.5  v 9  h 46.473876953125  v -29 z"/><path class="blocklyPathLight" stroke="#4d82ed" d=" m 8,0  m 0.5,0.5  H 248.2029266357422  H 248.2029266357422  M 8.5,37.5  M 8.5,37.5  V 20  v -1.5  m -7.36,-0.5  q -1.52,-5.5  0,-11  m 7.36,1  V 0.5 &#10; M 141.84715270996094,5.5  v 29  h -117.34715270996094  M 24,10  m -5,14.3  l 3.68,-2.1  M 239.2029266357422,5.5  v 29  h -46.473876953125  M 192.2290496826172,10  m -5,14.3  l 3.68,-2.1 "/><g data-id="/w8SoL8W@WSs{s_Tn1B0" class="blocklyDraggable" style="display: block;" transform="translate(17,6)"><path class="blocklyPathDark" transform="translate(1,1)" fill="#7a00b7" d=" m 8,0  h 115.34715270996094  v 5  H 123.34715270996094  V 5  H 123.34715270996094  V 23  H 123.34715270996094  V 23  V 27  h -115.34715270996094  H 8  V 20  c 0,-10  -8,8  -8,-7.5  s 8,2.5  8,-7.5 z&#10;"/><path class="blocklyPath" stroke="none" fill="#9900e5" d=" m 8,0  h 115.34715270996094  v 5  H 123.34715270996094  V 5  H 123.34715270996094  V 23  H 123.34715270996094  V 23  V 27  h -115.34715270996094  H 8  V 20  c 0,-10  -8,8  -8,-7.5  s 8,2.5  8,-7.5 z&#10;"/><path class="blocklyPathLight" stroke="#b84ded" d=" m 8,0  m 0.5,0.5  H 122.84715270996094  H 122.84715270996094  M 8.5,26.5  M 8.5,26.5  V 20  v -1.5  m -7.36,-0.5  q -1.52,-5.5  0,-11  m 7.36,1  V 0.5 &#10;"/><g class="blocklyEditableText" transform="translate(13,5)" style="cursor: default;"><rect rx="4" ry="4" x="0" y="0" height="18" width="105.34715270996094" class="blocklyFieldRect blocklyDropdownRect" stroke="#b84ded" fill="transparent"/><text class="blocklyText blocklyDropdownText" text-anchor="start" x="5" y="14">casNaMeter<tspan style="fill: rgb(153, 0, 229);"> ▾</tspan></text><image style="display: none;"/></g></g><g data-id="0agkI+Z[BHELc2dbi}O@" class="blocklyDraggable" style="display: block;" transform="translate(185.2290496826172,6)"><path class="blocklyPathDark" transform="translate(1,1)" fill="#7a00b7" d=" m 8,0  h 44.473876953125  v 5  H 52.473876953125  V 5  H 52.473876953125  V 23  H 52.473876953125  V 23  V 27  h -44.473876953125  H 8  V 20  c 0,-10  -8,8  -8,-7.5  s 8,2.5  8,-7.5 z&#10;"/><path class="blocklyPath" stroke="none" fill="#9900e5" d=" m 8,0  h 44.473876953125  v 5  H 52.473876953125  V 5  H 52.473876953125  V 23  H 52.473876953125  V 23  V 27  h -44.473876953125  H 8  V 20  c 0,-10  -8,8  -8,-7.5  s 8,2.5  8,-7.5 z&#10;"/><path class="blocklyPathLight" stroke="#b84ded" d=" m 8,0  m 0.5,0.5  H 51.973876953125  H 51.973876953125  M 8.5,26.5  M 8.5,26.5  V 20  v -1.5  m -7.36,-0.5  q -1.52,-5.5  0,-11  m 7.36,1  V 0.5 &#10;"/><g class="blocklyEditableText" transform="translate(13,5)" style="cursor: default;"><rect rx="4" ry="4" x="0" y="0" height="18" width="34.473876953125" class="blocklyFieldRect blocklyDropdownRect" stroke="#b84ded" fill="transparent"/><text class="blocklyText blocklyDropdownText" text-anchor="start" x="5" y="14">n<tspan style="fill: rgb(153, 0, 229);"> ▾</tspan></text><image style="display: none;"/></g></g><g class="blocklyEditableText" transform="translate(146.34715270996094,10)" style="cursor: default;"><rect rx="4" ry="4" x="0" y="0" height="18" width="34.88189697265625" class="blocklyFieldRect blocklyDropdownRect" stroke="#4d82ed" fill="transparent"/><text class="blocklyText blocklyDropdownText" text-anchor="start" x="5" y="14">×<tspan style="fill: rgb(0, 76, 229);"> ▾</tspan></text><image style="display: none;"/></g></g><g data-id="()WUJfz@pS3mlip%e_Wz" class="blocklyDraggable" transform="translate(0,39)"><path class="blocklyPathDark" transform="translate(1,1)" fill="#b79900" d=" m 0,0  h 15  l 6,4  3,0  6,-4  h 30.584075927734375  v 5  H 60.584075927734375  V 5  H 60.584075927734375  c 0,10  -8,-8  -8,7.5  s 8,-2.5  8,7.5  v 3  H 60.584075927734375  V 23  V 27  h -31.084075927734375  l -6,4  -3,0  -6,-4  h -6.5 a 8 8 0 0,1 -8,-8 z&#10;"/><path class="blocklyPath" stroke="none" fill="#e5bf00" d=" m 0,0  h 15  l 6,4  3,0  6,-4  h 30.584075927734375  v 5  H 60.584075927734375  V 5  H 60.584075927734375  c 0,10  -8,-8  -8,7.5  s 8,-2.5  8,7.5  v 3  H 60.584075927734375  V 23  V 27  h -31.084075927734375  l -6,4  -3,0  -6,-4  h -6.5 a 8 8 0 0,1 -8,-8 z&#10;"/><path class="blocklyPathLight" stroke="#edd24d" d=" m 0,0  m 0.5,0.5  H 14.5  h 0.5  l 6,4  3,0  6,-4  H 60.084075927734375  H 60.084075927734375  M 60.584075927734375,5  m -5,14.3  l 3.68,-2.1  M 0,27  m 2.6966991411008934,-2.6966991411008934 a 7.5 7.5 0 0,1 -2.1966991411008934,-5.303300858899107  V 0.5 &#10;"/><g data-id="jb]VruAH1nW3@pTF9zZ4" class="blocklyDraggable" style="display: block;" transform="translate(53.584075927734375,0)"><path class="blocklyPathDark" transform="translate(1,1)" fill="#7a00b7" d=" m 8,0  h 84.39511108398438  v 5  H 92.39511108398438  V 5  H 92.39511108398438  V 23  H 92.39511108398438  V 23  V 27  h -84.39511108398438  H 8  V 20  c 0,-10  -8,8  -8,-7.5  s 8,2.5  8,-7.5 z&#10;"/><path class="blocklyPath" stroke="none" fill="#9900e5" d=" m 8,0  h 84.39511108398438  v 5  H 92.39511108398438  V 5  H 92.39511108398438  V 23  H 92.39511108398438  V 23  V 27  h -84.39511108398438  H 8  V 20  c 0,-10  -8,8  -8,-7.5  s 8,2.5  8,-7.5 z&#10;"/><path class="blocklyPathLight" stroke="#b84ded" d=" m 8,0  m 0.5,0.5  H 91.89511108398438  H 91.89511108398438  M 8.5,26.5  M 8.5,26.5  V 20  v -1.5  m -7.36,-0.5  q -1.52,-5.5  0,-11  m 7.36,1  V 0.5 &#10;"/><g class="blocklyEditableText" transform="translate(13,5)" style="cursor: default;"><rect rx="4" ry="4" x="0" y="0" height="18" width="74.39511108398438" class="blocklyFieldRect blocklyDropdownRect" stroke="#b84ded" fill="transparent"/><text class="blocklyText blocklyDropdownText" text-anchor="start" x="5" y="14">rezultat<tspan style="fill: rgb(153, 0, 229);"> ▾</tspan></text><image style="display: none;"/></g></g><g transform="translate(10,5)"><text class="blocklyText" x="0" y="14">izpiši</text></g></g><g transform="translate(10,5)"><text class="blocklyText" x="0" y="14">nastavi</text></g><g class="blocklyEditableText" transform="translate(61.44950866699219,5)" style="cursor: default;"><rect rx="4" ry="4" x="0" y="0" height="18" width="74.39511108398438" class="blocklyFieldRect blocklyDropdownRect" stroke="#b84ded" fill="transparent"/><text class="blocklyText blocklyDropdownText" text-anchor="start" x="5" y="14">rezultat<tspan style="fill: rgb(153, 0, 229);"> ▾</tspan></text><image style="display: none;"/></g><g transform="translate(140.84461975097656,5)"><text class="blocklyText" x="0" y="14">na</text></g></g><g transform="translate(10,5)"><text class="blocklyText" x="0" y="14">komentiraj</text></g><g class="blocklyEditableText" transform="translate(82.62344360351562,5)" style="cursor: text;"><rect rx="4" ry="4" x="0" y="0" height="18" width="321.28118896484375" class="blocklyFieldRect"/><text class="blocklyText" x="5" y="14">koliko časa b delavcev porabi za n metrov kabla</text></g></g></g></g></g></g></g></g></g></g></g></g></g></g></svg>