<svg xmlns="http://www.w3.org/2000/svg" viewBox="10 10 612.405029296875 365" class="blocklySvg geras-renderer rin_light-theme" width="612.405029296875" height="365" style="background-color: transparent"><style xmlns="http://www.w3.org/1999/xhtml">.geras-renderer.rin_light-theme .blocklyText, 
.geras-renderer.rin_light-theme .blocklyFlyoutLabelText {
font: normal 11pt sans-serif;
}
.geras-renderer.rin_light-theme .blocklyText {
fill: #fff;
}
.geras-renderer.rin_light-theme .blocklyNonEditableText&gt;rect,
.geras-renderer.rin_light-theme .blocklyEditableText&gt;rect {
fill: #fff;
fill-opacity: .6;
stroke: none;
}
.geras-renderer.rin_light-theme .blocklyNonEditableText&gt;text,
.geras-renderer.rin_light-theme .blocklyEditableText&gt;text {
fill: #000;
}
.geras-renderer.rin_light-theme .blocklyFlyoutLabelText {
fill: #000;
}
.geras-renderer.rin_light-theme .blocklyText.blocklyBubbleText {
fill: #000;
}
.geras-renderer.rin_light-theme .blocklyEditableText:not(.editing):hover&gt;rect {
stroke: #fff;
stroke-width: 2;
}
.geras-renderer.rin_light-theme .blocklyHtmlInput {
font-family: sans-serif;
font-weight: normal;
}
.geras-renderer.rin_light-theme .blocklySelected&gt;.blocklyPath {
stroke: #fc3;
stroke-width: 3px;
}
.geras-renderer.rin_light-theme .blocklyHighlightedConnectionPath {
stroke: #fc3;
}
.geras-renderer.rin_light-theme .blocklyReplaceable .blocklyPath {
fill-opacity: .5;
}
.geras-renderer.rin_light-theme .blocklyReplaceable .blocklyPathLight,
.geras-renderer.rin_light-theme .blocklyReplaceable .blocklyPathDark {
display: none;
}
.geras-renderer.rin_light-theme .blocklyInsertionMarker&gt;.blocklyPath {
fill-opacity: 0.2;
stroke: none;
}
.geras-renderer.rin_light-theme .blocklyInsertionMarker&gt;.blocklyPathLight,
.geras-renderer.rin_light-theme .blocklyInsertionMarker&gt;.blocklyPathDark {
fill-opacity: 0.2;
stroke: none;
}
.blocklySvg {
background-color: #fff;
outline: none;
overflow: hidden;
position: absolute;
display: block;
}
.blocklyWidgetDiv {
display: none;
position: absolute;
z-index: 99999;
}
.injectionDiv {
height: 100%;
position: relative;
overflow: hidden;
touch-action: none;
}
.blocklyNonSelectable {
user-select: none;
-ms-user-select: none;
-webkit-user-select: none;
}
.blocklyWsDragSurface {
display: none;
position: absolute;
top: 0;
left: 0;
}
.blocklyWsDragSurface.blocklyOverflowVisible {
overflow: visible;
}
.blocklyBlockDragSurface {
display: none;
position: absolute;
top: 0;
left: 0;
right: 0;
bottom: 0;
overflow: visible !important;
z-index: 50;
}
.blocklyBlockCanvas.blocklyCanvasTransitioning,
.blocklyBubbleCanvas.blocklyCanvasTransitioning {
transition: transform .5s;
}
.blocklyTooltipDiv {
background-color: #ffffc7;
border: 1px solid #ddc;
box-shadow: 4px 4px 20px 1px rgba(0,0,0,.15);
color: #000;
display: none;
font: 9pt sans-serif;
opacity: .9;
padding: 2px;
position: absolute;
z-index: 100000;
}
.blocklyDropDownDiv {
position: absolute;
left: 0;
top: 0;
z-index: 1000;
display: none;
border: 1px solid;
border-color: #dadce0;
background-color: #fff;
border-radius: 2px;
padding: 4px;
box-shadow: 0 0 3px 1px rgba(0,0,0,.3);
}
.blocklyDropDownDiv.blocklyFocused {
box-shadow: 0 0 6px 1px rgba(0,0,0,.3);
}
.blocklyDropDownContent {
max-height: 300px;
overflow: auto;
overflow-x: hidden;
position: relative;
}
.blocklyDropDownArrow {
position: absolute;
left: 0;
top: 0;
width: 16px;
height: 16px;
z-index: -1;
background-color: inherit;
border-color: inherit;
}
.blocklyDropDownButton {
display: inline-block;
float: left;
padding: 0;
margin: 4px;
border-radius: 4px;
outline: none;
border: 1px solid;
transition: box-shadow .1s;
cursor: pointer;
}
.blocklyArrowTop {
border-top: 1px solid;
border-left: 1px solid;
border-top-left-radius: 4px;
border-color: inherit;
}
.blocklyArrowBottom {
border-bottom: 1px solid;
border-right: 1px solid;
border-bottom-right-radius: 4px;
border-color: inherit;
}
.blocklyResizeSE {
cursor: se-resize;
fill: #aaa;
}
.blocklyResizeSW {
cursor: sw-resize;
fill: #aaa;
}
.blocklyResizeLine {
stroke: #515A5A;
stroke-width: 1;
}
.blocklyHighlightedConnectionPath {
fill: none;
stroke: #fc3;
stroke-width: 4px;
}
.blocklyPathLight {
fill: none;
stroke-linecap: round;
stroke-width: 1;
}
.blocklySelected&gt;.blocklyPathLight {
display: none;
}
.blocklyDraggable {
cursor: url("blockly/media/handopen.cur"), auto;
cursor: grab;
cursor: -webkit-grab;
}
.blocklyDragging {
cursor: url("blockly/media/handclosed.cur"), auto;
cursor: grabbing;
cursor: -webkit-grabbing;
}
.blocklyDraggable:active {
cursor: url("blockly/media/handclosed.cur"), auto;
cursor: grabbing;
cursor: -webkit-grabbing;
}
.blocklyBlockDragSurface .blocklyDraggable {
cursor: url("blockly/media/handclosed.cur"), auto;
cursor: grabbing;
cursor: -webkit-grabbing;
}
.blocklyDragging.blocklyDraggingDelete {
cursor: url("blockly/media/handdelete.cur"), auto;
}
.blocklyDragging&gt;.blocklyPath,
.blocklyDragging&gt;.blocklyPathLight {
fill-opacity: .8;
stroke-opacity: .8;
}
.blocklyDragging&gt;.blocklyPathDark {
display: none;
}
.blocklyDisabled&gt;.blocklyPath {
fill-opacity: .5;
stroke-opacity: .5;
}
.blocklyDisabled&gt;.blocklyPathLight,
.blocklyDisabled&gt;.blocklyPathDark {
display: none;
}
.blocklyInsertionMarker&gt;.blocklyPath,
.blocklyInsertionMarker&gt;.blocklyPathLight,
.blocklyInsertionMarker&gt;.blocklyPathDark {
fill-opacity: .2;
stroke: none;
}
.blocklyMultilineText {
font-family: monospace;
}
.blocklyNonEditableText&gt;text {
pointer-events: none;
}
.blocklyFlyout {
position: absolute;
z-index: 20;
}
.blocklyText text {
cursor: default;
}
.blocklySvg text,
.blocklyBlockDragSurface text {
user-select: none;
-ms-user-select: none;
-webkit-user-select: none;
cursor: inherit;
}
.blocklyHidden {
display: none;
}
.blocklyFieldDropdown:not(.blocklyHidden) {
display: block;
}
.blocklyIconGroup {
cursor: default;
}
.blocklyIconGroup:not(:hover),
.blocklyIconGroupReadonly {
opacity: .6;
}
.blocklyIconShape {
fill: #00f;
stroke: #fff;
stroke-width: 1px;
}
.blocklyIconSymbol {
fill: #fff;
}
.blocklyMinimalBody {
margin: 0;
padding: 0;
}
.blocklyHtmlInput {
border: none;
border-radius: 4px;
height: 100%;
margin: 0;
outline: none;
padding: 0;
width: 100%;
text-align: center;
display: block;
box-sizing: border-box;
}
.blocklyHtmlInput::-ms-clear {
display: none;
}
.blocklyMainBackground {
stroke-width: 1;
stroke: #c6c6c6;
}
.blocklyMutatorBackground {
fill: #fff;
stroke: #ddd;
stroke-width: 1;
}
.blocklyFlyoutBackground {
fill: #ddd;
fill-opacity: .8;
}
.blocklyMainWorkspaceScrollbar {
z-index: 20;
}
.blocklyFlyoutScrollbar {
z-index: 30;
}
.blocklyScrollbarHorizontal,
.blocklyScrollbarVertical {
position: absolute;
outline: none;
}
.blocklyScrollbarBackground {
opacity: 0;
}
.blocklyScrollbarHandle {
fill: #ccc;
}
.blocklyScrollbarBackground:hover+.blocklyScrollbarHandle,
.blocklyScrollbarHandle:hover {
fill: #bbb;
}
.blocklyFlyout .blocklyScrollbarHandle {
fill: #bbb;
}
.blocklyFlyout .blocklyScrollbarBackground:hover+.blocklyScrollbarHandle,
.blocklyFlyout .blocklyScrollbarHandle:hover {
fill: #aaa;
}
.blocklyInvalidInput {
background: #faa;
}
.blocklyVerticalMarker {
stroke-width: 3px;
fill: rgba(255,255,255,.5);
pointer-events: none;
}
.blocklyComputeCanvas {
position: absolute;
width: 0;
height: 0;
}
.blocklyNoPointerEvents {
pointer-events: none;
}
.blocklyContextMenu {
border-radius: 4px;
max-height: 100%;
}
.blocklyDropdownMenu {
border-radius: 2px;
padding: 0 !important;
}
.blocklyDropdownMenu .blocklyMenuItem {
padding-left: 28px;
}
.blocklyDropdownMenu .blocklyMenuItemRtl {
padding-left: 5px;
padding-right: 28px;
}
.blocklyWidgetDiv .blocklyMenu {
background: #fff;
border: 1px solid transparent;
box-shadow: 0 0 3px 1px rgba(0,0,0,.3);
font: normal 13px Arial, sans-serif;
margin: 0;
outline: none;
padding: 4px 0;
position: absolute;
overflow-y: auto;
overflow-x: hidden;
max-height: 100%;
z-index: 20000;
}
.blocklyWidgetDiv .blocklyMenu.blocklyFocused {
box-shadow: 0 0 6px 1px rgba(0,0,0,.3);
}
.blocklyDropDownDiv .blocklyMenu {
font: normal 13px "Helvetica Neue", Helvetica, sans-serif;
outline: none;
z-index: 20000;
}
.blocklyMenuItem {
border: none;
color: #000;
cursor: pointer;
list-style: none;
margin: 0;
min-width: 7em;
padding: 6px 15px;
white-space: nowrap;
}
.blocklyMenuItemDisabled {
color: #ccc;
cursor: inherit;
}
.blocklyMenuItemHighlight {
background-color: rgba(0,0,0,.1);
}
.blocklyMenuItemCheckbox {
height: 16px;
position: absolute;
width: 16px;
}
.blocklyMenuItemSelected .blocklyMenuItemCheckbox {
background: url(blockly/media/sprites.png) no-repeat -48px -16px;
float: left;
margin-left: -24px;
position: static;
}
.blocklyMenuItemRtl .blocklyMenuItemCheckbox {
float: right;
margin-right: -24px;
}
.blocklyCommentTextarea {
background-color: #fef49c;
border: 0;
outline: 0;
margin: 0;
padding: 3px;
resize: none;
display: block;
overflow: hidden;
}
.blocklyFlyoutButton {
fill: #888;
cursor: default;
}
.blocklyFlyoutButtonShadow {
fill: #666;
}
.blocklyFlyoutButton:hover {
fill: #aaa;
}
.blocklyFlyoutLabel {
cursor: default;
}
.blocklyFlyoutLabelBackground {
opacity: 0;
}
.blocklyTreeRow:not(.blocklyTreeSelected):hover {
background-color: rgba(255, 255, 255, 0.2);
}
.blocklyToolboxDiv[layout="h"] .blocklyToolboxCategory {
margin: 1px 5px 1px 0;
}
.blocklyToolboxDiv[dir="RTL"][layout="h"] .blocklyToolboxCategory {
margin: 1px 0 1px 5px;
}
.blocklyTreeRow {
height: 22px;
line-height: 22px;
margin-bottom: 3px;
padding-right: 8px;
white-space: nowrap;
}
.blocklyToolboxDiv[dir="RTL"] .blocklyTreeRow {
margin-left: 8px;
padding-right: 0px
}
.blocklyTreeIcon {
background-image: url(blockly/media/sprites.png);
height: 16px;
vertical-align: middle;
visibility: hidden;
width: 16px;
}
.blocklyTreeIconClosed {
background-position: -32px -1px;
}
.blocklyToolboxDiv[dir="RTL"] .blocklyTreeIconClosed {
background-position: 0 -1px;
}
.blocklyTreeSelected&gt;.blocklyTreeIconClosed {
background-position: -32px -17px;
}
.blocklyToolboxDiv[dir="RTL"] .blocklyTreeSelected&gt;.blocklyTreeIconClosed {
background-position: 0 -17px;
}
.blocklyTreeIconOpen {
background-position: -16px -1px;
}
.blocklyTreeSelected&gt;.blocklyTreeIconOpen {
background-position: -16px -17px;
}
.blocklyTreeLabel {
cursor: default;
font: 16px sans-serif;
padding: 0 3px;
vertical-align: middle;
}
.blocklyToolboxDelete .blocklyTreeLabel {
cursor: url("blockly/media/handdelete.cur"), auto;
}
.blocklyTreeSelected .blocklyTreeLabel {
color: #fff;
}
.blocklyTreeSeparator {
border-bottom: solid #e5e5e5 1px;
height: 0;
margin: 5px 0;
}
.blocklyToolboxDiv[layout="h"] .blocklyTreeSeparator {
border-right: solid #e5e5e5 1px;
border-bottom: none;
height: auto;
margin: 0 5px 0 5px;
padding: 5px 0;
width: 0;
}
.blocklyToolboxDelete {
cursor: url("blockly/media/handdelete.cur"), auto;
}
.blocklyToolboxGrab {
cursor: url("blockly/media/handclosed.cur"), auto;
cursor: grabbing;
cursor: -webkit-grabbing;
}
.blocklyToolboxDiv {
background-color: #ddd;
overflow-x: visible;
overflow-y: auto;
padding: 4px 0 4px 0;
position: absolute;
z-index: 70;
-webkit-tap-highlight-color: transparent;
}
.blocklyToolboxContents {
display: flex;
flex-wrap: wrap;
flex-direction: column;
}
.blocklyToolboxContents:focus {
outline: none;
}
.blocklyZoom&gt;image, .blocklyZoom&gt;svg&gt;image {
opacity: .4;
}
.blocklyZoom&gt;image:hover, .blocklyZoom&gt;svg&gt;image:hover {
opacity: .6;
}
.blocklyZoom&gt;image:active, .blocklyZoom&gt;svg&gt;image:active {
opacity: .8;
}
.blocklyAngleCircle {
stroke: #444;
stroke-width: 1;
fill: #ddd;
fill-opacity: .8;
}
.blocklyAngleMarks {
stroke: #444;
stroke-width: 1;
}
.blocklyAngleGauge {
fill: #f88;
fill-opacity: .8;
pointer-events: none;
}
.blocklyAngleLine {
stroke: #f00;
stroke-width: 2;
stroke-linecap: round;
pointer-events: none;
}
.blocklyColourTable {
border-collapse: collapse;
display: block;
outline: none;
padding: 1px;
}
.blocklyColourTable&gt;tr&gt;td {
border: .5px solid #888;
box-sizing: border-box;
cursor: pointer;
display: inline-block;
height: 20px;
padding: 0;
width: 20px;
}
.blocklyColourTable&gt;tr&gt;td.blocklyColourHighlighted {
border-color: #eee;
box-shadow: 2px 2px 7px 2px rgba(0,0,0,.3);
position: relative;
}
.blocklyColourSelected, .blocklyColourSelected:hover {
border-color: #eee !important;
outline: 1px solid #333;
position: relative;
}
.blocklyHtmlTextAreaInput {
font-family: monospace;
resize: none;
overflow: hidden;
height: 100%;
text-align: left;
}
undefined</style><g class="blocklyBlockCanvas"><g class="blocklyMarker"><g width="100" height="5"><rect width="100" height="5" style="display: none"/><rect class="blocklyVerticalMarker" rx="10" ry="10" style="display: none"/><path transform="" style="display: none"/><path transform="" style="display: none" fill="none" stroke-width="4"/></g></g><g class="blocklyCursor"><g width="100" height="5"><rect width="100" height="5" style="display: none"><animate attributeType="XML" attributeName="fill" dur="1s" values="#cc0a0a;transparent;transparent;" repeatCount="indefinite"/></rect><rect class="blocklyVerticalMarker" rx="10" ry="10" style="display: none"/><path transform="" style="display: none"><animate attributeType="XML" attributeName="fill" dur="1s" values="#cc0a0a;transparent;transparent;" repeatCount="indefinite"/></path><path transform="" style="display: none" fill="none" stroke-width="4"><animate attributeType="XML" attributeName="stroke" dur="1s" values="#cc0a0a;transparent;transparent;" repeatCount="indefinite"/></path></g></g><g data-id="C:l?Y.qB$ig_EsgOv]^l" class="blocklyDraggable" transform="translate(10,10)"><path class="blocklyPathDark" transform="translate(1,1)" fill="#00b700" d=" m 0,0  m 0,8 a 8 8 0 0,1 8,-8  h 213.7565460205078  v 5  H 221.7565460205078  V 5  H 221.7565460205078  V 23  H 221.7565460205078  V 27  H 50  l -6,4  -3,0  -6,-4  h -7 a 8 8 0 0,0 -8,8  v 153 a 8 8 0 0,0 8,8  H 221.7565460205078  H 221.7565460205078  V 201  H 221.7565460205078  c 0,10  -8,-8  -8,7.5  s 8,-2.5  8,7.5  v 3  H 221.7565460205078  V 219  V 223  h -213.7565460205078 a 8 8 0 0,1 -8,-8 z&#10;"/><path class="blocklyPath" stroke="none" fill="#00e500" d=" m 0,0  m 0,8 a 8 8 0 0,1 8,-8  h 213.7565460205078  v 5  H 221.7565460205078  V 5  H 221.7565460205078  V 23  H 221.7565460205078  V 27  H 50  l -6,4  -3,0  -6,-4  h -7 a 8 8 0 0,0 -8,8  v 153 a 8 8 0 0,0 8,8  H 221.7565460205078  H 221.7565460205078  V 201  H 221.7565460205078  c 0,10  -8,-8  -8,7.5  s 8,-2.5  8,7.5  v 3  H 221.7565460205078  V 219  V 223  h -213.7565460205078 a 8 8 0 0,1 -8,-8 z&#10;"/><path class="blocklyPathLight" stroke="#4ded4d" d=" m 0,0  m 0.5,8 a 7.5 7.5 0 0,1 8,-7.5  H 221.2565460205078  H 221.2565460205078  M 20,196  m 1.9895923599143455,-1.9895923599143455 a 8.5 8.5 0 0,0 6.0104076400856545,2.4895923599143455  l 193.2565460205078,0  H 221.2565460205078  M 221.7565460205078,201  m -5,14.3  l 3.68,-2.1  M 0,223  m 2.6966991411008934,-2.6966991411008934 a 7.5 7.5 0 0,1 -2.1966991411008934,-5.303300858899107  V 8 &#10;"/><g class="blocklyIconGroup" display="block" transform="translate(10,5)"><rect class="blocklyIconShape" rx="4" ry="4" height="16" width="16"/><path class="blocklyIconSymbol" d="m4.203,7.296 0,1.368 -0.92,0.677 -0.11,0.41 0.9,1.559 0.41,0.11 1.043,-0.457 1.187,0.683 0.127,1.134 0.3,0.3 1.8,0 0.3,-0.299 0.127,-1.138 1.185,-0.682 1.046,0.458 0.409,-0.11 0.9,-1.559 -0.11,-0.41 -0.92,-0.677 0,-1.366 0.92,-0.677 0.11,-0.41 -0.9,-1.559 -0.409,-0.109 -1.046,0.458 -1.185,-0.682 -0.127,-1.138 -0.3,-0.299 -1.8,0 -0.3,0.3 -0.126,1.135 -1.187,0.682 -1.043,-0.457 -0.41,0.11 -0.899,1.559 0.108,0.409z"/><circle class="blocklyIconShape" r="2.7" cx="8" cy="8"/></g><g class="blocklyIconGroup" display="block" transform="translate(37,5)"><circle class="blocklyIconShape" r="8" cx="8" cy="8"/><path class="blocklyIconSymbol" d="m6.8,10h2c0.003,-0.617 0.271,-0.962 0.633,-1.266 2.875,-2.4050.607,-5.534 -3.765,-3.874v1.7c3.12,-1.657 3.698,0.118 2.336,1.25-1.201,0.998 -1.201,1.528 -1.204,2.19z"/><rect class="blocklyIconSymbol" x="6.8" y="10.78" height="2" width="2"/></g><g data-id="$3=RBrqv3fb03l-rhGk`" class="blocklyDraggable" style="display: block;" transform="translate(21,28)"><path class="blocklyPathDark" transform="translate(1,1)" fill="#7a00b7" d=" m 0,0  m 0,8 a 8 8 0 0,1 8,-8  h 7  l 6,4  3,0  6,-4  h 116.63990783691406  v 5  H 146.63990783691406  V 5  H 146.63990783691406  c 0,10  -8,-8  -8,7.5  s 8,-2.5  8,7.5  v 14  H 146.63990783691406  V 34  V 38  h -117.13990783691406  l -6,4  -3,0  -6,-4  h -14.5  H 0 z&#10;"/><path class="blocklyPath" stroke="none" fill="#9900e5" d=" m 0,0  m 0,8 a 8 8 0 0,1 8,-8  h 7  l 6,4  3,0  6,-4  h 116.63990783691406  v 5  H 146.63990783691406  V 5  H 146.63990783691406  c 0,10  -8,-8  -8,7.5  s 8,-2.5  8,7.5  v 14  H 146.63990783691406  V 34  V 38  h -117.13990783691406  l -6,4  -3,0  -6,-4  h -14.5  H 0 z&#10;"/><path class="blocklyPathLight" stroke="#b84ded" d=" m 0,0  m 0.5,8 a 7.5 7.5 0 0,1 8,-7.5  H 14.5  h 0.5  l 6,4  3,0  6,-4  H 146.13990783691406  H 146.13990783691406  M 146.63990783691406,5  m -5,14.3  l 3.68,-2.1  M 0.5,37.5  V 8 &#10;"/><g data-id="7ynKN79o31Fm|To`t{+R" class="blocklyDraggable" style="display: block;" transform="translate(139.63990783691406,0)"><path class="blocklyPathDark" transform="translate(1,1)" fill="#b71e00" d=" m 8,0  h 276.808837890625  v 5  H 284.808837890625  V 5  H 284.808837890625  V 34  H 284.808837890625  V 34  V 38  h -276.808837890625  H 8  V 20  c 0,-10  -8,8  -8,-7.5  s 8,2.5  8,-7.5 z&#10; M 80.44950866699219,5  v 5  c 0,10  -8,-8  -8,7.5  s 8,-2.5  8,7.5  v 9  h 42.393707275390625  v -29 z M 244.65565490722656,5  v 5  c 0,10  -8,-8  -8,7.5  s 8,-2.5  8,7.5  v 9  h 30.153182983398438  v -29 z"/><path class="blocklyPath" stroke="none" fill="#e52600" d=" m 8,0  h 276.808837890625  v 5  H 284.808837890625  V 5  H 284.808837890625  V 34  H 284.808837890625  V 34  V 38  h -276.808837890625  H 8  V 20  c 0,-10  -8,8  -8,-7.5  s 8,2.5  8,-7.5 z&#10; M 80.44950866699219,5  v 5  c 0,10  -8,-8  -8,7.5  s 8,-2.5  8,7.5  v 9  h 42.393707275390625  v -29 z M 244.65565490722656,5  v 5  c 0,10  -8,-8  -8,7.5  s 8,-2.5  8,7.5  v 9  h 30.153182983398438  v -29 z"/><path class="blocklyPathLight" stroke="#ed674d" d=" m 8,0  m 0.5,0.5  H 284.308837890625  H 284.308837890625  M 8.5,37.5  M 8.5,37.5  V 20  v -1.5  m -7.36,-0.5  q -1.52,-5.5  0,-11  m 7.36,1  V 0.5 &#10; M 123.34321594238281,5.5  v 29  h -42.393707275390625  M 80.44950866699219,10  m -5,14.3  l 3.68,-2.1  M 275.308837890625,5.5  v 29  h -30.153182983398438  M 244.65565490722656,10  m -5,14.3  l 3.68,-2.1 "/><g data-id="G)XlhMWzf1^Mx~W!CH|," class="blocklyDraggable" style="display: block;" transform="translate(73.44950866699219,6)"><path class="blocklyPathDark" transform="translate(1,1)" fill="#7a00b7" d=" m 8,0  h 40.393707275390625  v 5  H 48.393707275390625  V 5  H 48.393707275390625  V 23  H 48.393707275390625  V 23  V 27  h -40.393707275390625  H 8  V 20  c 0,-10  -8,8  -8,-7.5  s 8,2.5  8,-7.5 z&#10;"/><path class="blocklyPath" stroke="none" fill="#9900e5" d=" m 8,0  h 40.393707275390625  v 5  H 48.393707275390625  V 5  H 48.393707275390625  V 23  H 48.393707275390625  V 23  V 27  h -40.393707275390625  H 8  V 20  c 0,-10  -8,8  -8,-7.5  s 8,2.5  8,-7.5 z&#10;"/><path class="blocklyPathLight" stroke="#b84ded" d=" m 8,0  m 0.5,0.5  H 47.893707275390625  H 47.893707275390625  M 8.5,26.5  M 8.5,26.5  V 20  v -1.5  m -7.36,-0.5  q -1.52,-5.5  0,-11  m 7.36,1  V 0.5 &#10;"/><g class="blocklyEditableText" transform="translate(13,5)" style="cursor: default;"><rect rx="4" ry="4" x="0" y="0" height="18" width="30.393707275390625" class="blocklyFieldRect blocklyDropdownRect" stroke="#b84ded" fill="transparent"/><text class="blocklyText blocklyDropdownText" text-anchor="start" x="5" y="14">t<tspan style="fill: rgb(153, 0, 229);"> ▾</tspan></text><image style="display: none;"/></g></g><g data-id="1NT1~~R[4EoY1cMr$,!n" class="blocklyDraggable" style="display: block;" transform="translate(237.65565490722656,6)"><path class="blocklyPathDark" transform="translate(1,1)" fill="#003db7" d=" m 8,0  h 28.153182983398438  v 5  H 36.15318298339844  V 5  H 36.15318298339844  V 23  H 36.15318298339844  V 23  V 27  h -28.153182983398438  H 8  V 20  c 0,-10  -8,8  -8,-7.5  s 8,2.5  8,-7.5 z&#10;"/><path class="blocklyPath" stroke="none" fill="#004ce5" d=" m 8,0  h 28.153182983398438  v 5  H 36.15318298339844  V 5  H 36.15318298339844  V 23  H 36.15318298339844  V 23  V 27  h -28.153182983398438  H 8  V 20  c 0,-10  -8,8  -8,-7.5  s 8,2.5  8,-7.5 z&#10;"/><path class="blocklyPathLight" stroke="#4d82ed" d=" m 8,0  m 0.5,0.5  H 35.65318298339844  H 35.65318298339844  M 8.5,26.5  M 8.5,26.5  V 20  v -1.5  m -7.36,-0.5  q -1.52,-5.5  0,-11  m 7.36,1  V 0.5 &#10;"/><g class="blocklyEditableText" transform="translate(13,5)" style="cursor: text;"><rect rx="4" ry="4" x="0" y="0" height="18" width="18.153182983398438" class="blocklyFieldRect"/><text class="blocklyText" x="5" y="14">0</text></g></g><g transform="translate(18,10)"><text class="blocklyText" x="0" y="14">v tabeli</text></g><g class="blocklyEditableText" transform="translate(127.84321594238281,10)" style="cursor: default;"><rect rx="4" ry="4" x="0" y="0" height="18" width="49.942718505859375" class="blocklyFieldRect blocklyDropdownRect" stroke="#ed674d" fill="transparent"/><text class="blocklyText blocklyDropdownText" text-anchor="start" x="5" y="14">vrni<tspan style="fill: rgb(229, 38, 0);"> ▾</tspan></text><image style="display: none;"/></g><g transform="translate(182.7859344482422,10)"><text class="blocklyText" x="0" y="14"> </text></g><g class="blocklyEditableText" transform="translate(191.85894775390625,10)" style="cursor: default;"><rect rx="4" ry="4" x="0" y="0" height="18" width="41.79670715332031" class="blocklyFieldRect blocklyDropdownRect" stroke="#ed674d" fill="transparent"/><text class="blocklyText blocklyDropdownText" text-anchor="start" x="5" y="14">št.<tspan style="fill: rgb(229, 38, 0);"> ▾</tspan></text><image style="display: none;"/></g></g><g data-id=",Y9Fp4,)d7)1iI7;`A7s" class="blocklyDraggable" transform="translate(0,39)"><path class="blocklyPathDark" transform="translate(1,1)" fill="#b7007a" d=" m 0,0  h 15  l 6,4  3,0  6,-4  h 238.85174560546875  v 5  H 268.85174560546875  V 5  H 268.85174560546875  c 0,10  -8,-8  -8,7.5  s 8,-2.5  8,7.5  v 3  H 268.85174560546875  V 27  H 87.48028564453125  l -6,4  -3,0  -6,-4  h -7 a 8 8 0 0,0 -8,8  v 71 a 8 8 0 0,0 8,8  H 268.85174560546875  H 268.85174560546875  V 114  V 124  h -239.35174560546875  l -6,4  -3,0  -6,-4  h -6.5 a 8 8 0 0,1 -8,-8 z&#10;"/><path class="blocklyPath" stroke="none" fill="#e50099" d=" m 0,0  h 15  l 6,4  3,0  6,-4  h 238.85174560546875  v 5  H 268.85174560546875  V 5  H 268.85174560546875  c 0,10  -8,-8  -8,7.5  s 8,-2.5  8,7.5  v 3  H 268.85174560546875  V 27  H 87.48028564453125  l -6,4  -3,0  -6,-4  h -7 a 8 8 0 0,0 -8,8  v 71 a 8 8 0 0,0 8,8  H 268.85174560546875  H 268.85174560546875  V 114  V 124  h -239.35174560546875  l -6,4  -3,0  -6,-4  h -6.5 a 8 8 0 0,1 -8,-8 z&#10;"/><path class="blocklyPathLight" stroke="#ed4db8" d=" m 0,0  m 0.5,0.5  H 14.5  h 0.5  l 6,4  3,0  6,-4  H 268.35174560546875  H 268.35174560546875  M 268.85174560546875,5  m -5,14.3  l 3.68,-2.1  M 57.48028564453125,114  m 1.9895923599143455,-1.9895923599143455 a 8.5 8.5 0 0,0 6.0104076400856545,2.4895923599143455  l 202.8714599609375,0  H 268.35174560546875  M 0,124  m 2.6966991411008934,-2.6966991411008934 a 7.5 7.5 0 0,1 -2.1966991411008934,-5.303300858899107  V 0.5 &#10;"/><g data-id="F=5G-ZGk9|gbD9L|cDW2" class="blocklyDraggable" style="display: block;" transform="translate(261.85174560546875,0)"><path class="blocklyPathDark" transform="translate(1,1)" fill="#7a00b7" d=" m 8,0  h 40.393707275390625  v 5  H 48.393707275390625  V 5  H 48.393707275390625  V 23  H 48.393707275390625  V 23  V 27  h -40.393707275390625  H 8  V 20  c 0,-10  -8,8  -8,-7.5  s 8,2.5  8,-7.5 z&#10;"/><path class="blocklyPath" stroke="none" fill="#9900e5" d=" m 8,0  h 40.393707275390625  v 5  H 48.393707275390625  V 5  H 48.393707275390625  V 23  H 48.393707275390625  V 23  V 27  h -40.393707275390625  H 8  V 20  c 0,-10  -8,8  -8,-7.5  s 8,2.5  8,-7.5 z&#10;"/><path class="blocklyPathLight" stroke="#b84ded" d=" m 8,0  m 0.5,0.5  H 47.893707275390625  H 47.893707275390625  M 8.5,26.5  M 8.5,26.5  V 20  v -1.5  m -7.36,-0.5  q -1.52,-5.5  0,-11  m 7.36,1  V 0.5 &#10;"/><g class="blocklyEditableText" transform="translate(13,5)" style="cursor: default;"><rect rx="4" ry="4" x="0" y="0" height="18" width="30.393707275390625" class="blocklyFieldRect blocklyDropdownRect" stroke="#b84ded" fill="transparent"/><text class="blocklyText blocklyDropdownText" text-anchor="start" x="5" y="14">t<tspan style="fill: rgb(153, 0, 229);"> ▾</tspan></text><image style="display: none;"/></g></g><g data-id="[69hmarmUyJ!,ES+D^uE" class="blocklyDraggable" style="display: block;" transform="translate(58.48028564453125,28)"><path class="blocklyPathDark" transform="translate(1,1)" fill="#007ab7" d=" m 0,0  m 0,8 a 8 8 0 0,1 8,-8  h 7  l 6,4  3,0  6,-4  h 57.48028564453125  v 5  H 87.48028564453125  V 5  H 87.48028564453125  c 0,10  -8,-8  -8,7.5  s 8,-2.5  8,7.5  v 14  H 87.48028564453125  V 38  H 87.48028564453125  l -6,4  -3,0  -6,-4  h -7 a 8 8 0 0,0 -8,8  v 17 a 8 8 0 0,0 8,8  H 87.48028564453125  H 87.48028564453125  V 71  V 81  h -57.98028564453125  l -6,4  -3,0  -6,-4  h -6.5 a 8 8 0 0,1 -8,-8 z&#10;"/><path class="blocklyPath" stroke="none" fill="#0098e5" d=" m 0,0  m 0,8 a 8 8 0 0,1 8,-8  h 7  l 6,4  3,0  6,-4  h 57.48028564453125  v 5  H 87.48028564453125  V 5  H 87.48028564453125  c 0,10  -8,-8  -8,7.5  s 8,-2.5  8,7.5  v 14  H 87.48028564453125  V 38  H 87.48028564453125  l -6,4  -3,0  -6,-4  h -7 a 8 8 0 0,0 -8,8  v 17 a 8 8 0 0,0 8,8  H 87.48028564453125  H 87.48028564453125  V 71  V 81  h -57.98028564453125  l -6,4  -3,0  -6,-4  h -6.5 a 8 8 0 0,1 -8,-8 z&#10;"/><path class="blocklyPathLight" stroke="#4db7ed" d=" m 0,0  m 0.5,8 a 7.5 7.5 0 0,1 8,-7.5  H 14.5  h 0.5  l 6,4  3,0  6,-4  H 86.98028564453125  H 86.98028564453125  M 87.48028564453125,5  m -5,14.3  l 3.68,-2.1  M 57.48028564453125,71  m 1.9895923599143455,-1.9895923599143455 a 8.5 8.5 0 0,0 6.0104076400856545,2.4895923599143455  l 21.5,0  H 86.98028564453125  M 0,81  m 2.6966991411008934,-2.6966991411008934 a 7.5 7.5 0 0,1 -2.1966991411008934,-5.303300858899107  V 8 &#10;"/><g class="blocklyIconGroup" display="block" transform="translate(10,5)"><rect class="blocklyIconShape" rx="4" ry="4" height="16" width="16"/><path class="blocklyIconSymbol" d="m4.203,7.296 0,1.368 -0.92,0.677 -0.11,0.41 0.9,1.559 0.41,0.11 1.043,-0.457 1.187,0.683 0.127,1.134 0.3,0.3 1.8,0 0.3,-0.299 0.127,-1.138 1.185,-0.682 1.046,0.458 0.409,-0.11 0.9,-1.559 -0.11,-0.41 -0.92,-0.677 0,-1.366 0.92,-0.677 0.11,-0.41 -0.9,-1.559 -0.409,-0.109 -1.046,0.458 -1.185,-0.682 -0.127,-1.138 -0.3,-0.299 -1.8,0 -0.3,0.3 -0.126,1.135 -1.187,0.682 -1.043,-0.457 -0.41,0.11 -0.899,1.559 0.108,0.409z"/><circle class="blocklyIconShape" r="2.7" cx="8" cy="8"/></g><g data-id="THxiWzNTsQ.rIWosk0@E" class="blocklyDraggable" style="display: block;" transform="translate(80.48028564453125,0)"><path class="blocklyPathDark" transform="translate(1,1)" fill="#007ab7" d=" m 8,0  h 225.24122619628906  v 5  H 233.24122619628906  V 5  H 233.24122619628906  V 34  H 233.24122619628906  V 34  V 38  h -225.24122619628906  H 8  V 20  c 0,-10  -8,8  -8,-7.5  s 8,2.5  8,-7.5 z&#10; M 24,5  v 5  c 0,10  -8,-8  -8,7.5  s 8,-2.5  8,7.5  v 9  h 90.47529602050781  v -29 z M 165.35719299316406,5  v 5  c 0,10  -8,-8  -8,7.5  s 8,-2.5  8,7.5  v 9  h 57.884033203125  v -29 z"/><path class="blocklyPath" stroke="none" fill="#0098e5" d=" m 8,0  h 225.24122619628906  v 5  H 233.24122619628906  V 5  H 233.24122619628906  V 34  H 233.24122619628906  V 34  V 38  h -225.24122619628906  H 8  V 20  c 0,-10  -8,8  -8,-7.5  s 8,2.5  8,-7.5 z&#10; M 24,5  v 5  c 0,10  -8,-8  -8,7.5  s 8,-2.5  8,7.5  v 9  h 90.47529602050781  v -29 z M 165.35719299316406,5  v 5  c 0,10  -8,-8  -8,7.5  s 8,-2.5  8,7.5  v 9  h 57.884033203125  v -29 z"/><path class="blocklyPathLight" stroke="#4db7ed" d=" m 8,0  m 0.5,0.5  H 232.74122619628906  H 232.74122619628906  M 8.5,37.5  M 8.5,37.5  V 20  v -1.5  m -7.36,-0.5  q -1.52,-5.5  0,-11  m 7.36,1  V 0.5 &#10; M 114.97529602050781,5.5  v 29  h -90.47529602050781  M 24,10  m -5,14.3  l 3.68,-2.1  M 223.74122619628906,5.5  v 29  h -57.884033203125  M 165.35719299316406,10  m -5,14.3  l 3.68,-2.1 "/><g data-id="4id/uk8gPwXqK3kCK-xP" class="blocklyDraggable" style="display: block;" transform="translate(17,6)"><path class="blocklyPathDark" transform="translate(1,1)" fill="#7a00b7" d=" m 8,0  h 88.47529602050781  v 5  H 96.47529602050781  V 5  H 96.47529602050781  V 23  H 96.47529602050781  V 23  V 27  h -88.47529602050781  H 8  V 20  c 0,-10  -8,8  -8,-7.5  s 8,2.5  8,-7.5 z&#10;"/><path class="blocklyPath" stroke="none" fill="#9900e5" d=" m 8,0  h 88.47529602050781  v 5  H 96.47529602050781  V 5  H 96.47529602050781  V 23  H 96.47529602050781  V 23  V 27  h -88.47529602050781  H 8  V 20  c 0,-10  -8,8  -8,-7.5  s 8,2.5  8,-7.5 z&#10;"/><path class="blocklyPathLight" stroke="#b84ded" d=" m 8,0  m 0.5,0.5  H 95.97529602050781  H 95.97529602050781  M 8.5,26.5  M 8.5,26.5  V 20  v -1.5  m -7.36,-0.5  q -1.52,-5.5  0,-11  m 7.36,1  V 0.5 &#10;"/><g class="blocklyEditableText" transform="translate(13,5)" style="cursor: default;"><rect rx="4" ry="4" x="0" y="0" height="18" width="78.47529602050781" class="blocklyFieldRect blocklyDropdownRect" stroke="#b84ded" fill="transparent"/><text class="blocklyText blocklyDropdownText" text-anchor="start" x="5" y="14">element<tspan style="fill: rgb(153, 0, 229);"> ▾</tspan></text><image style="display: none;"/></g></g><g data-id="w_o-3pgDJL3SOS|b}^WL" class="blocklyDraggable" style="display: block;" transform="translate(158.35719299316406,6)"><path class="blocklyPathDark" transform="translate(1,1)" fill="#7a00b7" d=" m 8,0  h 55.884033203125  v 5  H 63.884033203125  V 5  H 63.884033203125  V 23  H 63.884033203125  V 23  V 27  h -55.884033203125  H 8  V 20  c 0,-10  -8,8  -8,-7.5  s 8,2.5  8,-7.5 z&#10;"/><path class="blocklyPath" stroke="none" fill="#9900e5" d=" m 8,0  h 55.884033203125  v 5  H 63.884033203125  V 5  H 63.884033203125  V 23  H 63.884033203125  V 23  V 27  h -55.884033203125  H 8  V 20  c 0,-10  -8,8  -8,-7.5  s 8,2.5  8,-7.5 z&#10;"/><path class="blocklyPathLight" stroke="#b84ded" d=" m 8,0  m 0.5,0.5  H 63.384033203125  H 63.384033203125  M 8.5,26.5  M 8.5,26.5  V 20  v -1.5  m -7.36,-0.5  q -1.52,-5.5  0,-11  m 7.36,1  V 0.5 &#10;"/><g class="blocklyEditableText" transform="translate(13,5)" style="cursor: default;"><rect rx="4" ry="4" x="0" y="0" height="18" width="45.884033203125" class="blocklyFieldRect blocklyDropdownRect" stroke="#b84ded" fill="transparent"/><text class="blocklyText blocklyDropdownText" text-anchor="start" x="5" y="14">naj<tspan style="fill: rgb(153, 0, 229);"> ▾</tspan></text><image style="display: none;"/></g></g><g class="blocklyEditableText" transform="translate(119.47529602050781,10)" style="cursor: default;"><rect rx="4" ry="4" x="0" y="0" height="18" width="34.88189697265625" class="blocklyFieldRect blocklyDropdownRect" stroke="#4db7ed" fill="transparent"/><text class="blocklyText blocklyDropdownText" text-anchor="start" x="5" y="14">‏&gt;<tspan style="fill: rgb(0, 152, 229);"> ▾</tspan></text><image style="display: none;"/></g></g><g data-id="(%5@[j[$?WwT7S#gEq-A" class="blocklyDraggable" style="display: block;" transform="translate(58.48028564453125,39)"><path class="blocklyPathDark" transform="translate(1,1)" fill="#7a00b7" d=" m 0,0  m 0,8 a 8 8 0 0,1 8,-8  h 7  l 6,4  3,0  6,-4  h 116.63990783691406  v 5  H 146.63990783691406  V 5  H 146.63990783691406  c 0,10  -8,-8  -8,7.5  s 8,-2.5  8,7.5  v 3  H 146.63990783691406  V 23  V 27  h -117.13990783691406  l -6,4  -3,0  -6,-4  h -6.5 a 8 8 0 0,1 -8,-8 z&#10;"/><path class="blocklyPath" stroke="none" fill="#9900e5" d=" m 0,0  m 0,8 a 8 8 0 0,1 8,-8  h 7  l 6,4  3,0  6,-4  h 116.63990783691406  v 5  H 146.63990783691406  V 5  H 146.63990783691406  c 0,10  -8,-8  -8,7.5  s 8,-2.5  8,7.5  v 3  H 146.63990783691406  V 23  V 27  h -117.13990783691406  l -6,4  -3,0  -6,-4  h -6.5 a 8 8 0 0,1 -8,-8 z&#10;"/><path class="blocklyPathLight" stroke="#b84ded" d=" m 0,0  m 0.5,8 a 7.5 7.5 0 0,1 8,-7.5  H 14.5  h 0.5  l 6,4  3,0  6,-4  H 146.13990783691406  H 146.13990783691406  M 146.63990783691406,5  m -5,14.3  l 3.68,-2.1  M 0,27  m 2.6966991411008934,-2.6966991411008934 a 7.5 7.5 0 0,1 -2.1966991411008934,-5.303300858899107  V 8 &#10;"/><g data-id="!yjvq$y:=Y#r^kUD,;gH" class="blocklyDraggable" style="display: block;" transform="translate(139.63990783691406,0)"><path class="blocklyPathDark" transform="translate(1,1)" fill="#7a00b7" d=" m 8,0  h 88.47529602050781  v 5  H 96.47529602050781  V 5  H 96.47529602050781  V 23  H 96.47529602050781  V 23  V 27  h -88.47529602050781  H 8  V 20  c 0,-10  -8,8  -8,-7.5  s 8,2.5  8,-7.5 z&#10;"/><path class="blocklyPath" stroke="none" fill="#9900e5" d=" m 8,0  h 88.47529602050781  v 5  H 96.47529602050781  V 5  H 96.47529602050781  V 23  H 96.47529602050781  V 23  V 27  h -88.47529602050781  H 8  V 20  c 0,-10  -8,8  -8,-7.5  s 8,2.5  8,-7.5 z&#10;"/><path class="blocklyPathLight" stroke="#b84ded" d=" m 8,0  m 0.5,0.5  H 95.97529602050781  H 95.97529602050781  M 8.5,26.5  M 8.5,26.5  V 20  v -1.5  m -7.36,-0.5  q -1.52,-5.5  0,-11  m 7.36,1  V 0.5 &#10;"/><g class="blocklyEditableText" transform="translate(13,5)" style="cursor: default;"><rect rx="4" ry="4" x="0" y="0" height="18" width="78.47529602050781" class="blocklyFieldRect blocklyDropdownRect" stroke="#b84ded" fill="transparent"/><text class="blocklyText blocklyDropdownText" text-anchor="start" x="5" y="14">element<tspan style="fill: rgb(153, 0, 229);"> ▾</tspan></text><image style="display: none;"/></g></g><g transform="translate(10,5)"><text class="blocklyText" x="0" y="14">nastavi</text></g><g class="blocklyEditableText" transform="translate(61.44950866699219,5)" style="cursor: default;"><rect rx="4" ry="4" x="0" y="0" height="18" width="45.884033203125" class="blocklyFieldRect blocklyDropdownRect" stroke="#b84ded" fill="transparent"/><text class="blocklyText blocklyDropdownText" text-anchor="start" x="5" y="14">naj<tspan style="fill: rgb(153, 0, 229);"> ▾</tspan></text><image style="display: none;"/></g><g transform="translate(112.33354187011719,5)"><text class="blocklyText" x="0" y="14">na</text></g></g><g transform="translate(37,5)"><text class="blocklyText" x="0" y="14">če</text></g><g transform="translate(10,43)"><text class="blocklyText" x="0" y="14">izvedi</text></g></g><g transform="translate(10,5)"><text class="blocklyText" x="0" y="14">za vsak element</text></g><g class="blocklyEditableText" transform="translate(120.92694091796875,5)" style="cursor: default;"><rect rx="4" ry="4" x="0" y="0" height="18" width="78.47529602050781" class="blocklyFieldRect blocklyDropdownRect" stroke="#ed4db8" fill="transparent"/><text class="blocklyText blocklyDropdownText" text-anchor="start" x="5" y="14">element<tspan style="fill: rgb(229, 0, 153);"> ▾</tspan></text><image style="display: none;"/></g><g transform="translate(204.40223693847656,5)"><text class="blocklyText" x="0" y="14">v tabeli</text></g><g transform="translate(10,32)"><text class="blocklyText" x="0" y="14">izvedi</text></g></g><g transform="translate(10,5)"><text class="blocklyText" x="0" y="14">nastavi</text></g><g class="blocklyEditableText" transform="translate(61.44950866699219,5)" style="cursor: default;"><rect rx="4" ry="4" x="0" y="0" height="18" width="45.884033203125" class="blocklyFieldRect blocklyDropdownRect" stroke="#b84ded" fill="transparent"/><text class="blocklyText blocklyDropdownText" text-anchor="start" x="5" y="14">naj<tspan style="fill: rgb(153, 0, 229);"> ▾</tspan></text><image style="display: none;"/></g><g transform="translate(112.33354187011719,5)"><text class="blocklyText" x="0" y="14">na</text></g></g><g data-id="3(R[6nho!wBOeC?~xG:F" class="blocklyDraggable" style="display: block;" transform="translate(214.7565460205078,196)"><path class="blocklyPathDark" transform="translate(1,1)" fill="#7a00b7" d=" m 8,0  h 55.884033203125  v 5  H 63.884033203125  V 5  H 63.884033203125  V 23  H 63.884033203125  V 23  V 27  h -55.884033203125  H 8  V 20  c 0,-10  -8,8  -8,-7.5  s 8,2.5  8,-7.5 z&#10;"/><path class="blocklyPath" stroke="none" fill="#9900e5" d=" m 8,0  h 55.884033203125  v 5  H 63.884033203125  V 5  H 63.884033203125  V 23  H 63.884033203125  V 23  V 27  h -55.884033203125  H 8  V 20  c 0,-10  -8,8  -8,-7.5  s 8,2.5  8,-7.5 z&#10;"/><path class="blocklyPathLight" stroke="#b84ded" d=" m 8,0  m 0.5,0.5  H 63.384033203125  H 63.384033203125  M 8.5,26.5  M 8.5,26.5  V 20  v -1.5  m -7.36,-0.5  q -1.52,-5.5  0,-11  m 7.36,1  V 0.5 &#10;"/><g class="blocklyEditableText" transform="translate(13,5)" style="cursor: default;"><rect rx="4" ry="4" x="0" y="0" height="18" width="45.884033203125" class="blocklyFieldRect blocklyDropdownRect" stroke="#b84ded" fill="transparent"/><text class="blocklyText blocklyDropdownText" text-anchor="start" x="5" y="14">naj<tspan style="fill: rgb(153, 0, 229);"> ▾</tspan></text><image style="display: none;"/></g></g><g transform="translate(64,5)"><text class="blocklyText" x="0" y="14">izvedi</text></g><g class="blocklyEditableText" transform="translate(106.48028564453125,5)" style="cursor: text;"><rect rx="4" ry="4" x="0" y="0" height="18" width="61.32423400878906" class="blocklyFieldRect"/><text class="blocklyText" x="5" y="14">Najvecji</text></g><g transform="translate(172.8045196533203,5)"><text class="blocklyText" x="0" y="14">s/z: t</text></g><g transform="translate(180.134521484375,201)"><text class="blocklyText" x="0" y="14">vrni</text></g></g><g data-id="=UJ5WlfQG~eQ.~L!s@f9" class="blocklyDraggable" transform="translate(10,265)"><path class="blocklyPathDark" transform="translate(1,1)" fill="#7a00b7" d=" m 0,0  m 0,8 a 8 8 0 0,1 8,-8  h 7  l 6,4  3,0  6,-4  h 137.019287109375  v 5  H 167.019287109375  V 5  H 167.019287109375  c 0,10  -8,-8  -8,7.5  s 8,-2.5  8,7.5  v 14  H 167.019287109375  V 34  V 38  h -137.519287109375  l -6,4  -3,0  -6,-4  h -14.5  H 0 z&#10;"/><path class="blocklyPath" stroke="none" fill="#9900e5" d=" m 0,0  m 0,8 a 8 8 0 0,1 8,-8  h 7  l 6,4  3,0  6,-4  h 137.019287109375  v 5  H 167.019287109375  V 5  H 167.019287109375  c 0,10  -8,-8  -8,7.5  s 8,-2.5  8,7.5  v 14  H 167.019287109375  V 34  V 38  h -137.519287109375  l -6,4  -3,0  -6,-4  h -14.5  H 0 z&#10;"/><path class="blocklyPathLight" stroke="#b84ded" d=" m 0,0  m 0.5,8 a 7.5 7.5 0 0,1 8,-7.5  H 14.5  h 0.5  l 6,4  3,0  6,-4  H 166.519287109375  H 166.519287109375  M 167.019287109375,5  m -5,14.3  l 3.68,-2.1  M 0.5,37.5  V 8 &#10;"/><g data-id="t`2hs:Iin:}KWCt$Q:$8" class="blocklyDraggable" style="display: block;" transform="translate(160.019287109375,0)"><path class="blocklyPathDark" transform="translate(1,1)" fill="#b71e00" d=" m 8,0  h 443.3857421875  v 5  H 451.3857421875  V 5  H 451.3857421875  V 34  H 451.3857421875  V 34  V 38  h -443.3857421875  H 8  V 20  c 0,-10  -8,8  -8,-7.5  s 8,2.5  8,-7.5 z&#10; M 162.85391235351562,5  v 5  c 0,10  -8,-8  -8,7.5  s 8,-2.5  8,7.5  v 9  h 38.306365966796875  v -29 z M 214.1602783203125,5  v 5  c 0,10  -8,-8  -8,7.5  s 8,-2.5  8,7.5  v 9  h 30.153182983398438  v -29 z M 257.31346130371094,5  v 5  c 0,10  -8,-8  -8,7.5  s 8,-2.5  8,7.5  v 9  h 38.306365966796875  v -29 z M 308.6198272705078,5  v 5  c 0,10  -8,-8  -8,7.5  s 8,-2.5  8,7.5  v 9  h 38.306365966796875  v -29 z M 359.9261932373047,5  v 5  c 0,10  -8,-8  -8,7.5  s 8,-2.5  8,7.5  v 9  h 38.306365966796875  v -29 z M 411.23255920410156,5  v 5  c 0,10  -8,-8  -8,7.5  s 8,-2.5  8,7.5  v 9  h 30.153182983398438  v -29 z"/><path class="blocklyPath" stroke="none" fill="#e52600" d=" m 8,0  h 443.3857421875  v 5  H 451.3857421875  V 5  H 451.3857421875  V 34  H 451.3857421875  V 34  V 38  h -443.3857421875  H 8  V 20  c 0,-10  -8,8  -8,-7.5  s 8,2.5  8,-7.5 z&#10; M 162.85391235351562,5  v 5  c 0,10  -8,-8  -8,7.5  s 8,-2.5  8,7.5  v 9  h 38.306365966796875  v -29 z M 214.1602783203125,5  v 5  c 0,10  -8,-8  -8,7.5  s 8,-2.5  8,7.5  v 9  h 30.153182983398438  v -29 z M 257.31346130371094,5  v 5  c 0,10  -8,-8  -8,7.5  s 8,-2.5  8,7.5  v 9  h 38.306365966796875  v -29 z M 308.6198272705078,5  v 5  c 0,10  -8,-8  -8,7.5  s 8,-2.5  8,7.5  v 9  h 38.306365966796875  v -29 z M 359.9261932373047,5  v 5  c 0,10  -8,-8  -8,7.5  s 8,-2.5  8,7.5  v 9  h 38.306365966796875  v -29 z M 411.23255920410156,5  v 5  c 0,10  -8,-8  -8,7.5  s 8,-2.5  8,7.5  v 9  h 30.153182983398438  v -29 z"/><path class="blocklyPathLight" stroke="#ed674d" d=" m 8,0  m 0.5,0.5  H 450.8857421875  H 450.8857421875  M 8.5,37.5  M 8.5,37.5  V 20  v -1.5  m -7.36,-0.5  q -1.52,-5.5  0,-11  m 7.36,1  V 0.5 &#10; M 201.6602783203125,5.5  v 29  h -38.306365966796875  M 162.85391235351562,10  m -5,14.3  l 3.68,-2.1  M 244.81346130371094,5.5  v 29  h -30.153182983398438  M 214.1602783203125,10  m -5,14.3  l 3.68,-2.1  M 296.1198272705078,5.5  v 29  h -38.306365966796875  M 257.31346130371094,10  m -5,14.3  l 3.68,-2.1  M 347.4261932373047,5.5  v 29  h -38.306365966796875  M 308.6198272705078,10  m -5,14.3  l 3.68,-2.1  M 398.73255920410156,5.5  v 29  h -38.306365966796875  M 359.9261932373047,10  m -5,14.3  l 3.68,-2.1  M 441.8857421875,5.5  v 29  h -30.153182983398438  M 411.23255920410156,10  m -5,14.3  l 3.68,-2.1 "/><g class="blocklyIconGroup" display="block" transform="translate(18,10)"><rect class="blocklyIconShape" rx="4" ry="4" height="16" width="16"/><path class="blocklyIconSymbol" d="m4.203,7.296 0,1.368 -0.92,0.677 -0.11,0.41 0.9,1.559 0.41,0.11 1.043,-0.457 1.187,0.683 0.127,1.134 0.3,0.3 1.8,0 0.3,-0.299 0.127,-1.138 1.185,-0.682 1.046,0.458 0.409,-0.11 0.9,-1.559 -0.11,-0.41 -0.92,-0.677 0,-1.366 0.92,-0.677 0.11,-0.41 -0.9,-1.559 -0.409,-0.109 -1.046,0.458 -1.185,-0.682 -0.127,-1.138 -0.3,-0.299 -1.8,0 -0.3,0.3 -0.126,1.135 -1.187,0.682 -1.043,-0.457 -0.41,0.11 -0.899,1.559 0.108,0.409z"/><circle class="blocklyIconShape" r="2.7" cx="8" cy="8"/></g><g data-id="(Ctxs3!v_gO*R|C0A2)o" class="blocklyDraggable" style="display: block;" transform="translate(155.85391235351562,6)"><path class="blocklyPathDark" transform="translate(1,1)" fill="#003db7" d=" m 8,0  h 36.306365966796875  v 5  H 44.306365966796875  V 5  H 44.306365966796875  V 23  H 44.306365966796875  V 23  V 27  h -36.306365966796875  H 8  V 20  c 0,-10  -8,8  -8,-7.5  s 8,2.5  8,-7.5 z&#10;"/><path class="blocklyPath" stroke="none" fill="#004ce5" d=" m 8,0  h 36.306365966796875  v 5  H 44.306365966796875  V 5  H 44.306365966796875  V 23  H 44.306365966796875  V 23  V 27  h -36.306365966796875  H 8  V 20  c 0,-10  -8,8  -8,-7.5  s 8,2.5  8,-7.5 z&#10;"/><path class="blocklyPathLight" stroke="#4d82ed" d=" m 8,0  m 0.5,0.5  H 43.806365966796875  H 43.806365966796875  M 8.5,26.5  M 8.5,26.5  V 20  v -1.5  m -7.36,-0.5  q -1.52,-5.5  0,-11  m 7.36,1  V 0.5 &#10;"/><g class="blocklyEditableText" transform="translate(13,5)" style="cursor: text;"><rect rx="4" ry="4" x="0" y="0" height="18" width="26.306365966796875" class="blocklyFieldRect"/><text class="blocklyText" x="5" y="14">10</text></g></g><g data-id="+.-2-n.qz1WkeOT-dp1x" class="blocklyDraggable" style="display: block;" transform="translate(207.1602783203125,6)"><path class="blocklyPathDark" transform="translate(1,1)" fill="#003db7" d=" m 8,0  h 28.153182983398438  v 5  H 36.15318298339844  V 5  H 36.15318298339844  V 23  H 36.15318298339844  V 23  V 27  h -28.153182983398438  H 8  V 20  c 0,-10  -8,8  -8,-7.5  s 8,2.5  8,-7.5 z&#10;"/><path class="blocklyPath" stroke="none" fill="#004ce5" d=" m 8,0  h 28.153182983398438  v 5  H 36.15318298339844  V 5  H 36.15318298339844  V 23  H 36.15318298339844  V 23  V 27  h -28.153182983398438  H 8  V 20  c 0,-10  -8,8  -8,-7.5  s 8,2.5  8,-7.5 z&#10;"/><path class="blocklyPathLight" stroke="#4d82ed" d=" m 8,0  m 0.5,0.5  H 35.65318298339844  H 35.65318298339844  M 8.5,26.5  M 8.5,26.5  V 20  v -1.5  m -7.36,-0.5  q -1.52,-5.5  0,-11  m 7.36,1  V 0.5 &#10;"/><g class="blocklyEditableText" transform="translate(13,5)" style="cursor: text;"><rect rx="4" ry="4" x="0" y="0" height="18" width="18.153182983398438" class="blocklyFieldRect"/><text class="blocklyText" x="5" y="14">5</text></g></g><g data-id="B|LrTZ4FmU1@d~iUu0go" class="blocklyDraggable" style="display: block;" transform="translate(250.31346130371094,6)"><path class="blocklyPathDark" transform="translate(1,1)" fill="#003db7" d=" m 8,0  h 36.306365966796875  v 5  H 44.306365966796875  V 5  H 44.306365966796875  V 23  H 44.306365966796875  V 23  V 27  h -36.306365966796875  H 8  V 20  c 0,-10  -8,8  -8,-7.5  s 8,2.5  8,-7.5 z&#10;"/><path class="blocklyPath" stroke="none" fill="#004ce5" d=" m 8,0  h 36.306365966796875  v 5  H 44.306365966796875  V 5  H 44.306365966796875  V 23  H 44.306365966796875  V 23  V 27  h -36.306365966796875  H 8  V 20  c 0,-10  -8,8  -8,-7.5  s 8,2.5  8,-7.5 z&#10;"/><path class="blocklyPathLight" stroke="#4d82ed" d=" m 8,0  m 0.5,0.5  H 43.806365966796875  H 43.806365966796875  M 8.5,26.5  M 8.5,26.5  V 20  v -1.5  m -7.36,-0.5  q -1.52,-5.5  0,-11  m 7.36,1  V 0.5 &#10;"/><g class="blocklyEditableText" transform="translate(13,5)" style="cursor: text;"><rect rx="4" ry="4" x="0" y="0" height="18" width="26.306365966796875" class="blocklyFieldRect"/><text class="blocklyText" x="5" y="14">20</text></g></g><g data-id="vjH0:}kPH]aR(3ycCjEL" class="blocklyDraggable" style="display: block;" transform="translate(301.6198272705078,6)"><path class="blocklyPathDark" transform="translate(1,1)" fill="#003db7" d=" m 8,0  h 36.306365966796875  v 5  H 44.306365966796875  V 5  H 44.306365966796875  V 23  H 44.306365966796875  V 23  V 27  h -36.306365966796875  H 8  V 20  c 0,-10  -8,8  -8,-7.5  s 8,2.5  8,-7.5 z&#10;"/><path class="blocklyPath" stroke="none" fill="#004ce5" d=" m 8,0  h 36.306365966796875  v 5  H 44.306365966796875  V 5  H 44.306365966796875  V 23  H 44.306365966796875  V 23  V 27  h -36.306365966796875  H 8  V 20  c 0,-10  -8,8  -8,-7.5  s 8,2.5  8,-7.5 z&#10;"/><path class="blocklyPathLight" stroke="#4d82ed" d=" m 8,0  m 0.5,0.5  H 43.806365966796875  H 43.806365966796875  M 8.5,26.5  M 8.5,26.5  V 20  v -1.5  m -7.36,-0.5  q -1.52,-5.5  0,-11  m 7.36,1  V 0.5 &#10;"/><g class="blocklyEditableText" transform="translate(13,5)" style="cursor: text;"><rect rx="4" ry="4" x="0" y="0" height="18" width="26.306365966796875" class="blocklyFieldRect"/><text class="blocklyText" x="5" y="14">16</text></g></g><g data-id="yI4^=#[)Mius!#Nv]=.#" class="blocklyDraggable" style="display: block;" transform="translate(352.9261932373047,6)"><path class="blocklyPathDark" transform="translate(1,1)" fill="#003db7" d=" m 8,0  h 36.306365966796875  v 5  H 44.306365966796875  V 5  H 44.306365966796875  V 23  H 44.306365966796875  V 23  V 27  h -36.306365966796875  H 8  V 20  c 0,-10  -8,8  -8,-7.5  s 8,2.5  8,-7.5 z&#10;"/><path class="blocklyPath" stroke="none" fill="#004ce5" d=" m 8,0  h 36.306365966796875  v 5  H 44.306365966796875  V 5  H 44.306365966796875  V 23  H 44.306365966796875  V 23  V 27  h -36.306365966796875  H 8  V 20  c 0,-10  -8,8  -8,-7.5  s 8,2.5  8,-7.5 z&#10;"/><path class="blocklyPathLight" stroke="#4d82ed" d=" m 8,0  m 0.5,0.5  H 43.806365966796875  H 43.806365966796875  M 8.5,26.5  M 8.5,26.5  V 20  v -1.5  m -7.36,-0.5  q -1.52,-5.5  0,-11  m 7.36,1  V 0.5 &#10;"/><g class="blocklyEditableText" transform="translate(13,5)" style="cursor: text;"><rect rx="4" ry="4" x="0" y="0" height="18" width="26.306365966796875" class="blocklyFieldRect"/><text class="blocklyText" x="5" y="14">21</text></g></g><g data-id="T9Ou)5rIotrpD#U3da8i" class="blocklyDraggable" style="display: block;" transform="translate(404.23255920410156,6)"><path class="blocklyPathDark" transform="translate(1,1)" fill="#003db7" d=" m 8,0  h 28.153182983398438  v 5  H 36.15318298339844  V 5  H 36.15318298339844  V 23  H 36.15318298339844  V 23  V 27  h -28.153182983398438  H 8  V 20  c 0,-10  -8,8  -8,-7.5  s 8,2.5  8,-7.5 z&#10;"/><path class="blocklyPath" stroke="none" fill="#004ce5" d=" m 8,0  h 28.153182983398438  v 5  H 36.15318298339844  V 5  H 36.15318298339844  V 23  H 36.15318298339844  V 23  V 27  h -28.153182983398438  H 8  V 20  c 0,-10  -8,8  -8,-7.5  s 8,2.5  8,-7.5 z&#10;"/><path class="blocklyPathLight" stroke="#4d82ed" d=" m 8,0  m 0.5,0.5  H 35.65318298339844  H 35.65318298339844  M 8.5,26.5  M 8.5,26.5  V 20  v -1.5  m -7.36,-0.5  q -1.52,-5.5  0,-11  m 7.36,1  V 0.5 &#10;"/><g class="blocklyEditableText" transform="translate(13,5)" style="cursor: text;"><rect rx="4" ry="4" x="0" y="0" height="18" width="18.153182983398438" class="blocklyFieldRect"/><text class="blocklyText" x="5" y="14">8</text></g></g><g transform="translate(45,10)"><text class="blocklyText" x="0" y="14">ustvari tabelo iz</text></g></g><g data-id="u2Iu?Jmx3L;DsvoAFHR`" class="blocklyDraggable" transform="translate(0,39)"><path class="blocklyPathDark" transform="translate(1,1)" fill="#b79900" d=" m 0,0  h 15  l 6,4  3,0  6,-4  h 129.55612182617188  v 5  H 159.55612182617188  V 5  H 159.55612182617188  V 23  H 159.55612182617188  V 23  V 27  h -130.05612182617188  l -6,4  -3,0  -6,-4  h -14.5  H 0 z&#10;"/><path class="blocklyPath" stroke="none" fill="#e5bf00" d=" m 0,0  h 15  l 6,4  3,0  6,-4  h 129.55612182617188  v 5  H 159.55612182617188  V 5  H 159.55612182617188  V 23  H 159.55612182617188  V 23  V 27  h -130.05612182617188  l -6,4  -3,0  -6,-4  h -14.5  H 0 z&#10;"/><path class="blocklyPathLight" stroke="#edd24d" d=" m 0,0  m 0.5,0.5  H 14.5  h 0.5  l 6,4  3,0  6,-4  H 159.05612182617188  H 159.05612182617188  M 0.5,26.5  V 0.5 &#10;"/><g data-id="OIi,9^H_oYRT*QwVr{_?" class="blocklyDraggable" transform="translate(0,28)"><path class="blocklyPathDark" transform="translate(1,1)" fill="#b79900" d=" m 0,0  h 15  l 6,4  3,0  6,-4  h 30.584075927734375  v 5  H 60.584075927734375  V 5  H 60.584075927734375  c 0,10  -8,-8  -8,7.5  s 8,-2.5  8,7.5  v 14  H 60.584075927734375  V 34  V 38  h -31.084075927734375  l -6,4  -3,0  -6,-4  h -6.5 a 8 8 0 0,1 -8,-8 z&#10;"/><path class="blocklyPath" stroke="none" fill="#e5bf00" d=" m 0,0  h 15  l 6,4  3,0  6,-4  h 30.584075927734375  v 5  H 60.584075927734375  V 5  H 60.584075927734375  c 0,10  -8,-8  -8,7.5  s 8,-2.5  8,7.5  v 14  H 60.584075927734375  V 34  V 38  h -31.084075927734375  l -6,4  -3,0  -6,-4  h -6.5 a 8 8 0 0,1 -8,-8 z&#10;"/><path class="blocklyPathLight" stroke="#edd24d" d=" m 0,0  m 0.5,0.5  H 14.5  h 0.5  l 6,4  3,0  6,-4  H 60.084075927734375  H 60.084075927734375  M 60.584075927734375,5  m -5,14.3  l 3.68,-2.1  M 0,38  m 2.6966991411008934,-2.6966991411008934 a 7.5 7.5 0 0,1 -2.1966991411008934,-5.303300858899107  V 0.5 &#10;"/><g data-id="I_G,$,v+5IPmW:[`gDsO" class="blocklyDraggable" style="display: block;" transform="translate(53.584075927734375,0)"><path class="blocklyPathDark" transform="translate(1,1)" fill="#00b700" d=" m 8,0  h 212.46665954589844  v 5  H 220.46665954589844  V 5  H 220.46665954589844  V 34  H 220.46665954589844  V 34  V 38  h -212.46665954589844  H 8  V 20  c 0,-10  -8,8  -8,-7.5  s 8,2.5  8,-7.5 z&#10; M 132.2032470703125,5  v 5  c 0,10  -8,-8  -8,7.5  s 8,-2.5  8,7.5  v 9  h 78.26341247558594  v -29 z"/><path class="blocklyPath" stroke="none" fill="#00e500" d=" m 8,0  h 212.46665954589844  v 5  H 220.46665954589844  V 5  H 220.46665954589844  V 34  H 220.46665954589844  V 34  V 38  h -212.46665954589844  H 8  V 20  c 0,-10  -8,8  -8,-7.5  s 8,2.5  8,-7.5 z&#10; M 132.2032470703125,5  v 5  c 0,10  -8,-8  -8,7.5  s 8,-2.5  8,7.5  v 9  h 78.26341247558594  v -29 z"/><path class="blocklyPathLight" stroke="#4ded4d" d=" m 8,0  m 0.5,0.5  H 219.96665954589844  H 219.96665954589844  M 8.5,37.5  M 8.5,37.5  V 20  v -1.5  m -7.36,-0.5  q -1.52,-5.5  0,-11  m 7.36,1  V 0.5 &#10; M 210.96665954589844,5.5  v 29  h -78.26341247558594  M 132.2032470703125,10  m -5,14.3  l 3.68,-2.1 "/><g transform="translate(112.13023376464844,10)"><text class="blocklyText" x="0" y="14">t</text></g><g transform="translate(18,10)"><text class="blocklyText" x="0" y="14">Najvecji</text></g><g transform="translate(79.32423400878906,10)"><text class="blocklyText" x="0" y="14">s/z:</text></g><g data-id="XF$H;Syo(OdzS;~B|68F" class="blocklyDraggable" style="display: block;" transform="translate(125.2032470703125,6)"><path class="blocklyPathDark" transform="translate(1,1)" fill="#7a00b7" d=" m 8,0  h 76.26341247558594  v 5  H 84.26341247558594  V 5  H 84.26341247558594  V 23  H 84.26341247558594  V 23  V 27  h -76.26341247558594  H 8  V 20  c 0,-10  -8,8  -8,-7.5  s 8,2.5  8,-7.5 z&#10;"/><path class="blocklyPath" stroke="none" fill="#9900e5" d=" m 8,0  h 76.26341247558594  v 5  H 84.26341247558594  V 5  H 84.26341247558594  V 23  H 84.26341247558594  V 23  V 27  h -76.26341247558594  H 8  V 20  c 0,-10  -8,8  -8,-7.5  s 8,2.5  8,-7.5 z&#10;"/><path class="blocklyPathLight" stroke="#b84ded" d=" m 8,0  m 0.5,0.5  H 83.76341247558594  H 83.76341247558594  M 8.5,26.5  M 8.5,26.5  V 20  v -1.5  m -7.36,-0.5  q -1.52,-5.5  0,-11  m 7.36,1  V 0.5 &#10;"/><g class="blocklyEditableText" transform="translate(13,5)" style="cursor: default;"><rect rx="4" ry="4" x="0" y="0" height="18" width="66.26341247558594" class="blocklyFieldRect blocklyDropdownRect" stroke="#b84ded" fill="transparent"/><text class="blocklyText blocklyDropdownText" text-anchor="start" x="5" y="14">tabela<tspan style="fill: rgb(153, 0, 229);"> ▾</tspan></text><image style="display: none;"/></g></g></g><g transform="translate(10,5)"><text class="blocklyText" x="0" y="14">izpiši</text></g></g><g transform="translate(10,5)"><text class="blocklyText" x="0" y="14">komentiraj</text></g><g class="blocklyEditableText" transform="translate(82.62344360351562,5)" style="cursor: text;"><rect rx="4" ry="4" x="0" y="0" height="18" width="71.93267822265625" class="blocklyFieldRect"/><text class="blocklyText" x="5" y="14">izpiše: 21</text></g></g><g transform="translate(10,5)"><text class="blocklyText" x="0" y="14">nastavi</text></g><g class="blocklyEditableText" transform="translate(61.44950866699219,5)" style="cursor: default;"><rect rx="4" ry="4" x="0" y="0" height="18" width="66.26341247558594" class="blocklyFieldRect blocklyDropdownRect" stroke="#b84ded" fill="transparent"/><text class="blocklyText blocklyDropdownText" text-anchor="start" x="5" y="14">tabela<tspan style="fill: rgb(153, 0, 229);"> ▾</tspan></text><image style="display: none;"/></g><g transform="translate(132.71292114257812,5)"><text class="blocklyText" x="0" y="14">na</text></g></g></g></svg>