<svg version="1.1" xmlns="http://www.w3.org/2000/svg" xmlns:xlink="http://www.w3.org/1999/xlink" width="737.1091918945312" height="332" viewBox=" 22 23 737.1091918945312 332"><defs><style type="text/css" xmlns="http://www.w3.org/1999/xhtml"><![CDATA[.blocklySvg {background-color: #fff;outline: none;overflow: hidden;display: block;}.blocklyWidgetDiv {display: none;position: absolute;z-index: 99999;}.injectionDiv {height: 100%;position: relative;}.blocklyNonSelectable {user-select: none;-moz-user-select: none;-webkit-user-select: none;-ms-user-select: none;}.blocklyTooltipDiv {background-color: #ffffc7;border: 1px solid #ddc;box-shadow: 4px 4px 20px 1px rgba(0,0,0,.15);color: #000;display: none;font-family: sans-serif;font-size: 9pt;opacity: 0.9;padding: 2px;position: absolute;z-index: 100000;}.blocklyResizeSE {cursor: se-resize;fill: #aaa;}.blocklyResizeSW {cursor: sw-resize;fill: #aaa;}.blocklyResizeLine {stroke: #888;stroke-width: 1;}.blocklyHighlightedConnectionPath {fill: none;stroke: #fc3;stroke-width: 4px;}.blocklyPathLight {fill: none;stroke-linecap: round;stroke-width: 1;}.blocklySelected>.blocklyPath {stroke: #fc3;stroke-width: 3px;}.blocklySelected>.blocklyPathLight {display: none;}.blocklyDragging>.blocklyPath,.blocklyDragging>.blocklyPathLight {fill-opacity: .8;stroke-opacity: .8;}.blocklyDragging>.blocklyPathDark {display: none;}.blocklyDisabled>.blocklyPath {fill-opacity: .5;stroke-opacity: .5;}.blocklyDisabled>.blocklyPathLight,.blocklyDisabled>.blocklyPathDark {display: none;}.blocklyText {cursor: default;fill: #fff;font-family: sans-serif;font-size: 11pt;}.blocklyNonEditableText>text {pointer-events: none;}.blocklyNonEditableText>rect,.blocklyEditableText>rect {fill: #fff;fill-opacity: .6;}.blocklyNonEditableText>text,.blocklyEditableText>text {fill: #000;}.blocklyEditableText:hover>rect {stroke: #fff;stroke-width: 2;}.blocklyBubbleText {fill: #000;}.blocklyFlyoutButton {fill: #888;cursor: default;}.blocklyFlyoutButtonShadow {fill: #666;}.blocklyFlyoutButton:hover {fill: #aaa;}.blocklySvg text {user-select: none;-moz-user-select: none;-webkit-user-select: none;cursor: inherit;}.blocklyHidden {display: none;}.blocklyFieldDropdown:not(.blocklyHidden) {display: block;}.blocklyIconGroup {cursor: default;}.blocklyIconGroup:not(:hover),.blocklyIconGroupReadonly {opacity: .6;}.blocklyIconShape {fill: #00f;stroke: #fff;stroke-width: 1px;}.blocklyIconSymbol {fill: #fff;}.blocklyMinimalBody {margin: 0;padding: 0;}.blocklyCommentTextarea {background-color: #ffc;border: 0;margin: 0;padding: 2px;resize: none;}.blocklyHtmlInput {border: none;border-radius: 4px;font-family: sans-serif;height: 100%;margin: 0;outline: none;padding: 0 1px;width: 100%}.blocklyMainBackground {stroke-width: 1;stroke: #c6c6c6;}.blocklyMutatorBackground {fill: #fff;stroke: #ddd;stroke-width: 1;}.blocklyFlyoutBackground {fill: #ddd;fill-opacity: .8;}.blocklyScrollbarBackground {opacity: 0;}.blocklyScrollbarHandle {fill: #ccc;}.blocklyScrollbarBackground:hover+.blocklyScrollbarHandle,.blocklyScrollbarHandle:hover {fill: #bbb;}.blocklyZoom>image {opacity: .4;}.blocklyZoom>image:hover {opacity: .6;}.blocklyZoom>image:active {opacity: .8;}.blocklyFlyout .blocklyScrollbarHandle {fill: #bbb;}.blocklyFlyout .blocklyScrollbarBackground:hover+.blocklyScrollbarHandle,.blocklyFlyout .blocklyScrollbarHandle:hover {fill: #aaa;}.blocklyInvalidInput {background: #faa;}.blocklyAngleCircle {stroke: #444;stroke-width: 1;fill: #ddd;fill-opacity: .8;}.blocklyAngleMarks {stroke: #444;stroke-width: 1;}.blocklyAngleGauge {fill: #f88;fill-opacity: .8;}.blocklyAngleLine {stroke: #f00;stroke-width: 2;stroke-linecap: round;}.blocklyContextMenu {border-radius: 4px;}.blocklyDropdownMenu {padding: 0 !important;}.blocklyWidgetDiv .goog-option-selected .goog-menuitem-checkbox,.blocklyWidgetDiv .goog-option-selected .goog-menuitem-icon {background: url(<<<PATH>>>/sprites.png) no-repeat -48px -16px !important;}.blocklyToolboxDiv {background-color: #ddd;overflow-x: visible;overflow-y: auto;position: absolute;}.blocklyTreeRoot {padding: 4px 0;}.blocklyTreeRoot:focus {outline: none;}.blocklyTreeRow {height: 22px;line-height: 22px;margin-bottom: 3px;padding-right: 8px;white-space: nowrap;}.blocklyHorizontalTree {float: left;margin: 1px 5px 8px 0;}.blocklyHorizontalTreeRtl {float: right;margin: 1px 0 8px 5px;}.blocklyToolboxDiv[dir="RTL"] .blocklyTreeRow {margin-left: 8px;}.blocklyTreeRow:not(.blocklyTreeSelected):hover {background-color: #e4e4e4;}.blocklyTreeSeparator {border-bottom: solid #e5e5e5 1px;height: 0;margin: 5px 0;}.blocklyTreeSeparatorHorizontal {border-right: solid #e5e5e5 1px;width: 0;padding: 5px 0;margin: 0 5px;}.blocklyTreeIcon {background-image: url(<<<PATH>>>/sprites.png);height: 16px;vertical-align: middle;width: 16px;}.blocklyTreeIconClosedLtr {background-position: -32px -1px;}.blocklyTreeIconClosedRtl {background-position: 0px -1px;}.blocklyTreeIconOpen {background-position: -16px -1px;}.blocklyTreeSelected>.blocklyTreeIconClosedLtr {background-position: -32px -17px;}.blocklyTreeSelected>.blocklyTreeIconClosedRtl {background-position: 0px -17px;}.blocklyTreeSelected>.blocklyTreeIconOpen {background-position: -16px -17px;}.blocklyTreeIconNone,.blocklyTreeSelected>.blocklyTreeIconNone {background-position: -48px -1px;}.blocklyTreeLabel {cursor: default;font-family: sans-serif;font-size: 16px;padding: 0 3px;vertical-align: middle;}.blocklyTreeSelected .blocklyTreeLabel {color: #fff;}.blocklyWidgetDiv .goog-palette {outline: none;cursor: default;}.blocklyWidgetDiv .goog-palette-table {border: 1px solid #666;border-collapse: collapse;}.blocklyWidgetDiv .goog-palette-cell {height: 13px;width: 15px;margin: 0;border: 0;text-align: center;vertical-align: middle;border-right: 1px solid #666;font-size: 1px;}.blocklyWidgetDiv .goog-palette-colorswatch {position: relative;height: 13px;width: 15px;border: 1px solid #666;}.blocklyWidgetDiv .goog-palette-cell-hover .goog-palette-colorswatch {border: 1px solid #FFF;}.blocklyWidgetDiv .goog-palette-cell-selected .goog-palette-colorswatch {border: 1px solid #000;color: #fff;}.blocklyWidgetDiv .goog-menu {background: #fff;border-color: #ccc #666 #666 #ccc;border-style: solid;border-width: 1px;cursor: default;font: normal 13px Arial, sans-serif;margin: 0;outline: none;padding: 4px 0;position: absolute;overflow-y: auto;overflow-x: hidden;max-height: 100%;z-index: 20000;}.blocklyWidgetDiv .goog-menuitem {color: #000;font: normal 13px Arial, sans-serif;list-style: none;margin: 0;padding: 4px 7em 4px 28px;white-space: nowrap;}.blocklyWidgetDiv .goog-menuitem.goog-menuitem-rtl {padding-left: 7em;padding-right: 28px;}.blocklyWidgetDiv .goog-menu-nocheckbox .goog-menuitem,.blocklyWidgetDiv .goog-menu-noicon .goog-menuitem {padding-left: 12px;}.blocklyWidgetDiv .goog-menu-noaccel .goog-menuitem {padding-right: 20px;}.blocklyWidgetDiv .goog-menuitem-content {color: #000;font: normal 13px Arial, sans-serif;}.blocklyWidgetDiv .goog-menuitem-disabled .goog-menuitem-accel,.blocklyWidgetDiv .goog-menuitem-disabled .goog-menuitem-content {color: #ccc !important;}.blocklyWidgetDiv .goog-menuitem-disabled .goog-menuitem-icon {opacity: 0.3;-moz-opacity: 0.3;filter: alpha(opacity=30);}.blocklyWidgetDiv .goog-menuitem-highlight,.blocklyWidgetDiv .goog-menuitem-hover {background-color: #d6e9f8;border-color: #d6e9f8;border-style: dotted;border-width: 1px 0;padding-bottom: 3px;padding-top: 3px;}.blocklyWidgetDiv .goog-menuitem-checkbox,.blocklyWidgetDiv .goog-menuitem-icon {background-repeat: no-repeat;height: 16px;left: 6px;position: absolute;right: auto;vertical-align: middle;width: 16px;}.blocklyWidgetDiv .goog-menuitem-rtl .goog-menuitem-checkbox,.blocklyWidgetDiv .goog-menuitem-rtl .goog-menuitem-icon {left: auto;right: 6px;}.blocklyWidgetDiv .goog-option-selected .goog-menuitem-checkbox,.blocklyWidgetDiv .goog-option-selected .goog-menuitem-icon {background: url(//ssl.gstatic.com/editor/editortoolbar.png) no-repeat -512px 0;}.blocklyWidgetDiv .goog-menuitem-accel {color: #999;direction: ltr;left: auto;padding: 0 6px;position: absolute;right: 0;text-align: right;}.blocklyWidgetDiv .goog-menuitem-rtl .goog-menuitem-accel {left: 0;right: auto;text-align: left;}.blocklyWidgetDiv .goog-menuitem-mnemonic-hint {text-decoration: underline;}.blocklyWidgetDiv .goog-menuitem-mnemonic-separator {color: #999;font-size: 12px;padding-left: 4px;}.blocklyWidgetDiv .goog-menuseparator {border-top: 1px solid #ccc;margin: 4px 0;padding: 0;}]]></style></defs><g xmlns="http://www.w3.org/2000/svg" class="blocklyBlockCanvas"><g class="blocklyDraggable" transform="translate(22.000000000000227,23)"><path class="blocklyPathDark" transform="translate(1,1)" fill="#00b700" d="m 0,8 A 8,8 0 0,1 8,0 H 366.0447235107422 v 25 H 50 l -6,4 -3,0 -6,-4 h -7 a 8,8 0 0,0 -8,8 v 155 a 8,8 0 0,0 8,8 H 366.0447235107422 v 5 c 0,10 -8,-8 -8,7.5 s 8,-2.5 8,7.5 v 5 H 8 a 8,8 0 0,1 -8,-8 z&#10;"/><path class="blocklyPath" fill="#00e500" d="m 0,8 A 8,8 0 0,1 8,0 H 366.0447235107422 v 25 H 50 l -6,4 -3,0 -6,-4 h -7 a 8,8 0 0,0 -8,8 v 155 a 8,8 0 0,0 8,8 H 366.0447235107422 v 5 c 0,10 -8,-8 -8,7.5 s 8,-2.5 8,7.5 v 5 H 8 a 8,8 0 0,1 -8,-8 z&#10;"/><path class="blocklyPathLight" stroke="#4ded4d" d="m 0.5,7.5 A 7.5,7.5 0 0,1 8,0.5 H 365.5447235107422 M 365.5447235107422,0.5 M 365.5447235107422,25.5 M 21.989592359914347,194.01040764008565 a 8.5,8.5 0 0,0 6.0104076400856545,2.4895923599143455 H 365.5447235107422 M 365.5447235107422,196.5 M 361.0447235107422,215.3 l 3.68,-2.1 M 2.6966991411008934,218.3033008588991 A 7.5,7.5 0 0,1 0.5,213 V 8&#10;"/><g class="blocklyIconGroup" display="block" transform="translate(10,5)"><rect class="blocklyIconShape" rx="4" ry="4" height="16" width="16"/><path class="blocklyIconSymbol" d="m4.203,7.296 0,1.368 -0.92,0.677 -0.11,0.41 0.9,1.559 0.41,0.11 1.043,-0.457 1.187,0.683 0.127,1.134 0.3,0.3 1.8,0 0.3,-0.299 0.127,-1.138 1.185,-0.682 1.046,0.458 0.409,-0.11 0.9,-1.559 -0.11,-0.41 -0.92,-0.677 0,-1.366 0.92,-0.677 0.11,-0.41 -0.9,-1.559 -0.409,-0.109 -1.046,0.458 -1.185,-0.682 -0.127,-1.138 -0.3,-0.299 -1.8,0 -0.3,0.3 -0.126,1.135 -1.187,0.682 -1.043,-0.457 -0.41,0.11 -0.899,1.559 0.108,0.409z"/><circle class="blocklyIconShape" r="2.7" cx="8" cy="8"/></g><g class="blocklyIconGroup" display="block" transform="translate(37,5)"><circle class="blocklyIconShape" r="8" cx="8" cy="8"/><path class="blocklyIconSymbol" d="m6.8,10h2c0.003,-0.617 0.271,-0.962 0.633,-1.266 2.875,-2.405 0.607,-5.534 -3.765,-3.874v1.7c3.12,-1.657 3.698,0.118 2.336,1.25 -1.201,0.998 -1.201,1.528 -1.204,2.19z"/><rect class="blocklyIconSymbol" x="6.8" y="10.78" height="2" width="2"/></g><text class="blocklyText" y="12.5" transform="translate(64,5)">funkcija</text><g class="blocklyEditableText" transform="translate(123.72005462646484,5)" style="cursor: text;"><rect rx="4" ry="4" x="-5" y="0" height="16" width="138.76092529296875"/><text class="blocklyText" y="12.5">KolikokratNajmanjsi</text></g><text class="blocklyText" y="12.5" transform="translate(262.4809799194336,5)">s parametri: t</text><text class="blocklyText" y="12.5" transform="translate(324.41624450683594,201)">vrni</text><g class="blocklyDraggable" transform="translate(367.0447235107422,196)"><path class="blocklyPathDark" transform="translate(1,1)" fill="#7a00b7" d="m 0,0 H 98.26040649414062 v 25 H 0 V 20 c 0,-10 -8,8 -8,-7.5 s 8,2.5 8,-7.5 z&#10;"/><path class="blocklyPath" fill="#9900e5" d="m 0,0 H 98.26040649414062 v 25 H 0 V 20 c 0,-10 -8,8 -8,-7.5 s 8,2.5 8,-7.5 z&#10;"/><path class="blocklyPathLight" stroke="#b84ded" d="m 0.5,0.5 H 97.76040649414062 M 97.76040649414062,0.5 M 0.5,24.5 V 18.5 m -7.36,-0.5 q -1.52,-5.5 0,-11 m 7.36,1 V 0.5 H 1&#10;"/><g class="blocklyEditableText" transform="translate(10,5)" style="cursor: default;"><rect rx="4" ry="4" x="-5" y="0" height="16" width="88.26040649414062"/><text class="blocklyText" y="12.5">kolikokrat<tspan style="fill: rgb(153, 0, 229);"> ▾</tspan></text></g></g><g class="blocklyDraggable" transform="translate(21,26)"><path class="blocklyPathDark" transform="translate(1,1)" fill="#7a00b7" d="m 0,8 A 8,8 0 0,1 8,0 H 15 l 6,4 3,0 6,-4 H 189.0334186553955 v 5 c 0,10 -8,-8 -8,7.5 s 8,-2.5 8,7.5 v 5 H 29.5 l -6,4 -3,0 -6,-4 H 0 z&#10;"/><path class="blocklyPath" fill="#9900e5" d="m 0,8 A 8,8 0 0,1 8,0 H 15 l 6,4 3,0 6,-4 H 189.0334186553955 v 5 c 0,10 -8,-8 -8,7.5 s 8,-2.5 8,7.5 v 5 H 29.5 l -6,4 -3,0 -6,-4 H 0 z&#10;"/><path class="blocklyPathLight" stroke="#b84ded" d="m 0.5,7.5 A 7.5,7.5 0 0,1 8,0.5 H 15 l 6,4 3,0 6,-4 H 188.5334186553955 M 188.5334186553955,0.5 M 184.0334186553955,19.3 l 3.68,-2.1 M 0.5,24.5 V 8&#10;"/><text class="blocklyText" y="12.5" transform="translate(10,5)">nastavi</text><g class="blocklyEditableText" transform="translate(66.46219635009766,5)" style="cursor: default;"><rect rx="4" ry="4" x="-5" y="0" height="16" width="88.26040649414062"/><text class="blocklyText" y="12.5">kolikokrat<tspan style="fill: rgb(153, 0, 229);"> ▾</tspan></text></g><text class="blocklyText" y="12.5" transform="translate(154.72260284423828,5)">na</text><g class="blocklyDraggable" transform="translate(190.0334186553955,0)"><path class="blocklyPathDark" transform="translate(1,1)" fill="#003db7" d="m 0,0 H 28.155407905578613 v 25 H 0 V 20 c 0,-10 -8,8 -8,-7.5 s 8,2.5 8,-7.5 z&#10;"/><path class="blocklyPath" fill="#004ce5" d="m 0,0 H 28.155407905578613 v 25 H 0 V 20 c 0,-10 -8,8 -8,-7.5 s 8,2.5 8,-7.5 z&#10;"/><path class="blocklyPathLight" stroke="#4d82ed" d="m 0.5,0.5 H 27.655407905578613 M 27.655407905578613,0.5 M 0.5,24.5 V 18.5 m -7.36,-0.5 q -1.52,-5.5 0,-11 m 7.36,1 V 0.5 H 1&#10;"/><g class="blocklyEditableText" transform="translate(10,5)" style="cursor: text;"><rect rx="4" ry="4" x="-5" y="0" height="16" width="18.155407905578613"/><text class="blocklyText" y="12.5">0</text></g></g><g class="blocklyDraggable" transform="translate(0,26)"><path class="blocklyPathDark" transform="translate(1,1)" fill="#7a00b7" d="m 0,0 H 15 l 6,4 3,0 6,-4 H 189.04059028625488 v 5 c 0,10 -8,-8 -8,7.5 s 8,-2.5 8,7.5 v 5 H 29.5 l -6,4 -3,0 -6,-4 H 0 z&#10;"/><path class="blocklyPath" fill="#9900e5" d="m 0,0 H 15 l 6,4 3,0 6,-4 H 189.04059028625488 v 5 c 0,10 -8,-8 -8,7.5 s 8,-2.5 8,7.5 v 5 H 29.5 l -6,4 -3,0 -6,-4 H 0 z&#10;"/><path class="blocklyPathLight" stroke="#b84ded" d="m 0.5,0.5 H 15 l 6,4 3,0 6,-4 H 188.54059028625488 M 188.54059028625488,0.5 M 184.04059028625488,19.3 l 3.68,-2.1 M 0.5,24.5 V 0.5&#10;"/><text class="blocklyText" y="12.5" transform="translate(10,5)">nastavi</text><g class="blocklyEditableText" transform="translate(66.46219635009766,5)" style="cursor: default;"><rect rx="4" ry="4" x="-5" y="0" height="16" width="88.267578125"/><text class="blocklyText" y="12.5">najmanjsi<tspan style="fill: rgb(153, 0, 229);"> ▾</tspan></text></g><text class="blocklyText" y="12.5" transform="translate(154.72977447509766,5)">na</text><g class="blocklyDraggable" transform="translate(0,26)"><path class="blocklyPathDark" transform="translate(1,1)" fill="#b7007a" d="m 0,0 H 15 l 6,4 3,0 6,-4 H 268.9120330810547 v 5 c 0,10 -8,-8 -8,7.5 s 8,-2.5 8,7.5 v 5 H 87.49052810668945 l -6,4 -3,0 -6,-4 h -7 a 8,8 0 0,0 -8,8 v 63 a 8,8 0 0,0 8,8 H 268.9120330810547 v 10 H 29.5 l -6,4 -3,0 -6,-4 H 8 a 8,8 0 0,1 -8,-8 z&#10;"/><path class="blocklyPath" fill="#e50099" d="m 0,0 H 15 l 6,4 3,0 6,-4 H 268.9120330810547 v 5 c 0,10 -8,-8 -8,7.5 s 8,-2.5 8,7.5 v 5 H 87.49052810668945 l -6,4 -3,0 -6,-4 h -7 a 8,8 0 0,0 -8,8 v 63 a 8,8 0 0,0 8,8 H 268.9120330810547 v 10 H 29.5 l -6,4 -3,0 -6,-4 H 8 a 8,8 0 0,1 -8,-8 z&#10;"/><path class="blocklyPathLight" stroke="#ed4db8" d="m 0.5,0.5 H 15 l 6,4 3,0 6,-4 H 268.4120330810547 M 268.4120330810547,0.5 M 263.9120330810547,19.3 l 3.68,-2.1 M 268.4120330810547,25.5 M 59.4801204666038,102.01040764008566 a 8.5,8.5 0 0,0 6.0104076400856545,2.4895923599143455 H 268.4120330810547 M 2.6966991411008934,111.3033008588991 A 7.5,7.5 0 0,1 0.5,106 V 0.5&#10;"/><text class="blocklyText" y="12.5" transform="translate(10,5)">za vsak element</text><g class="blocklyEditableText" transform="translate(125.95587158203125,5)" style="cursor: default;"><rect rx="4" ry="4" x="-5" y="0" height="16" width="78.49398040771484"/><text class="blocklyText" y="12.5">element<tspan style="fill: rgb(229, 0, 153);"> ▾</tspan></text></g><text class="blocklyText" y="12.5" transform="translate(204.4498519897461,5)">v tabeli</text><text class="blocklyText" y="12.5" transform="translate(10,30)">izvedi</text><g class="blocklyDraggable" transform="translate(269.9120330810547,0)"><path class="blocklyPathDark" transform="translate(1,1)" fill="#7a00b7" d="m 0,0 H 40.39926719665527 v 25 H 0 V 20 c 0,-10 -8,8 -8,-7.5 s 8,2.5 8,-7.5 z&#10;"/><path class="blocklyPath" fill="#9900e5" d="m 0,0 H 40.39926719665527 v 25 H 0 V 20 c 0,-10 -8,8 -8,-7.5 s 8,2.5 8,-7.5 z&#10;"/><path class="blocklyPathLight" stroke="#b84ded" d="m 0.5,0.5 H 39.89926719665527 M 39.89926719665527,0.5 M 0.5,24.5 V 18.5 m -7.36,-0.5 q -1.52,-5.5 0,-11 m 7.36,1 V 0.5 H 1&#10;"/><g class="blocklyEditableText" transform="translate(10,5)" style="cursor: default;"><rect rx="4" ry="4" x="-5" y="0" height="16" width="30.399267196655273"/><text class="blocklyText" y="12.5">t<tspan style="fill: rgb(153, 0, 229);"> ▾</tspan></text></g></g><g class="blocklyDraggable" transform="translate(58.49052810668945,26)"><path class="blocklyPathDark" transform="translate(1,1)" fill="#007ab7" d="m 0,8 A 8,8 0 0,1 8,0 H 15 l 6,4 3,0 6,-4 H 87.49052810668945 v 5 c 0,10 -8,-8 -8,7.5 s 8,-2.5 8,7.5 v 16 H 87.49052810668945 l -6,4 -3,0 -6,-4 h -7 a 8,8 0 0,0 -8,8 v 13 a 8,8 0 0,0 8,8 H 87.49052810668945 v 10 H 29.5 l -6,4 -3,0 -6,-4 H 8 a 8,8 0 0,1 -8,-8 z&#10;"/><path class="blocklyPath" fill="#0098e5" d="m 0,8 A 8,8 0 0,1 8,0 H 15 l 6,4 3,0 6,-4 H 87.49052810668945 v 5 c 0,10 -8,-8 -8,7.5 s 8,-2.5 8,7.5 v 16 H 87.49052810668945 l -6,4 -3,0 -6,-4 h -7 a 8,8 0 0,0 -8,8 v 13 a 8,8 0 0,0 8,8 H 87.49052810668945 v 10 H 29.5 l -6,4 -3,0 -6,-4 H 8 a 8,8 0 0,1 -8,-8 z&#10;"/><path class="blocklyPathLight" stroke="#4db7ed" d="m 0.5,7.5 A 7.5,7.5 0 0,1 8,0.5 H 15 l 6,4 3,0 6,-4 H 86.99052810668945 M 86.99052810668945,0.5 M 82.49052810668945,19.3 l 3.68,-2.1 M 86.99052810668945,36.5 M 59.4801204666038,63.01040764008565 a 8.5,8.5 0 0,0 6.0104076400856545,2.4895923599143455 H 86.99052810668945 M 2.6966991411008934,72.3033008588991 A 7.5,7.5 0 0,1 0.5,67 V 8&#10;"/><g class="blocklyIconGroup" display="block" transform="translate(10,5)"><rect class="blocklyIconShape" rx="4" ry="4" height="16" width="16"/><path class="blocklyIconSymbol" d="m4.203,7.296 0,1.368 -0.92,0.677 -0.11,0.41 0.9,1.559 0.41,0.11 1.043,-0.457 1.187,0.683 0.127,1.134 0.3,0.3 1.8,0 0.3,-0.299 0.127,-1.138 1.185,-0.682 1.046,0.458 0.409,-0.11 0.9,-1.559 -0.11,-0.41 -0.92,-0.677 0,-1.366 0.92,-0.677 0.11,-0.41 -0.9,-1.559 -0.409,-0.109 -1.046,0.458 -1.185,-0.682 -0.127,-1.138 -0.3,-0.299 -1.8,0 -0.3,0.3 -0.126,1.135 -1.187,0.682 -1.043,-0.457 -0.41,0.11 -0.899,1.559 0.108,0.409z"/><circle class="blocklyIconShape" r="2.7" cx="8" cy="8"/></g><text class="blocklyText" y="12.5" transform="translate(37,5)">če</text><text class="blocklyText" y="12.5" transform="translate(10,41)">izvedi</text><g class="blocklyDraggable" transform="translate(88.49052810668945,0)"><path class="blocklyPathDark" transform="translate(1,1)" fill="#007ab7" d="m 0,0 H 20 H 267.65024185180664 v 36 H 0 V 20 c 0,-10 -8,8 -8,-7.5 s 8,2.5 8,-7.5 z&#10;M 106.49398040771484,5 h -90.49398040771484 v 5 c 0,10 -8,-8 -8,7.5 s 8,-2.5 8,7.5 v 7 h 90.49398040771484 z M 257.65024185180664,5 h -100.267578125 v 5 c 0,10 -8,-8 -8,7.5 s 8,-2.5 8,7.5 v 7 h 100.267578125 z"/><path class="blocklyPath" fill="#0098e5" d="m 0,0 H 20 H 267.65024185180664 v 36 H 0 V 20 c 0,-10 -8,8 -8,-7.5 s 8,2.5 8,-7.5 z&#10;M 106.49398040771484,5 h -90.49398040771484 v 5 c 0,10 -8,-8 -8,7.5 s 8,-2.5 8,7.5 v 7 h 90.49398040771484 z M 257.65024185180664,5 h -100.267578125 v 5 c 0,10 -8,-8 -8,7.5 s 8,-2.5 8,7.5 v 7 h 100.267578125 z"/><path class="blocklyPathLight" stroke="#4db7ed" d="m 0.5,0.5 H 19.5 M 19.5,0.5 H 267.15024185180664 M 0.5,35.5 V 18.5 m -7.36,-0.5 q -1.52,-5.5 0,-11 m 7.36,1 V 0.5 H 1&#10;M 106.99398040771484,5.5 v 27 h -90.49398040771484 M 10.9,24.3 l 3.68,-2.1 M 258.15024185180664,5.5 v 27 h -100.267578125 M 152.28266372680665,24.3 l 3.68,-2.1"/><g class="blocklyEditableText" transform="translate(116.49398040771484,10)" style="cursor: default;"><rect rx="4" ry="4" x="-5" y="0" height="16" width="34.8886833190918"/><text class="blocklyText" y="12.5">=<tspan style="fill: rgb(0, 152, 229);"> ▾</tspan></text></g><g class="blocklyDraggable" transform="translate(17,6)"><path class="blocklyPathDark" transform="translate(1,1)" fill="#7a00b7" d="m 0,0 H 88.49398040771484 v 25 H 0 V 20 c 0,-10 -8,8 -8,-7.5 s 8,2.5 8,-7.5 z&#10;"/><path class="blocklyPath" fill="#9900e5" d="m 0,0 H 88.49398040771484 v 25 H 0 V 20 c 0,-10 -8,8 -8,-7.5 s 8,2.5 8,-7.5 z&#10;"/><path class="blocklyPathLight" stroke="#b84ded" d="m 0.5,0.5 H 87.99398040771484 M 87.99398040771484,0.5 M 0.5,24.5 V 18.5 m -7.36,-0.5 q -1.52,-5.5 0,-11 m 7.36,1 V 0.5 H 1&#10;"/><g class="blocklyEditableText" transform="translate(10,5)" style="cursor: default;"><rect rx="4" ry="4" x="-5" y="0" height="16" width="78.49398040771484"/><text class="blocklyText" y="12.5">element<tspan style="fill: rgb(153, 0, 229);"> ▾</tspan></text></g></g><g class="blocklyDraggable" transform="translate(158.38266372680664,6)"><path class="blocklyPathDark" transform="translate(1,1)" fill="#7a00b7" d="m 0,0 H 98.267578125 v 25 H 0 V 20 c 0,-10 -8,8 -8,-7.5 s 8,2.5 8,-7.5 z&#10;"/><path class="blocklyPath" fill="#9900e5" d="m 0,0 H 98.267578125 v 25 H 0 V 20 c 0,-10 -8,8 -8,-7.5 s 8,2.5 8,-7.5 z&#10;"/><path class="blocklyPathLight" stroke="#b84ded" d="m 0.5,0.5 H 97.767578125 M 97.767578125,0.5 M 0.5,24.5 V 18.5 m -7.36,-0.5 q -1.52,-5.5 0,-11 m 7.36,1 V 0.5 H 1&#10;"/><g class="blocklyEditableText" transform="translate(10,5)" style="cursor: default;"><rect rx="4" ry="4" x="-5" y="0" height="16" width="88.267578125"/><text class="blocklyText" y="12.5">najmanjsi<tspan style="fill: rgb(153, 0, 229);"> ▾</tspan></text></g></g></g><g class="blocklyDraggable" transform="translate(58.49052810668945,37)"><path class="blocklyPathDark" transform="translate(1,1)" fill="#7a00b7" d="m 0,8 A 8,8 0 0,1 8,0 H 15 l 6,4 3,0 6,-4 H 189.0334186553955 v 5 c 0,10 -8,-8 -8,7.5 s 8,-2.5 8,7.5 v 5 H 29.5 l -6,4 -3,0 -6,-4 H 8 a 8,8 0 0,1 -8,-8 z&#10;"/><path class="blocklyPath" fill="#9900e5" d="m 0,8 A 8,8 0 0,1 8,0 H 15 l 6,4 3,0 6,-4 H 189.0334186553955 v 5 c 0,10 -8,-8 -8,7.5 s 8,-2.5 8,7.5 v 5 H 29.5 l -6,4 -3,0 -6,-4 H 8 a 8,8 0 0,1 -8,-8 z&#10;"/><path class="blocklyPathLight" stroke="#b84ded" d="m 0.5,7.5 A 7.5,7.5 0 0,1 8,0.5 H 15 l 6,4 3,0 6,-4 H 188.5334186553955 M 188.5334186553955,0.5 M 184.0334186553955,19.3 l 3.68,-2.1 M 2.6966991411008934,22.303300858899107 A 7.5,7.5 0 0,1 0.5,17 V 8&#10;"/><text class="blocklyText" y="12.5" transform="translate(10,5)">nastavi</text><g class="blocklyEditableText" transform="translate(66.46219635009766,5)" style="cursor: default;"><rect rx="4" ry="4" x="-5" y="0" height="16" width="88.26040649414062"/><text class="blocklyText" y="12.5">kolikokrat<tspan style="fill: rgb(153, 0, 229);"> ▾</tspan></text></g><text class="blocklyText" y="12.5" transform="translate(154.72260284423828,5)">na</text><g class="blocklyDraggable" transform="translate(190.0334186553955,0)"><path class="blocklyPathDark" transform="translate(1,1)" fill="#003db7" d="m 0,0 H 106.80245208740234 l 8,0 0,4 8,4 -16,8 8,4 v 4 H 0 V 20 c 0,-10 -8,8 -8,-7.5 s 8,2.5 8,-7.5 z&#10;"/><path class="blocklyPath" fill="#004ce5" d="m 0,0 H 106.80245208740234 l 8,0 0,4 8,4 -16,8 8,4 v 4 H 0 V 20 c 0,-10 -8,8 -8,-7.5 s 8,2.5 8,-7.5 z&#10;"/><path class="blocklyPathLight" stroke="#4d82ed" d="m 0.5,0.5 H 106.30245208740234 M 106.30245208740234,0.5 h 8 M 0.5,23.5 V 18.5 m -7.36,-0.5 q -1.52,-5.5 0,-11 m 7.36,1 V 0.5 H 1&#10;"/><g class="blocklyEditableText" transform="translate(126.26040649414062,10)" style="cursor: default; display: none;"><rect rx="4" ry="4" x="-5" y="0" height="16" width="34.8886833190918"/><text class="blocklyText" y="12.5">+<tspan style="fill: rgb(0, 76, 229);"> ▾</tspan></text></g><g class="blocklyDraggable" transform="translate(17,6)" style="display: none;"><path class="blocklyPathDark" transform="translate(1,1)" fill="#7a00b7" d="m 0,0 H 98.26040649414062 v 25 H 0 V 20 c 0,-10 -8,8 -8,-7.5 s 8,2.5 8,-7.5 z&#10;"/><path class="blocklyPath" fill="#9900e5" d="m 0,0 H 98.26040649414062 v 25 H 0 V 20 c 0,-10 -8,8 -8,-7.5 s 8,2.5 8,-7.5 z&#10;"/><path class="blocklyPathLight" stroke="#b84ded" d="m 0.5,0.5 H 97.76040649414062 M 97.76040649414062,0.5 M 0.5,24.5 V 18.5 m -7.36,-0.5 q -1.52,-5.5 0,-11 m 7.36,1 V 0.5 H 1&#10;"/><g class="blocklyEditableText" transform="translate(10,5)" style="cursor: default;"><rect rx="4" ry="4" x="-5" y="0" height="16" width="88.26040649414062"/><text class="blocklyText" y="12.5">kolikokrat<tspan style="fill: rgb(153, 0, 229);"> ▾</tspan></text></g></g><g class="blocklyDraggable" transform="translate(168.14908981323242,6)" style="display: none;"><path class="blocklyPathDark" transform="translate(1,1)" fill="#003db7" d="m 0,0 H 28.155407905578613 v 25 H 0 V 20 c 0,-10 -8,8 -8,-7.5 s 8,2.5 8,-7.5 z&#10;"/><path class="blocklyPath" fill="#004ce5" d="m 0,0 H 28.155407905578613 v 25 H 0 V 20 c 0,-10 -8,8 -8,-7.5 s 8,2.5 8,-7.5 z&#10;"/><path class="blocklyPathLight" stroke="#4d82ed" d="m 0.5,0.5 H 27.655407905578613 M 27.655407905578613,0.5 M 0.5,24.5 V 18.5 m -7.36,-0.5 q -1.52,-5.5 0,-11 m 7.36,1 V 0.5 H 1&#10;"/><g class="blocklyEditableText" transform="translate(10,5)" style="cursor: text;"><rect rx="4" ry="4" x="-5" y="0" height="16" width="18.155407905578613"/><text class="blocklyText" y="12.5">1</text></g></g><text class="blocklyText" y="12.5" transform="translate(10,5)">kolikokrat + 1</text></g></g></g></g><g class="blocklyDraggable" transform="translate(190.04059028625488,0)"><path class="blocklyPathDark" transform="translate(1,1)" fill="#003db7" d="m 0,0 H 153.75096130371094 v 5 c 0,10 -8,-8 -8,7.5 s 8,-2.5 8,7.5 v 5 H 0 V 20 c 0,-10 -8,8 -8,-7.5 s 8,2.5 8,-7.5 z&#10;"/><path class="blocklyPath" fill="#004ce5" d="m 0,0 H 153.75096130371094 v 5 c 0,10 -8,-8 -8,7.5 s 8,-2.5 8,7.5 v 5 H 0 V 20 c 0,-10 -8,8 -8,-7.5 s 8,2.5 8,-7.5 z&#10;"/><path class="blocklyPathLight" stroke="#4d82ed" d="m 0.5,0.5 H 153.25096130371094 M 153.25096130371094,0.5 M 148.75096130371094,19.3 l 3.68,-2.1 M 0.5,24.5 V 18.5 m -7.36,-0.5 q -1.52,-5.5 0,-11 m 7.36,1 V 0.5 H 1&#10;"/><g class="blocklyEditableText" transform="translate(10,5)" style="cursor: default;"><rect rx="4" ry="4" x="-5" y="0" height="16" width="85.79734802246094"/><text class="blocklyText" y="12.5">minimum<tspan style="fill: rgb(0, 76, 229);"> ▾</tspan></text></g><text class="blocklyText" y="12.5" transform="translate(95.79734802246094,5)">tabele</text><g class="blocklyDraggable" transform="translate(154.75096130371094,0)"><path class="blocklyPathDark" transform="translate(1,1)" fill="#7a00b7" d="m 0,0 H 40.39926719665527 v 25 H 0 V 20 c 0,-10 -8,8 -8,-7.5 s 8,2.5 8,-7.5 z&#10;"/><path class="blocklyPath" fill="#9900e5" d="m 0,0 H 40.39926719665527 v 25 H 0 V 20 c 0,-10 -8,8 -8,-7.5 s 8,2.5 8,-7.5 z&#10;"/><path class="blocklyPathLight" stroke="#b84ded" d="m 0.5,0.5 H 39.89926719665527 M 39.89926719665527,0.5 M 0.5,24.5 V 18.5 m -7.36,-0.5 q -1.52,-5.5 0,-11 m 7.36,1 V 0.5 H 1&#10;"/><g class="blocklyEditableText" transform="translate(10,5)" style="cursor: default;"><rect rx="4" ry="4" x="-5" y="0" height="16" width="30.399267196655273"/><text class="blocklyText" y="12.5">t<tspan style="fill: rgb(153, 0, 229);"> ▾</tspan></text></g></g></g></g></g></g><g class="blocklyDraggable" transform="translate(22.99999999999841,277.00000762939453)"><path class="blocklyPathDark" transform="translate(1,1)" fill="#7a00b7" d="m 0,8 A 8,8 0 0,1 8,0 H 15 l 6,4 3,0 6,-4 H 167.05177116394043 v 5 c 0,10 -8,-8 -8,7.5 s 8,-2.5 8,7.5 v 16 H 29.5 l -6,4 -3,0 -6,-4 H 0 z&#10;"/><path class="blocklyPath" fill="#9900e5" d="m 0,8 A 8,8 0 0,1 8,0 H 15 l 6,4 3,0 6,-4 H 167.05177116394043 v 5 c 0,10 -8,-8 -8,7.5 s 8,-2.5 8,7.5 v 16 H 29.5 l -6,4 -3,0 -6,-4 H 0 z&#10;"/><path class="blocklyPathLight" stroke="#b84ded" d="m 0.5,7.5 A 7.5,7.5 0 0,1 8,0.5 H 15 l 6,4 3,0 6,-4 H 166.55177116394043 M 166.55177116394043,0.5 M 162.05177116394043,19.3 l 3.68,-2.1 M 0.5,35.5 V 8&#10;"/><text class="blocklyText" y="12.5" transform="translate(10,5)">nastavi</text><g class="blocklyEditableText" transform="translate(66.46219635009766,5)" style="cursor: default;"><rect rx="4" ry="4" x="-5" y="0" height="16" width="66.27875900268555"/><text class="blocklyText" y="12.5">tabela<tspan style="fill: rgb(153, 0, 229);"> ▾</tspan></text></g><text class="blocklyText" y="12.5" transform="translate(132.7409553527832,5)">na</text><g class="blocklyDraggable" transform="translate(0,37)"><path class="blocklyPathDark" transform="translate(1,1)" fill="#b79900" d="m 0,0 H 15 l 6,4 3,0 6,-4 H 60.592979431152344 v 5 c 0,10 -8,-8 -8,7.5 s 8,-2.5 8,7.5 v 16 H 29.5 l -6,4 -3,0 -6,-4 H 8 a 8,8 0 0,1 -8,-8 z&#10;"/><path class="blocklyPath" fill="#e5bf00" d="m 0,0 H 15 l 6,4 3,0 6,-4 H 60.592979431152344 v 5 c 0,10 -8,-8 -8,7.5 s 8,-2.5 8,7.5 v 16 H 29.5 l -6,4 -3,0 -6,-4 H 8 a 8,8 0 0,1 -8,-8 z&#10;"/><path class="blocklyPathLight" stroke="#edd24d" d="m 0.5,0.5 H 15 l 6,4 3,0 6,-4 H 60.092979431152344 M 60.092979431152344,0.5 M 55.592979431152344,19.3 l 3.68,-2.1 M 2.6966991411008934,33.30330085889911 A 7.5,7.5 0 0,1 0.5,28 V 0.5&#10;"/><text class="blocklyText" y="12.5" transform="translate(10,5)">izpiši</text><g class="blocklyDraggable" transform="translate(61.592979431152344,0)"><path class="blocklyPathDark" transform="translate(1,1)" fill="#00b700" d="m 0,0 H 20 H 344.52930974960327 v 36 H 0 V 20 c 0,-10 -8,8 -8,-7.5 s 8,2.5 8,-7.5 z&#10;M 334.52930974960327,5 h -78.27875900268555 v 5 c 0,10 -8,-8 -8,7.5 s 8,-2.5 8,7.5 v 7 h 78.27875900268555 z"/><path class="blocklyPath" fill="#00e500" d="m 0,0 H 20 H 344.52930974960327 v 36 H 0 V 20 c 0,-10 -8,8 -8,-7.5 s 8,2.5 8,-7.5 z&#10;M 334.52930974960327,5 h -78.27875900268555 v 5 c 0,10 -8,-8 -8,7.5 s 8,-2.5 8,7.5 v 7 h 78.27875900268555 z"/><path class="blocklyPathLight" stroke="#4ded4d" d="m 0.5,0.5 H 19.5 M 19.5,0.5 H 344.02930974960327 M 0.5,35.5 V 18.5 m -7.36,-0.5 q -1.52,-5.5 0,-11 m 7.36,1 V 0.5 H 1&#10;M 335.02930974960327,5.5 v 27 h -78.27875900268555 M 251.15055074691773,24.3 l 3.68,-2.1"/><text class="blocklyText" y="12.5" transform="translate(236.17642974853516,10)">t</text><text class="blocklyText" y="12.5" transform="translate(10,10)">KolikokratNajmanjsi</text><text class="blocklyText" y="12.5" transform="translate(148.76092529296875,10)">s parametri:</text><g class="blocklyDraggable" transform="translate(257.2505507469177,6.000000000000057)"><path class="blocklyPathDark" transform="translate(1,1)" fill="#7a00b7" d="m 0,0 H 76.27875900268555 v 25 H 0 V 20 c 0,-10 -8,8 -8,-7.5 s 8,2.5 8,-7.5 z&#10;"/><path class="blocklyPath" fill="#9900e5" d="m 0,0 H 76.27875900268555 v 25 H 0 V 20 c 0,-10 -8,8 -8,-7.5 s 8,2.5 8,-7.5 z&#10;"/><path class="blocklyPathLight" stroke="#b84ded" d="m 0.5,0.5 H 75.77875900268555 M 75.77875900268555,0.5 M 0.5,24.5 V 18.5 m -7.36,-0.5 q -1.52,-5.5 0,-11 m 7.36,1 V 0.5 H 1&#10;"/><g class="blocklyEditableText" transform="translate(10,5)" style="cursor: default;"><rect rx="4" ry="4" x="-5" y="0" height="16" width="66.27875900268555"/><text class="blocklyText" y="12.5">tabela<tspan style="fill: rgb(153, 0, 229);"> ▾</tspan></text></g></g></g></g><g class="blocklyDraggable" transform="translate(168.05177116394043,0)"><path class="blocklyPathDark" transform="translate(1,1)" fill="#b71e00" d="m 0,0 H 47 H 567.0574245452881 v 36 H 0 V 20 c 0,-10 -8,8 -8,-7.5 s 8,2.5 8,-7.5 z&#10;M 193.19252967834473,5 h -38.31081581115723 v 5 c 0,10 -8,-8 -8,7.5 s 8,-2.5 8,7.5 v 7 h 38.31081581115723 z M 247.50334548950195,5 h -38.31081581115723 v 5 c 0,10 -8,-8 -8,7.5 s 8,-2.5 8,7.5 v 7 h 38.31081581115723 z M 293.65875339508057,5 h -30.155407905578613 v 5 c 0,10 -8,-8 -8,7.5 s 8,-2.5 8,7.5 v 7 h 30.155407905578613 z M 347.9695692062378,5 h -38.31081581115723 v 5 c 0,10 -8,-8 -8,7.5 s 8,-2.5 8,7.5 v 7 h 38.31081581115723 z M 402.280385017395,5 h -38.31081581115723 v 5 c 0,10 -8,-8 -8,7.5 s 8,-2.5 8,7.5 v 7 h 38.31081581115723 z M 448.43579292297363,5 h -30.155407905578613 v 5 c 0,10 -8,-8 -8,7.5 s 8,-2.5 8,7.5 v 7 h 30.155407905578613 z M 502.74660873413086,5 h -38.31081581115723 v 5 c 0,10 -8,-8 -8,7.5 s 8,-2.5 8,7.5 v 7 h 38.31081581115723 z M 557.0574245452881,5 h -38.31081581115723 v 5 c 0,10 -8,-8 -8,7.5 s 8,-2.5 8,7.5 v 7 h 38.31081581115723 z"/><path class="blocklyPath" fill="#e52600" d="m 0,0 H 47 H 567.0574245452881 v 36 H 0 V 20 c 0,-10 -8,8 -8,-7.5 s 8,2.5 8,-7.5 z&#10;M 193.19252967834473,5 h -38.31081581115723 v 5 c 0,10 -8,-8 -8,7.5 s 8,-2.5 8,7.5 v 7 h 38.31081581115723 z M 247.50334548950195,5 h -38.31081581115723 v 5 c 0,10 -8,-8 -8,7.5 s 8,-2.5 8,7.5 v 7 h 38.31081581115723 z M 293.65875339508057,5 h -30.155407905578613 v 5 c 0,10 -8,-8 -8,7.5 s 8,-2.5 8,7.5 v 7 h 30.155407905578613 z M 347.9695692062378,5 h -38.31081581115723 v 5 c 0,10 -8,-8 -8,7.5 s 8,-2.5 8,7.5 v 7 h 38.31081581115723 z M 402.280385017395,5 h -38.31081581115723 v 5 c 0,10 -8,-8 -8,7.5 s 8,-2.5 8,7.5 v 7 h 38.31081581115723 z M 448.43579292297363,5 h -30.155407905578613 v 5 c 0,10 -8,-8 -8,7.5 s 8,-2.5 8,7.5 v 7 h 30.155407905578613 z M 502.74660873413086,5 h -38.31081581115723 v 5 c 0,10 -8,-8 -8,7.5 s 8,-2.5 8,7.5 v 7 h 38.31081581115723 z M 557.0574245452881,5 h -38.31081581115723 v 5 c 0,10 -8,-8 -8,7.5 s 8,-2.5 8,7.5 v 7 h 38.31081581115723 z"/><path class="blocklyPathLight" stroke="#ed674d" d="m 0.5,0.5 H 46.5 M 46.5,0.5 H 566.5574245452881 M 0.5,35.5 V 18.5 m -7.36,-0.5 q -1.52,-5.5 0,-11 m 7.36,1 V 0.5 H 1&#10;M 193.69252967834473,5.5 v 27 h -38.31081581115723 M 149.7817138671875,24.3 l 3.68,-2.1 M 248.00334548950195,5.5 v 27 h -38.31081581115723 M 204.09252967834473,24.3 l 3.68,-2.1 M 294.15875339508057,5.5 v 27 h -30.155407905578613 M 258.40334548950193,24.3 l 3.68,-2.1 M 348.4695692062378,5.5 v 27 h -38.31081581115723 M 304.55875339508054,24.3 l 3.68,-2.1 M 402.780385017395,5.5 v 27 h -38.31081581115723 M 358.86956920623777,24.3 l 3.68,-2.1 M 448.93579292297363,5.5 v 27 h -30.155407905578613 M 413.180385017395,24.3 l 3.68,-2.1 M 503.24660873413086,5.5 v 27 h -38.31081581115723 M 459.3357929229736,24.3 l 3.68,-2.1 M 557.5574245452881,5.5 v 27 h -38.31081581115723 M 513.6466087341308,24.3 l 3.68,-2.1"/><g class="blocklyIconGroup" display="block" transform="translate(10,5)"><rect class="blocklyIconShape" rx="4" ry="4" height="16" width="16"/><path class="blocklyIconSymbol" d="m4.203,7.296 0,1.368 -0.92,0.677 -0.11,0.41 0.9,1.559 0.41,0.11 1.043,-0.457 1.187,0.683 0.127,1.134 0.3,0.3 1.8,0 0.3,-0.299 0.127,-1.138 1.185,-0.682 1.046,0.458 0.409,-0.11 0.9,-1.559 -0.11,-0.41 -0.92,-0.677 0,-1.366 0.92,-0.677 0.11,-0.41 -0.9,-1.559 -0.409,-0.109 -1.046,0.458 -1.185,-0.682 -0.127,-1.138 -0.3,-0.299 -1.8,0 -0.3,0.3 -0.126,1.135 -1.187,0.682 -1.043,-0.457 -0.41,0.11 -0.899,1.559 0.108,0.409z"/><circle class="blocklyIconShape" r="2.7" cx="8" cy="8"/></g><text class="blocklyText" y="12.5" transform="translate(37,10)">ustvari tabelo iz</text><g class="blocklyDraggable" transform="translate(264.50334548950195,6)"><path class="blocklyPathDark" transform="translate(1,1)" fill="#003db7" d="m 0,0 H 28.155407905578613 v 25 H 0 V 20 c 0,-10 -8,8 -8,-7.5 s 8,2.5 8,-7.5 z&#10;"/><path class="blocklyPath" fill="#004ce5" d="m 0,0 H 28.155407905578613 v 25 H 0 V 20 c 0,-10 -8,8 -8,-7.5 s 8,2.5 8,-7.5 z&#10;"/><path class="blocklyPathLight" stroke="#4d82ed" d="m 0.5,0.5 H 27.655407905578613 M 27.655407905578613,0.5 M 0.5,24.5 V 18.5 m -7.36,-0.5 q -1.52,-5.5 0,-11 m 7.36,1 V 0.5 H 1&#10;"/><g class="blocklyEditableText" transform="translate(10,5)" style="cursor: text;"><rect rx="4" ry="4" x="-5" y="0" height="16" width="18.155407905578613"/><text class="blocklyText" y="12.5">8</text></g></g><g class="blocklyDraggable" transform="translate(310.65875339508057,6)"><path class="blocklyPathDark" transform="translate(1,1)" fill="#003db7" d="m 0,0 H 36.31081581115723 v 25 H 0 V 20 c 0,-10 -8,8 -8,-7.5 s 8,2.5 8,-7.5 z&#10;"/><path class="blocklyPath" fill="#004ce5" d="m 0,0 H 36.31081581115723 v 25 H 0 V 20 c 0,-10 -8,8 -8,-7.5 s 8,2.5 8,-7.5 z&#10;"/><path class="blocklyPathLight" stroke="#4d82ed" d="m 0.5,0.5 H 35.81081581115723 M 35.81081581115723,0.5 M 0.5,24.5 V 18.5 m -7.36,-0.5 q -1.52,-5.5 0,-11 m 7.36,1 V 0.5 H 1&#10;"/><g class="blocklyEditableText" transform="translate(10,5)" style="cursor: text;"><rect rx="4" ry="4" x="-5" y="0" height="16" width="26.310815811157227"/><text class="blocklyText" y="12.5">13</text></g></g><g class="blocklyDraggable" transform="translate(364.9695692062378,6)"><path class="blocklyPathDark" transform="translate(1,1)" fill="#003db7" d="m 0,0 H 36.31081581115723 v 25 H 0 V 20 c 0,-10 -8,8 -8,-7.5 s 8,2.5 8,-7.5 z&#10;"/><path class="blocklyPath" fill="#004ce5" d="m 0,0 H 36.31081581115723 v 25 H 0 V 20 c 0,-10 -8,8 -8,-7.5 s 8,2.5 8,-7.5 z&#10;"/><path class="blocklyPathLight" stroke="#4d82ed" d="m 0.5,0.5 H 35.81081581115723 M 35.81081581115723,0.5 M 0.5,24.5 V 18.5 m -7.36,-0.5 q -1.52,-5.5 0,-11 m 7.36,1 V 0.5 H 1&#10;"/><g class="blocklyEditableText" transform="translate(10,5)" style="cursor: text;"><rect rx="4" ry="4" x="-5" y="0" height="16" width="26.310815811157227"/><text class="blocklyText" y="12.5">15</text></g></g><g class="blocklyDraggable" transform="translate(155.8817138671875,6)"><path class="blocklyPathDark" transform="translate(1,1)" fill="#003db7" d="m 0,0 H 36.31081581115723 v 25 H 0 V 20 c 0,-10 -8,8 -8,-7.5 s 8,2.5 8,-7.5 z&#10;"/><path class="blocklyPath" fill="#004ce5" d="m 0,0 H 36.31081581115723 v 25 H 0 V 20 c 0,-10 -8,8 -8,-7.5 s 8,2.5 8,-7.5 z&#10;"/><path class="blocklyPathLight" stroke="#4d82ed" d="m 0.5,0.5 H 35.81081581115723 M 35.81081581115723,0.5 M 0.5,24.5 V 18.5 m -7.36,-0.5 q -1.52,-5.5 0,-11 m 7.36,1 V 0.5 H 1&#10;"/><g class="blocklyEditableText" transform="translate(10,5)" style="cursor: text;"><rect rx="4" ry="4" x="-5" y="0" height="16" width="26.310815811157227"/><text class="blocklyText" y="12.5">10</text></g></g><g class="blocklyDraggable" transform="translate(419.280385017395,6)"><path class="blocklyPathDark" transform="translate(1,1)" fill="#003db7" d="m 0,0 H 28.155407905578613 v 25 H 0 V 20 c 0,-10 -8,8 -8,-7.5 s 8,2.5 8,-7.5 z&#10;"/><path class="blocklyPath" fill="#004ce5" d="m 0,0 H 28.155407905578613 v 25 H 0 V 20 c 0,-10 -8,8 -8,-7.5 s 8,2.5 8,-7.5 z&#10;"/><path class="blocklyPathLight" stroke="#4d82ed" d="m 0.5,0.5 H 27.655407905578613 M 27.655407905578613,0.5 M 0.5,24.5 V 18.5 m -7.36,-0.5 q -1.52,-5.5 0,-11 m 7.36,1 V 0.5 H 1&#10;"/><g class="blocklyEditableText" transform="translate(10,5)" style="cursor: text;"><rect rx="4" ry="4" x="-5" y="0" height="16" width="18.155407905578613"/><text class="blocklyText" y="12.5">8</text></g></g><g class="blocklyDraggable" transform="translate(465.43579292297363,6)"><path class="blocklyPathDark" transform="translate(1,1)" fill="#003db7" d="m 0,0 H 36.31081581115723 v 25 H 0 V 20 c 0,-10 -8,8 -8,-7.5 s 8,2.5 8,-7.5 z&#10;"/><path class="blocklyPath" fill="#004ce5" d="m 0,0 H 36.31081581115723 v 25 H 0 V 20 c 0,-10 -8,8 -8,-7.5 s 8,2.5 8,-7.5 z&#10;"/><path class="blocklyPathLight" stroke="#4d82ed" d="m 0.5,0.5 H 35.81081581115723 M 35.81081581115723,0.5 M 0.5,24.5 V 18.5 m -7.36,-0.5 q -1.52,-5.5 0,-11 m 7.36,1 V 0.5 H 1&#10;"/><g class="blocklyEditableText" transform="translate(10,5)" style="cursor: text;"><rect rx="4" ry="4" x="-5" y="0" height="16" width="26.310815811157227"/><text class="blocklyText" y="12.5">15</text></g></g><g class="blocklyDraggable" transform="translate(519.7466087341309,6)"><path class="blocklyPathDark" transform="translate(1,1)" fill="#003db7" d="m 0,0 H 36.31081581115723 v 25 H 0 V 20 c 0,-10 -8,8 -8,-7.5 s 8,2.5 8,-7.5 z&#10;"/><path class="blocklyPath" fill="#004ce5" d="m 0,0 H 36.31081581115723 v 25 H 0 V 20 c 0,-10 -8,8 -8,-7.5 s 8,2.5 8,-7.5 z&#10;"/><path class="blocklyPathLight" stroke="#4d82ed" d="m 0.5,0.5 H 35.81081581115723 M 35.81081581115723,0.5 M 0.5,24.5 V 18.5 m -7.36,-0.5 q -1.52,-5.5 0,-11 m 7.36,1 V 0.5 H 1&#10;"/><g class="blocklyEditableText" transform="translate(10,5)" style="cursor: text;"><rect rx="4" ry="4" x="-5" y="0" height="16" width="26.310815811157227"/><text class="blocklyText" y="12.5">17</text></g></g><g class="blocklyDraggable" transform="translate(210.19252967834473,6)"><path class="blocklyPathDark" transform="translate(1,1)" fill="#003db7" d="m 0,0 H 36.31081581115723 v 25 H 0 V 20 c 0,-10 -8,8 -8,-7.5 s 8,2.5 8,-7.5 z&#10;"/><path class="blocklyPath" fill="#004ce5" d="m 0,0 H 36.31081581115723 v 25 H 0 V 20 c 0,-10 -8,8 -8,-7.5 s 8,2.5 8,-7.5 z&#10;"/><path class="blocklyPathLight" stroke="#4d82ed" d="m 0.5,0.5 H 35.81081581115723 M 35.81081581115723,0.5 M 0.5,24.5 V 18.5 m -7.36,-0.5 q -1.52,-5.5 0,-11 m 7.36,1 V 0.5 H 1&#10;"/><g class="blocklyEditableText" transform="translate(10,5)" style="cursor: text;"><rect rx="4" ry="4" x="-5" y="0" height="16" width="26.310815811157227"/><text class="blocklyText" y="12.5">15</text></g></g></g></g></g></svg>