<svg version="1.1" xmlns="http://www.w3.org/2000/svg" xmlns:xlink="http://www.w3.org/1999/xlink" width="354.68560791015625" height="171" viewBox=" -112.96822357177734 7.259156227111816 354.68560791015625 171"><defs><style type="text/css" xmlns="http://www.w3.org/1999/xhtml"><![CDATA[.blocklySvg {background-color: #fff;outline: none;overflow: hidden;display: block;}.blocklyWidgetDiv {display: none;position: absolute;z-index: 99999;}.injectionDiv {height: 100%;position: relative;}.blocklyNonSelectable {user-select: none;-moz-user-select: none;-webkit-user-select: none;-ms-user-select: none;}.blocklyTooltipDiv {background-color: #ffffc7;border: 1px solid #ddc;box-shadow: 4px 4px 20px 1px rgba(0,0,0,.15);color: #000;display: none;font-family: sans-serif;font-size: 9pt;opacity: 0.9;padding: 2px;position: absolute;z-index: 100000;}.blocklyResizeSE {cursor: se-resize;fill: #aaa;}.blocklyResizeSW {cursor: sw-resize;fill: #aaa;}.blocklyResizeLine {stroke: #888;stroke-width: 1;}.blocklyHighlightedConnectionPath {fill: none;stroke: #fc3;stroke-width: 4px;}.blocklyPathLight {fill: none;stroke-linecap: round;stroke-width: 1;}.blocklySelected>.blocklyPath {stroke: #fc3;stroke-width: 3px;}.blocklySelected>.blocklyPathLight {display: none;}.blocklyDragging>.blocklyPath,.blocklyDragging>.blocklyPathLight {fill-opacity: .8;stroke-opacity: .8;}.blocklyDragging>.blocklyPathDark {display: none;}.blocklyDisabled>.blocklyPath {fill-opacity: .5;stroke-opacity: .5;}.blocklyDisabled>.blocklyPathLight,.blocklyDisabled>.blocklyPathDark {display: none;}.blocklyText {cursor: default;fill: #fff;font-family: sans-serif;font-size: 11pt;}.blocklyNonEditableText>text {pointer-events: none;}.blocklyNonEditableText>rect,.blocklyEditableText>rect {fill: #fff;fill-opacity: .6;}.blocklyNonEditableText>text,.blocklyEditableText>text {fill: #000;}.blocklyEditableText:hover>rect {stroke: #fff;stroke-width: 2;}.blocklyBubbleText {fill: #000;}.blocklyFlyoutButton {fill: #888;cursor: default;}.blocklyFlyoutButtonShadow {fill: #666;}.blocklyFlyoutButton:hover {fill: #aaa;}.blocklySvg text {user-select: none;-moz-user-select: none;-webkit-user-select: none;cursor: inherit;}.blocklyHidden {display: none;}.blocklyFieldDropdown:not(.blocklyHidden) {display: block;}.blocklyIconGroup {cursor: default;}.blocklyIconGroup:not(:hover),.blocklyIconGroupReadonly {opacity: .6;}.blocklyIconShape {fill: #00f;stroke: #fff;stroke-width: 1px;}.blocklyIconSymbol {fill: #fff;}.blocklyMinimalBody {margin: 0;padding: 0;}.blocklyCommentTextarea {background-color: #ffc;border: 0;margin: 0;padding: 2px;resize: none;}.blocklyHtmlInput {border: none;border-radius: 4px;font-family: sans-serif;height: 100%;margin: 0;outline: none;padding: 0 1px;width: 100%}.blocklyMainBackground {stroke-width: 1;stroke: #c6c6c6;}.blocklyMutatorBackground {fill: #fff;stroke: #ddd;stroke-width: 1;}.blocklyFlyoutBackground {fill: #ddd;fill-opacity: .8;}.blocklyScrollbarBackground {opacity: 0;}.blocklyScrollbarHandle {fill: #ccc;}.blocklyScrollbarBackground:hover+.blocklyScrollbarHandle,.blocklyScrollbarHandle:hover {fill: #bbb;}.blocklyZoom>image {opacity: .4;}.blocklyZoom>image:hover {opacity: .6;}.blocklyZoom>image:active {opacity: .8;}.blocklyFlyout .blocklyScrollbarHandle {fill: #bbb;}.blocklyFlyout .blocklyScrollbarBackground:hover+.blocklyScrollbarHandle,.blocklyFlyout .blocklyScrollbarHandle:hover {fill: #aaa;}.blocklyInvalidInput {background: #faa;}.blocklyAngleCircle {stroke: #444;stroke-width: 1;fill: #ddd;fill-opacity: .8;}.blocklyAngleMarks {stroke: #444;stroke-width: 1;}.blocklyAngleGauge {fill: #f88;fill-opacity: .8;}.blocklyAngleLine {stroke: #f00;stroke-width: 2;stroke-linecap: round;}.blocklyContextMenu {border-radius: 4px;}.blocklyDropdownMenu {padding: 0 !important;}.blocklyWidgetDiv .goog-option-selected .goog-menuitem-checkbox,.blocklyWidgetDiv .goog-option-selected .goog-menuitem-icon {background: url(<<<PATH>>>/sprites.png) no-repeat -48px -16px !important;}.blocklyToolboxDiv {background-color: #ddd;overflow-x: visible;overflow-y: auto;position: absolute;}.blocklyTreeRoot {padding: 4px 0;}.blocklyTreeRoot:focus {outline: none;}.blocklyTreeRow {height: 22px;line-height: 22px;margin-bottom: 3px;padding-right: 8px;white-space: nowrap;}.blocklyHorizontalTree {float: left;margin: 1px 5px 8px 0;}.blocklyHorizontalTreeRtl {float: right;margin: 1px 0 8px 5px;}.blocklyToolboxDiv[dir="RTL"] .blocklyTreeRow {margin-left: 8px;}.blocklyTreeRow:not(.blocklyTreeSelected):hover {background-color: #e4e4e4;}.blocklyTreeSeparator {border-bottom: solid #e5e5e5 1px;height: 0;margin: 5px 0;}.blocklyTreeSeparatorHorizontal {border-right: solid #e5e5e5 1px;width: 0;padding: 5px 0;margin: 0 5px;}.blocklyTreeIcon {background-image: url(<<<PATH>>>/sprites.png);height: 16px;vertical-align: middle;width: 16px;}.blocklyTreeIconClosedLtr {background-position: -32px -1px;}.blocklyTreeIconClosedRtl {background-position: 0px -1px;}.blocklyTreeIconOpen {background-position: -16px -1px;}.blocklyTreeSelected>.blocklyTreeIconClosedLtr {background-position: -32px -17px;}.blocklyTreeSelected>.blocklyTreeIconClosedRtl {background-position: 0px -17px;}.blocklyTreeSelected>.blocklyTreeIconOpen {background-position: -16px -17px;}.blocklyTreeIconNone,.blocklyTreeSelected>.blocklyTreeIconNone {background-position: -48px -1px;}.blocklyTreeLabel {cursor: default;font-family: sans-serif;font-size: 16px;padding: 0 3px;vertical-align: middle;}.blocklyTreeSelected .blocklyTreeLabel {color: #fff;}.blocklyWidgetDiv .goog-palette {outline: none;cursor: default;}.blocklyWidgetDiv .goog-palette-table {border: 1px solid #666;border-collapse: collapse;}.blocklyWidgetDiv .goog-palette-cell {height: 13px;width: 15px;margin: 0;border: 0;text-align: center;vertical-align: middle;border-right: 1px solid #666;font-size: 1px;}.blocklyWidgetDiv .goog-palette-colorswatch {position: relative;height: 13px;width: 15px;border: 1px solid #666;}.blocklyWidgetDiv .goog-palette-cell-hover .goog-palette-colorswatch {border: 1px solid #FFF;}.blocklyWidgetDiv .goog-palette-cell-selected .goog-palette-colorswatch {border: 1px solid #000;color: #fff;}.blocklyWidgetDiv .goog-menu {background: #fff;border-color: #ccc #666 #666 #ccc;border-style: solid;border-width: 1px;cursor: default;font: normal 13px Arial, sans-serif;margin: 0;outline: none;padding: 4px 0;position: absolute;overflow-y: auto;overflow-x: hidden;max-height: 100%;z-index: 20000;}.blocklyWidgetDiv .goog-menuitem {color: #000;font: normal 13px Arial, sans-serif;list-style: none;margin: 0;padding: 4px 7em 4px 28px;white-space: nowrap;}.blocklyWidgetDiv .goog-menuitem.goog-menuitem-rtl {padding-left: 7em;padding-right: 28px;}.blocklyWidgetDiv .goog-menu-nocheckbox .goog-menuitem,.blocklyWidgetDiv .goog-menu-noicon .goog-menuitem {padding-left: 12px;}.blocklyWidgetDiv .goog-menu-noaccel .goog-menuitem {padding-right: 20px;}.blocklyWidgetDiv .goog-menuitem-content {color: #000;font: normal 13px Arial, sans-serif;}.blocklyWidgetDiv .goog-menuitem-disabled .goog-menuitem-accel,.blocklyWidgetDiv .goog-menuitem-disabled .goog-menuitem-content {color: #ccc !important;}.blocklyWidgetDiv .goog-menuitem-disabled .goog-menuitem-icon {opacity: 0.3;-moz-opacity: 0.3;filter: alpha(opacity=30);}.blocklyWidgetDiv .goog-menuitem-highlight,.blocklyWidgetDiv .goog-menuitem-hover {background-color: #d6e9f8;border-color: #d6e9f8;border-style: dotted;border-width: 1px 0;padding-bottom: 3px;padding-top: 3px;}.blocklyWidgetDiv .goog-menuitem-checkbox,.blocklyWidgetDiv .goog-menuitem-icon {background-repeat: no-repeat;height: 16px;left: 6px;position: absolute;right: auto;vertical-align: middle;width: 16px;}.blocklyWidgetDiv .goog-menuitem-rtl .goog-menuitem-checkbox,.blocklyWidgetDiv .goog-menuitem-rtl .goog-menuitem-icon {left: auto;right: 6px;}.blocklyWidgetDiv .goog-option-selected .goog-menuitem-checkbox,.blocklyWidgetDiv .goog-option-selected .goog-menuitem-icon {background: url(//ssl.gstatic.com/editor/editortoolbar.png) no-repeat -512px 0;}.blocklyWidgetDiv .goog-menuitem-accel {color: #999;direction: ltr;left: auto;padding: 0 6px;position: absolute;right: 0;text-align: right;}.blocklyWidgetDiv .goog-menuitem-rtl .goog-menuitem-accel {left: 0;right: auto;text-align: left;}.blocklyWidgetDiv .goog-menuitem-mnemonic-hint {text-decoration: underline;}.blocklyWidgetDiv .goog-menuitem-mnemonic-separator {color: #999;font-size: 12px;padding-left: 4px;}.blocklyWidgetDiv .goog-menuseparator {border-top: 1px solid #ccc;margin: 4px 0;padding: 0;}]]></style></defs><g xmlns="http://www.w3.org/2000/svg" class="blocklyBlockCanvas"><g class="blocklyDraggable" transform="translate(-112.96822277176614,7.25915586907837)"><path class="blocklyPathDark" transform="translate(1,1)" fill="#00b700" d="m 0,8 A 8,8 0 0,1 8,0 H 293.54106521606445 v 25 H 50 l -6,4 -3,0 -6,-4 h -7 a 8,8 0 0,0 -8,8 v 104 a 8,8 0 0,0 8,8 H 293.54106521606445 v 5 c 0,10 -8,-8 -8,7.5 s 8,-2.5 8,7.5 v 5 H 8 a 8,8 0 0,1 -8,-8 z&#10;"/><path class="blocklyPath" fill="#00e500" d="m 0,8 A 8,8 0 0,1 8,0 H 293.54106521606445 v 25 H 50 l -6,4 -3,0 -6,-4 h -7 a 8,8 0 0,0 -8,8 v 104 a 8,8 0 0,0 8,8 H 293.54106521606445 v 5 c 0,10 -8,-8 -8,7.5 s 8,-2.5 8,7.5 v 5 H 8 a 8,8 0 0,1 -8,-8 z&#10;"/><path class="blocklyPathLight" stroke="#4ded4d" d="m 0.5,7.5 A 7.5,7.5 0 0,1 8,0.5 H 293.04106521606445 M 293.04106521606445,0.5 M 293.04106521606445,25.5 M 21.989592359914347,143.01040764008565 a 8.5,8.5 0 0,0 6.0104076400856545,2.4895923599143455 H 293.04106521606445 M 293.04106521606445,145.5 M 288.54106521606445,164.3 l 3.68,-2.1 M 2.6966991411008934,167.3033008588991 A 7.5,7.5 0 0,1 0.5,162 V 8&#10;"/><g class="blocklyIconGroup" display="block" transform="translate(10,5)"><rect class="blocklyIconShape" rx="4" ry="4" height="16" width="16"/><path class="blocklyIconSymbol" d="m4.203,7.296 0,1.368 -0.92,0.677 -0.11,0.41 0.9,1.559 0.41,0.11 1.043,-0.457 1.187,0.683 0.127,1.134 0.3,0.3 1.8,0 0.3,-0.299 0.127,-1.138 1.185,-0.682 1.046,0.458 0.409,-0.11 0.9,-1.559 -0.11,-0.41 -0.92,-0.677 0,-1.366 0.92,-0.677 0.11,-0.41 -0.9,-1.559 -0.409,-0.109 -1.046,0.458 -1.185,-0.682 -0.127,-1.138 -0.3,-0.299 -1.8,0 -0.3,0.3 -0.126,1.135 -1.187,0.682 -1.043,-0.457 -0.41,0.11 -0.899,1.559 0.108,0.409z"/><circle class="blocklyIconShape" r="2.7" cx="8" cy="8"/></g><g class="blocklyIconGroup" display="block" transform="translate(37,5)"><circle class="blocklyIconShape" r="8" cx="8" cy="8"/><path class="blocklyIconSymbol" d="m6.8,10h2c0.003,-0.617 0.271,-0.962 0.633,-1.266 2.875,-2.405 0.607,-5.534 -3.765,-3.874v1.7c3.12,-1.657 3.698,0.118 2.336,1.25 -1.201,0.998 -1.201,1.528 -1.204,2.19z"/><rect class="blocklyIconSymbol" x="6.8" y="10.78" height="2" width="2"/></g><text class="blocklyText" y="12.5" transform="translate(64,5)">funkcija</text><g class="blocklyEditableText" transform="translate(123.72005462646484,5)" style="cursor: text;"><rect rx="4" ry="4" x="-5" y="0" height="16" width="45.8723258972168"/><text class="blocklyText" y="12.5">Vecje</text></g><text class="blocklyText" y="12.5" transform="translate(169.59238052368164,5)">s parametri: a, b</text><text class="blocklyText" y="12.5" transform="translate(251.9125862121582,150)">vrni</text><g class="blocklyDraggable" transform="translate(21,26)"><path class="blocklyPathDark" transform="translate(1,1)" fill="#007ab7" d="m 0,8 A 8,8 0 0,1 8,0 H 15 l 6,4 3,0 6,-4 H 87.49052810668945 v 5 c 0,10 -8,-8 -8,7.5 s 8,-2.5 8,7.5 v 16 H 87.49052810668945 l -6,4 -3,0 -6,-4 h -7 a 8,8 0 0,0 -8,8 v 14 a 8,8 0 0,0 8,8 H 87.49052810668945 v 10 H 87.49052810668945 l -6,4 -3,0 -6,-4 h -7 a 8,8 0 0,0 -8,8 v 13 a 8,8 0 0,0 8,8 H 87.49052810668945 v 10 H 29.5 l -6,4 -3,0 -6,-4 H 8 a 8,8 0 0,1 -8,-8 z&#10;"/><path class="blocklyPath" fill="#0098e5" d="m 0,8 A 8,8 0 0,1 8,0 H 15 l 6,4 3,0 6,-4 H 87.49052810668945 v 5 c 0,10 -8,-8 -8,7.5 s 8,-2.5 8,7.5 v 16 H 87.49052810668945 l -6,4 -3,0 -6,-4 h -7 a 8,8 0 0,0 -8,8 v 14 a 8,8 0 0,0 8,8 H 87.49052810668945 v 10 H 87.49052810668945 l -6,4 -3,0 -6,-4 h -7 a 8,8 0 0,0 -8,8 v 13 a 8,8 0 0,0 8,8 H 87.49052810668945 v 10 H 29.5 l -6,4 -3,0 -6,-4 H 8 a 8,8 0 0,1 -8,-8 z&#10;"/><path class="blocklyPathLight" stroke="#4db7ed" d="m 0.5,7.5 A 7.5,7.5 0 0,1 8,0.5 H 15 l 6,4 3,0 6,-4 H 86.99052810668945 M 86.99052810668945,0.5 M 82.49052810668945,19.3 l 3.68,-2.1 M 86.99052810668945,36.5 M 59.4801204666038,64.01040764008566 a 8.5,8.5 0 0,0 6.0104076400856545,2.4895923599143455 H 86.99052810668945 M 86.99052810668945,76.5 M 59.4801204666038,103.01040764008566 a 8.5,8.5 0 0,0 6.0104076400856545,2.4895923599143455 H 86.99052810668945 M 2.6966991411008934,112.3033008588991 A 7.5,7.5 0 0,1 0.5,107 V 8&#10;"/><g class="blocklyIconGroup" display="block" transform="translate(10,5)"><rect class="blocklyIconShape" rx="4" ry="4" height="16" width="16"/><path class="blocklyIconSymbol" d="m4.203,7.296 0,1.368 -0.92,0.677 -0.11,0.41 0.9,1.559 0.41,0.11 1.043,-0.457 1.187,0.683 0.127,1.134 0.3,0.3 1.8,0 0.3,-0.299 0.127,-1.138 1.185,-0.682 1.046,0.458 0.409,-0.11 0.9,-1.559 -0.11,-0.41 -0.92,-0.677 0,-1.366 0.92,-0.677 0.11,-0.41 -0.9,-1.559 -0.409,-0.109 -1.046,0.458 -1.185,-0.682 -0.127,-1.138 -0.3,-0.299 -1.8,0 -0.3,0.3 -0.126,1.135 -1.187,0.682 -1.043,-0.457 -0.41,0.11 -0.899,1.559 0.108,0.409z"/><circle class="blocklyIconShape" r="2.7" cx="8" cy="8"/></g><text class="blocklyText" y="12.5" transform="translate(37,5)">če</text><text class="blocklyText" y="12.5" transform="translate(10,41)">izvedi</text><text class="blocklyText" y="12.5" transform="translate(10,81)">sicer</text><g class="blocklyDraggable" transform="translate(88.49052810668945,0)"><path class="blocklyPathDark" transform="translate(1,1)" fill="#007ab7" d="m 0,0 H 20 H 169.84978866577148 v 36 H 0 V 20 c 0,-10 -8,8 -8,-7.5 s 8,2.5 8,-7.5 z&#10;M 62.480552673339844,5 h -46.480552673339844 v 5 c 0,10 -8,-8 -8,7.5 s 8,-2.5 8,7.5 v 7 h 46.480552673339844 z M 159.84978866577148,5 h -46.480552673339844 v 5 c 0,10 -8,-8 -8,7.5 s 8,-2.5 8,7.5 v 7 h 46.480552673339844 z"/><path class="blocklyPath" fill="#0098e5" d="m 0,0 H 20 H 169.84978866577148 v 36 H 0 V 20 c 0,-10 -8,8 -8,-7.5 s 8,2.5 8,-7.5 z&#10;M 62.480552673339844,5 h -46.480552673339844 v 5 c 0,10 -8,-8 -8,7.5 s 8,-2.5 8,7.5 v 7 h 46.480552673339844 z M 159.84978866577148,5 h -46.480552673339844 v 5 c 0,10 -8,-8 -8,7.5 s 8,-2.5 8,7.5 v 7 h 46.480552673339844 z"/><path class="blocklyPathLight" stroke="#4db7ed" d="m 0.5,0.5 H 19.5 M 19.5,0.5 H 169.34978866577148 M 0.5,35.5 V 18.5 m -7.36,-0.5 q -1.52,-5.5 0,-11 m 7.36,1 V 0.5 H 1&#10;M 62.980552673339844,5.5 v 27 h -46.480552673339844 M 10.9,24.3 l 3.68,-2.1 M 160.34978866577148,5.5 v 27 h -46.480552673339844 M 108.26923599243165,24.3 l 3.68,-2.1"/><g class="blocklyEditableText" transform="translate(72.48055267333984,10)" style="cursor: default;"><rect rx="4" ry="4" x="-5" y="0" height="16" width="34.8886833190918"/><text class="blocklyText" y="12.5">&gt;<tspan style="fill: rgb(0, 152, 229);"> ▾</tspan></text></g><g class="blocklyDraggable" transform="translate(17,6)"><path class="blocklyPathDark" transform="translate(1,1)" fill="#7a00b7" d="m 0,0 H 44.480552673339844 v 25 H 0 V 20 c 0,-10 -8,8 -8,-7.5 s 8,2.5 8,-7.5 z&#10;"/><path class="blocklyPath" fill="#9900e5" d="m 0,0 H 44.480552673339844 v 25 H 0 V 20 c 0,-10 -8,8 -8,-7.5 s 8,2.5 8,-7.5 z&#10;"/><path class="blocklyPathLight" stroke="#b84ded" d="m 0.5,0.5 H 43.980552673339844 M 43.980552673339844,0.5 M 0.5,24.5 V 18.5 m -7.36,-0.5 q -1.52,-5.5 0,-11 m 7.36,1 V 0.5 H 1&#10;"/><g class="blocklyEditableText" transform="translate(10,5)" style="cursor: default;"><rect rx="4" ry="4" x="-5" y="0" height="16" width="34.480552673339844"/><text class="blocklyText" y="12.5">a<tspan style="fill: rgb(153, 0, 229);"> ▾</tspan></text></g></g><g class="blocklyDraggable" transform="translate(114.36923599243164,6)"><path class="blocklyPathDark" transform="translate(1,1)" fill="#7a00b7" d="m 0,0 H 44.480552673339844 v 25 H 0 V 20 c 0,-10 -8,8 -8,-7.5 s 8,2.5 8,-7.5 z&#10;"/><path class="blocklyPath" fill="#9900e5" d="m 0,0 H 44.480552673339844 v 25 H 0 V 20 c 0,-10 -8,8 -8,-7.5 s 8,2.5 8,-7.5 z&#10;"/><path class="blocklyPathLight" stroke="#b84ded" d="m 0.5,0.5 H 43.980552673339844 M 43.980552673339844,0.5 M 0.5,24.5 V 18.5 m -7.36,-0.5 q -1.52,-5.5 0,-11 m 7.36,1 V 0.5 H 1&#10;"/><g class="blocklyEditableText" transform="translate(10,5)" style="cursor: default;"><rect rx="4" ry="4" x="-5" y="0" height="16" width="34.480552673339844"/><text class="blocklyText" y="12.5">b<tspan style="fill: rgb(153, 0, 229);"> ▾</tspan></text></g></g></g><g class="blocklyDraggable" transform="translate(58.49052810668945,37)"><path class="blocklyPathDark" transform="translate(1,1)" fill="#7a00b7" d="m 0,8 A 8,8 0 0,1 8,0 H 15 l 6,4 3,0 6,-4 H 149.91755485534668 v 5 c 0,10 -8,-8 -8,7.5 s 8,-2.5 8,7.5 v 5 H 29.5 l -6,4 -3,0 -6,-4 H 8 a 8,8 0 0,1 -8,-8 z&#10;"/><path class="blocklyPath" fill="#9900e5" d="m 0,8 A 8,8 0 0,1 8,0 H 15 l 6,4 3,0 6,-4 H 149.91755485534668 v 5 c 0,10 -8,-8 -8,7.5 s 8,-2.5 8,7.5 v 5 H 29.5 l -6,4 -3,0 -6,-4 H 8 a 8,8 0 0,1 -8,-8 z&#10;"/><path class="blocklyPathLight" stroke="#b84ded" d="m 0.5,7.5 A 7.5,7.5 0 0,1 8,0.5 H 15 l 6,4 3,0 6,-4 H 149.41755485534668 M 149.41755485534668,0.5 M 144.91755485534668,19.3 l 3.68,-2.1 M 2.6966991411008934,22.303300858899107 A 7.5,7.5 0 0,1 0.5,17 V 8&#10;"/><text class="blocklyText" y="12.5" transform="translate(10,5)">nastavi</text><g class="blocklyEditableText" transform="translate(66.46219635009766,5)" style="cursor: default;"><rect rx="4" ry="4" x="-5" y="0" height="16" width="49.1445426940918"/><text class="blocklyText" y="12.5">vec<tspan style="fill: rgb(153, 0, 229);"> ▾</tspan></text></g><text class="blocklyText" y="12.5" transform="translate(115.60673904418945,5)">na</text><g class="blocklyDraggable" transform="translate(150.91755485534668,0)"><path class="blocklyPathDark" transform="translate(1,1)" fill="#7a00b7" d="m 0,0 H 44.480552673339844 v 25 H 0 V 20 c 0,-10 -8,8 -8,-7.5 s 8,2.5 8,-7.5 z&#10;"/><path class="blocklyPath" fill="#9900e5" d="m 0,0 H 44.480552673339844 v 25 H 0 V 20 c 0,-10 -8,8 -8,-7.5 s 8,2.5 8,-7.5 z&#10;"/><path class="blocklyPathLight" stroke="#b84ded" d="m 0.5,0.5 H 43.980552673339844 M 43.980552673339844,0.5 M 0.5,24.5 V 18.5 m -7.36,-0.5 q -1.52,-5.5 0,-11 m 7.36,1 V 0.5 H 1&#10;"/><g class="blocklyEditableText" transform="translate(10,5)" style="cursor: default;"><rect rx="4" ry="4" x="-5" y="0" height="16" width="34.480552673339844"/><text class="blocklyText" y="12.5">a<tspan style="fill: rgb(153, 0, 229);"> ▾</tspan></text></g></g></g><g class="blocklyDraggable" transform="translate(58.49052810668945,77)"><path class="blocklyPathDark" transform="translate(1,1)" fill="#7a00b7" d="m 0,8 A 8,8 0 0,1 8,0 H 15 l 6,4 3,0 6,-4 H 149.91755485534668 v 5 c 0,10 -8,-8 -8,7.5 s 8,-2.5 8,7.5 v 5 H 29.5 l -6,4 -3,0 -6,-4 H 8 a 8,8 0 0,1 -8,-8 z&#10;"/><path class="blocklyPath" fill="#9900e5" d="m 0,8 A 8,8 0 0,1 8,0 H 15 l 6,4 3,0 6,-4 H 149.91755485534668 v 5 c 0,10 -8,-8 -8,7.5 s 8,-2.5 8,7.5 v 5 H 29.5 l -6,4 -3,0 -6,-4 H 8 a 8,8 0 0,1 -8,-8 z&#10;"/><path class="blocklyPathLight" stroke="#b84ded" d="m 0.5,7.5 A 7.5,7.5 0 0,1 8,0.5 H 15 l 6,4 3,0 6,-4 H 149.41755485534668 M 149.41755485534668,0.5 M 144.91755485534668,19.3 l 3.68,-2.1 M 2.6966991411008934,22.303300858899107 A 7.5,7.5 0 0,1 0.5,17 V 8&#10;"/><text class="blocklyText" y="12.5" transform="translate(10,5)">nastavi</text><g class="blocklyEditableText" transform="translate(66.46219635009766,5)" style="cursor: default;"><rect rx="4" ry="4" x="-5" y="0" height="16" width="49.1445426940918"/><text class="blocklyText" y="12.5">vec<tspan style="fill: rgb(153, 0, 229);"> ▾</tspan></text></g><text class="blocklyText" y="12.5" transform="translate(115.60673904418945,5)">na</text><g class="blocklyDraggable" transform="translate(150.91755485534668,0)"><path class="blocklyPathDark" transform="translate(1,1)" fill="#7a00b7" d="m 0,0 H 44.480552673339844 v 25 H 0 V 20 c 0,-10 -8,8 -8,-7.5 s 8,2.5 8,-7.5 z&#10;"/><path class="blocklyPath" fill="#9900e5" d="m 0,0 H 44.480552673339844 v 25 H 0 V 20 c 0,-10 -8,8 -8,-7.5 s 8,2.5 8,-7.5 z&#10;"/><path class="blocklyPathLight" stroke="#b84ded" d="m 0.5,0.5 H 43.980552673339844 M 43.980552673339844,0.5 M 0.5,24.5 V 18.5 m -7.36,-0.5 q -1.52,-5.5 0,-11 m 7.36,1 V 0.5 H 1&#10;"/><g class="blocklyEditableText" transform="translate(10,5)" style="cursor: default;"><rect rx="4" ry="4" x="-5" y="0" height="16" width="34.480552673339844"/><text class="blocklyText" y="12.5">b<tspan style="fill: rgb(153, 0, 229);"> ▾</tspan></text></g></g></g></g><g class="blocklyDraggable" transform="translate(294.54106521606445,145)"><path class="blocklyPathDark" transform="translate(1,1)" fill="#7a00b7" d="m 0,0 H 59.1445426940918 v 25 H 0 V 20 c 0,-10 -8,8 -8,-7.5 s 8,2.5 8,-7.5 z&#10;"/><path class="blocklyPath" fill="#9900e5" d="m 0,0 H 59.1445426940918 v 25 H 0 V 20 c 0,-10 -8,8 -8,-7.5 s 8,2.5 8,-7.5 z&#10;"/><path class="blocklyPathLight" stroke="#b84ded" d="m 0.5,0.5 H 58.6445426940918 M 58.6445426940918,0.5 M 0.5,24.5 V 18.5 m -7.36,-0.5 q -1.52,-5.5 0,-11 m 7.36,1 V 0.5 H 1&#10;"/><g class="blocklyEditableText" transform="translate(10,5)" style="cursor: default;"><rect rx="4" ry="4" x="-5" y="0" height="16" width="49.1445426940918"/><text class="blocklyText" y="12.5">vec<tspan style="fill: rgb(153, 0, 229);"> ▾</tspan></text></g></g></g></g></svg>