<svg xmlns="http://www.w3.org/2000/svg" viewBox="-113 8 996.8337097167969 235" class="blocklySvg geras-renderer rin_light-theme" width="996.8337097167969" height="235" style="background-color: transparent"><style xmlns="http://www.w3.org/1999/xhtml">.geras-renderer.rin_light-theme .blocklyText, 
.geras-renderer.rin_light-theme .blocklyFlyoutLabelText {
font: normal 11pt sans-serif;
}
.geras-renderer.rin_light-theme .blocklyText {
fill: #fff;
}
.geras-renderer.rin_light-theme .blocklyNonEditableText&gt;rect,
.geras-renderer.rin_light-theme .blocklyEditableText&gt;rect {
fill: #fff;
fill-opacity: .6;
stroke: none;
}
.geras-renderer.rin_light-theme .blocklyNonEditableText&gt;text,
.geras-renderer.rin_light-theme .blocklyEditableText&gt;text {
fill: #000;
}
.geras-renderer.rin_light-theme .blocklyFlyoutLabelText {
fill: #000;
}
.geras-renderer.rin_light-theme .blocklyText.blocklyBubbleText {
fill: #000;
}
.geras-renderer.rin_light-theme .blocklyEditableText:not(.editing):hover&gt;rect {
stroke: #fff;
stroke-width: 2;
}
.geras-renderer.rin_light-theme .blocklyHtmlInput {
font-family: sans-serif;
font-weight: normal;
}
.geras-renderer.rin_light-theme .blocklySelected&gt;.blocklyPath {
stroke: #fc3;
stroke-width: 3px;
}
.geras-renderer.rin_light-theme .blocklyHighlightedConnectionPath {
stroke: #fc3;
}
.geras-renderer.rin_light-theme .blocklyReplaceable .blocklyPath {
fill-opacity: .5;
}
.geras-renderer.rin_light-theme .blocklyReplaceable .blocklyPathLight,
.geras-renderer.rin_light-theme .blocklyReplaceable .blocklyPathDark {
display: none;
}
.geras-renderer.rin_light-theme .blocklyInsertionMarker&gt;.blocklyPath {
fill-opacity: 0.2;
stroke: none;
}
.geras-renderer.rin_light-theme .blocklyInsertionMarker&gt;.blocklyPathLight,
.geras-renderer.rin_light-theme .blocklyInsertionMarker&gt;.blocklyPathDark {
fill-opacity: 0.2;
stroke: none;
}
.blocklySvg {
background-color: #fff;
outline: none;
overflow: hidden;
position: absolute;
display: block;
}
.blocklyWidgetDiv {
display: none;
position: absolute;
z-index: 99999;
}
.injectionDiv {
height: 100%;
position: relative;
overflow: hidden;
touch-action: none;
}
.blocklyNonSelectable {
user-select: none;
-ms-user-select: none;
-webkit-user-select: none;
}
.blocklyWsDragSurface {
display: none;
position: absolute;
top: 0;
left: 0;
}
.blocklyWsDragSurface.blocklyOverflowVisible {
overflow: visible;
}
.blocklyBlockDragSurface {
display: none;
position: absolute;
top: 0;
left: 0;
right: 0;
bottom: 0;
overflow: visible !important;
z-index: 50;
}
.blocklyBlockCanvas.blocklyCanvasTransitioning,
.blocklyBubbleCanvas.blocklyCanvasTransitioning {
transition: transform .5s;
}
.blocklyTooltipDiv {
background-color: #ffffc7;
border: 1px solid #ddc;
box-shadow: 4px 4px 20px 1px rgba(0,0,0,.15);
color: #000;
display: none;
font: 9pt sans-serif;
opacity: .9;
padding: 2px;
position: absolute;
z-index: 100000;
}
.blocklyDropDownDiv {
position: absolute;
left: 0;
top: 0;
z-index: 1000;
display: none;
border: 1px solid;
border-color: #dadce0;
background-color: #fff;
border-radius: 2px;
padding: 4px;
box-shadow: 0 0 3px 1px rgba(0,0,0,.3);
}
.blocklyDropDownDiv.blocklyFocused {
box-shadow: 0 0 6px 1px rgba(0,0,0,.3);
}
.blocklyDropDownContent {
max-height: 300px;
overflow: auto;
overflow-x: hidden;
position: relative;
}
.blocklyDropDownArrow {
position: absolute;
left: 0;
top: 0;
width: 16px;
height: 16px;
z-index: -1;
background-color: inherit;
border-color: inherit;
}
.blocklyDropDownButton {
display: inline-block;
float: left;
padding: 0;
margin: 4px;
border-radius: 4px;
outline: none;
border: 1px solid;
transition: box-shadow .1s;
cursor: pointer;
}
.blocklyArrowTop {
border-top: 1px solid;
border-left: 1px solid;
border-top-left-radius: 4px;
border-color: inherit;
}
.blocklyArrowBottom {
border-bottom: 1px solid;
border-right: 1px solid;
border-bottom-right-radius: 4px;
border-color: inherit;
}
.blocklyResizeSE {
cursor: se-resize;
fill: #aaa;
}
.blocklyResizeSW {
cursor: sw-resize;
fill: #aaa;
}
.blocklyResizeLine {
stroke: #515A5A;
stroke-width: 1;
}
.blocklyHighlightedConnectionPath {
fill: none;
stroke: #fc3;
stroke-width: 4px;
}
.blocklyPathLight {
fill: none;
stroke-linecap: round;
stroke-width: 1;
}
.blocklySelected&gt;.blocklyPathLight {
display: none;
}
.blocklyDraggable {
cursor: url("blockly/media/handopen.cur"), auto;
cursor: grab;
cursor: -webkit-grab;
}
.blocklyDragging {
cursor: url("blockly/media/handclosed.cur"), auto;
cursor: grabbing;
cursor: -webkit-grabbing;
}
.blocklyDraggable:active {
cursor: url("blockly/media/handclosed.cur"), auto;
cursor: grabbing;
cursor: -webkit-grabbing;
}
.blocklyBlockDragSurface .blocklyDraggable {
cursor: url("blockly/media/handclosed.cur"), auto;
cursor: grabbing;
cursor: -webkit-grabbing;
}
.blocklyDragging.blocklyDraggingDelete {
cursor: url("blockly/media/handdelete.cur"), auto;
}
.blocklyDragging&gt;.blocklyPath,
.blocklyDragging&gt;.blocklyPathLight {
fill-opacity: .8;
stroke-opacity: .8;
}
.blocklyDragging&gt;.blocklyPathDark {
display: none;
}
.blocklyDisabled&gt;.blocklyPath {
fill-opacity: .5;
stroke-opacity: .5;
}
.blocklyDisabled&gt;.blocklyPathLight,
.blocklyDisabled&gt;.blocklyPathDark {
display: none;
}
.blocklyInsertionMarker&gt;.blocklyPath,
.blocklyInsertionMarker&gt;.blocklyPathLight,
.blocklyInsertionMarker&gt;.blocklyPathDark {
fill-opacity: .2;
stroke: none;
}
.blocklyMultilineText {
font-family: monospace;
}
.blocklyNonEditableText&gt;text {
pointer-events: none;
}
.blocklyFlyout {
position: absolute;
z-index: 20;
}
.blocklyText text {
cursor: default;
}
.blocklySvg text,
.blocklyBlockDragSurface text {
user-select: none;
-ms-user-select: none;
-webkit-user-select: none;
cursor: inherit;
}
.blocklyHidden {
display: none;
}
.blocklyFieldDropdown:not(.blocklyHidden) {
display: block;
}
.blocklyIconGroup {
cursor: default;
}
.blocklyIconGroup:not(:hover),
.blocklyIconGroupReadonly {
opacity: .6;
}
.blocklyIconShape {
fill: #00f;
stroke: #fff;
stroke-width: 1px;
}
.blocklyIconSymbol {
fill: #fff;
}
.blocklyMinimalBody {
margin: 0;
padding: 0;
}
.blocklyHtmlInput {
border: none;
border-radius: 4px;
height: 100%;
margin: 0;
outline: none;
padding: 0;
width: 100%;
text-align: center;
display: block;
box-sizing: border-box;
}
.blocklyHtmlInput::-ms-clear {
display: none;
}
.blocklyMainBackground {
stroke-width: 1;
stroke: #c6c6c6;
}
.blocklyMutatorBackground {
fill: #fff;
stroke: #ddd;
stroke-width: 1;
}
.blocklyFlyoutBackground {
fill: #ddd;
fill-opacity: .8;
}
.blocklyMainWorkspaceScrollbar {
z-index: 20;
}
.blocklyFlyoutScrollbar {
z-index: 30;
}
.blocklyScrollbarHorizontal,
.blocklyScrollbarVertical {
position: absolute;
outline: none;
}
.blocklyScrollbarBackground {
opacity: 0;
}
.blocklyScrollbarHandle {
fill: #ccc;
}
.blocklyScrollbarBackground:hover+.blocklyScrollbarHandle,
.blocklyScrollbarHandle:hover {
fill: #bbb;
}
.blocklyFlyout .blocklyScrollbarHandle {
fill: #bbb;
}
.blocklyFlyout .blocklyScrollbarBackground:hover+.blocklyScrollbarHandle,
.blocklyFlyout .blocklyScrollbarHandle:hover {
fill: #aaa;
}
.blocklyInvalidInput {
background: #faa;
}
.blocklyVerticalMarker {
stroke-width: 3px;
fill: rgba(255,255,255,.5);
pointer-events: none;
}
.blocklyComputeCanvas {
position: absolute;
width: 0;
height: 0;
}
.blocklyNoPointerEvents {
pointer-events: none;
}
.blocklyContextMenu {
border-radius: 4px;
max-height: 100%;
}
.blocklyDropdownMenu {
border-radius: 2px;
padding: 0 !important;
}
.blocklyDropdownMenu .blocklyMenuItem {
padding-left: 28px;
}
.blocklyDropdownMenu .blocklyMenuItemRtl {
padding-left: 5px;
padding-right: 28px;
}
.blocklyWidgetDiv .blocklyMenu {
background: #fff;
border: 1px solid transparent;
box-shadow: 0 0 3px 1px rgba(0,0,0,.3);
font: normal 13px Arial, sans-serif;
margin: 0;
outline: none;
padding: 4px 0;
position: absolute;
overflow-y: auto;
overflow-x: hidden;
max-height: 100%;
z-index: 20000;
}
.blocklyWidgetDiv .blocklyMenu.blocklyFocused {
box-shadow: 0 0 6px 1px rgba(0,0,0,.3);
}
.blocklyDropDownDiv .blocklyMenu {
font: normal 13px "Helvetica Neue", Helvetica, sans-serif;
outline: none;
z-index: 20000;
}
.blocklyMenuItem {
border: none;
color: #000;
cursor: pointer;
list-style: none;
margin: 0;
min-width: 7em;
padding: 6px 15px;
white-space: nowrap;
}
.blocklyMenuItemDisabled {
color: #ccc;
cursor: inherit;
}
.blocklyMenuItemHighlight {
background-color: rgba(0,0,0,.1);
}
.blocklyMenuItemCheckbox {
height: 16px;
position: absolute;
width: 16px;
}
.blocklyMenuItemSelected .blocklyMenuItemCheckbox {
background: url(blockly/media/sprites.png) no-repeat -48px -16px;
float: left;
margin-left: -24px;
position: static;
}
.blocklyMenuItemRtl .blocklyMenuItemCheckbox {
float: right;
margin-right: -24px;
}
.blocklyCommentTextarea {
background-color: #fef49c;
border: 0;
outline: 0;
margin: 0;
padding: 3px;
resize: none;
display: block;
overflow: hidden;
}
.blocklyFlyoutButton {
fill: #888;
cursor: default;
}
.blocklyFlyoutButtonShadow {
fill: #666;
}
.blocklyFlyoutButton:hover {
fill: #aaa;
}
.blocklyFlyoutLabel {
cursor: default;
}
.blocklyFlyoutLabelBackground {
opacity: 0;
}
.blocklyTreeRow:not(.blocklyTreeSelected):hover {
background-color: rgba(255, 255, 255, 0.2);
}
.blocklyToolboxDiv[layout="h"] .blocklyToolboxCategory {
margin: 1px 5px 1px 0;
}
.blocklyToolboxDiv[dir="RTL"][layout="h"] .blocklyToolboxCategory {
margin: 1px 0 1px 5px;
}
.blocklyTreeRow {
height: 22px;
line-height: 22px;
margin-bottom: 3px;
padding-right: 8px;
white-space: nowrap;
}
.blocklyToolboxDiv[dir="RTL"] .blocklyTreeRow {
margin-left: 8px;
padding-right: 0px
}
.blocklyTreeIcon {
background-image: url(blockly/media/sprites.png);
height: 16px;
vertical-align: middle;
visibility: hidden;
width: 16px;
}
.blocklyTreeIconClosed {
background-position: -32px -1px;
}
.blocklyToolboxDiv[dir="RTL"] .blocklyTreeIconClosed {
background-position: 0 -1px;
}
.blocklyTreeSelected&gt;.blocklyTreeIconClosed {
background-position: -32px -17px;
}
.blocklyToolboxDiv[dir="RTL"] .blocklyTreeSelected&gt;.blocklyTreeIconClosed {
background-position: 0 -17px;
}
.blocklyTreeIconOpen {
background-position: -16px -1px;
}
.blocklyTreeSelected&gt;.blocklyTreeIconOpen {
background-position: -16px -17px;
}
.blocklyTreeLabel {
cursor: default;
font: 16px sans-serif;
padding: 0 3px;
vertical-align: middle;
}
.blocklyToolboxDelete .blocklyTreeLabel {
cursor: url("blockly/media/handdelete.cur"), auto;
}
.blocklyTreeSelected .blocklyTreeLabel {
color: #fff;
}
.blocklyTreeSeparator {
border-bottom: solid #e5e5e5 1px;
height: 0;
margin: 5px 0;
}
.blocklyToolboxDiv[layout="h"] .blocklyTreeSeparator {
border-right: solid #e5e5e5 1px;
border-bottom: none;
height: auto;
margin: 0 5px 0 5px;
padding: 5px 0;
width: 0;
}
.blocklyToolboxDelete {
cursor: url("blockly/media/handdelete.cur"), auto;
}
.blocklyToolboxGrab {
cursor: url("blockly/media/handclosed.cur"), auto;
cursor: grabbing;
cursor: -webkit-grabbing;
}
.blocklyToolboxDiv {
background-color: #ddd;
overflow-x: visible;
overflow-y: auto;
padding: 4px 0 4px 0;
position: absolute;
z-index: 70;
-webkit-tap-highlight-color: transparent;
}
.blocklyToolboxContents {
display: flex;
flex-wrap: wrap;
flex-direction: column;
}
.blocklyToolboxContents:focus {
outline: none;
}
.blocklyZoom&gt;image, .blocklyZoom&gt;svg&gt;image {
opacity: .4;
}
.blocklyZoom&gt;image:hover, .blocklyZoom&gt;svg&gt;image:hover {
opacity: .6;
}
.blocklyZoom&gt;image:active, .blocklyZoom&gt;svg&gt;image:active {
opacity: .8;
}
.blocklyAngleCircle {
stroke: #444;
stroke-width: 1;
fill: #ddd;
fill-opacity: .8;
}
.blocklyAngleMarks {
stroke: #444;
stroke-width: 1;
}
.blocklyAngleGauge {
fill: #f88;
fill-opacity: .8;
pointer-events: none;
}
.blocklyAngleLine {
stroke: #f00;
stroke-width: 2;
stroke-linecap: round;
pointer-events: none;
}
.blocklyColourTable {
border-collapse: collapse;
display: block;
outline: none;
padding: 1px;
}
.blocklyColourTable&gt;tr&gt;td {
border: .5px solid #888;
box-sizing: border-box;
cursor: pointer;
display: inline-block;
height: 20px;
padding: 0;
width: 20px;
}
.blocklyColourTable&gt;tr&gt;td.blocklyColourHighlighted {
border-color: #eee;
box-shadow: 2px 2px 7px 2px rgba(0,0,0,.3);
position: relative;
}
.blocklyColourSelected, .blocklyColourSelected:hover {
border-color: #eee !important;
outline: 1px solid #333;
position: relative;
}
.blocklyHtmlTextAreaInput {
font-family: monospace;
resize: none;
overflow: hidden;
height: 100%;
text-align: left;
}
undefined</style><g class="blocklyBlockCanvas"><g class="blocklyMarker"><g width="100" height="5"><rect width="100" height="5" style="display: none"/><rect class="blocklyVerticalMarker" rx="10" ry="10" style="display: none"/><path transform="" style="display: none"/><path transform="" style="display: none" fill="none" stroke-width="4"/></g></g><g class="blocklyCursor"><g width="100" height="5"><rect width="100" height="5" style="display: none"><animate attributeType="XML" attributeName="fill" dur="1s" values="#cc0a0a;transparent;transparent;" repeatCount="indefinite"/></rect><rect class="blocklyVerticalMarker" rx="10" ry="10" style="display: none"/><path transform="" style="display: none"><animate attributeType="XML" attributeName="fill" dur="1s" values="#cc0a0a;transparent;transparent;" repeatCount="indefinite"/></path><path transform="" style="display: none" fill="none" stroke-width="4"><animate attributeType="XML" attributeName="stroke" dur="1s" values="#cc0a0a;transparent;transparent;" repeatCount="indefinite"/></path></g></g><g data-id="B6y;/MxdnaM2RjT2jy}-" class="blocklyDraggable" transform="translate(-113,8)"><path class="blocklyPathDark" transform="translate(1,1)" fill="#7a00b7" d=" m 0,0  m 0,8 a 8 8 0 0,1 8,-8  h 7  l 6,4  3,0  6,-4  h 145.98133850097656  v 5  H 175.98133850097656  V 5  H 175.98133850097656  c 0,10  -8,-8  -8,7.5  s 8,-2.5  8,7.5  v 3  H 175.98133850097656  V 23  V 27  h -146.48133850097656  l -6,4  -3,0  -6,-4  h -14.5  H 0 z&#10;"/><path class="blocklyPath" stroke="none" fill="#9900e5" d=" m 0,0  m 0,8 a 8 8 0 0,1 8,-8  h 7  l 6,4  3,0  6,-4  h 145.98133850097656  v 5  H 175.98133850097656  V 5  H 175.98133850097656  c 0,10  -8,-8  -8,7.5  s 8,-2.5  8,7.5  v 3  H 175.98133850097656  V 23  V 27  h -146.48133850097656  l -6,4  -3,0  -6,-4  h -14.5  H 0 z&#10;"/><path class="blocklyPathLight" stroke="#b84ded" d=" m 0,0  m 0.5,8 a 7.5 7.5 0 0,1 8,-7.5  H 14.5  h 0.5  l 6,4  3,0  6,-4  H 175.48133850097656  H 175.48133850097656  M 175.98133850097656,5  m -5,14.3  l 3.68,-2.1  M 0.5,26.5  V 8 &#10;"/><g data-id="d^~)Nq2WmF}=YOM7f43*" class="blocklyDraggable" style="display: block;" transform="translate(168.98133850097656,0)"><path class="blocklyPathDark" transform="translate(1,1)" fill="#b71e00" d=" m 8,0  h 209.36427307128906  v 5  H 217.36427307128906  V 5  l 6,3  -12,6  6,3  v 6  H 217.36427307128906  V 23  V 27  h -209.36427307128906  H 8  V 20  c 0,-10  -8,8  -8,-7.5  s 8,2.5  8,-7.5 z&#10;"/><path class="blocklyPath" stroke="none" fill="#e52600" d=" m 8,0  h 209.36427307128906  v 5  H 217.36427307128906  V 5  l 6,3  -12,6  6,3  v 6  H 217.36427307128906  V 23  V 27  h -209.36427307128906  H 8  V 20  c 0,-10  -8,8  -8,-7.5  s 8,2.5  8,-7.5 z&#10;"/><path class="blocklyPathLight" stroke="#ed674d" d=" m 8,0  m 0.5,0.5  H 216.86427307128906  H 216.86427307128906  M 8.5,26.5  M 8.5,26.5  V 20  v -1.5  m -7.36,-0.5  q -1.52,-5.5  0,-11  m 7.36,1  V 0.5 &#10;"/><g class="blocklyIconGroup" display="none"><rect class="blocklyIconShape" rx="4" ry="4" height="16" width="16"/><path class="blocklyIconSymbol" d="m4.203,7.296 0,1.368 -0.92,0.677 -0.11,0.41 0.9,1.559 0.41,0.11 1.043,-0.457 1.187,0.683 0.127,1.134 0.3,0.3 1.8,0 0.3,-0.299 0.127,-1.138 1.185,-0.682 1.046,0.458 0.409,-0.11 0.9,-1.559 -0.11,-0.41 -0.92,-0.677 0,-1.366 0.92,-0.677 0.11,-0.41 -0.9,-1.559 -0.409,-0.109 -1.046,0.458 -1.185,-0.682 -0.127,-1.138 -0.3,-0.299 -1.8,0 -0.3,0.3 -0.126,1.135 -1.187,0.682 -1.043,-0.457 -0.41,0.11 -0.899,1.559 0.108,0.409z"/><circle class="blocklyIconShape" r="2.7" cx="8" cy="8"/></g><g data-id="wS$,!D/,MNJu{rpB,Dr." class="blocklyDraggable" style="display: none;" transform="translate(-8,-5)"><path class="blocklyPathDark" transform="translate(1,1)" fill="#003db7" d=" m 8,0  h 44.45954895019531  v 5  H 52.45954895019531  V 5  H 52.45954895019531  V 23  H 52.45954895019531  V 23  V 27  h -44.45954895019531  H 8  V 20  c 0,-10  -8,8  -8,-7.5  s 8,2.5  8,-7.5 z&#10;"/><path class="blocklyPath" stroke="none" fill="#004ce5" d=" m 8,0  h 44.45954895019531  v 5  H 52.45954895019531  V 5  H 52.45954895019531  V 23  H 52.45954895019531  V 23  V 27  h -44.45954895019531  H 8  V 20  c 0,-10  -8,8  -8,-7.5  s 8,2.5  8,-7.5 z&#10;"/><path class="blocklyPathLight" stroke="#4d82ed" d=" m 8,0  m 0.5,0.5  H 51.95954895019531  H 51.95954895019531  M 8.5,26.5  M 8.5,26.5  V 20  v -1.5  m -7.36,-0.5  q -1.52,-5.5  0,-11  m 7.36,1  V 0.5 &#10;"/><g class="blocklyEditableText" transform="translate(13,5)" style="cursor: text;"><rect rx="4" ry="4" x="0" y="0" height="18" width="34.45954895019531" class="blocklyFieldRect"/><text class="blocklyText" x="5" y="14">182</text></g></g><g data-id="*auufRP4qnMUo%?yg5cr" class="blocklyDraggable" style="display: none;" transform="translate(-8,-5)"><path class="blocklyPathDark" transform="translate(1,1)" fill="#003db7" d=" m 8,0  h 44.45954895019531  v 5  H 52.45954895019531  V 5  H 52.45954895019531  V 23  H 52.45954895019531  V 23  V 27  h -44.45954895019531  H 8  V 20  c 0,-10  -8,8  -8,-7.5  s 8,2.5  8,-7.5 z&#10;"/><path class="blocklyPath" stroke="none" fill="#004ce5" d=" m 8,0  h 44.45954895019531  v 5  H 52.45954895019531  V 5  H 52.45954895019531  V 23  H 52.45954895019531  V 23  V 27  h -44.45954895019531  H 8  V 20  c 0,-10  -8,8  -8,-7.5  s 8,2.5  8,-7.5 z&#10;"/><path class="blocklyPathLight" stroke="#4d82ed" d=" m 8,0  m 0.5,0.5  H 51.95954895019531  H 51.95954895019531  M 8.5,26.5  M 8.5,26.5  V 20  v -1.5  m -7.36,-0.5  q -1.52,-5.5  0,-11  m 7.36,1  V 0.5 &#10;"/><g class="blocklyEditableText" transform="translate(13,5)" style="cursor: text;"><rect rx="4" ry="4" x="0" y="0" height="18" width="34.45954895019531" class="blocklyFieldRect"/><text class="blocklyText" x="5" y="14">250</text></g></g><g data-id="tpK(rgbmYS+Dflq+u^{n" class="blocklyDraggable" style="display: none;" transform="translate(-8,-5)"><path class="blocklyPathDark" transform="translate(1,1)" fill="#003db7" d=" m 8,0  h 44.45954895019531  v 5  H 52.45954895019531  V 5  H 52.45954895019531  V 23  H 52.45954895019531  V 23  V 27  h -44.45954895019531  H 8  V 20  c 0,-10  -8,8  -8,-7.5  s 8,2.5  8,-7.5 z&#10;"/><path class="blocklyPath" stroke="none" fill="#004ce5" d=" m 8,0  h 44.45954895019531  v 5  H 52.45954895019531  V 5  H 52.45954895019531  V 23  H 52.45954895019531  V 23  V 27  h -44.45954895019531  H 8  V 20  c 0,-10  -8,8  -8,-7.5  s 8,2.5  8,-7.5 z&#10;"/><path class="blocklyPathLight" stroke="#4d82ed" d=" m 8,0  m 0.5,0.5  H 51.95954895019531  H 51.95954895019531  M 8.5,26.5  M 8.5,26.5  V 20  v -1.5  m -7.36,-0.5  q -1.52,-5.5  0,-11  m 7.36,1  V 0.5 &#10;"/><g class="blocklyEditableText" transform="translate(13,5)" style="cursor: text;"><rect rx="4" ry="4" x="0" y="0" height="18" width="34.45954895019531" class="blocklyFieldRect"/><text class="blocklyText" x="5" y="14">225</text></g></g><g data-id=",Up{*Z59pSFr=1e3s1*]" class="blocklyDraggable" style="display: none;" transform="translate(-8,-5)"><path class="blocklyPathDark" transform="translate(1,1)" fill="#003db7" d=" m 8,0  h 44.45954895019531  v 5  H 52.45954895019531  V 5  H 52.45954895019531  V 23  H 52.45954895019531  V 23  V 27  h -44.45954895019531  H 8  V 20  c 0,-10  -8,8  -8,-7.5  s 8,2.5  8,-7.5 z&#10;"/><path class="blocklyPath" stroke="none" fill="#004ce5" d=" m 8,0  h 44.45954895019531  v 5  H 52.45954895019531  V 5  H 52.45954895019531  V 23  H 52.45954895019531  V 23  V 27  h -44.45954895019531  H 8  V 20  c 0,-10  -8,8  -8,-7.5  s 8,2.5  8,-7.5 z&#10;"/><path class="blocklyPathLight" stroke="#4d82ed" d=" m 8,0  m 0.5,0.5  H 51.95954895019531  H 51.95954895019531  M 8.5,26.5  M 8.5,26.5  V 20  v -1.5  m -7.36,-0.5  q -1.52,-5.5  0,-11  m 7.36,1  V 0.5 &#10;"/><g class="blocklyEditableText" transform="translate(13,5)" style="cursor: text;"><rect rx="4" ry="4" x="0" y="0" height="18" width="34.45954895019531" class="blocklyFieldRect"/><text class="blocklyText" x="5" y="14">315</text></g></g><g data-id="s~eFJbi:@d:,z!(v@R4F" class="blocklyDraggable" style="display: none;" transform="translate(-8,-5)"><path class="blocklyPathDark" transform="translate(1,1)" fill="#003db7" d=" m 8,0  h 44.45954895019531  v 5  H 52.45954895019531  V 5  H 52.45954895019531  V 23  H 52.45954895019531  V 23  V 27  h -44.45954895019531  H 8  V 20  c 0,-10  -8,8  -8,-7.5  s 8,2.5  8,-7.5 z&#10;"/><path class="blocklyPath" stroke="none" fill="#004ce5" d=" m 8,0  h 44.45954895019531  v 5  H 52.45954895019531  V 5  H 52.45954895019531  V 23  H 52.45954895019531  V 23  V 27  h -44.45954895019531  H 8  V 20  c 0,-10  -8,8  -8,-7.5  s 8,2.5  8,-7.5 z&#10;"/><path class="blocklyPathLight" stroke="#4d82ed" d=" m 8,0  m 0.5,0.5  H 51.95954895019531  H 51.95954895019531  M 8.5,26.5  M 8.5,26.5  V 20  v -1.5  m -7.36,-0.5  q -1.52,-5.5  0,-11  m 7.36,1  V 0.5 &#10;"/><g class="blocklyEditableText" transform="translate(13,5)" style="cursor: text;"><rect rx="4" ry="4" x="0" y="0" height="18" width="34.45954895019531" class="blocklyFieldRect"/><text class="blocklyText" x="5" y="14">328</text></g></g><g data-id=",_D4tJF0z;9#}x~A[f}Z" class="blocklyDraggable" style="display: none;" transform="translate(-8,-5)"><path class="blocklyPathDark" transform="translate(1,1)" fill="#003db7" d=" m 8,0  h 44.45954895019531  v 5  H 52.45954895019531  V 5  H 52.45954895019531  V 23  H 52.45954895019531  V 23  V 27  h -44.45954895019531  H 8  V 20  c 0,-10  -8,8  -8,-7.5  s 8,2.5  8,-7.5 z&#10;"/><path class="blocklyPath" stroke="none" fill="#004ce5" d=" m 8,0  h 44.45954895019531  v 5  H 52.45954895019531  V 5  H 52.45954895019531  V 23  H 52.45954895019531  V 23  V 27  h -44.45954895019531  H 8  V 20  c 0,-10  -8,8  -8,-7.5  s 8,2.5  8,-7.5 z&#10;"/><path class="blocklyPathLight" stroke="#4d82ed" d=" m 8,0  m 0.5,0.5  H 51.95954895019531  H 51.95954895019531  M 8.5,26.5  M 8.5,26.5  V 20  v -1.5  m -7.36,-0.5  q -1.52,-5.5  0,-11  m 7.36,1  V 0.5 &#10;"/><g class="blocklyEditableText" transform="translate(13,5)" style="cursor: text;"><rect rx="4" ry="4" x="0" y="0" height="18" width="34.45954895019531" class="blocklyFieldRect"/><text class="blocklyText" x="5" y="14">160</text></g></g><g data-id="W|8[]i{cNDCXV7?|Znyw" class="blocklyDraggable" style="display: none;" transform="translate(-8,-5)"><path class="blocklyPathDark" transform="translate(1,1)" fill="#003db7" d=" m 8,0  h 36.306365966796875  v 5  H 44.306365966796875  V 5  H 44.306365966796875  V 23  H 44.306365966796875  V 23  V 27  h -36.306365966796875  H 8  V 20  c 0,-10  -8,8  -8,-7.5  s 8,2.5  8,-7.5 z&#10;"/><path class="blocklyPath" stroke="none" fill="#004ce5" d=" m 8,0  h 36.306365966796875  v 5  H 44.306365966796875  V 5  H 44.306365966796875  V 23  H 44.306365966796875  V 23  V 27  h -36.306365966796875  H 8  V 20  c 0,-10  -8,8  -8,-7.5  s 8,2.5  8,-7.5 z&#10;"/><path class="blocklyPathLight" stroke="#4d82ed" d=" m 8,0  m 0.5,0.5  H 43.806365966796875  H 43.806365966796875  M 8.5,26.5  M 8.5,26.5  V 20  v -1.5  m -7.36,-0.5  q -1.52,-5.5  0,-11  m 7.36,1  V 0.5 &#10;"/><g class="blocklyEditableText" transform="translate(13,5)" style="cursor: text;"><rect rx="4" ry="4" x="0" y="0" height="18" width="26.306365966796875" class="blocklyFieldRect"/><text class="blocklyText" x="5" y="14">51</text></g></g><g data-id="SB/uAyPg$.NAeY^.jcyJ" class="blocklyDraggable" style="display: none;" transform="translate(-8,-5)"><path class="blocklyPathDark" transform="translate(1,1)" fill="#003db7" d=" m 8,0  h 36.306365966796875  v 5  H 44.306365966796875  V 5  H 44.306365966796875  V 23  H 44.306365966796875  V 23  V 27  h -36.306365966796875  H 8  V 20  c 0,-10  -8,8  -8,-7.5  s 8,2.5  8,-7.5 z&#10;"/><path class="blocklyPath" stroke="none" fill="#004ce5" d=" m 8,0  h 36.306365966796875  v 5  H 44.306365966796875  V 5  H 44.306365966796875  V 23  H 44.306365966796875  V 23  V 27  h -36.306365966796875  H 8  V 20  c 0,-10  -8,8  -8,-7.5  s 8,2.5  8,-7.5 z&#10;"/><path class="blocklyPathLight" stroke="#4d82ed" d=" m 8,0  m 0.5,0.5  H 43.806365966796875  H 43.806365966796875  M 8.5,26.5  M 8.5,26.5  V 20  v -1.5  m -7.36,-0.5  q -1.52,-5.5  0,-11  m 7.36,1  V 0.5 &#10;"/><g class="blocklyEditableText" transform="translate(13,5)" style="cursor: text;"><rect rx="4" ry="4" x="0" y="0" height="18" width="26.306365966796875" class="blocklyFieldRect"/><text class="blocklyText" x="5" y="14">36</text></g></g><g data-id="siD;Pfpi0^d/./jo85eH" class="blocklyDraggable" style="display: none;" transform="translate(-8,-5)"><path class="blocklyPathDark" transform="translate(1,1)" fill="#003db7" d=" m 8,0  h 44.45954895019531  v 5  H 52.45954895019531  V 5  H 52.45954895019531  V 23  H 52.45954895019531  V 23  V 27  h -44.45954895019531  H 8  V 20  c 0,-10  -8,8  -8,-7.5  s 8,2.5  8,-7.5 z&#10;"/><path class="blocklyPath" stroke="none" fill="#004ce5" d=" m 8,0  h 44.45954895019531  v 5  H 52.45954895019531  V 5  H 52.45954895019531  V 23  H 52.45954895019531  V 23  V 27  h -44.45954895019531  H 8  V 20  c 0,-10  -8,8  -8,-7.5  s 8,2.5  8,-7.5 z&#10;"/><path class="blocklyPathLight" stroke="#4d82ed" d=" m 8,0  m 0.5,0.5  H 51.95954895019531  H 51.95954895019531  M 8.5,26.5  M 8.5,26.5  V 20  v -1.5  m -7.36,-0.5  q -1.52,-5.5  0,-11  m 7.36,1  V 0.5 &#10;"/><g class="blocklyEditableText" transform="translate(13,5)" style="cursor: text;"><rect rx="4" ry="4" x="0" y="0" height="18" width="34.45954895019531" class="blocklyFieldRect"/><text class="blocklyText" x="5" y="14">340</text></g></g><g data-id="`zdH4.)C:5Ys4TYJ^jRF" class="blocklyDraggable" style="display: none;" transform="translate(-8,-5)"><path class="blocklyPathDark" transform="translate(1,1)" fill="#003db7" d=" m 8,0  h 44.45954895019531  v 5  H 52.45954895019531  V 5  H 52.45954895019531  V 23  H 52.45954895019531  V 23  V 27  h -44.45954895019531  H 8  V 20  c 0,-10  -8,8  -8,-7.5  s 8,2.5  8,-7.5 z&#10;"/><path class="blocklyPath" stroke="none" fill="#004ce5" d=" m 8,0  h 44.45954895019531  v 5  H 52.45954895019531  V 5  H 52.45954895019531  V 23  H 52.45954895019531  V 23  V 27  h -44.45954895019531  H 8  V 20  c 0,-10  -8,8  -8,-7.5  s 8,2.5  8,-7.5 z&#10;"/><path class="blocklyPathLight" stroke="#4d82ed" d=" m 8,0  m 0.5,0.5  H 51.95954895019531  H 51.95954895019531  M 8.5,26.5  M 8.5,26.5  V 20  v -1.5  m -7.36,-0.5  q -1.52,-5.5  0,-11  m 7.36,1  V 0.5 &#10;"/><g class="blocklyEditableText" transform="translate(13,5)" style="cursor: text;"><rect rx="4" ry="4" x="0" y="0" height="18" width="34.45954895019531" class="blocklyFieldRect"/><text class="blocklyText" x="5" y="14">280</text></g></g><g data-id="J70k8~dtb{@F01ti7;,!" class="blocklyDraggable" style="display: none;" transform="translate(-8,-5)"><path class="blocklyPathDark" transform="translate(1,1)" fill="#003db7" d=" m 8,0  h 44.45954895019531  v 5  H 52.45954895019531  V 5  H 52.45954895019531  V 23  H 52.45954895019531  V 23  V 27  h -44.45954895019531  H 8  V 20  c 0,-10  -8,8  -8,-7.5  s 8,2.5  8,-7.5 z&#10;"/><path class="blocklyPath" stroke="none" fill="#004ce5" d=" m 8,0  h 44.45954895019531  v 5  H 52.45954895019531  V 5  H 52.45954895019531  V 23  H 52.45954895019531  V 23  V 27  h -44.45954895019531  H 8  V 20  c 0,-10  -8,8  -8,-7.5  s 8,2.5  8,-7.5 z&#10;"/><path class="blocklyPathLight" stroke="#4d82ed" d=" m 8,0  m 0.5,0.5  H 51.95954895019531  H 51.95954895019531  M 8.5,26.5  M 8.5,26.5  V 20  v -1.5  m -7.36,-0.5  q -1.52,-5.5  0,-11  m 7.36,1  V 0.5 &#10;"/><g class="blocklyEditableText" transform="translate(13,5)" style="cursor: text;"><rect rx="4" ry="4" x="0" y="0" height="18" width="34.45954895019531" class="blocklyFieldRect"/><text class="blocklyText" x="5" y="14">378</text></g></g><g data-id="*vcJO+)2ZBdOWkw1{QWH" class="blocklyDraggable" style="display: none;" transform="translate(-8,-5)"><path class="blocklyPathDark" transform="translate(1,1)" fill="#003db7" d=" m 8,0  h 44.45954895019531  v 5  H 52.45954895019531  V 5  H 52.45954895019531  V 23  H 52.45954895019531  V 23  V 27  h -44.45954895019531  H 8  V 20  c 0,-10  -8,8  -8,-7.5  s 8,2.5  8,-7.5 z&#10;"/><path class="blocklyPath" stroke="none" fill="#004ce5" d=" m 8,0  h 44.45954895019531  v 5  H 52.45954895019531  V 5  H 52.45954895019531  V 23  H 52.45954895019531  V 23  V 27  h -44.45954895019531  H 8  V 20  c 0,-10  -8,8  -8,-7.5  s 8,2.5  8,-7.5 z&#10;"/><path class="blocklyPathLight" stroke="#4d82ed" d=" m 8,0  m 0.5,0.5  H 51.95954895019531  H 51.95954895019531  M 8.5,26.5  M 8.5,26.5  V 20  v -1.5  m -7.36,-0.5  q -1.52,-5.5  0,-11  m 7.36,1  V 0.5 &#10;"/><g class="blocklyEditableText" transform="translate(13,5)" style="cursor: text;"><rect rx="4" ry="4" x="0" y="0" height="18" width="34.45954895019531" class="blocklyFieldRect"/><text class="blocklyText" x="5" y="14">320</text></g></g><g style="display: none;"><text class="blocklyText"></text></g><g transform="translate(18,5)"><text class="blocklyText" x="0" y="14">ustvari tabelo iz 182 250 2...</text></g></g><g data-id="q0x(fQgQfe`g3I4Q3l=J" class="blocklyDraggable" transform="translate(0,28)"><path class="blocklyPathDark" transform="translate(1,1)" fill="#7a00b7" d=" m 0,0  h 15  l 6,4  3,0  6,-4  h 163.07510375976562  v 5  H 193.07510375976562  V 5  H 193.07510375976562  c 0,10  -8,-8  -8,7.5  s 8,-2.5  8,7.5  v 3  H 193.07510375976562  V 23  V 27  h -163.57510375976562  l -6,4  -3,0  -6,-4  h -14.5  H 0 z&#10;"/><path class="blocklyPath" stroke="none" fill="#9900e5" d=" m 0,0  h 15  l 6,4  3,0  6,-4  h 163.07510375976562  v 5  H 193.07510375976562  V 5  H 193.07510375976562  c 0,10  -8,-8  -8,7.5  s 8,-2.5  8,7.5  v 3  H 193.07510375976562  V 23  V 27  h -163.57510375976562  l -6,4  -3,0  -6,-4  h -14.5  H 0 z&#10;"/><path class="blocklyPathLight" stroke="#b84ded" d=" m 0,0  m 0.5,0.5  H 14.5  h 0.5  l 6,4  3,0  6,-4  H 192.57510375976562  H 192.57510375976562  M 193.07510375976562,5  m -5,14.3  l 3.68,-2.1  M 0.5,26.5  V 0.5 &#10;"/><g data-id="E77ia{ug]yI(sbf4qKiw" class="blocklyDraggable" style="display: block;" transform="translate(186.07510375976562,0)"><path class="blocklyPathDark" transform="translate(1,1)" fill="#003db7" d=" m 8,0  h 28.153182983398438  v 5  H 36.15318298339844  V 5  H 36.15318298339844  V 23  H 36.15318298339844  V 23  V 27  h -28.153182983398438  H 8  V 20  c 0,-10  -8,8  -8,-7.5  s 8,2.5  8,-7.5 z&#10;"/><path class="blocklyPath" stroke="none" fill="#004ce5" d=" m 8,0  h 28.153182983398438  v 5  H 36.15318298339844  V 5  H 36.15318298339844  V 23  H 36.15318298339844  V 23  V 27  h -28.153182983398438  H 8  V 20  c 0,-10  -8,8  -8,-7.5  s 8,2.5  8,-7.5 z&#10;"/><path class="blocklyPathLight" stroke="#4d82ed" d=" m 8,0  m 0.5,0.5  H 35.65318298339844  H 35.65318298339844  M 8.5,26.5  M 8.5,26.5  V 20  v -1.5  m -7.36,-0.5  q -1.52,-5.5  0,-11  m 7.36,1  V 0.5 &#10;"/><g class="blocklyEditableText" transform="translate(13,5)" style="cursor: text;"><rect rx="4" ry="4" x="0" y="0" height="18" width="18.153182983398438" class="blocklyFieldRect"/><text class="blocklyText" x="5" y="14">0</text></g></g><g data-id="acQyBbxu6{TFXf.#Maf+" class="blocklyDraggable" transform="translate(0,28)"><path class="blocklyPathDark" transform="translate(1,1)" fill="#b7007a" d=" m 0,0  h 15  l 6,4  3,0  6,-4  h 475.3978729248047  v 5  H 505.3978729248047  V 5  H 505.3978729248047  V 34  H 505.3978729248047  V 38  H 87.48028564453125  l -6,4  -3,0  -6,-4  h -7 a 8 8 0 0,0 -8,8  v 82 a 8 8 0 0,0 8,8  H 87.48028564453125  H 87.48028564453125  V 136  V 146  h -57.98028564453125  l -6,4  -3,0  -6,-4  h -14.5  H 0 z&#10; M 136.48672485351562,5  v 5  c 0,10  -8,-8  -8,7.5  s 8,-2.5  8,7.5  v 9  h 30.153182983398438  v -29 z M 208.94627380371094,5  v 5  c 0,10  -8,-8  -8,7.5  s 8,-2.5  8,7.5  v 9  h 162.68212890625  v -29 z M 465.24468994140625,5  v 5  c 0,10  -8,-8  -8,7.5  s 8,-2.5  8,7.5  v 9  h 30.153182983398438  v -29 z"/><path class="blocklyPath" stroke="none" fill="#e50099" d=" m 0,0  h 15  l 6,4  3,0  6,-4  h 475.3978729248047  v 5  H 505.3978729248047  V 5  H 505.3978729248047  V 34  H 505.3978729248047  V 38  H 87.48028564453125  l -6,4  -3,0  -6,-4  h -7 a 8 8 0 0,0 -8,8  v 82 a 8 8 0 0,0 8,8  H 87.48028564453125  H 87.48028564453125  V 136  V 146  h -57.98028564453125  l -6,4  -3,0  -6,-4  h -14.5  H 0 z&#10; M 136.48672485351562,5  v 5  c 0,10  -8,-8  -8,7.5  s 8,-2.5  8,7.5  v 9  h 30.153182983398438  v -29 z M 208.94627380371094,5  v 5  c 0,10  -8,-8  -8,7.5  s 8,-2.5  8,7.5  v 9  h 162.68212890625  v -29 z M 465.24468994140625,5  v 5  c 0,10  -8,-8  -8,7.5  s 8,-2.5  8,7.5  v 9  h 30.153182983398438  v -29 z"/><path class="blocklyPathLight" stroke="#ed4db8" d=" m 0,0  m 0.5,0.5  H 14.5  h 0.5  l 6,4  3,0  6,-4  H 504.8978729248047  H 504.8978729248047  M 57.48028564453125,136  m 1.9895923599143455,-1.9895923599143455 a 8.5 8.5 0 0,0 6.0104076400856545,2.4895923599143455  l 21.5,0  H 86.98028564453125  M 0.5,145.5  V 0.5 &#10; M 167.13990783691406,5.5  v 29  h -30.153182983398438  M 136.48672485351562,10  m -5,14.3  l 3.68,-2.1  M 372.12840270996094,5.5  v 29  h -162.68212890625  M 208.94627380371094,10  m -5,14.3  l 3.68,-2.1  M 495.8978729248047,5.5  v 29  h -30.153182983398438  M 465.24468994140625,10  m -5,14.3  l 3.68,-2.1 "/><g data-id="T{L2*upMu5T%Z-cp%!2U" class="blocklyDraggable" style="display: block;" transform="translate(129.48672485351562,6)"><path class="blocklyPathDark" transform="translate(1,1)" fill="#003db7" d=" m 8,0  h 28.153182983398438  v 5  H 36.15318298339844  V 5  H 36.15318298339844  V 23  H 36.15318298339844  V 23  V 27  h -28.153182983398438  H 8  V 20  c 0,-10  -8,8  -8,-7.5  s 8,2.5  8,-7.5 z&#10;"/><path class="blocklyPath" stroke="none" fill="#004ce5" d=" m 8,0  h 28.153182983398438  v 5  H 36.15318298339844  V 5  H 36.15318298339844  V 23  H 36.15318298339844  V 23  V 27  h -28.153182983398438  H 8  V 20  c 0,-10  -8,8  -8,-7.5  s 8,2.5  8,-7.5 z&#10;"/><path class="blocklyPathLight" stroke="#4d82ed" d=" m 8,0  m 0.5,0.5  H 35.65318298339844  H 35.65318298339844  M 8.5,26.5  M 8.5,26.5  V 20  v -1.5  m -7.36,-0.5  q -1.52,-5.5  0,-11  m 7.36,1  V 0.5 &#10;"/><g class="blocklyEditableText" transform="translate(13,5)" style="cursor: text;"><rect rx="4" ry="4" x="0" y="0" height="18" width="18.153182983398438" class="blocklyFieldRect"/><text class="blocklyText" x="5" y="14">1</text></g></g><g data-id="*[@Tyh-$h(.gE?14[]ga" class="blocklyDraggable" style="display: block;" transform="translate(201.94627380371094,6)"><path class="blocklyPathDark" transform="translate(1,1)" fill="#b71e00" d=" m 8,0  h 74.4566650390625  v 5  H 82.4566650390625  V 5  H 82.4566650390625  c 0,10  -8,-8  -8,7.5  s 8,-2.5  8,7.5  v 3  H 82.4566650390625  V 23  V 27  h -74.4566650390625  H 8  V 20  c 0,-10  -8,8  -8,-7.5  s 8,2.5  8,-7.5 z&#10;"/><path class="blocklyPath" stroke="none" fill="#e52600" d=" m 8,0  h 74.4566650390625  v 5  H 82.4566650390625  V 5  H 82.4566650390625  c 0,10  -8,-8  -8,7.5  s 8,-2.5  8,7.5  v 3  H 82.4566650390625  V 23  V 27  h -74.4566650390625  H 8  V 20  c 0,-10  -8,8  -8,-7.5  s 8,2.5  8,-7.5 z&#10;"/><path class="blocklyPathLight" stroke="#ed674d" d=" m 8,0  m 0.5,0.5  H 81.9566650390625  H 81.9566650390625  M 82.4566650390625,5  m -5,14.3  l 3.68,-2.1  M 8.5,26.5  M 8.5,26.5  V 20  v -1.5  m -7.36,-0.5  q -1.52,-5.5  0,-11  m 7.36,1  V 0.5 &#10;"/><g data-id="F@?Ko}4`2sfwOiFSWCCR" class="blocklyDraggable" style="display: block;" transform="translate(75.4566650390625,0)"><path class="blocklyPathDark" transform="translate(1,1)" fill="#7a00b7" d=" m 8,0  h 85.2254638671875  v 5  H 93.2254638671875  V 5  H 93.2254638671875  V 23  H 93.2254638671875  V 23  V 27  h -85.2254638671875  H 8  V 20  c 0,-10  -8,8  -8,-7.5  s 8,2.5  8,-7.5 z&#10;"/><path class="blocklyPath" stroke="none" fill="#9900e5" d=" m 8,0  h 85.2254638671875  v 5  H 93.2254638671875  V 5  H 93.2254638671875  V 23  H 93.2254638671875  V 23  V 27  h -85.2254638671875  H 8  V 20  c 0,-10  -8,8  -8,-7.5  s 8,2.5  8,-7.5 z&#10;"/><path class="blocklyPathLight" stroke="#b84ded" d=" m 8,0  m 0.5,0.5  H 92.7254638671875  H 92.7254638671875  M 8.5,26.5  M 8.5,26.5  V 20  v -1.5  m -7.36,-0.5  q -1.52,-5.5  0,-11  m 7.36,1  V 0.5 &#10;"/><g class="blocklyEditableText" transform="translate(13,5)" style="cursor: default;"><rect rx="4" ry="4" x="0" y="0" height="18" width="75.2254638671875" class="blocklyFieldRect blocklyDropdownRect" stroke="#b84ded" fill="transparent"/><text class="blocklyText blocklyDropdownText" text-anchor="start" x="5" y="14">prodaja<tspan style="fill: rgb(153, 0, 229);"> ▾</tspan></text><image style="display: none;"/></g></g><g transform="translate(18,5)"><text class="blocklyText" x="0" y="14">dolžina</text></g></g><g data-id="Z~Rk+3O,[w;0V2TjY!Fa" style="display: block;" transform="translate(458.24468994140625,6)"><path class="blocklyPathDark" transform="translate(1,1)" fill="#99b7f5" d=" m 8,0  h 28.153182983398438  v 5  H 36.15318298339844  V 5  H 36.15318298339844  V 23  H 36.15318298339844  V 23  V 27  h -28.153182983398438  H 8  V 20  c 0,-10  -8,8  -8,-7.5  s 8,2.5  8,-7.5 z&#10;"/><path class="blocklyPath" stroke="none" fill="#99b7f5" d=" m 8,0  h 28.153182983398438  v 5  H 36.15318298339844  V 5  H 36.15318298339844  V 23  H 36.15318298339844  V 23  V 27  h -28.153182983398438  H 8  V 20  c 0,-10  -8,8  -8,-7.5  s 8,2.5  8,-7.5 z&#10;"/><path class="blocklyPathLight" stroke="#4d82ed" style="display: none;" d=" m 8,0  m 0.5,0.5  H 35.65318298339844  H 35.65318298339844  M 8.5,26.5  M 8.5,26.5  V 20  v -1.5  m -7.36,-0.5  q -1.52,-5.5  0,-11  m 7.36,1  V 0.5 &#10;"/><g class="blocklyEditableText" transform="translate(13,5)" style="cursor: text;"><rect rx="4" ry="4" x="0" y="0" height="18" width="18.153182983398438" class="blocklyFieldRect"/><text class="blocklyText" x="5" y="14">1</text></g></g><g data-id="gHj|^V_;f9~?|8~3LbRx" class="blocklyDraggable" style="display: block;" transform="translate(58.48028564453125,39)"><path class="blocklyPathDark" transform="translate(1,1)" fill="#007ab7" d=" m 0,0  m 0,8 a 8 8 0 0,1 8,-8  h 7  l 6,4  3,0  6,-4  h 57.48028564453125  v 5  H 87.48028564453125  V 5  H 87.48028564453125  c 0,10  -8,-8  -8,7.5  s 8,-2.5  8,7.5  v 25  H 87.48028564453125  V 49  H 87.48028564453125  l -6,4  -3,0  -6,-4  h -7 a 8 8 0 0,0 -8,8  v 17 a 8 8 0 0,0 8,8  H 87.48028564453125  H 87.48028564453125  V 82  V 92  h -57.98028564453125  l -6,4  -3,0  -6,-4  h -6.5 a 8 8 0 0,1 -8,-8 z&#10;"/><path class="blocklyPath" stroke="none" fill="#0098e5" d=" m 0,0  m 0,8 a 8 8 0 0,1 8,-8  h 7  l 6,4  3,0  6,-4  h 57.48028564453125  v 5  H 87.48028564453125  V 5  H 87.48028564453125  c 0,10  -8,-8  -8,7.5  s 8,-2.5  8,7.5  v 25  H 87.48028564453125  V 49  H 87.48028564453125  l -6,4  -3,0  -6,-4  h -7 a 8 8 0 0,0 -8,8  v 17 a 8 8 0 0,0 8,8  H 87.48028564453125  H 87.48028564453125  V 82  V 92  h -57.98028564453125  l -6,4  -3,0  -6,-4  h -6.5 a 8 8 0 0,1 -8,-8 z&#10;"/><path class="blocklyPathLight" stroke="#4db7ed" d=" m 0,0  m 0.5,8 a 7.5 7.5 0 0,1 8,-7.5  H 14.5  h 0.5  l 6,4  3,0  6,-4  H 86.98028564453125  H 86.98028564453125  M 87.48028564453125,5  m -5,14.3  l 3.68,-2.1  M 57.48028564453125,82  m 1.9895923599143455,-1.9895923599143455 a 8.5 8.5 0 0,0 6.0104076400856545,2.4895923599143455  l 21.5,0  H 86.98028564453125  M 0,92  m 2.6966991411008934,-2.6966991411008934 a 7.5 7.5 0 0,1 -2.1966991411008934,-5.303300858899107  V 8 &#10;"/><g class="blocklyIconGroup" display="block" transform="translate(10,5)"><rect class="blocklyIconShape" rx="4" ry="4" height="16" width="16"/><path class="blocklyIconSymbol" d="m4.203,7.296 0,1.368 -0.92,0.677 -0.11,0.41 0.9,1.559 0.41,0.11 1.043,-0.457 1.187,0.683 0.127,1.134 0.3,0.3 1.8,0 0.3,-0.299 0.127,-1.138 1.185,-0.682 1.046,0.458 0.409,-0.11 0.9,-1.559 -0.11,-0.41 -0.92,-0.677 0,-1.366 0.92,-0.677 0.11,-0.41 -0.9,-1.559 -0.409,-0.109 -1.046,0.458 -1.185,-0.682 -0.127,-1.138 -0.3,-0.299 -1.8,0 -0.3,0.3 -0.126,1.135 -1.187,0.682 -1.043,-0.457 -0.41,0.11 -0.899,1.559 0.108,0.409z"/><circle class="blocklyIconShape" r="2.7" cx="8" cy="8"/></g><g data-id="V^X(6.8I6I6`g:V{hK2P" class="blocklyDraggable" style="display: block;" transform="translate(80.48028564453125,0)"><path class="blocklyPathDark" transform="translate(1,1)" fill="#007ab7" d=" m 8,0  h 848.8731384277344  v 5  H 856.8731384277344  V 5  H 856.8731384277344  V 45  H 856.8731384277344  V 45  V 49  h -848.8731384277344  H 8  V 20  c 0,-10  -8,8  -8,-7.5  s 8,2.5  8,-7.5 z&#10; M 24,5  v 5  c 0,10  -8,-8  -8,7.5  s 8,-2.5  8,7.5  v 20  h 374.1846008300781  v -40 z M 449.0664978027344,5  v 5  c 0,10  -8,-8  -8,7.5  s 8,-2.5  8,7.5  v 20  h 397.806640625  v -40 z"/><path class="blocklyPath" stroke="none" fill="#0098e5" d=" m 8,0  h 848.8731384277344  v 5  H 856.8731384277344  V 5  H 856.8731384277344  V 45  H 856.8731384277344  V 45  V 49  h -848.8731384277344  H 8  V 20  c 0,-10  -8,8  -8,-7.5  s 8,2.5  8,-7.5 z&#10; M 24,5  v 5  c 0,10  -8,-8  -8,7.5  s 8,-2.5  8,7.5  v 20  h 374.1846008300781  v -40 z M 449.0664978027344,5  v 5  c 0,10  -8,-8  -8,7.5  s 8,-2.5  8,7.5  v 20  h 397.806640625  v -40 z"/><path class="blocklyPathLight" stroke="#4db7ed" d=" m 8,0  m 0.5,0.5  H 856.3731384277344  H 856.3731384277344  M 8.5,48.5  M 8.5,48.5  V 20  v -1.5  m -7.36,-0.5  q -1.52,-5.5  0,-11  m 7.36,1  V 0.5 &#10; M 398.6846008300781,5.5  v 40  h -374.1846008300781  M 24,10  m -5,14.3  l 3.68,-2.1  M 847.3731384277344,5.5  v 40  h -397.806640625  M 449.0664978027344,10  m -5,14.3  l 3.68,-2.1 "/><g data-id="iwx-G-#?8o[DoB[v/TWA" class="blocklyDraggable" style="display: block;" transform="translate(17,6)"><path class="blocklyPathDark" transform="translate(1,1)" fill="#b71e00" d=" m 8,0  h 372.1846008300781  v 5  H 380.1846008300781  V 5  H 380.1846008300781  V 34  H 380.1846008300781  V 34  V 38  h -372.1846008300781  H 8  V 20  c 0,-10  -8,8  -8,-7.5  s 8,2.5  8,-7.5 z&#10; M 80.44950866699219,5  v 5  c 0,10  -8,-8  -8,7.5  s 8,-2.5  8,7.5  v 9  h 87.2254638671875  v -29 z M 289.48741149902344,5  v 5  c 0,10  -8,-8  -8,7.5  s 8,-2.5  8,7.5  v 9  h 80.69718933105469  v -29 z"/><path class="blocklyPath" stroke="none" fill="#e52600" d=" m 8,0  h 372.1846008300781  v 5  H 380.1846008300781  V 5  H 380.1846008300781  V 34  H 380.1846008300781  V 34  V 38  h -372.1846008300781  H 8  V 20  c 0,-10  -8,8  -8,-7.5  s 8,2.5  8,-7.5 z&#10; M 80.44950866699219,5  v 5  c 0,10  -8,-8  -8,7.5  s 8,-2.5  8,7.5  v 9  h 87.2254638671875  v -29 z M 289.48741149902344,5  v 5  c 0,10  -8,-8  -8,7.5  s 8,-2.5  8,7.5  v 9  h 80.69718933105469  v -29 z"/><path class="blocklyPathLight" stroke="#ed674d" d=" m 8,0  m 0.5,0.5  H 379.6846008300781  H 379.6846008300781  M 8.5,37.5  M 8.5,37.5  V 20  v -1.5  m -7.36,-0.5  q -1.52,-5.5  0,-11  m 7.36,1  V 0.5 &#10; M 168.1749725341797,5.5  v 29  h -87.2254638671875  M 80.44950866699219,10  m -5,14.3  l 3.68,-2.1  M 370.6846008300781,5.5  v 29  h -80.69718933105469  M 289.48741149902344,10  m -5,14.3  l 3.68,-2.1 "/><g data-id="F.E=;[d+sV2i1:,HB@p`" class="blocklyDraggable" style="display: block;" transform="translate(73.44950866699219,6)"><path class="blocklyPathDark" transform="translate(1,1)" fill="#7a00b7" d=" m 8,0  h 85.2254638671875  v 5  H 93.2254638671875  V 5  H 93.2254638671875  V 23  H 93.2254638671875  V 23  V 27  h -85.2254638671875  H 8  V 20  c 0,-10  -8,8  -8,-7.5  s 8,2.5  8,-7.5 z&#10;"/><path class="blocklyPath" stroke="none" fill="#9900e5" d=" m 8,0  h 85.2254638671875  v 5  H 93.2254638671875  V 5  H 93.2254638671875  V 23  H 93.2254638671875  V 23  V 27  h -85.2254638671875  H 8  V 20  c 0,-10  -8,8  -8,-7.5  s 8,2.5  8,-7.5 z&#10;"/><path class="blocklyPathLight" stroke="#b84ded" d=" m 8,0  m 0.5,0.5  H 92.7254638671875  H 92.7254638671875  M 8.5,26.5  M 8.5,26.5  V 20  v -1.5  m -7.36,-0.5  q -1.52,-5.5  0,-11  m 7.36,1  V 0.5 &#10;"/><g class="blocklyEditableText" transform="translate(13,5)" style="cursor: default;"><rect rx="4" ry="4" x="0" y="0" height="18" width="75.2254638671875" class="blocklyFieldRect blocklyDropdownRect" stroke="#b84ded" fill="transparent"/><text class="blocklyText blocklyDropdownText" text-anchor="start" x="5" y="14">prodaja<tspan style="fill: rgb(153, 0, 229);"> ▾</tspan></text><image style="display: none;"/></g></g><g data-id="Ba|z+OzNDwv|zO6|E|4%" class="blocklyDraggable" style="display: block;" transform="translate(282.48741149902344,6)"><path class="blocklyPathDark" transform="translate(1,1)" fill="#7a00b7" d=" m 8,0  h 78.69718933105469  v 5  H 86.69718933105469  V 5  H 86.69718933105469  V 23  H 86.69718933105469  V 23  V 27  h -78.69718933105469  H 8  V 20  c 0,-10  -8,8  -8,-7.5  s 8,2.5  8,-7.5 z&#10;"/><path class="blocklyPath" stroke="none" fill="#9900e5" d=" m 8,0  h 78.69718933105469  v 5  H 86.69718933105469  V 5  H 86.69718933105469  V 23  H 86.69718933105469  V 23  V 27  h -78.69718933105469  H 8  V 20  c 0,-10  -8,8  -8,-7.5  s 8,2.5  8,-7.5 z&#10;"/><path class="blocklyPathLight" stroke="#b84ded" d=" m 8,0  m 0.5,0.5  H 86.19718933105469  H 86.19718933105469  M 8.5,26.5  M 8.5,26.5  V 20  v -1.5  m -7.36,-0.5  q -1.52,-5.5  0,-11  m 7.36,1  V 0.5 &#10;"/><g class="blocklyEditableText" transform="translate(13,5)" style="cursor: default;"><rect rx="4" ry="4" x="0" y="0" height="18" width="68.69718933105469" class="blocklyFieldRect blocklyDropdownRect" stroke="#b84ded" fill="transparent"/><text class="blocklyText blocklyDropdownText" text-anchor="start" x="5" y="14">indeks<tspan style="fill: rgb(153, 0, 229);"> ▾</tspan></text><image style="display: none;"/></g></g><g transform="translate(18,10)"><text class="blocklyText" x="0" y="14">v tabeli</text></g><g class="blocklyEditableText" transform="translate(172.6749725341797,10)" style="cursor: default;"><rect rx="4" ry="4" x="0" y="0" height="18" width="49.942718505859375" class="blocklyFieldRect blocklyDropdownRect" stroke="#ed674d" fill="transparent"/><text class="blocklyText blocklyDropdownText" text-anchor="start" x="5" y="14">vrni<tspan style="fill: rgb(229, 38, 0);"> ▾</tspan></text><image style="display: none;"/></g><g transform="translate(227.61769104003906,10)"><text class="blocklyText" x="0" y="14"> </text></g><g class="blocklyEditableText" transform="translate(236.69070434570312,10)" style="cursor: default;"><rect rx="4" ry="4" x="0" y="0" height="18" width="41.79670715332031" class="blocklyFieldRect blocklyDropdownRect" stroke="#ed674d" fill="transparent"/><text class="blocklyText blocklyDropdownText" text-anchor="start" x="5" y="14">št.<tspan style="fill: rgb(229, 38, 0);"> ▾</tspan></text><image style="display: none;"/></g></g><g data-id="n{S!~ifj;MDBk~r)+-k2" class="blocklyDraggable" style="display: block;" transform="translate(442.0664978027344,6)"><path class="blocklyPathDark" transform="translate(1,1)" fill="#b71e00" d=" m 8,0  h 395.806640625  v 5  H 403.806640625  V 5  H 403.806640625  V 34  H 403.806640625  V 34  V 38  h -395.806640625  H 8  V 20  c 0,-10  -8,8  -8,-7.5  s 8,2.5  8,-7.5 z&#10; M 80.44950866699219,5  v 5  c 0,10  -8,-8  -8,7.5  s 8,-2.5  8,7.5  v 9  h 87.2254638671875  v -29 z M 289.48741149902344,5  v 5  c 0,10  -8,-8  -8,7.5  s 8,-2.5  8,7.5  v 9  h 104.31922912597656  v -29 z"/><path class="blocklyPath" stroke="none" fill="#e52600" d=" m 8,0  h 395.806640625  v 5  H 403.806640625  V 5  H 403.806640625  V 34  H 403.806640625  V 34  V 38  h -395.806640625  H 8  V 20  c 0,-10  -8,8  -8,-7.5  s 8,2.5  8,-7.5 z&#10; M 80.44950866699219,5  v 5  c 0,10  -8,-8  -8,7.5  s 8,-2.5  8,7.5  v 9  h 87.2254638671875  v -29 z M 289.48741149902344,5  v 5  c 0,10  -8,-8  -8,7.5  s 8,-2.5  8,7.5  v 9  h 104.31922912597656  v -29 z"/><path class="blocklyPathLight" stroke="#ed674d" d=" m 8,0  m 0.5,0.5  H 403.306640625  H 403.306640625  M 8.5,37.5  M 8.5,37.5  V 20  v -1.5  m -7.36,-0.5  q -1.52,-5.5  0,-11  m 7.36,1  V 0.5 &#10; M 168.1749725341797,5.5  v 29  h -87.2254638671875  M 80.44950866699219,10  m -5,14.3  l 3.68,-2.1  M 394.306640625,5.5  v 29  h -104.31922912597656  M 289.48741149902344,10  m -5,14.3  l 3.68,-2.1 "/><g data-id="JEnMlJtsfi06DNhYQ=bQ" class="blocklyDraggable" style="display: block;" transform="translate(73.44950866699219,6)"><path class="blocklyPathDark" transform="translate(1,1)" fill="#7a00b7" d=" m 8,0  h 85.2254638671875  v 5  H 93.2254638671875  V 5  H 93.2254638671875  V 23  H 93.2254638671875  V 23  V 27  h -85.2254638671875  H 8  V 20  c 0,-10  -8,8  -8,-7.5  s 8,2.5  8,-7.5 z&#10;"/><path class="blocklyPath" stroke="none" fill="#9900e5" d=" m 8,0  h 85.2254638671875  v 5  H 93.2254638671875  V 5  H 93.2254638671875  V 23  H 93.2254638671875  V 23  V 27  h -85.2254638671875  H 8  V 20  c 0,-10  -8,8  -8,-7.5  s 8,2.5  8,-7.5 z&#10;"/><path class="blocklyPathLight" stroke="#b84ded" d=" m 8,0  m 0.5,0.5  H 92.7254638671875  H 92.7254638671875  M 8.5,26.5  M 8.5,26.5  V 20  v -1.5  m -7.36,-0.5  q -1.52,-5.5  0,-11  m 7.36,1  V 0.5 &#10;"/><g class="blocklyEditableText" transform="translate(13,5)" style="cursor: default;"><rect rx="4" ry="4" x="0" y="0" height="18" width="75.2254638671875" class="blocklyFieldRect blocklyDropdownRect" stroke="#b84ded" fill="transparent"/><text class="blocklyText blocklyDropdownText" text-anchor="start" x="5" y="14">prodaja<tspan style="fill: rgb(153, 0, 229);"> ▾</tspan></text><image style="display: none;"/></g></g><g data-id="n62I;%stjH@l)p/GgTuB" class="blocklyDraggable" style="display: block;" transform="translate(282.48741149902344,6)"><path class="blocklyPathDark" transform="translate(1,1)" fill="#7a00b7" d=" m 8,0  h 102.31922912597656  v 5  H 110.31922912597656  V 5  H 110.31922912597656  V 23  H 110.31922912597656  V 23  V 27  h -102.31922912597656  H 8  V 20  c 0,-10  -8,8  -8,-7.5  s 8,2.5  8,-7.5 z&#10;"/><path class="blocklyPath" stroke="none" fill="#9900e5" d=" m 8,0  h 102.31922912597656  v 5  H 110.31922912597656  V 5  H 110.31922912597656  V 23  H 110.31922912597656  V 23  V 27  h -102.31922912597656  H 8  V 20  c 0,-10  -8,8  -8,-7.5  s 8,2.5  8,-7.5 z&#10;"/><path class="blocklyPathLight" stroke="#b84ded" d=" m 8,0  m 0.5,0.5  H 109.81922912597656  H 109.81922912597656  M 8.5,26.5  M 8.5,26.5  V 20  v -1.5  m -7.36,-0.5  q -1.52,-5.5  0,-11  m 7.36,1  V 0.5 &#10;"/><g class="blocklyEditableText" transform="translate(13,5)" style="cursor: default;"><rect rx="4" ry="4" x="0" y="0" height="18" width="92.31922912597656" class="blocklyFieldRect blocklyDropdownRect" stroke="#b84ded" fill="transparent"/><text class="blocklyText blocklyDropdownText" text-anchor="start" x="5" y="14">indeksMin<tspan style="fill: rgb(153, 0, 229);"> ▾</tspan></text><image style="display: none;"/></g></g><g transform="translate(18,10)"><text class="blocklyText" x="0" y="14">v tabeli</text></g><g class="blocklyEditableText" transform="translate(172.6749725341797,10)" style="cursor: default;"><rect rx="4" ry="4" x="0" y="0" height="18" width="49.942718505859375" class="blocklyFieldRect blocklyDropdownRect" stroke="#ed674d" fill="transparent"/><text class="blocklyText blocklyDropdownText" text-anchor="start" x="5" y="14">vrni<tspan style="fill: rgb(229, 38, 0);"> ▾</tspan></text><image style="display: none;"/></g><g transform="translate(227.61769104003906,10)"><text class="blocklyText" x="0" y="14"> </text></g><g class="blocklyEditableText" transform="translate(236.69070434570312,10)" style="cursor: default;"><rect rx="4" ry="4" x="0" y="0" height="18" width="41.79670715332031" class="blocklyFieldRect blocklyDropdownRect" stroke="#ed674d" fill="transparent"/><text class="blocklyText blocklyDropdownText" text-anchor="start" x="5" y="14">št.<tspan style="fill: rgb(229, 38, 0);"> ▾</tspan></text><image style="display: none;"/></g></g><g class="blocklyEditableText" transform="translate(403.1846008300781,10)" style="cursor: default;"><rect rx="4" ry="4" x="0" y="0" height="18" width="34.88189697265625" class="blocklyFieldRect blocklyDropdownRect" stroke="#4db7ed" fill="transparent"/><text class="blocklyText blocklyDropdownText" text-anchor="start" x="5" y="14">‏&lt;<tspan style="fill: rgb(0, 152, 229);"> ▾</tspan></text><image style="display: none;"/></g></g><g data-id="vtfs6Se*Jk@*{~dk0yyX" class="blocklyDraggable" style="display: block;" transform="translate(58.48028564453125,50)"><path class="blocklyPathDark" transform="translate(1,1)" fill="#7a00b7" d=" m 0,0  m 0,8 a 8 8 0 0,1 8,-8  h 7  l 6,4  3,0  6,-4  h 163.07510375976562  v 5  H 193.07510375976562  V 5  H 193.07510375976562  c 0,10  -8,-8  -8,7.5  s 8,-2.5  8,7.5  v 3  H 193.07510375976562  V 23  V 27  h -163.57510375976562  l -6,4  -3,0  -6,-4  h -6.5 a 8 8 0 0,1 -8,-8 z&#10;"/><path class="blocklyPath" stroke="none" fill="#9900e5" d=" m 0,0  m 0,8 a 8 8 0 0,1 8,-8  h 7  l 6,4  3,0  6,-4  h 163.07510375976562  v 5  H 193.07510375976562  V 5  H 193.07510375976562  c 0,10  -8,-8  -8,7.5  s 8,-2.5  8,7.5  v 3  H 193.07510375976562  V 23  V 27  h -163.57510375976562  l -6,4  -3,0  -6,-4  h -6.5 a 8 8 0 0,1 -8,-8 z&#10;"/><path class="blocklyPathLight" stroke="#b84ded" d=" m 0,0  m 0.5,8 a 7.5 7.5 0 0,1 8,-7.5  H 14.5  h 0.5  l 6,4  3,0  6,-4  H 192.57510375976562  H 192.57510375976562  M 193.07510375976562,5  m -5,14.3  l 3.68,-2.1  M 0,27  m 2.6966991411008934,-2.6966991411008934 a 7.5 7.5 0 0,1 -2.1966991411008934,-5.303300858899107  V 8 &#10;"/><g data-id="^N?YuzV=dVF$7Guu1ThR" class="blocklyDraggable" style="display: block;" transform="translate(186.07510375976562,0)"><path class="blocklyPathDark" transform="translate(1,1)" fill="#7a00b7" d=" m 8,0  h 78.69718933105469  v 5  H 86.69718933105469  V 5  H 86.69718933105469  V 23  H 86.69718933105469  V 23  V 27  h -78.69718933105469  H 8  V 20  c 0,-10  -8,8  -8,-7.5  s 8,2.5  8,-7.5 z&#10;"/><path class="blocklyPath" stroke="none" fill="#9900e5" d=" m 8,0  h 78.69718933105469  v 5  H 86.69718933105469  V 5  H 86.69718933105469  V 23  H 86.69718933105469  V 23  V 27  h -78.69718933105469  H 8  V 20  c 0,-10  -8,8  -8,-7.5  s 8,2.5  8,-7.5 z&#10;"/><path class="blocklyPathLight" stroke="#b84ded" d=" m 8,0  m 0.5,0.5  H 86.19718933105469  H 86.19718933105469  M 8.5,26.5  M 8.5,26.5  V 20  v -1.5  m -7.36,-0.5  q -1.52,-5.5  0,-11  m 7.36,1  V 0.5 &#10;"/><g class="blocklyEditableText" transform="translate(13,5)" style="cursor: default;"><rect rx="4" ry="4" x="0" y="0" height="18" width="68.69718933105469" class="blocklyFieldRect blocklyDropdownRect" stroke="#b84ded" fill="transparent"/><text class="blocklyText blocklyDropdownText" text-anchor="start" x="5" y="14">indeks<tspan style="fill: rgb(153, 0, 229);"> ▾</tspan></text><image style="display: none;"/></g></g><g transform="translate(10,5)"><text class="blocklyText" x="0" y="14">nastavi</text></g><g class="blocklyEditableText" transform="translate(61.44950866699219,5)" style="cursor: default;"><rect rx="4" ry="4" x="0" y="0" height="18" width="92.31922912597656" class="blocklyFieldRect blocklyDropdownRect" stroke="#b84ded" fill="transparent"/><text class="blocklyText blocklyDropdownText" text-anchor="start" x="5" y="14">indeksMin<tspan style="fill: rgb(153, 0, 229);"> ▾</tspan></text><image style="display: none;"/></g><g transform="translate(158.76873779296875,5)"><text class="blocklyText" x="0" y="14">na</text></g></g><g transform="translate(37,5)"><text class="blocklyText" x="0" y="14">če</text></g><g transform="translate(10,54)"><text class="blocklyText" x="0" y="14">izvedi</text></g></g><g data-id="#%9@!N|k%w/9ds5W||:q" class="blocklyDraggable" transform="translate(0,147)"><path class="blocklyPathDark" transform="translate(1,1)" fill="#b79900" d=" m 0,0  h 15  l 6,4  3,0  6,-4  h 30.584075927734375  v 5  H 60.584075927734375  V 5  H 60.584075927734375  c 0,10  -8,-8  -8,7.5  s 8,-2.5  8,7.5  v 3  H 60.584075927734375  V 23  V 27  h -31.084075927734375  l -6,4  -3,0  -6,-4  h -6.5 a 8 8 0 0,1 -8,-8 z&#10;"/><path class="blocklyPath" stroke="none" fill="#e5bf00" d=" m 0,0  h 15  l 6,4  3,0  6,-4  h 30.584075927734375  v 5  H 60.584075927734375  V 5  H 60.584075927734375  c 0,10  -8,-8  -8,7.5  s 8,-2.5  8,7.5  v 3  H 60.584075927734375  V 23  V 27  h -31.084075927734375  l -6,4  -3,0  -6,-4  h -6.5 a 8 8 0 0,1 -8,-8 z&#10;"/><path class="blocklyPathLight" stroke="#edd24d" d=" m 0,0  m 0.5,0.5  H 14.5  h 0.5  l 6,4  3,0  6,-4  H 60.084075927734375  H 60.084075927734375  M 60.584075927734375,5  m -5,14.3  l 3.68,-2.1  M 0,27  m 2.6966991411008934,-2.6966991411008934 a 7.5 7.5 0 0,1 -2.1966991411008934,-5.303300858899107  V 0.5 &#10;"/><g data-id=";kqD)*Uv^d[)i8R*0sj8" class="blocklyDraggable" style="display: block;" transform="translate(53.584075927734375,0)"><path class="blocklyPathDark" transform="translate(1,1)" fill="#7a00b7" d=" m 8,0  h 102.31922912597656  v 5  H 110.31922912597656  V 5  H 110.31922912597656  V 23  H 110.31922912597656  V 23  V 27  h -102.31922912597656  H 8  V 20  c 0,-10  -8,8  -8,-7.5  s 8,2.5  8,-7.5 z&#10;"/><path class="blocklyPath" stroke="none" fill="#9900e5" d=" m 8,0  h 102.31922912597656  v 5  H 110.31922912597656  V 5  H 110.31922912597656  V 23  H 110.31922912597656  V 23  V 27  h -102.31922912597656  H 8  V 20  c 0,-10  -8,8  -8,-7.5  s 8,2.5  8,-7.5 z&#10;"/><path class="blocklyPathLight" stroke="#b84ded" d=" m 8,0  m 0.5,0.5  H 109.81922912597656  H 109.81922912597656  M 8.5,26.5  M 8.5,26.5  V 20  v -1.5  m -7.36,-0.5  q -1.52,-5.5  0,-11  m 7.36,1  V 0.5 &#10;"/><g class="blocklyEditableText" transform="translate(13,5)" style="cursor: default;"><rect rx="4" ry="4" x="0" y="0" height="18" width="92.31922912597656" class="blocklyFieldRect blocklyDropdownRect" stroke="#b84ded" fill="transparent"/><text class="blocklyText blocklyDropdownText" text-anchor="start" x="5" y="14">indeksMin<tspan style="fill: rgb(153, 0, 229);"> ▾</tspan></text><image style="display: none;"/></g></g><g transform="translate(10,5)"><text class="blocklyText" x="0" y="14">izpiši</text></g></g><g transform="translate(10,10)"><text class="blocklyText" x="0" y="14">za</text></g><g class="blocklyEditableText" transform="translate(30.483169555664062,10)" style="cursor: default;"><rect rx="4" ry="4" x="0" y="0" height="18" width="68.69718933105469" class="blocklyFieldRect blocklyDropdownRect" stroke="#ed4db8" fill="transparent"/><text class="blocklyText blocklyDropdownText" text-anchor="start" x="5" y="14">indeks<tspan style="fill: rgb(229, 0, 153);"> ▾</tspan></text><image style="display: none;"/></g><g transform="translate(104.18035888671875,10)"><text class="blocklyText" x="0" y="14">od</text></g><g transform="translate(176.63990783691406,10)"><text class="blocklyText" x="0" y="14">do</text></g><g transform="translate(381.62840270996094,10)"><text class="blocklyText" x="0" y="14">s korakom</text></g><g transform="translate(10,43)"><text class="blocklyText" x="0" y="14">izvedi</text></g></g><g transform="translate(10,5)"><text class="blocklyText" x="0" y="14">nastavi</text></g><g class="blocklyEditableText" transform="translate(61.44950866699219,5)" style="cursor: default;"><rect rx="4" ry="4" x="0" y="0" height="18" width="92.31922912597656" class="blocklyFieldRect blocklyDropdownRect" stroke="#b84ded" fill="transparent"/><text class="blocklyText blocklyDropdownText" text-anchor="start" x="5" y="14">indeksMin<tspan style="fill: rgb(153, 0, 229);"> ▾</tspan></text><image style="display: none;"/></g><g transform="translate(158.76873779296875,5)"><text class="blocklyText" x="0" y="14">na</text></g></g><g transform="translate(10,5)"><text class="blocklyText" x="0" y="14">nastavi</text></g><g class="blocklyEditableText" transform="translate(61.44950866699219,5)" style="cursor: default;"><rect rx="4" ry="4" x="0" y="0" height="18" width="75.2254638671875" class="blocklyFieldRect blocklyDropdownRect" stroke="#b84ded" fill="transparent"/><text class="blocklyText blocklyDropdownText" text-anchor="start" x="5" y="14">prodaja<tspan style="fill: rgb(153, 0, 229);"> ▾</tspan></text><image style="display: none;"/></g><g transform="translate(141.6749725341797,5)"><text class="blocklyText" x="0" y="14">na</text></g></g></g></svg>