<svg xmlns="http://www.w3.org/2000/svg" viewBox="10 10 620.2182006835938 508" class="blocklySvg geras-renderer rin_light-theme" width="620.2182006835938" height="508" style="background-color: transparent"><style xmlns="http://www.w3.org/1999/xhtml">.geras-renderer.rin_light-theme .blocklyText, 
.geras-renderer.rin_light-theme .blocklyFlyoutLabelText {
font: normal 11pt sans-serif;
}
.geras-renderer.rin_light-theme .blocklyText {
fill: #fff;
}
.geras-renderer.rin_light-theme .blocklyNonEditableText&gt;rect,
.geras-renderer.rin_light-theme .blocklyEditableText&gt;rect {
fill: #fff;
fill-opacity: .6;
stroke: none;
}
.geras-renderer.rin_light-theme .blocklyNonEditableText&gt;text,
.geras-renderer.rin_light-theme .blocklyEditableText&gt;text {
fill: #000;
}
.geras-renderer.rin_light-theme .blocklyFlyoutLabelText {
fill: #000;
}
.geras-renderer.rin_light-theme .blocklyText.blocklyBubbleText {
fill: #000;
}
.geras-renderer.rin_light-theme .blocklyEditableText:not(.editing):hover&gt;rect {
stroke: #fff;
stroke-width: 2;
}
.geras-renderer.rin_light-theme .blocklyHtmlInput {
font-family: sans-serif;
font-weight: normal;
}
.geras-renderer.rin_light-theme .blocklySelected&gt;.blocklyPath {
stroke: #fc3;
stroke-width: 3px;
}
.geras-renderer.rin_light-theme .blocklyHighlightedConnectionPath {
stroke: #fc3;
}
.geras-renderer.rin_light-theme .blocklyReplaceable .blocklyPath {
fill-opacity: .5;
}
.geras-renderer.rin_light-theme .blocklyReplaceable .blocklyPathLight,
.geras-renderer.rin_light-theme .blocklyReplaceable .blocklyPathDark {
display: none;
}
.geras-renderer.rin_light-theme .blocklyInsertionMarker&gt;.blocklyPath {
fill-opacity: 0.2;
stroke: none;
}
.geras-renderer.rin_light-theme .blocklyInsertionMarker&gt;.blocklyPathLight,
.geras-renderer.rin_light-theme .blocklyInsertionMarker&gt;.blocklyPathDark {
fill-opacity: 0.2;
stroke: none;
}
.blocklySvg {
background-color: #fff;
outline: none;
overflow: hidden;
position: absolute;
display: block;
}
.blocklyWidgetDiv {
display: none;
position: absolute;
z-index: 99999;
}
.injectionDiv {
height: 100%;
position: relative;
overflow: hidden;
touch-action: none;
}
.blocklyNonSelectable {
user-select: none;
-ms-user-select: none;
-webkit-user-select: none;
}
.blocklyWsDragSurface {
display: none;
position: absolute;
top: 0;
left: 0;
}
.blocklyWsDragSurface.blocklyOverflowVisible {
overflow: visible;
}
.blocklyBlockDragSurface {
display: none;
position: absolute;
top: 0;
left: 0;
right: 0;
bottom: 0;
overflow: visible !important;
z-index: 50;
}
.blocklyBlockCanvas.blocklyCanvasTransitioning,
.blocklyBubbleCanvas.blocklyCanvasTransitioning {
transition: transform .5s;
}
.blocklyTooltipDiv {
background-color: #ffffc7;
border: 1px solid #ddc;
box-shadow: 4px 4px 20px 1px rgba(0,0,0,.15);
color: #000;
display: none;
font: 9pt sans-serif;
opacity: .9;
padding: 2px;
position: absolute;
z-index: 100000;
}
.blocklyDropDownDiv {
position: absolute;
left: 0;
top: 0;
z-index: 1000;
display: none;
border: 1px solid;
border-color: #dadce0;
background-color: #fff;
border-radius: 2px;
padding: 4px;
box-shadow: 0 0 3px 1px rgba(0,0,0,.3);
}
.blocklyDropDownDiv.blocklyFocused {
box-shadow: 0 0 6px 1px rgba(0,0,0,.3);
}
.blocklyDropDownContent {
max-height: 300px;
overflow: auto;
overflow-x: hidden;
position: relative;
}
.blocklyDropDownArrow {
position: absolute;
left: 0;
top: 0;
width: 16px;
height: 16px;
z-index: -1;
background-color: inherit;
border-color: inherit;
}
.blocklyDropDownButton {
display: inline-block;
float: left;
padding: 0;
margin: 4px;
border-radius: 4px;
outline: none;
border: 1px solid;
transition: box-shadow .1s;
cursor: pointer;
}
.blocklyArrowTop {
border-top: 1px solid;
border-left: 1px solid;
border-top-left-radius: 4px;
border-color: inherit;
}
.blocklyArrowBottom {
border-bottom: 1px solid;
border-right: 1px solid;
border-bottom-right-radius: 4px;
border-color: inherit;
}
.blocklyResizeSE {
cursor: se-resize;
fill: #aaa;
}
.blocklyResizeSW {
cursor: sw-resize;
fill: #aaa;
}
.blocklyResizeLine {
stroke: #515A5A;
stroke-width: 1;
}
.blocklyHighlightedConnectionPath {
fill: none;
stroke: #fc3;
stroke-width: 4px;
}
.blocklyPathLight {
fill: none;
stroke-linecap: round;
stroke-width: 1;
}
.blocklySelected&gt;.blocklyPathLight {
display: none;
}
.blocklyDraggable {
cursor: url("blockly/media/handopen.cur"), auto;
cursor: grab;
cursor: -webkit-grab;
}
.blocklyDragging {
cursor: url("blockly/media/handclosed.cur"), auto;
cursor: grabbing;
cursor: -webkit-grabbing;
}
.blocklyDraggable:active {
cursor: url("blockly/media/handclosed.cur"), auto;
cursor: grabbing;
cursor: -webkit-grabbing;
}
.blocklyBlockDragSurface .blocklyDraggable {
cursor: url("blockly/media/handclosed.cur"), auto;
cursor: grabbing;
cursor: -webkit-grabbing;
}
.blocklyDragging.blocklyDraggingDelete {
cursor: url("blockly/media/handdelete.cur"), auto;
}
.blocklyDragging&gt;.blocklyPath,
.blocklyDragging&gt;.blocklyPathLight {
fill-opacity: .8;
stroke-opacity: .8;
}
.blocklyDragging&gt;.blocklyPathDark {
display: none;
}
.blocklyDisabled&gt;.blocklyPath {
fill-opacity: .5;
stroke-opacity: .5;
}
.blocklyDisabled&gt;.blocklyPathLight,
.blocklyDisabled&gt;.blocklyPathDark {
display: none;
}
.blocklyInsertionMarker&gt;.blocklyPath,
.blocklyInsertionMarker&gt;.blocklyPathLight,
.blocklyInsertionMarker&gt;.blocklyPathDark {
fill-opacity: .2;
stroke: none;
}
.blocklyMultilineText {
font-family: monospace;
}
.blocklyNonEditableText&gt;text {
pointer-events: none;
}
.blocklyFlyout {
position: absolute;
z-index: 20;
}
.blocklyText text {
cursor: default;
}
.blocklySvg text,
.blocklyBlockDragSurface text {
user-select: none;
-ms-user-select: none;
-webkit-user-select: none;
cursor: inherit;
}
.blocklyHidden {
display: none;
}
.blocklyFieldDropdown:not(.blocklyHidden) {
display: block;
}
.blocklyIconGroup {
cursor: default;
}
.blocklyIconGroup:not(:hover),
.blocklyIconGroupReadonly {
opacity: .6;
}
.blocklyIconShape {
fill: #00f;
stroke: #fff;
stroke-width: 1px;
}
.blocklyIconSymbol {
fill: #fff;
}
.blocklyMinimalBody {
margin: 0;
padding: 0;
}
.blocklyHtmlInput {
border: none;
border-radius: 4px;
height: 100%;
margin: 0;
outline: none;
padding: 0;
width: 100%;
text-align: center;
display: block;
box-sizing: border-box;
}
.blocklyHtmlInput::-ms-clear {
display: none;
}
.blocklyMainBackground {
stroke-width: 1;
stroke: #c6c6c6;
}
.blocklyMutatorBackground {
fill: #fff;
stroke: #ddd;
stroke-width: 1;
}
.blocklyFlyoutBackground {
fill: #ddd;
fill-opacity: .8;
}
.blocklyMainWorkspaceScrollbar {
z-index: 20;
}
.blocklyFlyoutScrollbar {
z-index: 30;
}
.blocklyScrollbarHorizontal,
.blocklyScrollbarVertical {
position: absolute;
outline: none;
}
.blocklyScrollbarBackground {
opacity: 0;
}
.blocklyScrollbarHandle {
fill: #ccc;
}
.blocklyScrollbarBackground:hover+.blocklyScrollbarHandle,
.blocklyScrollbarHandle:hover {
fill: #bbb;
}
.blocklyFlyout .blocklyScrollbarHandle {
fill: #bbb;
}
.blocklyFlyout .blocklyScrollbarBackground:hover+.blocklyScrollbarHandle,
.blocklyFlyout .blocklyScrollbarHandle:hover {
fill: #aaa;
}
.blocklyInvalidInput {
background: #faa;
}
.blocklyVerticalMarker {
stroke-width: 3px;
fill: rgba(255,255,255,.5);
pointer-events: none;
}
.blocklyComputeCanvas {
position: absolute;
width: 0;
height: 0;
}
.blocklyNoPointerEvents {
pointer-events: none;
}
.blocklyContextMenu {
border-radius: 4px;
max-height: 100%;
}
.blocklyDropdownMenu {
border-radius: 2px;
padding: 0 !important;
}
.blocklyDropdownMenu .blocklyMenuItem {
padding-left: 28px;
}
.blocklyDropdownMenu .blocklyMenuItemRtl {
padding-left: 5px;
padding-right: 28px;
}
.blocklyWidgetDiv .blocklyMenu {
background: #fff;
border: 1px solid transparent;
box-shadow: 0 0 3px 1px rgba(0,0,0,.3);
font: normal 13px Arial, sans-serif;
margin: 0;
outline: none;
padding: 4px 0;
position: absolute;
overflow-y: auto;
overflow-x: hidden;
max-height: 100%;
z-index: 20000;
}
.blocklyWidgetDiv .blocklyMenu.blocklyFocused {
box-shadow: 0 0 6px 1px rgba(0,0,0,.3);
}
.blocklyDropDownDiv .blocklyMenu {
font: normal 13px "Helvetica Neue", Helvetica, sans-serif;
outline: none;
z-index: 20000;
}
.blocklyMenuItem {
border: none;
color: #000;
cursor: pointer;
list-style: none;
margin: 0;
min-width: 7em;
padding: 6px 15px;
white-space: nowrap;
}
.blocklyMenuItemDisabled {
color: #ccc;
cursor: inherit;
}
.blocklyMenuItemHighlight {
background-color: rgba(0,0,0,.1);
}
.blocklyMenuItemCheckbox {
height: 16px;
position: absolute;
width: 16px;
}
.blocklyMenuItemSelected .blocklyMenuItemCheckbox {
background: url(blockly/media/sprites.png) no-repeat -48px -16px;
float: left;
margin-left: -24px;
position: static;
}
.blocklyMenuItemRtl .blocklyMenuItemCheckbox {
float: right;
margin-right: -24px;
}
.blocklyCommentTextarea {
background-color: #fef49c;
border: 0;
outline: 0;
margin: 0;
padding: 3px;
resize: none;
display: block;
overflow: hidden;
}
.blocklyFlyoutButton {
fill: #888;
cursor: default;
}
.blocklyFlyoutButtonShadow {
fill: #666;
}
.blocklyFlyoutButton:hover {
fill: #aaa;
}
.blocklyFlyoutLabel {
cursor: default;
}
.blocklyFlyoutLabelBackground {
opacity: 0;
}
.blocklyTreeRow:not(.blocklyTreeSelected):hover {
background-color: rgba(255, 255, 255, 0.2);
}
.blocklyToolboxDiv[layout="h"] .blocklyToolboxCategory {
margin: 1px 5px 1px 0;
}
.blocklyToolboxDiv[dir="RTL"][layout="h"] .blocklyToolboxCategory {
margin: 1px 0 1px 5px;
}
.blocklyTreeRow {
height: 22px;
line-height: 22px;
margin-bottom: 3px;
padding-right: 8px;
white-space: nowrap;
}
.blocklyToolboxDiv[dir="RTL"] .blocklyTreeRow {
margin-left: 8px;
padding-right: 0px
}
.blocklyTreeIcon {
background-image: url(blockly/media/sprites.png);
height: 16px;
vertical-align: middle;
visibility: hidden;
width: 16px;
}
.blocklyTreeIconClosed {
background-position: -32px -1px;
}
.blocklyToolboxDiv[dir="RTL"] .blocklyTreeIconClosed {
background-position: 0 -1px;
}
.blocklyTreeSelected&gt;.blocklyTreeIconClosed {
background-position: -32px -17px;
}
.blocklyToolboxDiv[dir="RTL"] .blocklyTreeSelected&gt;.blocklyTreeIconClosed {
background-position: 0 -17px;
}
.blocklyTreeIconOpen {
background-position: -16px -1px;
}
.blocklyTreeSelected&gt;.blocklyTreeIconOpen {
background-position: -16px -17px;
}
.blocklyTreeLabel {
cursor: default;
font: 16px sans-serif;
padding: 0 3px;
vertical-align: middle;
}
.blocklyToolboxDelete .blocklyTreeLabel {
cursor: url("blockly/media/handdelete.cur"), auto;
}
.blocklyTreeSelected .blocklyTreeLabel {
color: #fff;
}
.blocklyTreeSeparator {
border-bottom: solid #e5e5e5 1px;
height: 0;
margin: 5px 0;
}
.blocklyToolboxDiv[layout="h"] .blocklyTreeSeparator {
border-right: solid #e5e5e5 1px;
border-bottom: none;
height: auto;
margin: 0 5px 0 5px;
padding: 5px 0;
width: 0;
}
.blocklyToolboxDelete {
cursor: url("blockly/media/handdelete.cur"), auto;
}
.blocklyToolboxGrab {
cursor: url("blockly/media/handclosed.cur"), auto;
cursor: grabbing;
cursor: -webkit-grabbing;
}
.blocklyToolboxDiv {
background-color: #ddd;
overflow-x: visible;
overflow-y: auto;
padding: 4px 0 4px 0;
position: absolute;
z-index: 70;
-webkit-tap-highlight-color: transparent;
}
.blocklyToolboxContents {
display: flex;
flex-wrap: wrap;
flex-direction: column;
}
.blocklyToolboxContents:focus {
outline: none;
}
.blocklyZoom&gt;image, .blocklyZoom&gt;svg&gt;image {
opacity: .4;
}
.blocklyZoom&gt;image:hover, .blocklyZoom&gt;svg&gt;image:hover {
opacity: .6;
}
.blocklyZoom&gt;image:active, .blocklyZoom&gt;svg&gt;image:active {
opacity: .8;
}
.blocklyAngleCircle {
stroke: #444;
stroke-width: 1;
fill: #ddd;
fill-opacity: .8;
}
.blocklyAngleMarks {
stroke: #444;
stroke-width: 1;
}
.blocklyAngleGauge {
fill: #f88;
fill-opacity: .8;
pointer-events: none;
}
.blocklyAngleLine {
stroke: #f00;
stroke-width: 2;
stroke-linecap: round;
pointer-events: none;
}
.blocklyColourTable {
border-collapse: collapse;
display: block;
outline: none;
padding: 1px;
}
.blocklyColourTable&gt;tr&gt;td {
border: .5px solid #888;
box-sizing: border-box;
cursor: pointer;
display: inline-block;
height: 20px;
padding: 0;
width: 20px;
}
.blocklyColourTable&gt;tr&gt;td.blocklyColourHighlighted {
border-color: #eee;
box-shadow: 2px 2px 7px 2px rgba(0,0,0,.3);
position: relative;
}
.blocklyColourSelected, .blocklyColourSelected:hover {
border-color: #eee !important;
outline: 1px solid #333;
position: relative;
}
.blocklyHtmlTextAreaInput {
font-family: monospace;
resize: none;
overflow: hidden;
height: 100%;
text-align: left;
}
undefined</style><g class="blocklyBlockCanvas"><g class="blocklyMarker"><g width="100" height="5"><rect width="100" height="5" style="display: none"/><rect class="blocklyVerticalMarker" rx="10" ry="10" style="display: none"/><path transform="" style="display: none"/><path transform="" style="display: none" fill="none" stroke-width="4"/></g></g><g class="blocklyCursor"><g width="100" height="5"><rect width="100" height="5" style="display: none"><animate attributeType="XML" attributeName="fill" dur="1s" values="#cc0a0a;transparent;transparent;" repeatCount="indefinite"/></rect><rect class="blocklyVerticalMarker" rx="10" ry="10" style="display: none"/><path transform="" style="display: none"><animate attributeType="XML" attributeName="fill" dur="1s" values="#cc0a0a;transparent;transparent;" repeatCount="indefinite"/></path><path transform="" style="display: none" fill="none" stroke-width="4"><animate attributeType="XML" attributeName="stroke" dur="1s" values="#cc0a0a;transparent;transparent;" repeatCount="indefinite"/></path></g></g><g data-id="D{OHXp+XQd]BZSv)fnc:" class="blocklyDraggable" transform="translate(10,10)"><path class="blocklyPathDark" transform="translate(1,1)" fill="#b79900" d=" m 0,0  m 0,8 a 8 8 0 0,1 8,-8  h 7  l 6,4  3,0  6,-4  h 359.3771057128906  v 5  H 389.3771057128906  V 5  H 389.3771057128906  V 23  H 389.3771057128906  V 23  V 27  h -359.8771057128906  l -6,4  -3,0  -6,-4  h -14.5  H 0 z&#10;"/><path class="blocklyPath" stroke="none" fill="#e5bf00" d=" m 0,0  m 0,8 a 8 8 0 0,1 8,-8  h 7  l 6,4  3,0  6,-4  h 359.3771057128906  v 5  H 389.3771057128906  V 5  H 389.3771057128906  V 23  H 389.3771057128906  V 23  V 27  h -359.8771057128906  l -6,4  -3,0  -6,-4  h -14.5  H 0 z&#10;"/><path class="blocklyPathLight" stroke="#edd24d" d=" m 0,0  m 0.5,8 a 7.5 7.5 0 0,1 8,-7.5  H 14.5  h 0.5  l 6,4  3,0  6,-4  H 388.8771057128906  H 388.8771057128906  M 0.5,26.5  V 8 &#10;"/><g data-id="aS7f2F?y|^{o3L/47Vcq" class="blocklyDraggable" transform="translate(0,28)"><path class="blocklyPathDark" transform="translate(1,1)" fill="#b79900" d=" m 0,0  h 15  l 6,4  3,0  6,-4  h 390.3290710449219  v 5  H 420.3290710449219  V 5  H 420.3290710449219  V 23  H 420.3290710449219  V 23  V 27  h -390.8290710449219  l -6,4  -3,0  -6,-4  h -14.5  H 0 z&#10;"/><path class="blocklyPath" stroke="none" fill="#e5bf00" d=" m 0,0  h 15  l 6,4  3,0  6,-4  h 390.3290710449219  v 5  H 420.3290710449219  V 5  H 420.3290710449219  V 23  H 420.3290710449219  V 23  V 27  h -390.8290710449219  l -6,4  -3,0  -6,-4  h -14.5  H 0 z&#10;"/><path class="blocklyPathLight" stroke="#edd24d" d=" m 0,0  m 0.5,0.5  H 14.5  h 0.5  l 6,4  3,0  6,-4  H 419.8290710449219  H 419.8290710449219  M 0.5,26.5  V 0.5 &#10;"/><g data-id="VWz_2rab.tym@Q)MB[rS" class="blocklyDraggable" transform="translate(0,28)"><path class="blocklyPathDark" transform="translate(1,1)" fill="#b79900" d=" m 0,0  h 15  l 6,4  3,0  6,-4  h 330.0213317871094  v 5  H 360.0213317871094  V 5  H 360.0213317871094  V 23  H 360.0213317871094  V 23  V 27  h -330.5213317871094  l -6,4  -3,0  -6,-4  h -14.5  H 0 z&#10;"/><path class="blocklyPath" stroke="none" fill="#e5bf00" d=" m 0,0  h 15  l 6,4  3,0  6,-4  h 330.0213317871094  v 5  H 360.0213317871094  V 5  H 360.0213317871094  V 23  H 360.0213317871094  V 23  V 27  h -330.5213317871094  l -6,4  -3,0  -6,-4  h -14.5  H 0 z&#10;"/><path class="blocklyPathLight" stroke="#edd24d" d=" m 0,0  m 0.5,0.5  H 14.5  h 0.5  l 6,4  3,0  6,-4  H 359.5213317871094  H 359.5213317871094  M 0.5,26.5  V 0.5 &#10;"/><g data-id="B6y;/MxdnaM2RjT2jy}-" class="blocklyDraggable" transform="translate(0,28)"><path class="blocklyPathDark" transform="translate(1,1)" fill="#7a00b7" d=" m 0,0  h 15  l 6,4  3,0  6,-4  h 137.019287109375  v 5  H 167.019287109375  V 5  H 167.019287109375  c 0,10  -8,-8  -8,7.5  s 8,-2.5  8,7.5  v 14  H 167.019287109375  V 34  V 38  h -137.519287109375  l -6,4  -3,0  -6,-4  h -14.5  H 0 z&#10;"/><path class="blocklyPath" stroke="none" fill="#9900e5" d=" m 0,0  h 15  l 6,4  3,0  6,-4  h 137.019287109375  v 5  H 167.019287109375  V 5  H 167.019287109375  c 0,10  -8,-8  -8,7.5  s 8,-2.5  8,7.5  v 14  H 167.019287109375  V 34  V 38  h -137.519287109375  l -6,4  -3,0  -6,-4  h -14.5  H 0 z&#10;"/><path class="blocklyPathLight" stroke="#b84ded" d=" m 0,0  m 0.5,0.5  H 14.5  h 0.5  l 6,4  3,0  6,-4  H 166.519287109375  H 166.519287109375  M 167.019287109375,5  m -5,14.3  l 3.68,-2.1  M 0.5,37.5  V 0.5 &#10;"/><g data-id="d^~)Nq2WmF}=YOM7f43*" class="blocklyDraggable" style="display: block;" transform="translate(160.019287109375,0)"><path class="blocklyPathDark" transform="translate(1,1)" fill="#b71e00" d=" m 8,0  h 392.6018981933594  v 5  H 400.6018981933594  V 5  H 400.6018981933594  V 34  H 400.6018981933594  V 34  V 38  h -392.6018981933594  H 8  V 20  c 0,-10  -8,8  -8,-7.5  s 8,2.5  8,-7.5 z&#10; M 162.85391235351562,5  v 5  c 0,10  -8,-8  -8,7.5  s 8,-2.5  8,7.5  v 9  h 35.035064697265625  v -29 z M 210.88897705078125,5  v 5  c 0,10  -8,-8  -8,7.5  s 8,-2.5  8,7.5  v 9  h 38.306365966796875  v -29 z M 262.1953430175781,5  v 5  c 0,10  -8,-8  -8,7.5  s 8,-2.5  8,7.5  v 9  h 30.153182983398438  v -29 z M 305.34852600097656,5  v 5  c 0,10  -8,-8  -8,7.5  s 8,-2.5  8,7.5  v 9  h 42.100189208984375  v -29 z M 360.44871520996094,5  v 5  c 0,10  -8,-8  -8,7.5  s 8,-2.5  8,7.5  v 9  h 30.153182983398438  v -29 z"/><path class="blocklyPath" stroke="none" fill="#e52600" d=" m 8,0  h 392.6018981933594  v 5  H 400.6018981933594  V 5  H 400.6018981933594  V 34  H 400.6018981933594  V 34  V 38  h -392.6018981933594  H 8  V 20  c 0,-10  -8,8  -8,-7.5  s 8,2.5  8,-7.5 z&#10; M 162.85391235351562,5  v 5  c 0,10  -8,-8  -8,7.5  s 8,-2.5  8,7.5  v 9  h 35.035064697265625  v -29 z M 210.88897705078125,5  v 5  c 0,10  -8,-8  -8,7.5  s 8,-2.5  8,7.5  v 9  h 38.306365966796875  v -29 z M 262.1953430175781,5  v 5  c 0,10  -8,-8  -8,7.5  s 8,-2.5  8,7.5  v 9  h 30.153182983398438  v -29 z M 305.34852600097656,5  v 5  c 0,10  -8,-8  -8,7.5  s 8,-2.5  8,7.5  v 9  h 42.100189208984375  v -29 z M 360.44871520996094,5  v 5  c 0,10  -8,-8  -8,7.5  s 8,-2.5  8,7.5  v 9  h 30.153182983398438  v -29 z"/><path class="blocklyPathLight" stroke="#ed674d" d=" m 8,0  m 0.5,0.5  H 400.1018981933594  H 400.1018981933594  M 8.5,37.5  M 8.5,37.5  V 20  v -1.5  m -7.36,-0.5  q -1.52,-5.5  0,-11  m 7.36,1  V 0.5 &#10; M 198.38897705078125,5.5  v 29  h -35.035064697265625  M 162.85391235351562,10  m -5,14.3  l 3.68,-2.1  M 249.69534301757812,5.5  v 29  h -38.306365966796875  M 210.88897705078125,10  m -5,14.3  l 3.68,-2.1  M 292.84852600097656,5.5  v 29  h -30.153182983398438  M 262.1953430175781,10  m -5,14.3  l 3.68,-2.1  M 347.94871520996094,5.5  v 29  h -42.100189208984375  M 305.34852600097656,10  m -5,14.3  l 3.68,-2.1  M 391.1018981933594,5.5  v 29  h -30.153182983398438  M 360.44871520996094,10  m -5,14.3  l 3.68,-2.1 "/><g class="blocklyIconGroup" display="block" transform="translate(18,10)"><rect class="blocklyIconShape" rx="4" ry="4" height="16" width="16"/><path class="blocklyIconSymbol" d="m4.203,7.296 0,1.368 -0.92,0.677 -0.11,0.41 0.9,1.559 0.41,0.11 1.043,-0.457 1.187,0.683 0.127,1.134 0.3,0.3 1.8,0 0.3,-0.299 0.127,-1.138 1.185,-0.682 1.046,0.458 0.409,-0.11 0.9,-1.559 -0.11,-0.41 -0.92,-0.677 0,-1.366 0.92,-0.677 0.11,-0.41 -0.9,-1.559 -0.409,-0.109 -1.046,0.458 -1.185,-0.682 -0.127,-1.138 -0.3,-0.299 -1.8,0 -0.3,0.3 -0.126,1.135 -1.187,0.682 -1.043,-0.457 -0.41,0.11 -0.899,1.559 0.108,0.409z"/><circle class="blocklyIconShape" r="2.7" cx="8" cy="8"/></g><g data-id="wS$,!D/,MNJu{rpB,Dr." class="blocklyDraggable" style="display: block;" transform="translate(155.85391235351562,6)"><path class="blocklyPathDark" transform="translate(1,1)" fill="#003db7" d=" m 8,0  h 33.035064697265625  v 5  H 41.035064697265625  V 5  H 41.035064697265625  V 23  H 41.035064697265625  V 23  V 27  h -33.035064697265625  H 8  V 20  c 0,-10  -8,8  -8,-7.5  s 8,2.5  8,-7.5 z&#10;"/><path class="blocklyPath" stroke="none" fill="#004ce5" d=" m 8,0  h 33.035064697265625  v 5  H 41.035064697265625  V 5  H 41.035064697265625  V 23  H 41.035064697265625  V 23  V 27  h -33.035064697265625  H 8  V 20  c 0,-10  -8,8  -8,-7.5  s 8,2.5  8,-7.5 z&#10;"/><path class="blocklyPathLight" stroke="#4d82ed" d=" m 8,0  m 0.5,0.5  H 40.535064697265625  H 40.535064697265625  M 8.5,26.5  M 8.5,26.5  V 20  v -1.5  m -7.36,-0.5  q -1.52,-5.5  0,-11  m 7.36,1  V 0.5 &#10;"/><g class="blocklyEditableText" transform="translate(13,5)" style="cursor: text;"><rect rx="4" ry="4" x="0" y="0" height="18" width="23.035064697265625" class="blocklyFieldRect"/><text class="blocklyText" x="5" y="14">-6</text></g></g><g data-id="*auufRP4qnMUo%?yg5cr" class="blocklyDraggable" style="display: block;" transform="translate(203.88897705078125,6)"><path class="blocklyPathDark" transform="translate(1,1)" fill="#003db7" d=" m 8,0  h 36.306365966796875  v 5  H 44.306365966796875  V 5  H 44.306365966796875  V 23  H 44.306365966796875  V 23  V 27  h -36.306365966796875  H 8  V 20  c 0,-10  -8,8  -8,-7.5  s 8,2.5  8,-7.5 z&#10;"/><path class="blocklyPath" stroke="none" fill="#004ce5" d=" m 8,0  h 36.306365966796875  v 5  H 44.306365966796875  V 5  H 44.306365966796875  V 23  H 44.306365966796875  V 23  V 27  h -36.306365966796875  H 8  V 20  c 0,-10  -8,8  -8,-7.5  s 8,2.5  8,-7.5 z&#10;"/><path class="blocklyPathLight" stroke="#4d82ed" d=" m 8,0  m 0.5,0.5  H 43.806365966796875  H 43.806365966796875  M 8.5,26.5  M 8.5,26.5  V 20  v -1.5  m -7.36,-0.5  q -1.52,-5.5  0,-11  m 7.36,1  V 0.5 &#10;"/><g class="blocklyEditableText" transform="translate(13,5)" style="cursor: text;"><rect rx="4" ry="4" x="0" y="0" height="18" width="26.306365966796875" class="blocklyFieldRect"/><text class="blocklyText" x="5" y="14">10</text></g></g><g data-id="tpK(rgbmYS+Dflq+u^{n" class="blocklyDraggable" style="display: block;" transform="translate(255.19534301757812,6)"><path class="blocklyPathDark" transform="translate(1,1)" fill="#003db7" d=" m 8,0  h 28.153182983398438  v 5  H 36.15318298339844  V 5  H 36.15318298339844  V 23  H 36.15318298339844  V 23  V 27  h -28.153182983398438  H 8  V 20  c 0,-10  -8,8  -8,-7.5  s 8,2.5  8,-7.5 z&#10;"/><path class="blocklyPath" stroke="none" fill="#004ce5" d=" m 8,0  h 28.153182983398438  v 5  H 36.15318298339844  V 5  H 36.15318298339844  V 23  H 36.15318298339844  V 23  V 27  h -28.153182983398438  H 8  V 20  c 0,-10  -8,8  -8,-7.5  s 8,2.5  8,-7.5 z&#10;"/><path class="blocklyPathLight" stroke="#4d82ed" d=" m 8,0  m 0.5,0.5  H 35.65318298339844  H 35.65318298339844  M 8.5,26.5  M 8.5,26.5  V 20  v -1.5  m -7.36,-0.5  q -1.52,-5.5  0,-11  m 7.36,1  V 0.5 &#10;"/><g class="blocklyEditableText" transform="translate(13,5)" style="cursor: text;"><rect rx="4" ry="4" x="0" y="0" height="18" width="18.153182983398438" class="blocklyFieldRect"/><text class="blocklyText" x="5" y="14">7</text></g></g><g data-id=",Up{*Z59pSFr=1e3s1*]" class="blocklyDraggable" style="display: block;" transform="translate(298.34852600097656,6)"><path class="blocklyPathDark" transform="translate(1,1)" fill="#003db7" d=" m 8,0  h 40.100189208984375  v 5  H 48.100189208984375  V 5  H 48.100189208984375  V 23  H 48.100189208984375  V 23  V 27  h -40.100189208984375  H 8  V 20  c 0,-10  -8,8  -8,-7.5  s 8,2.5  8,-7.5 z&#10;"/><path class="blocklyPath" stroke="none" fill="#004ce5" d=" m 8,0  h 40.100189208984375  v 5  H 48.100189208984375  V 5  H 48.100189208984375  V 23  H 48.100189208984375  V 23  V 27  h -40.100189208984375  H 8  V 20  c 0,-10  -8,8  -8,-7.5  s 8,2.5  8,-7.5 z&#10;"/><path class="blocklyPathLight" stroke="#4d82ed" d=" m 8,0  m 0.5,0.5  H 47.600189208984375  H 47.600189208984375  M 8.5,26.5  M 8.5,26.5  V 20  v -1.5  m -7.36,-0.5  q -1.52,-5.5  0,-11  m 7.36,1  V 0.5 &#10;"/><g class="blocklyEditableText" transform="translate(13,5)" style="cursor: text;"><rect rx="4" ry="4" x="0" y="0" height="18" width="30.100189208984375" class="blocklyFieldRect"/><text class="blocklyText" x="5" y="14">-11</text></g></g><g data-id="udJ|vcK!,jYT18k8SGIs" class="blocklyDraggable" style="display: block;" transform="translate(353.44871520996094,6)"><path class="blocklyPathDark" transform="translate(1,1)" fill="#003db7" d=" m 8,0  h 28.153182983398438  v 5  H 36.15318298339844  V 5  H 36.15318298339844  V 23  H 36.15318298339844  V 23  V 27  h -28.153182983398438  H 8  V 20  c 0,-10  -8,8  -8,-7.5  s 8,2.5  8,-7.5 z&#10;"/><path class="blocklyPath" stroke="none" fill="#004ce5" d=" m 8,0  h 28.153182983398438  v 5  H 36.15318298339844  V 5  H 36.15318298339844  V 23  H 36.15318298339844  V 23  V 27  h -28.153182983398438  H 8  V 20  c 0,-10  -8,8  -8,-7.5  s 8,2.5  8,-7.5 z&#10;"/><path class="blocklyPathLight" stroke="#4d82ed" d=" m 8,0  m 0.5,0.5  H 35.65318298339844  H 35.65318298339844  M 8.5,26.5  M 8.5,26.5  V 20  v -1.5  m -7.36,-0.5  q -1.52,-5.5  0,-11  m 7.36,1  V 0.5 &#10;"/><g class="blocklyEditableText" transform="translate(13,5)" style="cursor: text;"><rect rx="4" ry="4" x="0" y="0" height="18" width="18.153182983398438" class="blocklyFieldRect"/><text class="blocklyText" x="5" y="14">0</text></g></g><g transform="translate(45,10)"><text class="blocklyText" x="0" y="14">ustvari tabelo iz</text></g></g><g data-id="bf?`vbmMcBm:x;P_3|kH" class="blocklyDraggable" transform="translate(0,39)"><path class="blocklyPathDark" transform="translate(1,1)" fill="#b79900" d=" m 0,0  h 15  l 6,4  3,0  6,-4  h 277.036376953125  v 5  H 307.036376953125  V 5  H 307.036376953125  V 23  H 307.036376953125  V 23  V 27  h -277.536376953125  l -6,4  -3,0  -6,-4  h -14.5  H 0 z&#10;"/><path class="blocklyPath" stroke="none" fill="#e5bf00" d=" m 0,0  h 15  l 6,4  3,0  6,-4  h 277.036376953125  v 5  H 307.036376953125  V 5  H 307.036376953125  V 23  H 307.036376953125  V 23  V 27  h -277.536376953125  l -6,4  -3,0  -6,-4  h -14.5  H 0 z&#10;"/><path class="blocklyPathLight" stroke="#edd24d" d=" m 0,0  m 0.5,0.5  H 14.5  h 0.5  l 6,4  3,0  6,-4  H 306.536376953125  H 306.536376953125  M 0.5,26.5  V 0.5 &#10;"/><g data-id="[B77k%8yR,Y*skWZ}pE+" class="blocklyDraggable" transform="translate(0,28)"><path class="blocklyPathDark" transform="translate(1,1)" fill="#7a00b7" d=" m 0,0  h 15  l 6,4  3,0  6,-4  h 145.17247009277344  v 5  H 175.17247009277344  V 5  H 175.17247009277344  c 0,10  -8,-8  -8,7.5  s 8,-2.5  8,7.5  v 14  H 175.17247009277344  V 34  V 38  h -145.67247009277344  l -6,4  -3,0  -6,-4  h -6.5 a 8 8 0 0,1 -8,-8 z&#10;"/><path class="blocklyPath" stroke="none" fill="#9900e5" d=" m 0,0  h 15  l 6,4  3,0  6,-4  h 145.17247009277344  v 5  H 175.17247009277344  V 5  H 175.17247009277344  c 0,10  -8,-8  -8,7.5  s 8,-2.5  8,7.5  v 14  H 175.17247009277344  V 34  V 38  h -145.67247009277344  l -6,4  -3,0  -6,-4  h -6.5 a 8 8 0 0,1 -8,-8 z&#10;"/><path class="blocklyPathLight" stroke="#b84ded" d=" m 0,0  m 0.5,0.5  H 14.5  h 0.5  l 6,4  3,0  6,-4  H 174.67247009277344  H 174.67247009277344  M 175.17247009277344,5  m -5,14.3  l 3.68,-2.1  M 0,38  m 2.6966991411008934,-2.6966991411008934 a 7.5 7.5 0 0,1 -2.1966991411008934,-5.303300858899107  V 0.5 &#10;"/><g data-id="/.1~+agBNuYk8lP~NHJO" class="blocklyDraggable" style="display: block;" transform="translate(168.17247009277344,0)"><path class="blocklyPathDark" transform="translate(1,1)" fill="#b71e00" d=" m 8,0  h 392.6018981933594  v 5  H 400.6018981933594  V 5  H 400.6018981933594  V 34  H 400.6018981933594  V 34  V 38  h -392.6018981933594  H 8  V 20  c 0,-10  -8,8  -8,-7.5  s 8,2.5  8,-7.5 z&#10; M 162.85391235351562,5  v 5  c 0,10  -8,-8  -8,7.5  s 8,-2.5  8,7.5  v 9  h 35.035064697265625  v -29 z M 210.88897705078125,5  v 5  c 0,10  -8,-8  -8,7.5  s 8,-2.5  8,7.5  v 9  h 38.306365966796875  v -29 z M 262.1953430175781,5  v 5  c 0,10  -8,-8  -8,7.5  s 8,-2.5  8,7.5  v 9  h 30.153182983398438  v -29 z M 305.34852600097656,5  v 5  c 0,10  -8,-8  -8,7.5  s 8,-2.5  8,7.5  v 9  h 42.100189208984375  v -29 z M 360.44871520996094,5  v 5  c 0,10  -8,-8  -8,7.5  s 8,-2.5  8,7.5  v 9  h 30.153182983398438  v -29 z"/><path class="blocklyPath" stroke="none" fill="#e52600" d=" m 8,0  h 392.6018981933594  v 5  H 400.6018981933594  V 5  H 400.6018981933594  V 34  H 400.6018981933594  V 34  V 38  h -392.6018981933594  H 8  V 20  c 0,-10  -8,8  -8,-7.5  s 8,2.5  8,-7.5 z&#10; M 162.85391235351562,5  v 5  c 0,10  -8,-8  -8,7.5  s 8,-2.5  8,7.5  v 9  h 35.035064697265625  v -29 z M 210.88897705078125,5  v 5  c 0,10  -8,-8  -8,7.5  s 8,-2.5  8,7.5  v 9  h 38.306365966796875  v -29 z M 262.1953430175781,5  v 5  c 0,10  -8,-8  -8,7.5  s 8,-2.5  8,7.5  v 9  h 30.153182983398438  v -29 z M 305.34852600097656,5  v 5  c 0,10  -8,-8  -8,7.5  s 8,-2.5  8,7.5  v 9  h 42.100189208984375  v -29 z M 360.44871520996094,5  v 5  c 0,10  -8,-8  -8,7.5  s 8,-2.5  8,7.5  v 9  h 30.153182983398438  v -29 z"/><path class="blocklyPathLight" stroke="#ed674d" d=" m 8,0  m 0.5,0.5  H 400.1018981933594  H 400.1018981933594  M 8.5,37.5  M 8.5,37.5  V 20  v -1.5  m -7.36,-0.5  q -1.52,-5.5  0,-11  m 7.36,1  V 0.5 &#10; M 198.38897705078125,5.5  v 29  h -35.035064697265625  M 162.85391235351562,10  m -5,14.3  l 3.68,-2.1  M 249.69534301757812,5.5  v 29  h -38.306365966796875  M 210.88897705078125,10  m -5,14.3  l 3.68,-2.1  M 292.84852600097656,5.5  v 29  h -30.153182983398438  M 262.1953430175781,10  m -5,14.3  l 3.68,-2.1  M 347.94871520996094,5.5  v 29  h -42.100189208984375  M 305.34852600097656,10  m -5,14.3  l 3.68,-2.1  M 391.1018981933594,5.5  v 29  h -30.153182983398438  M 360.44871520996094,10  m -5,14.3  l 3.68,-2.1 "/><g class="blocklyIconGroup" display="block" transform="translate(18,10)"><rect class="blocklyIconShape" rx="4" ry="4" height="16" width="16"/><path class="blocklyIconSymbol" d="m4.203,7.296 0,1.368 -0.92,0.677 -0.11,0.41 0.9,1.559 0.41,0.11 1.043,-0.457 1.187,0.683 0.127,1.134 0.3,0.3 1.8,0 0.3,-0.299 0.127,-1.138 1.185,-0.682 1.046,0.458 0.409,-0.11 0.9,-1.559 -0.11,-0.41 -0.92,-0.677 0,-1.366 0.92,-0.677 0.11,-0.41 -0.9,-1.559 -0.409,-0.109 -1.046,0.458 -1.185,-0.682 -0.127,-1.138 -0.3,-0.299 -1.8,0 -0.3,0.3 -0.126,1.135 -1.187,0.682 -1.043,-0.457 -0.41,0.11 -0.899,1.559 0.108,0.409z"/><circle class="blocklyIconShape" r="2.7" cx="8" cy="8"/></g><g data-id="zaUexXt,-RY*S_JTJXdy" class="blocklyDraggable" style="display: block;" transform="translate(155.85391235351562,6)"><path class="blocklyPathDark" transform="translate(1,1)" fill="#003db7" d=" m 8,0  h 33.035064697265625  v 5  H 41.035064697265625  V 5  H 41.035064697265625  V 23  H 41.035064697265625  V 23  V 27  h -33.035064697265625  H 8  V 20  c 0,-10  -8,8  -8,-7.5  s 8,2.5  8,-7.5 z&#10;"/><path class="blocklyPath" stroke="none" fill="#004ce5" d=" m 8,0  h 33.035064697265625  v 5  H 41.035064697265625  V 5  H 41.035064697265625  V 23  H 41.035064697265625  V 23  V 27  h -33.035064697265625  H 8  V 20  c 0,-10  -8,8  -8,-7.5  s 8,2.5  8,-7.5 z&#10;"/><path class="blocklyPathLight" stroke="#4d82ed" d=" m 8,0  m 0.5,0.5  H 40.535064697265625  H 40.535064697265625  M 8.5,26.5  M 8.5,26.5  V 20  v -1.5  m -7.36,-0.5  q -1.52,-5.5  0,-11  m 7.36,1  V 0.5 &#10;"/><g class="blocklyEditableText" transform="translate(13,5)" style="cursor: text;"><rect rx="4" ry="4" x="0" y="0" height="18" width="23.035064697265625" class="blocklyFieldRect"/><text class="blocklyText" x="5" y="14">-6</text></g></g><g data-id="IQ3,]6n/X7LtCDyZi+km" class="blocklyDraggable" style="display: block;" transform="translate(203.88897705078125,6)"><path class="blocklyPathDark" transform="translate(1,1)" fill="#003db7" d=" m 8,0  h 36.306365966796875  v 5  H 44.306365966796875  V 5  H 44.306365966796875  V 23  H 44.306365966796875  V 23  V 27  h -36.306365966796875  H 8  V 20  c 0,-10  -8,8  -8,-7.5  s 8,2.5  8,-7.5 z&#10;"/><path class="blocklyPath" stroke="none" fill="#004ce5" d=" m 8,0  h 36.306365966796875  v 5  H 44.306365966796875  V 5  H 44.306365966796875  V 23  H 44.306365966796875  V 23  V 27  h -36.306365966796875  H 8  V 20  c 0,-10  -8,8  -8,-7.5  s 8,2.5  8,-7.5 z&#10;"/><path class="blocklyPathLight" stroke="#4d82ed" d=" m 8,0  m 0.5,0.5  H 43.806365966796875  H 43.806365966796875  M 8.5,26.5  M 8.5,26.5  V 20  v -1.5  m -7.36,-0.5  q -1.52,-5.5  0,-11  m 7.36,1  V 0.5 &#10;"/><g class="blocklyEditableText" transform="translate(13,5)" style="cursor: text;"><rect rx="4" ry="4" x="0" y="0" height="18" width="26.306365966796875" class="blocklyFieldRect"/><text class="blocklyText" x="5" y="14">10</text></g></g><g data-id="LDCn)f0_6eO--L{p~m)g" class="blocklyDraggable" style="display: block;" transform="translate(255.19534301757812,6)"><path class="blocklyPathDark" transform="translate(1,1)" fill="#003db7" d=" m 8,0  h 28.153182983398438  v 5  H 36.15318298339844  V 5  H 36.15318298339844  V 23  H 36.15318298339844  V 23  V 27  h -28.153182983398438  H 8  V 20  c 0,-10  -8,8  -8,-7.5  s 8,2.5  8,-7.5 z&#10;"/><path class="blocklyPath" stroke="none" fill="#004ce5" d=" m 8,0  h 28.153182983398438  v 5  H 36.15318298339844  V 5  H 36.15318298339844  V 23  H 36.15318298339844  V 23  V 27  h -28.153182983398438  H 8  V 20  c 0,-10  -8,8  -8,-7.5  s 8,2.5  8,-7.5 z&#10;"/><path class="blocklyPathLight" stroke="#4d82ed" d=" m 8,0  m 0.5,0.5  H 35.65318298339844  H 35.65318298339844  M 8.5,26.5  M 8.5,26.5  V 20  v -1.5  m -7.36,-0.5  q -1.52,-5.5  0,-11  m 7.36,1  V 0.5 &#10;"/><g class="blocklyEditableText" transform="translate(13,5)" style="cursor: text;"><rect rx="4" ry="4" x="0" y="0" height="18" width="18.153182983398438" class="blocklyFieldRect"/><text class="blocklyText" x="5" y="14">7</text></g></g><g data-id="8.SI[!f,kKb9a}PV?5PP" class="blocklyDraggable" style="display: block;" transform="translate(298.34852600097656,6)"><path class="blocklyPathDark" transform="translate(1,1)" fill="#003db7" d=" m 8,0  h 40.100189208984375  v 5  H 48.100189208984375  V 5  H 48.100189208984375  V 23  H 48.100189208984375  V 23  V 27  h -40.100189208984375  H 8  V 20  c 0,-10  -8,8  -8,-7.5  s 8,2.5  8,-7.5 z&#10;"/><path class="blocklyPath" stroke="none" fill="#004ce5" d=" m 8,0  h 40.100189208984375  v 5  H 48.100189208984375  V 5  H 48.100189208984375  V 23  H 48.100189208984375  V 23  V 27  h -40.100189208984375  H 8  V 20  c 0,-10  -8,8  -8,-7.5  s 8,2.5  8,-7.5 z&#10;"/><path class="blocklyPathLight" stroke="#4d82ed" d=" m 8,0  m 0.5,0.5  H 47.600189208984375  H 47.600189208984375  M 8.5,26.5  M 8.5,26.5  V 20  v -1.5  m -7.36,-0.5  q -1.52,-5.5  0,-11  m 7.36,1  V 0.5 &#10;"/><g class="blocklyEditableText" transform="translate(13,5)" style="cursor: text;"><rect rx="4" ry="4" x="0" y="0" height="18" width="30.100189208984375" class="blocklyFieldRect"/><text class="blocklyText" x="5" y="14">-11</text></g></g><g data-id="YgSa-b-;(n;(2)@To4N)" class="blocklyDraggable" style="display: block;" transform="translate(353.44871520996094,6)"><path class="blocklyPathDark" transform="translate(1,1)" fill="#003db7" d=" m 8,0  h 28.153182983398438  v 5  H 36.15318298339844  V 5  H 36.15318298339844  V 23  H 36.15318298339844  V 23  V 27  h -28.153182983398438  H 8  V 20  c 0,-10  -8,8  -8,-7.5  s 8,2.5  8,-7.5 z&#10;"/><path class="blocklyPath" stroke="none" fill="#004ce5" d=" m 8,0  h 28.153182983398438  v 5  H 36.15318298339844  V 5  H 36.15318298339844  V 23  H 36.15318298339844  V 23  V 27  h -28.153182983398438  H 8  V 20  c 0,-10  -8,8  -8,-7.5  s 8,2.5  8,-7.5 z&#10;"/><path class="blocklyPathLight" stroke="#4d82ed" d=" m 8,0  m 0.5,0.5  H 35.65318298339844  H 35.65318298339844  M 8.5,26.5  M 8.5,26.5  V 20  v -1.5  m -7.36,-0.5  q -1.52,-5.5  0,-11  m 7.36,1  V 0.5 &#10;"/><g class="blocklyEditableText" transform="translate(13,5)" style="cursor: text;"><rect rx="4" ry="4" x="0" y="0" height="18" width="18.153182983398438" class="blocklyFieldRect"/><text class="blocklyText" x="5" y="14">0</text></g></g><g transform="translate(45,10)"><text class="blocklyText" x="0" y="14">ustvari tabelo iz</text></g></g><g transform="translate(10,5)"><text class="blocklyText" x="0" y="14">nastavi</text></g><g class="blocklyEditableText" transform="translate(61.44950866699219,5)" style="cursor: default;"><rect rx="4" ry="4" x="0" y="0" height="18" width="74.41659545898438" class="blocklyFieldRect blocklyDropdownRect" stroke="#b84ded" fill="transparent"/><text class="blocklyText blocklyDropdownText" text-anchor="start" x="5" y="14">tabela2<tspan style="fill: rgb(153, 0, 229);"> ▾</tspan></text><image style="display: none;"/></g><g transform="translate(140.86610412597656,5)"><text class="blocklyText" x="0" y="14">na</text></g></g><g transform="translate(10,5)"><text class="blocklyText" x="0" y="14">komentiraj</text></g><g class="blocklyEditableText" transform="translate(82.62344360351562,5)" style="cursor: text;"><rect rx="4" ry="4" x="0" y="0" height="18" width="219.41293334960938" class="blocklyFieldRect"/><text class="blocklyText" x="5" y="14">Za tabelo2 bi program izpisal: -1</text></g></g><g transform="translate(10,5)"><text class="blocklyText" x="0" y="14">nastavi</text></g><g class="blocklyEditableText" transform="translate(61.44950866699219,5)" style="cursor: default;"><rect rx="4" ry="4" x="0" y="0" height="18" width="66.26341247558594" class="blocklyFieldRect blocklyDropdownRect" stroke="#b84ded" fill="transparent"/><text class="blocklyText blocklyDropdownText" text-anchor="start" x="5" y="14">tabela<tspan style="fill: rgb(153, 0, 229);"> ▾</tspan></text><image style="display: none;"/></g><g transform="translate(132.71292114257812,5)"><text class="blocklyText" x="0" y="14">na</text></g></g><g transform="translate(10,5)"><text class="blocklyText" x="0" y="14">komentiraj</text></g><g class="blocklyEditableText" transform="translate(82.62344360351562,5)" style="cursor: text;"><rect rx="4" ry="4" x="0" y="0" height="18" width="272.39788818359375" class="blocklyFieldRect"/><text class="blocklyText" x="5" y="14">Npr. za spodnjo tabelo program izpiše: 3</text></g></g><g transform="translate(10,5)"><text class="blocklyText" x="0" y="14">komentiraj</text></g><g class="blocklyEditableText" transform="translate(82.62344360351562,5)" style="cursor: text;"><rect rx="4" ry="4" x="0" y="0" height="18" width="332.70562744140625" class="blocklyFieldRect"/><text class="blocklyText" x="5" y="14">elementa oz. -1, če takšnega elementa v tabeli ni.</text></g></g><g transform="translate(10,5)"><text class="blocklyText" x="0" y="14">komentiraj</text></g><g class="blocklyEditableText" transform="translate(82.62344360351562,5)" style="cursor: text;"><rect rx="4" ry="4" x="0" y="0" height="18" width="301.753662109375" class="blocklyFieldRect"/><text class="blocklyText" x="5" y="14">Program izpiše indeks zadnjega negativnega</text></g></g><g data-id="gU=-qeA90:PX,}mFMVfc" class="blocklyDraggable" transform="translate(10,220)"><path class="blocklyPathDark" transform="translate(1,1)" fill="#7a00b7" d=" m 0,0  m 0,8 a 8 8 0 0,1 8,-8  h 7  l 6,4  3,0  6,-4  h 178.5725860595703  v 5  H 208.5725860595703  V 5  H 208.5725860595703  c 0,10  -8,-8  -8,7.5  s 8,-2.5  8,7.5  v 3  H 208.5725860595703  V 23  V 27  h -179.0725860595703  l -6,4  -3,0  -6,-4  h -14.5  H 0 z&#10;"/><path class="blocklyPath" stroke="none" fill="#9900e5" d=" m 0,0  m 0,8 a 8 8 0 0,1 8,-8  h 7  l 6,4  3,0  6,-4  h 178.5725860595703  v 5  H 208.5725860595703  V 5  H 208.5725860595703  c 0,10  -8,-8  -8,7.5  s 8,-2.5  8,7.5  v 3  H 208.5725860595703  V 23  V 27  h -179.0725860595703  l -6,4  -3,0  -6,-4  h -14.5  H 0 z&#10;"/><path class="blocklyPathLight" stroke="#b84ded" d=" m 0,0  m 0.5,8 a 7.5 7.5 0 0,1 8,-7.5  H 14.5  h 0.5  l 6,4  3,0  6,-4  H 208.0725860595703  H 208.0725860595703  M 208.5725860595703,5  m -5,14.3  l 3.68,-2.1  M 0.5,26.5  V 8 &#10;"/><g data-id="8lIo*ZajKd0vIV;72,4%" class="blocklyDraggable" style="display: block;" transform="translate(201.5725860595703,0)"><path class="blocklyPathDark" transform="translate(1,1)" fill="#003db7" d=" m 8,0  h 33.035064697265625  v 5  H 41.035064697265625  V 5  H 41.035064697265625  V 23  H 41.035064697265625  V 23  V 27  h -33.035064697265625  H 8  V 20  c 0,-10  -8,8  -8,-7.5  s 8,2.5  8,-7.5 z&#10;"/><path class="blocklyPath" stroke="none" fill="#004ce5" d=" m 8,0  h 33.035064697265625  v 5  H 41.035064697265625  V 5  H 41.035064697265625  V 23  H 41.035064697265625  V 23  V 27  h -33.035064697265625  H 8  V 20  c 0,-10  -8,8  -8,-7.5  s 8,2.5  8,-7.5 z&#10;"/><path class="blocklyPathLight" stroke="#4d82ed" d=" m 8,0  m 0.5,0.5  H 40.535064697265625  H 40.535064697265625  M 8.5,26.5  M 8.5,26.5  V 20  v -1.5  m -7.36,-0.5  q -1.52,-5.5  0,-11  m 7.36,1  V 0.5 &#10;"/><g class="blocklyEditableText" transform="translate(13,5)" style="cursor: text;"><rect rx="4" ry="4" x="0" y="0" height="18" width="23.035064697265625" class="blocklyFieldRect"/><text class="blocklyText" x="5" y="14">-1</text></g></g><g data-id=".OR7r1)x(vh=AtKX79kn" class="blocklyDraggable" transform="translate(0,28)"><path class="blocklyPathDark" transform="translate(1,1)" fill="#b7007a" d=" m 0,0  h 15  l 6,4  3,0  6,-4  h 581.5553436279297  v 5  H 611.5553436279297  V 5  H 611.5553436279297  V 45  H 611.5553436279297  V 49  H 87.48028564453125  l -6,4  -3,0  -6,-4  h -7 a 8 8 0 0,0 -8,8  v 162 a 8 8 0 0,0 8,8  H 87.48028564453125  H 87.48028564453125  V 227  V 237  h -57.98028564453125  l -6,4  -3,0  -6,-4  h -14.5  H 0 z&#10; M 136.48672485351562,5  v 5  c 0,10  -8,-8  -8,7.5  s 8,-2.5  8,7.5  v 20  h 259.0758361816406  v -40 z M 437.8689270019531,5  v 5  c 0,10  -8,-8  -8,7.5  s 8,-2.5  8,7.5  v 9  h 35.035064697265625  v -29 z M 566.5202789306641,5  v 5  c 0,10  -8,-8  -8,7.5  s 8,-2.5  8,7.5  v 9  h 35.035064697265625  v -29 z"/><path class="blocklyPath" stroke="none" fill="#e50099" d=" m 0,0  h 15  l 6,4  3,0  6,-4  h 581.5553436279297  v 5  H 611.5553436279297  V 5  H 611.5553436279297  V 45  H 611.5553436279297  V 49  H 87.48028564453125  l -6,4  -3,0  -6,-4  h -7 a 8 8 0 0,0 -8,8  v 162 a 8 8 0 0,0 8,8  H 87.48028564453125  H 87.48028564453125  V 227  V 237  h -57.98028564453125  l -6,4  -3,0  -6,-4  h -14.5  H 0 z&#10; M 136.48672485351562,5  v 5  c 0,10  -8,-8  -8,7.5  s 8,-2.5  8,7.5  v 20  h 259.0758361816406  v -40 z M 437.8689270019531,5  v 5  c 0,10  -8,-8  -8,7.5  s 8,-2.5  8,7.5  v 9  h 35.035064697265625  v -29 z M 566.5202789306641,5  v 5  c 0,10  -8,-8  -8,7.5  s 8,-2.5  8,7.5  v 9  h 35.035064697265625  v -29 z"/><path class="blocklyPathLight" stroke="#ed4db8" d=" m 0,0  m 0.5,0.5  H 14.5  h 0.5  l 6,4  3,0  6,-4  H 611.0553436279297  H 611.0553436279297  M 57.48028564453125,227  m 1.9895923599143455,-1.9895923599143455 a 8.5 8.5 0 0,0 6.0104076400856545,2.4895923599143455  l 21.5,0  H 86.98028564453125  M 0.5,236.5  V 0.5 &#10; M 396.06256103515625,5.5  v 40  h -259.0758361816406  M 136.48672485351562,10  m -5,14.3  l 3.68,-2.1  M 473.40399169921875,5.5  v 29  h -35.035064697265625  M 437.8689270019531,10  m -5,14.3  l 3.68,-2.1  M 602.0553436279297,5.5  v 29  h -35.035064697265625  M 566.5202789306641,10  m -5,14.3  l 3.68,-2.1 "/><g data-id=")G2DRDt*J{zDRz%)^^9q" class="blocklyDraggable" style="display: block;" transform="translate(129.48672485351562,6)"><path class="blocklyPathDark" transform="translate(1,1)" fill="#003db7" d=" m 8,0  h 257.0758361816406  v 5  H 265.0758361816406  V 5  H 265.0758361816406  V 34  H 265.0758361816406  V 34  V 38  h -257.0758361816406  H 8  V 20  c 0,-10  -8,8  -8,-7.5  s 8,2.5  8,-7.5 z&#10; M 24,5  v 5  c 0,10  -8,-8  -8,7.5  s 8,-2.5  8,7.5  v 9  h 153.72007751464844  v -29 z M 224.9226531982422,5  v 5  c 0,10  -8,-8  -8,7.5  s 8,-2.5  8,7.5  v 9  h 30.153182983398438  v -29 z"/><path class="blocklyPath" stroke="none" fill="#004ce5" d=" m 8,0  h 257.0758361816406  v 5  H 265.0758361816406  V 5  H 265.0758361816406  V 34  H 265.0758361816406  V 34  V 38  h -257.0758361816406  H 8  V 20  c 0,-10  -8,8  -8,-7.5  s 8,2.5  8,-7.5 z&#10; M 24,5  v 5  c 0,10  -8,-8  -8,7.5  s 8,-2.5  8,7.5  v 9  h 153.72007751464844  v -29 z M 224.9226531982422,5  v 5  c 0,10  -8,-8  -8,7.5  s 8,-2.5  8,7.5  v 9  h 30.153182983398438  v -29 z"/><path class="blocklyPathLight" stroke="#4d82ed" d=" m 8,0  m 0.5,0.5  H 264.5758361816406  H 264.5758361816406  M 8.5,37.5  M 8.5,37.5  V 20  v -1.5  m -7.36,-0.5  q -1.52,-5.5  0,-11  m 7.36,1  V 0.5 &#10; M 178.22007751464844,5.5  v 29  h -153.72007751464844  M 24,10  m -5,14.3  l 3.68,-2.1  M 255.57583618164062,5.5  v 29  h -30.153182983398438  M 224.9226531982422,10  m -5,14.3  l 3.68,-2.1 "/><g data-id="1HHSMCsKe|1GK7AN8er}" class="blocklyDraggable" style="display: block;" transform="translate(17,6)"><path class="blocklyPathDark" transform="translate(1,1)" fill="#b71e00" d=" m 8,0  h 74.4566650390625  v 5  H 82.4566650390625  V 5  H 82.4566650390625  c 0,10  -8,-8  -8,7.5  s 8,-2.5  8,7.5  v 3  H 82.4566650390625  V 23  V 27  h -74.4566650390625  H 8  V 20  c 0,-10  -8,8  -8,-7.5  s 8,2.5  8,-7.5 z&#10;"/><path class="blocklyPath" stroke="none" fill="#e52600" d=" m 8,0  h 74.4566650390625  v 5  H 82.4566650390625  V 5  H 82.4566650390625  c 0,10  -8,-8  -8,7.5  s 8,-2.5  8,7.5  v 3  H 82.4566650390625  V 23  V 27  h -74.4566650390625  H 8  V 20  c 0,-10  -8,8  -8,-7.5  s 8,2.5  8,-7.5 z&#10;"/><path class="blocklyPathLight" stroke="#ed674d" d=" m 8,0  m 0.5,0.5  H 81.9566650390625  H 81.9566650390625  M 82.4566650390625,5  m -5,14.3  l 3.68,-2.1  M 8.5,26.5  M 8.5,26.5  V 20  v -1.5  m -7.36,-0.5  q -1.52,-5.5  0,-11  m 7.36,1  V 0.5 &#10;"/><g data-id="l51izXM[r)!C2PAszF97" class="blocklyDraggable" style="display: block;" transform="translate(75.4566650390625,0)"><path class="blocklyPathDark" transform="translate(1,1)" fill="#7a00b7" d=" m 8,0  h 76.26341247558594  v 5  H 84.26341247558594  V 5  H 84.26341247558594  V 23  H 84.26341247558594  V 23  V 27  h -76.26341247558594  H 8  V 20  c 0,-10  -8,8  -8,-7.5  s 8,2.5  8,-7.5 z&#10;"/><path class="blocklyPath" stroke="none" fill="#9900e5" d=" m 8,0  h 76.26341247558594  v 5  H 84.26341247558594  V 5  H 84.26341247558594  V 23  H 84.26341247558594  V 23  V 27  h -76.26341247558594  H 8  V 20  c 0,-10  -8,8  -8,-7.5  s 8,2.5  8,-7.5 z&#10;"/><path class="blocklyPathLight" stroke="#b84ded" d=" m 8,0  m 0.5,0.5  H 83.76341247558594  H 83.76341247558594  M 8.5,26.5  M 8.5,26.5  V 20  v -1.5  m -7.36,-0.5  q -1.52,-5.5  0,-11  m 7.36,1  V 0.5 &#10;"/><g class="blocklyEditableText" transform="translate(13,5)" style="cursor: default;"><rect rx="4" ry="4" x="0" y="0" height="18" width="66.26341247558594" class="blocklyFieldRect blocklyDropdownRect" stroke="#b84ded" fill="transparent"/><text class="blocklyText blocklyDropdownText" text-anchor="start" x="5" y="14">tabela<tspan style="fill: rgb(153, 0, 229);"> ▾</tspan></text><image style="display: none;"/></g></g><g transform="translate(18,5)"><text class="blocklyText" x="0" y="14">dolžina</text></g></g><g data-id="}|l^42gqu1BJ9s#/E=yS" class="blocklyDraggable" style="display: block;" transform="translate(217.9226531982422,6)"><path class="blocklyPathDark" transform="translate(1,1)" fill="#003db7" d=" m 8,0  h 28.153182983398438  v 5  H 36.15318298339844  V 5  H 36.15318298339844  V 23  H 36.15318298339844  V 23  V 27  h -28.153182983398438  H 8  V 20  c 0,-10  -8,8  -8,-7.5  s 8,2.5  8,-7.5 z&#10;"/><path class="blocklyPath" stroke="none" fill="#004ce5" d=" m 8,0  h 28.153182983398438  v 5  H 36.15318298339844  V 5  H 36.15318298339844  V 23  H 36.15318298339844  V 23  V 27  h -28.153182983398438  H 8  V 20  c 0,-10  -8,8  -8,-7.5  s 8,2.5  8,-7.5 z&#10;"/><path class="blocklyPathLight" stroke="#4d82ed" d=" m 8,0  m 0.5,0.5  H 35.65318298339844  H 35.65318298339844  M 8.5,26.5  M 8.5,26.5  V 20  v -1.5  m -7.36,-0.5  q -1.52,-5.5  0,-11  m 7.36,1  V 0.5 &#10;"/><g class="blocklyEditableText" transform="translate(13,5)" style="cursor: text;"><rect rx="4" ry="4" x="0" y="0" height="18" width="18.153182983398438" class="blocklyFieldRect"/><text class="blocklyText" x="5" y="14">1</text></g></g><g class="blocklyEditableText" transform="translate(182.72007751464844,10)" style="cursor: default;"><rect rx="4" ry="4" x="0" y="0" height="18" width="31.20257568359375" class="blocklyFieldRect blocklyDropdownRect" stroke="#4d82ed" fill="transparent"/><text class="blocklyText blocklyDropdownText" text-anchor="start" x="5" y="14">-<tspan style="fill: rgb(0, 76, 229);"> ▾</tspan></text><image style="display: none;"/></g></g><g data-id="+E|PhN*pG+n5;4}nD?Kd" class="blocklyDraggable" style="display: block;" transform="translate(430.8689270019531,6)"><path class="blocklyPathDark" transform="translate(1,1)" fill="#003db7" d=" m 8,0  h 33.035064697265625  v 5  H 41.035064697265625  V 5  H 41.035064697265625  V 23  H 41.035064697265625  V 23  V 27  h -33.035064697265625  H 8  V 20  c 0,-10  -8,8  -8,-7.5  s 8,2.5  8,-7.5 z&#10;"/><path class="blocklyPath" stroke="none" fill="#004ce5" d=" m 8,0  h 33.035064697265625  v 5  H 41.035064697265625  V 5  H 41.035064697265625  V 23  H 41.035064697265625  V 23  V 27  h -33.035064697265625  H 8  V 20  c 0,-10  -8,8  -8,-7.5  s 8,2.5  8,-7.5 z&#10;"/><path class="blocklyPathLight" stroke="#4d82ed" d=" m 8,0  m 0.5,0.5  H 40.535064697265625  H 40.535064697265625  M 8.5,26.5  M 8.5,26.5  V 20  v -1.5  m -7.36,-0.5  q -1.52,-5.5  0,-11  m 7.36,1  V 0.5 &#10;"/><g class="blocklyEditableText" transform="translate(13,5)" style="cursor: text;"><rect rx="4" ry="4" x="0" y="0" height="18" width="23.035064697265625" class="blocklyFieldRect"/><text class="blocklyText" x="5" y="14">-1</text></g></g><g data-id="lzj:Gj`M=,CtqxPFi`{T" class="blocklyDraggable" style="display: block;" transform="translate(559.5202789306641,6)"><path class="blocklyPathDark" transform="translate(1,1)" fill="#003db7" d=" m 8,0  h 33.035064697265625  v 5  H 41.035064697265625  V 5  H 41.035064697265625  V 23  H 41.035064697265625  V 23  V 27  h -33.035064697265625  H 8  V 20  c 0,-10  -8,8  -8,-7.5  s 8,2.5  8,-7.5 z&#10;"/><path class="blocklyPath" stroke="none" fill="#004ce5" d=" m 8,0  h 33.035064697265625  v 5  H 41.035064697265625  V 5  H 41.035064697265625  V 23  H 41.035064697265625  V 23  V 27  h -33.035064697265625  H 8  V 20  c 0,-10  -8,8  -8,-7.5  s 8,2.5  8,-7.5 z&#10;"/><path class="blocklyPathLight" stroke="#4d82ed" d=" m 8,0  m 0.5,0.5  H 40.535064697265625  H 40.535064697265625  M 8.5,26.5  M 8.5,26.5  V 20  v -1.5  m -7.36,-0.5  q -1.52,-5.5  0,-11  m 7.36,1  V 0.5 &#10;"/><g class="blocklyEditableText" transform="translate(13,5)" style="cursor: text;"><rect rx="4" ry="4" x="0" y="0" height="18" width="23.035064697265625" class="blocklyFieldRect"/><text class="blocklyText" x="5" y="14">-1</text></g></g><g data-id=";MuOG.raXIX0DT#+zX9," class="blocklyDraggable" style="display: block;" transform="translate(58.48028564453125,50)"><path class="blocklyPathDark" transform="translate(1,1)" fill="#007ab7" d=" m 0,0  m 0,8 a 8 8 0 0,1 8,-8  h 7  l 6,4  3,0  6,-4  h 57.48028564453125  v 5  H 87.48028564453125  V 5  H 87.48028564453125  c 0,10  -8,-8  -8,7.5  s 8,-2.5  8,7.5  v 25  H 87.48028564453125  V 49  H 87.48028564453125  l -6,4  -3,0  -6,-4  h -7 a 8 8 0 0,0 -8,8  v 97 a 8 8 0 0,0 8,8  H 87.48028564453125  H 87.48028564453125  V 162  V 172  h -57.98028564453125  l -6,4  -3,0  -6,-4  h -6.5 a 8 8 0 0,1 -8,-8 z&#10;"/><path class="blocklyPath" stroke="none" fill="#0098e5" d=" m 0,0  m 0,8 a 8 8 0 0,1 8,-8  h 7  l 6,4  3,0  6,-4  h 57.48028564453125  v 5  H 87.48028564453125  V 5  H 87.48028564453125  c 0,10  -8,-8  -8,7.5  s 8,-2.5  8,7.5  v 25  H 87.48028564453125  V 49  H 87.48028564453125  l -6,4  -3,0  -6,-4  h -7 a 8 8 0 0,0 -8,8  v 97 a 8 8 0 0,0 8,8  H 87.48028564453125  H 87.48028564453125  V 162  V 172  h -57.98028564453125  l -6,4  -3,0  -6,-4  h -6.5 a 8 8 0 0,1 -8,-8 z&#10;"/><path class="blocklyPathLight" stroke="#4db7ed" d=" m 0,0  m 0.5,8 a 7.5 7.5 0 0,1 8,-7.5  H 14.5  h 0.5  l 6,4  3,0  6,-4  H 86.98028564453125  H 86.98028564453125  M 87.48028564453125,5  m -5,14.3  l 3.68,-2.1  M 57.48028564453125,162  m 1.9895923599143455,-1.9895923599143455 a 8.5 8.5 0 0,0 6.0104076400856545,2.4895923599143455  l 21.5,0  H 86.98028564453125  M 0,172  m 2.6966991411008934,-2.6966991411008934 a 7.5 7.5 0 0,1 -2.1966991411008934,-5.303300858899107  V 8 &#10;"/><g class="blocklyIconGroup" display="block" transform="translate(10,5)"><rect class="blocklyIconShape" rx="4" ry="4" height="16" width="16"/><path class="blocklyIconSymbol" d="m4.203,7.296 0,1.368 -0.92,0.677 -0.11,0.41 0.9,1.559 0.41,0.11 1.043,-0.457 1.187,0.683 0.127,1.134 0.3,0.3 1.8,0 0.3,-0.299 0.127,-1.138 1.185,-0.682 1.046,0.458 0.409,-0.11 0.9,-1.559 -0.11,-0.41 -0.92,-0.677 0,-1.366 0.92,-0.677 0.11,-0.41 -0.9,-1.559 -0.409,-0.109 -1.046,0.458 -1.185,-0.682 -0.127,-1.138 -0.3,-0.299 -1.8,0 -0.3,0.3 -0.126,1.135 -1.187,0.682 -1.043,-0.457 -0.41,0.11 -0.899,1.559 0.108,0.409z"/><circle class="blocklyIconShape" r="2.7" cx="8" cy="8"/></g><g data-id="/42Lk3PVe#(]A8Nd9K)|" class="blocklyDraggable" style="display: block;" transform="translate(80.48028564453125,0)"><path class="blocklyPathDark" transform="translate(1,1)" fill="#007ab7" d=" m 8,0  h 472.25762939453125  v 5  H 480.25762939453125  V 5  H 480.25762939453125  V 45  H 480.25762939453125  V 45  V 49  h -472.25762939453125  H 8  V 20  c 0,-10  -8,8  -8,-7.5  s 8,2.5  8,-7.5 z&#10; M 24,5  v 5  c 0,10  -8,-8  -8,7.5  s 8,-2.5  8,7.5  v 20  h 365.22254943847656  v -40 z M 440.1044464111328,5  v 5  c 0,10  -8,-8  -8,7.5  s 8,-2.5  8,7.5  v 9  h 30.153182983398438  v -29 z"/><path class="blocklyPath" stroke="none" fill="#0098e5" d=" m 8,0  h 472.25762939453125  v 5  H 480.25762939453125  V 5  H 480.25762939453125  V 45  H 480.25762939453125  V 45  V 49  h -472.25762939453125  H 8  V 20  c 0,-10  -8,8  -8,-7.5  s 8,2.5  8,-7.5 z&#10; M 24,5  v 5  c 0,10  -8,-8  -8,7.5  s 8,-2.5  8,7.5  v 20  h 365.22254943847656  v -40 z M 440.1044464111328,5  v 5  c 0,10  -8,-8  -8,7.5  s 8,-2.5  8,7.5  v 9  h 30.153182983398438  v -29 z"/><path class="blocklyPathLight" stroke="#4db7ed" d=" m 8,0  m 0.5,0.5  H 479.75762939453125  H 479.75762939453125  M 8.5,48.5  M 8.5,48.5  V 20  v -1.5  m -7.36,-0.5  q -1.52,-5.5  0,-11  m 7.36,1  V 0.5 &#10; M 389.72254943847656,5.5  v 40  h -365.22254943847656  M 24,10  m -5,14.3  l 3.68,-2.1  M 470.75762939453125,5.5  v 29  h -30.153182983398438  M 440.1044464111328,10  m -5,14.3  l 3.68,-2.1 "/><g data-id="sm;EDFI6=[V`{*?/A#T-" class="blocklyDraggable" style="display: block;" transform="translate(17,6)"><path class="blocklyPathDark" transform="translate(1,1)" fill="#b71e00" d=" m 8,0  h 363.22254943847656  v 5  H 371.22254943847656  V 5  H 371.22254943847656  V 34  H 371.22254943847656  V 34  V 38  h -363.22254943847656  H 8  V 20  c 0,-10  -8,8  -8,-7.5  s 8,2.5  8,-7.5 z&#10; M 80.44950866699219,5  v 5  c 0,10  -8,-8  -8,7.5  s 8,-2.5  8,7.5  v 9  h 78.26341247558594  v -29 z M 280.5253601074219,5  v 5  c 0,10  -8,-8  -8,7.5  s 8,-2.5  8,7.5  v 9  h 80.69718933105469  v -29 z"/><path class="blocklyPath" stroke="none" fill="#e52600" d=" m 8,0  h 363.22254943847656  v 5  H 371.22254943847656  V 5  H 371.22254943847656  V 34  H 371.22254943847656  V 34  V 38  h -363.22254943847656  H 8  V 20  c 0,-10  -8,8  -8,-7.5  s 8,2.5  8,-7.5 z&#10; M 80.44950866699219,5  v 5  c 0,10  -8,-8  -8,7.5  s 8,-2.5  8,7.5  v 9  h 78.26341247558594  v -29 z M 280.5253601074219,5  v 5  c 0,10  -8,-8  -8,7.5  s 8,-2.5  8,7.5  v 9  h 80.69718933105469  v -29 z"/><path class="blocklyPathLight" stroke="#ed674d" d=" m 8,0  m 0.5,0.5  H 370.72254943847656  H 370.72254943847656  M 8.5,37.5  M 8.5,37.5  V 20  v -1.5  m -7.36,-0.5  q -1.52,-5.5  0,-11  m 7.36,1  V 0.5 &#10; M 159.21292114257812,5.5  v 29  h -78.26341247558594  M 80.44950866699219,10  m -5,14.3  l 3.68,-2.1  M 361.72254943847656,5.5  v 29  h -80.69718933105469  M 280.5253601074219,10  m -5,14.3  l 3.68,-2.1 "/><g data-id="17MRKxos_x41~hCT|j_E" class="blocklyDraggable" style="display: block;" transform="translate(73.44950866699219,6)"><path class="blocklyPathDark" transform="translate(1,1)" fill="#7a00b7" d=" m 8,0  h 76.26341247558594  v 5  H 84.26341247558594  V 5  H 84.26341247558594  V 23  H 84.26341247558594  V 23  V 27  h -76.26341247558594  H 8  V 20  c 0,-10  -8,8  -8,-7.5  s 8,2.5  8,-7.5 z&#10;"/><path class="blocklyPath" stroke="none" fill="#9900e5" d=" m 8,0  h 76.26341247558594  v 5  H 84.26341247558594  V 5  H 84.26341247558594  V 23  H 84.26341247558594  V 23  V 27  h -76.26341247558594  H 8  V 20  c 0,-10  -8,8  -8,-7.5  s 8,2.5  8,-7.5 z&#10;"/><path class="blocklyPathLight" stroke="#b84ded" d=" m 8,0  m 0.5,0.5  H 83.76341247558594  H 83.76341247558594  M 8.5,26.5  M 8.5,26.5  V 20  v -1.5  m -7.36,-0.5  q -1.52,-5.5  0,-11  m 7.36,1  V 0.5 &#10;"/><g class="blocklyEditableText" transform="translate(13,5)" style="cursor: default;"><rect rx="4" ry="4" x="0" y="0" height="18" width="66.26341247558594" class="blocklyFieldRect blocklyDropdownRect" stroke="#b84ded" fill="transparent"/><text class="blocklyText blocklyDropdownText" text-anchor="start" x="5" y="14">tabela<tspan style="fill: rgb(153, 0, 229);"> ▾</tspan></text><image style="display: none;"/></g></g><g data-id=".JcyY-aJqW%1q7UnfNXq" class="blocklyDraggable" style="display: block;" transform="translate(273.5253601074219,6)"><path class="blocklyPathDark" transform="translate(1,1)" fill="#7a00b7" d=" m 8,0  h 78.69718933105469  v 5  H 86.69718933105469  V 5  H 86.69718933105469  V 23  H 86.69718933105469  V 23  V 27  h -78.69718933105469  H 8  V 20  c 0,-10  -8,8  -8,-7.5  s 8,2.5  8,-7.5 z&#10;"/><path class="blocklyPath" stroke="none" fill="#9900e5" d=" m 8,0  h 78.69718933105469  v 5  H 86.69718933105469  V 5  H 86.69718933105469  V 23  H 86.69718933105469  V 23  V 27  h -78.69718933105469  H 8  V 20  c 0,-10  -8,8  -8,-7.5  s 8,2.5  8,-7.5 z&#10;"/><path class="blocklyPathLight" stroke="#b84ded" d=" m 8,0  m 0.5,0.5  H 86.19718933105469  H 86.19718933105469  M 8.5,26.5  M 8.5,26.5  V 20  v -1.5  m -7.36,-0.5  q -1.52,-5.5  0,-11  m 7.36,1  V 0.5 &#10;"/><g class="blocklyEditableText" transform="translate(13,5)" style="cursor: default;"><rect rx="4" ry="4" x="0" y="0" height="18" width="68.69718933105469" class="blocklyFieldRect blocklyDropdownRect" stroke="#b84ded" fill="transparent"/><text class="blocklyText blocklyDropdownText" text-anchor="start" x="5" y="14">indeks<tspan style="fill: rgb(153, 0, 229);"> ▾</tspan></text><image style="display: none;"/></g></g><g transform="translate(18,10)"><text class="blocklyText" x="0" y="14">v tabeli</text></g><g class="blocklyEditableText" transform="translate(163.71292114257812,10)" style="cursor: default;"><rect rx="4" ry="4" x="0" y="0" height="18" width="49.942718505859375" class="blocklyFieldRect blocklyDropdownRect" stroke="#ed674d" fill="transparent"/><text class="blocklyText blocklyDropdownText" text-anchor="start" x="5" y="14">vrni<tspan style="fill: rgb(229, 38, 0);"> ▾</tspan></text><image style="display: none;"/></g><g transform="translate(218.6556396484375,10)"><text class="blocklyText" x="0" y="14"> </text></g><g class="blocklyEditableText" transform="translate(227.72865295410156,10)" style="cursor: default;"><rect rx="4" ry="4" x="0" y="0" height="18" width="41.79670715332031" class="blocklyFieldRect blocklyDropdownRect" stroke="#ed674d" fill="transparent"/><text class="blocklyText blocklyDropdownText" text-anchor="start" x="5" y="14">št.<tspan style="fill: rgb(229, 38, 0);"> ▾</tspan></text><image style="display: none;"/></g></g><g data-id="71NDL,NEQ~]}9T8PZ32B" class="blocklyDraggable" style="display: block;" transform="translate(433.1044464111328,6)"><path class="blocklyPathDark" transform="translate(1,1)" fill="#003db7" d=" m 8,0  h 28.153182983398438  v 5  H 36.15318298339844  V 5  H 36.15318298339844  V 23  H 36.15318298339844  V 23  V 27  h -28.153182983398438  H 8  V 20  c 0,-10  -8,8  -8,-7.5  s 8,2.5  8,-7.5 z&#10;"/><path class="blocklyPath" stroke="none" fill="#004ce5" d=" m 8,0  h 28.153182983398438  v 5  H 36.15318298339844  V 5  H 36.15318298339844  V 23  H 36.15318298339844  V 23  V 27  h -28.153182983398438  H 8  V 20  c 0,-10  -8,8  -8,-7.5  s 8,2.5  8,-7.5 z&#10;"/><path class="blocklyPathLight" stroke="#4d82ed" d=" m 8,0  m 0.5,0.5  H 35.65318298339844  H 35.65318298339844  M 8.5,26.5  M 8.5,26.5  V 20  v -1.5  m -7.36,-0.5  q -1.52,-5.5  0,-11  m 7.36,1  V 0.5 &#10;"/><g class="blocklyEditableText" transform="translate(13,5)" style="cursor: text;"><rect rx="4" ry="4" x="0" y="0" height="18" width="18.153182983398438" class="blocklyFieldRect"/><text class="blocklyText" x="5" y="14">0</text></g></g><g class="blocklyEditableText" transform="translate(394.22254943847656,10)" style="cursor: default;"><rect rx="4" ry="4" x="0" y="0" height="18" width="34.88189697265625" class="blocklyFieldRect blocklyDropdownRect" stroke="#4db7ed" fill="transparent"/><text class="blocklyText blocklyDropdownText" text-anchor="start" x="5" y="14">‏&lt;<tspan style="fill: rgb(0, 152, 229);"> ▾</tspan></text><image style="display: none;"/></g></g><g data-id="S|0k``WAG%tNV]hiuDOe" class="blocklyDraggable" style="display: block;" transform="translate(58.48028564453125,50)"><path class="blocklyPathDark" transform="translate(1,1)" fill="#b79900" d=" m 0,0  m 0,8 a 8 8 0 0,1 8,-8  h 7  l 6,4  3,0  6,-4  h 321.8466796875  v 5  H 351.8466796875  V 5  H 351.8466796875  V 23  H 351.8466796875  V 23  V 27  h -322.3466796875  l -6,4  -3,0  -6,-4  h -14.5  H 0 z&#10;"/><path class="blocklyPath" stroke="none" fill="#e5bf00" d=" m 0,0  m 0,8 a 8 8 0 0,1 8,-8  h 7  l 6,4  3,0  6,-4  h 321.8466796875  v 5  H 351.8466796875  V 5  H 351.8466796875  V 23  H 351.8466796875  V 23  V 27  h -322.3466796875  l -6,4  -3,0  -6,-4  h -14.5  H 0 z&#10;"/><path class="blocklyPathLight" stroke="#edd24d" d=" m 0,0  m 0.5,8 a 7.5 7.5 0 0,1 8,-7.5  H 14.5  h 0.5  l 6,4  3,0  6,-4  H 351.3466796875  H 351.3466796875  M 0.5,26.5  V 8 &#10;"/><g data-id="F,k,V}Vns(aiJAw-U~^~" class="blocklyDraggable" transform="translate(0,28)"><path class="blocklyPathDark" transform="translate(1,1)" fill="#b79900" d=" m 0,0  h 15  l 6,4  3,0  6,-4  h 287.6448059082031  v 5  H 317.6448059082031  V 5  H 317.6448059082031  V 23  H 317.6448059082031  V 23  V 27  h -288.1448059082031  l -6,4  -3,0  -6,-4  h -14.5  H 0 z&#10;"/><path class="blocklyPath" stroke="none" fill="#e5bf00" d=" m 0,0  h 15  l 6,4  3,0  6,-4  h 287.6448059082031  v 5  H 317.6448059082031  V 5  H 317.6448059082031  V 23  H 317.6448059082031  V 23  V 27  h -288.1448059082031  l -6,4  -3,0  -6,-4  h -14.5  H 0 z&#10;"/><path class="blocklyPathLight" stroke="#edd24d" d=" m 0,0  m 0.5,0.5  H 14.5  h 0.5  l 6,4  3,0  6,-4  H 317.1448059082031  H 317.1448059082031  M 0.5,26.5  V 0.5 &#10;"/><g data-id="TTj9+=jhKRT41Ndu:|*~" class="blocklyDraggable" transform="translate(0,28)"><path class="blocklyPathDark" transform="translate(1,1)" fill="#7a00b7" d=" m 0,0  h 15  l 6,4  3,0  6,-4  h 178.5725860595703  v 5  H 208.5725860595703  V 5  H 208.5725860595703  c 0,10  -8,-8  -8,7.5  s 8,-2.5  8,7.5  v 3  H 208.5725860595703  V 23  V 27  h -179.0725860595703  l -6,4  -3,0  -6,-4  h -14.5  H 0 z&#10;"/><path class="blocklyPath" stroke="none" fill="#9900e5" d=" m 0,0  h 15  l 6,4  3,0  6,-4  h 178.5725860595703  v 5  H 208.5725860595703  V 5  H 208.5725860595703  c 0,10  -8,-8  -8,7.5  s 8,-2.5  8,7.5  v 3  H 208.5725860595703  V 23  V 27  h -179.0725860595703  l -6,4  -3,0  -6,-4  h -14.5  H 0 z&#10;"/><path class="blocklyPathLight" stroke="#b84ded" d=" m 0,0  m 0.5,0.5  H 14.5  h 0.5  l 6,4  3,0  6,-4  H 208.0725860595703  H 208.0725860595703  M 208.5725860595703,5  m -5,14.3  l 3.68,-2.1  M 0.5,26.5  V 0.5 &#10;"/><g data-id="]6*hYm(|EK#WtO+3EPRz" class="blocklyDraggable" style="display: block;" transform="translate(201.5725860595703,0)"><path class="blocklyPathDark" transform="translate(1,1)" fill="#7a00b7" d=" m 8,0  h 78.69718933105469  v 5  H 86.69718933105469  V 5  H 86.69718933105469  V 23  H 86.69718933105469  V 23  V 27  h -78.69718933105469  H 8  V 20  c 0,-10  -8,8  -8,-7.5  s 8,2.5  8,-7.5 z&#10;"/><path class="blocklyPath" stroke="none" fill="#9900e5" d=" m 8,0  h 78.69718933105469  v 5  H 86.69718933105469  V 5  H 86.69718933105469  V 23  H 86.69718933105469  V 23  V 27  h -78.69718933105469  H 8  V 20  c 0,-10  -8,8  -8,-7.5  s 8,2.5  8,-7.5 z&#10;"/><path class="blocklyPathLight" stroke="#b84ded" d=" m 8,0  m 0.5,0.5  H 86.19718933105469  H 86.19718933105469  M 8.5,26.5  M 8.5,26.5  V 20  v -1.5  m -7.36,-0.5  q -1.52,-5.5  0,-11  m 7.36,1  V 0.5 &#10;"/><g class="blocklyEditableText" transform="translate(13,5)" style="cursor: default;"><rect rx="4" ry="4" x="0" y="0" height="18" width="68.69718933105469" class="blocklyFieldRect blocklyDropdownRect" stroke="#b84ded" fill="transparent"/><text class="blocklyText blocklyDropdownText" text-anchor="start" x="5" y="14">indeks<tspan style="fill: rgb(153, 0, 229);"> ▾</tspan></text><image style="display: none;"/></g></g><g data-id="r,.}iEeK0dXk9-%w,gW{" class="blocklyDraggable" transform="translate(0,28)"><path class="blocklyPathDark" transform="translate(1,1)" fill="#b7007a" d=" m 0,0  h 15  l 6,4  3,0  6,-4  h 111.65348815917969  v 5  H 141.6534881591797  V 5  H 141.6534881591797  V 23  H 141.6534881591797  V 23  V 27  h -133.6534881591797 a 8 8 0 0,1 -8,-8 z&#10;"/><path class="blocklyPath" stroke="none" fill="#e50099" d=" m 0,0  h 15  l 6,4  3,0  6,-4  h 111.65348815917969  v 5  H 141.6534881591797  V 5  H 141.6534881591797  V 23  H 141.6534881591797  V 23  V 27  h -133.6534881591797 a 8 8 0 0,1 -8,-8 z&#10;"/><path class="blocklyPathLight" stroke="#ed4db8" d=" m 0,0  m 0.5,0.5  H 14.5  h 0.5  l 6,4  3,0  6,-4  H 141.1534881591797  H 141.1534881591797  M 0,27  m 2.6966991411008934,-2.6966991411008934 a 7.5 7.5 0 0,1 -2.1966991411008934,-5.303300858899107  V 0.5 &#10;"/><g class="blocklyEditableText" transform="translate(5,5)" style="cursor: default;"><rect rx="4" ry="4" x="0" y="0" height="18" width="82.53396606445312" class="blocklyFieldRect blocklyDropdownRect" stroke="#ed4db8" fill="transparent"/><text class="blocklyText blocklyDropdownText" text-anchor="start" x="5" y="14">izstopi iz<tspan style="fill: rgb(229, 0, 153);"> ▾</tspan></text><image style="display: none;"/></g><g transform="translate(92.53396606445312,5)"><text class="blocklyText" x="0" y="14">zanke</text></g></g><g transform="translate(10,5)"><text class="blocklyText" x="0" y="14">nastavi</text></g><g class="blocklyEditableText" transform="translate(61.44950866699219,5)" style="cursor: default;"><rect rx="4" ry="4" x="0" y="0" height="18" width="107.81671142578125" class="blocklyFieldRect blocklyDropdownRect" stroke="#b84ded" fill="transparent"/><text class="blocklyText blocklyDropdownText" text-anchor="start" x="5" y="14">zadnjiIndeks<tspan style="fill: rgb(153, 0, 229);"> ▾</tspan></text><image style="display: none;"/></g><g transform="translate(174.26622009277344,5)"><text class="blocklyText" x="0" y="14">na</text></g></g><g transform="translate(10,5)"><text class="blocklyText" x="0" y="14">komentiraj</text></g><g class="blocklyEditableText" transform="translate(82.62344360351562,5)" style="cursor: text;"><rect rx="4" ry="4" x="0" y="0" height="18" width="230.0213623046875" class="blocklyFieldRect"/><text class="blocklyText" x="5" y="14">njegov indeks in prekinimo zanko.</text></g></g><g transform="translate(10,5)"><text class="blocklyText" x="0" y="14">komentiraj</text></g><g class="blocklyEditableText" transform="translate(82.62344360351562,5)" style="cursor: text;"><rect rx="4" ry="4" x="0" y="0" height="18" width="264.2232360839844" class="blocklyFieldRect"/><text class="blocklyText" x="5" y="14">Našli smo negativni element. Shranimo</text></g></g><g transform="translate(37,5)"><text class="blocklyText" x="0" y="14">če</text></g><g transform="translate(10,54)"><text class="blocklyText" x="0" y="14">izvedi</text></g></g><g data-id="~2[E=fJj40~F(rpx.wv#" class="blocklyDraggable" transform="translate(0,238)"><path class="blocklyPathDark" transform="translate(1,1)" fill="#b79900" d=" m 0,0  h 15  l 6,4  3,0  6,-4  h 30.584075927734375  v 5  H 60.584075927734375  V 5  H 60.584075927734375  c 0,10  -8,-8  -8,7.5  s 8,-2.5  8,7.5  v 3  H 60.584075927734375  V 23  V 27  h -31.084075927734375  l -6,4  -3,0  -6,-4  h -6.5 a 8 8 0 0,1 -8,-8 z&#10;"/><path class="blocklyPath" stroke="none" fill="#e5bf00" d=" m 0,0  h 15  l 6,4  3,0  6,-4  h 30.584075927734375  v 5  H 60.584075927734375  V 5  H 60.584075927734375  c 0,10  -8,-8  -8,7.5  s 8,-2.5  8,7.5  v 3  H 60.584075927734375  V 23  V 27  h -31.084075927734375  l -6,4  -3,0  -6,-4  h -6.5 a 8 8 0 0,1 -8,-8 z&#10;"/><path class="blocklyPathLight" stroke="#edd24d" d=" m 0,0  m 0.5,0.5  H 14.5  h 0.5  l 6,4  3,0  6,-4  H 60.084075927734375  H 60.084075927734375  M 60.584075927734375,5  m -5,14.3  l 3.68,-2.1  M 0,27  m 2.6966991411008934,-2.6966991411008934 a 7.5 7.5 0 0,1 -2.1966991411008934,-5.303300858899107  V 0.5 &#10;"/><g data-id="7TU/dpflI*0_/a!qV/2q" class="blocklyDraggable" style="display: block;" transform="translate(53.584075927734375,0)"><path class="blocklyPathDark" transform="translate(1,1)" fill="#7a00b7" d=" m 8,0  h 117.81671142578125  v 5  H 125.81671142578125  V 5  H 125.81671142578125  V 23  H 125.81671142578125  V 23  V 27  h -117.81671142578125  H 8  V 20  c 0,-10  -8,8  -8,-7.5  s 8,2.5  8,-7.5 z&#10;"/><path class="blocklyPath" stroke="none" fill="#9900e5" d=" m 8,0  h 117.81671142578125  v 5  H 125.81671142578125  V 5  H 125.81671142578125  V 23  H 125.81671142578125  V 23  V 27  h -117.81671142578125  H 8  V 20  c 0,-10  -8,8  -8,-7.5  s 8,2.5  8,-7.5 z&#10;"/><path class="blocklyPathLight" stroke="#b84ded" d=" m 8,0  m 0.5,0.5  H 125.31671142578125  H 125.31671142578125  M 8.5,26.5  M 8.5,26.5  V 20  v -1.5  m -7.36,-0.5  q -1.52,-5.5  0,-11  m 7.36,1  V 0.5 &#10;"/><g class="blocklyEditableText" transform="translate(13,5)" style="cursor: default;"><rect rx="4" ry="4" x="0" y="0" height="18" width="107.81671142578125" class="blocklyFieldRect blocklyDropdownRect" stroke="#b84ded" fill="transparent"/><text class="blocklyText blocklyDropdownText" text-anchor="start" x="5" y="14">zadnjiIndeks<tspan style="fill: rgb(153, 0, 229);"> ▾</tspan></text><image style="display: none;"/></g></g><g transform="translate(10,5)"><text class="blocklyText" x="0" y="14">izpiši</text></g></g><g transform="translate(10,10)"><text class="blocklyText" x="0" y="14">za</text></g><g class="blocklyEditableText" transform="translate(30.483169555664062,10)" style="cursor: default;"><rect rx="4" ry="4" x="0" y="0" height="18" width="68.69718933105469" class="blocklyFieldRect blocklyDropdownRect" stroke="#ed4db8" fill="transparent"/><text class="blocklyText blocklyDropdownText" text-anchor="start" x="5" y="14">indeks<tspan style="fill: rgb(229, 0, 153);"> ▾</tspan></text><image style="display: none;"/></g><g transform="translate(104.18035888671875,10)"><text class="blocklyText" x="0" y="14">od</text></g><g transform="translate(405.56256103515625,10)"><text class="blocklyText" x="0" y="14">do</text></g><g transform="translate(482.90399169921875,10)"><text class="blocklyText" x="0" y="14">s korakom</text></g><g transform="translate(10,54)"><text class="blocklyText" x="0" y="14">izvedi</text></g></g><g transform="translate(10,5)"><text class="blocklyText" x="0" y="14">nastavi</text></g><g class="blocklyEditableText" transform="translate(61.44950866699219,5)" style="cursor: default;"><rect rx="4" ry="4" x="0" y="0" height="18" width="107.81671142578125" class="blocklyFieldRect blocklyDropdownRect" stroke="#b84ded" fill="transparent"/><text class="blocklyText blocklyDropdownText" text-anchor="start" x="5" y="14">zadnjiIndeks<tspan style="fill: rgb(153, 0, 229);"> ▾</tspan></text><image style="display: none;"/></g><g transform="translate(174.26622009277344,5)"><text class="blocklyText" x="0" y="14">na</text></g></g></g></svg>