<svg xmlns="http://www.w3.org/2000/svg" viewBox="22 7 380.2947998046875 340" class="blocklySvg geras-renderer rin_light-theme" width="380.2947998046875" height="340" style="background-color: transparent"><style xmlns="http://www.w3.org/1999/xhtml">.geras-renderer.rin_light-theme .blocklyText, 
.geras-renderer.rin_light-theme .blocklyFlyoutLabelText {
font: normal 11pt sans-serif;
}
.geras-renderer.rin_light-theme .blocklyText {
fill: #fff;
}
.geras-renderer.rin_light-theme .blocklyNonEditableText&gt;rect,
.geras-renderer.rin_light-theme .blocklyEditableText&gt;rect {
fill: #fff;
fill-opacity: .6;
stroke: none;
}
.geras-renderer.rin_light-theme .blocklyNonEditableText&gt;text,
.geras-renderer.rin_light-theme .blocklyEditableText&gt;text {
fill: #000;
}
.geras-renderer.rin_light-theme .blocklyFlyoutLabelText {
fill: #000;
}
.geras-renderer.rin_light-theme .blocklyText.blocklyBubbleText {
fill: #000;
}
.geras-renderer.rin_light-theme .blocklyEditableText:not(.editing):hover&gt;rect {
stroke: #fff;
stroke-width: 2;
}
.geras-renderer.rin_light-theme .blocklyHtmlInput {
font-family: sans-serif;
font-weight: normal;
}
.geras-renderer.rin_light-theme .blocklySelected&gt;.blocklyPath {
stroke: #fc3;
stroke-width: 3px;
}
.geras-renderer.rin_light-theme .blocklyHighlightedConnectionPath {
stroke: #fc3;
}
.geras-renderer.rin_light-theme .blocklyReplaceable .blocklyPath {
fill-opacity: .5;
}
.geras-renderer.rin_light-theme .blocklyReplaceable .blocklyPathLight,
.geras-renderer.rin_light-theme .blocklyReplaceable .blocklyPathDark {
display: none;
}
.geras-renderer.rin_light-theme .blocklyInsertionMarker&gt;.blocklyPath {
fill-opacity: 0.2;
stroke: none;
}
.geras-renderer.rin_light-theme .blocklyInsertionMarker&gt;.blocklyPathLight,
.geras-renderer.rin_light-theme .blocklyInsertionMarker&gt;.blocklyPathDark {
fill-opacity: 0.2;
stroke: none;
}
.blocklySvg {
background-color: #fff;
outline: none;
overflow: hidden;
position: absolute;
display: block;
}
.blocklyWidgetDiv {
display: none;
position: absolute;
z-index: 99999;
}
.injectionDiv {
height: 100%;
position: relative;
overflow: hidden;
touch-action: none;
}
.blocklyNonSelectable {
user-select: none;
-ms-user-select: none;
-webkit-user-select: none;
}
.blocklyWsDragSurface {
display: none;
position: absolute;
top: 0;
left: 0;
}
.blocklyWsDragSurface.blocklyOverflowVisible {
overflow: visible;
}
.blocklyBlockDragSurface {
display: none;
position: absolute;
top: 0;
left: 0;
right: 0;
bottom: 0;
overflow: visible !important;
z-index: 50;
}
.blocklyBlockCanvas.blocklyCanvasTransitioning,
.blocklyBubbleCanvas.blocklyCanvasTransitioning {
transition: transform .5s;
}
.blocklyTooltipDiv {
background-color: #ffffc7;
border: 1px solid #ddc;
box-shadow: 4px 4px 20px 1px rgba(0,0,0,.15);
color: #000;
display: none;
font: 9pt sans-serif;
opacity: .9;
padding: 2px;
position: absolute;
z-index: 100000;
}
.blocklyDropDownDiv {
position: absolute;
left: 0;
top: 0;
z-index: 1000;
display: none;
border: 1px solid;
border-color: #dadce0;
background-color: #fff;
border-radius: 2px;
padding: 4px;
box-shadow: 0 0 3px 1px rgba(0,0,0,.3);
}
.blocklyDropDownDiv.blocklyFocused {
box-shadow: 0 0 6px 1px rgba(0,0,0,.3);
}
.blocklyDropDownContent {
max-height: 300px;
overflow: auto;
overflow-x: hidden;
position: relative;
}
.blocklyDropDownArrow {
position: absolute;
left: 0;
top: 0;
width: 16px;
height: 16px;
z-index: -1;
background-color: inherit;
border-color: inherit;
}
.blocklyDropDownButton {
display: inline-block;
float: left;
padding: 0;
margin: 4px;
border-radius: 4px;
outline: none;
border: 1px solid;
transition: box-shadow .1s;
cursor: pointer;
}
.blocklyArrowTop {
border-top: 1px solid;
border-left: 1px solid;
border-top-left-radius: 4px;
border-color: inherit;
}
.blocklyArrowBottom {
border-bottom: 1px solid;
border-right: 1px solid;
border-bottom-right-radius: 4px;
border-color: inherit;
}
.blocklyResizeSE {
cursor: se-resize;
fill: #aaa;
}
.blocklyResizeSW {
cursor: sw-resize;
fill: #aaa;
}
.blocklyResizeLine {
stroke: #515A5A;
stroke-width: 1;
}
.blocklyHighlightedConnectionPath {
fill: none;
stroke: #fc3;
stroke-width: 4px;
}
.blocklyPathLight {
fill: none;
stroke-linecap: round;
stroke-width: 1;
}
.blocklySelected&gt;.blocklyPathLight {
display: none;
}
.blocklyDraggable {
cursor: url("blockly/media/handopen.cur"), auto;
cursor: grab;
cursor: -webkit-grab;
}
.blocklyDragging {
cursor: url("blockly/media/handclosed.cur"), auto;
cursor: grabbing;
cursor: -webkit-grabbing;
}
.blocklyDraggable:active {
cursor: url("blockly/media/handclosed.cur"), auto;
cursor: grabbing;
cursor: -webkit-grabbing;
}
.blocklyBlockDragSurface .blocklyDraggable {
cursor: url("blockly/media/handclosed.cur"), auto;
cursor: grabbing;
cursor: -webkit-grabbing;
}
.blocklyDragging.blocklyDraggingDelete {
cursor: url("blockly/media/handdelete.cur"), auto;
}
.blocklyDragging&gt;.blocklyPath,
.blocklyDragging&gt;.blocklyPathLight {
fill-opacity: .8;
stroke-opacity: .8;
}
.blocklyDragging&gt;.blocklyPathDark {
display: none;
}
.blocklyDisabled&gt;.blocklyPath {
fill-opacity: .5;
stroke-opacity: .5;
}
.blocklyDisabled&gt;.blocklyPathLight,
.blocklyDisabled&gt;.blocklyPathDark {
display: none;
}
.blocklyInsertionMarker&gt;.blocklyPath,
.blocklyInsertionMarker&gt;.blocklyPathLight,
.blocklyInsertionMarker&gt;.blocklyPathDark {
fill-opacity: .2;
stroke: none;
}
.blocklyMultilineText {
font-family: monospace;
}
.blocklyNonEditableText&gt;text {
pointer-events: none;
}
.blocklyFlyout {
position: absolute;
z-index: 20;
}
.blocklyText text {
cursor: default;
}
.blocklySvg text,
.blocklyBlockDragSurface text {
user-select: none;
-ms-user-select: none;
-webkit-user-select: none;
cursor: inherit;
}
.blocklyHidden {
display: none;
}
.blocklyFieldDropdown:not(.blocklyHidden) {
display: block;
}
.blocklyIconGroup {
cursor: default;
}
.blocklyIconGroup:not(:hover),
.blocklyIconGroupReadonly {
opacity: .6;
}
.blocklyIconShape {
fill: #00f;
stroke: #fff;
stroke-width: 1px;
}
.blocklyIconSymbol {
fill: #fff;
}
.blocklyMinimalBody {
margin: 0;
padding: 0;
}
.blocklyHtmlInput {
border: none;
border-radius: 4px;
height: 100%;
margin: 0;
outline: none;
padding: 0;
width: 100%;
text-align: center;
display: block;
box-sizing: border-box;
}
.blocklyHtmlInput::-ms-clear {
display: none;
}
.blocklyMainBackground {
stroke-width: 1;
stroke: #c6c6c6;
}
.blocklyMutatorBackground {
fill: #fff;
stroke: #ddd;
stroke-width: 1;
}
.blocklyFlyoutBackground {
fill: #ddd;
fill-opacity: .8;
}
.blocklyMainWorkspaceScrollbar {
z-index: 20;
}
.blocklyFlyoutScrollbar {
z-index: 30;
}
.blocklyScrollbarHorizontal,
.blocklyScrollbarVertical {
position: absolute;
outline: none;
}
.blocklyScrollbarBackground {
opacity: 0;
}
.blocklyScrollbarHandle {
fill: #ccc;
}
.blocklyScrollbarBackground:hover+.blocklyScrollbarHandle,
.blocklyScrollbarHandle:hover {
fill: #bbb;
}
.blocklyFlyout .blocklyScrollbarHandle {
fill: #bbb;
}
.blocklyFlyout .blocklyScrollbarBackground:hover+.blocklyScrollbarHandle,
.blocklyFlyout .blocklyScrollbarHandle:hover {
fill: #aaa;
}
.blocklyInvalidInput {
background: #faa;
}
.blocklyVerticalMarker {
stroke-width: 3px;
fill: rgba(255,255,255,.5);
pointer-events: none;
}
.blocklyComputeCanvas {
position: absolute;
width: 0;
height: 0;
}
.blocklyNoPointerEvents {
pointer-events: none;
}
.blocklyContextMenu {
border-radius: 4px;
max-height: 100%;
}
.blocklyDropdownMenu {
border-radius: 2px;
padding: 0 !important;
}
.blocklyDropdownMenu .blocklyMenuItem {
padding-left: 28px;
}
.blocklyDropdownMenu .blocklyMenuItemRtl {
padding-left: 5px;
padding-right: 28px;
}
.blocklyWidgetDiv .blocklyMenu {
background: #fff;
border: 1px solid transparent;
box-shadow: 0 0 3px 1px rgba(0,0,0,.3);
font: normal 13px Arial, sans-serif;
margin: 0;
outline: none;
padding: 4px 0;
position: absolute;
overflow-y: auto;
overflow-x: hidden;
max-height: 100%;
z-index: 20000;
}
.blocklyWidgetDiv .blocklyMenu.blocklyFocused {
box-shadow: 0 0 6px 1px rgba(0,0,0,.3);
}
.blocklyDropDownDiv .blocklyMenu {
font: normal 13px "Helvetica Neue", Helvetica, sans-serif;
outline: none;
z-index: 20000;
}
.blocklyMenuItem {
border: none;
color: #000;
cursor: pointer;
list-style: none;
margin: 0;
min-width: 7em;
padding: 6px 15px;
white-space: nowrap;
}
.blocklyMenuItemDisabled {
color: #ccc;
cursor: inherit;
}
.blocklyMenuItemHighlight {
background-color: rgba(0,0,0,.1);
}
.blocklyMenuItemCheckbox {
height: 16px;
position: absolute;
width: 16px;
}
.blocklyMenuItemSelected .blocklyMenuItemCheckbox {
background: url(blockly/media/sprites.png) no-repeat -48px -16px;
float: left;
margin-left: -24px;
position: static;
}
.blocklyMenuItemRtl .blocklyMenuItemCheckbox {
float: right;
margin-right: -24px;
}
.blocklyCommentTextarea {
background-color: #fef49c;
border: 0;
outline: 0;
margin: 0;
padding: 3px;
resize: none;
display: block;
overflow: hidden;
}
.blocklyFlyoutButton {
fill: #888;
cursor: default;
}
.blocklyFlyoutButtonShadow {
fill: #666;
}
.blocklyFlyoutButton:hover {
fill: #aaa;
}
.blocklyFlyoutLabel {
cursor: default;
}
.blocklyFlyoutLabelBackground {
opacity: 0;
}
.blocklyTreeRow:not(.blocklyTreeSelected):hover {
background-color: rgba(255, 255, 255, 0.2);
}
.blocklyToolboxDiv[layout="h"] .blocklyToolboxCategory {
margin: 1px 5px 1px 0;
}
.blocklyToolboxDiv[dir="RTL"][layout="h"] .blocklyToolboxCategory {
margin: 1px 0 1px 5px;
}
.blocklyTreeRow {
height: 22px;
line-height: 22px;
margin-bottom: 3px;
padding-right: 8px;
white-space: nowrap;
}
.blocklyToolboxDiv[dir="RTL"] .blocklyTreeRow {
margin-left: 8px;
padding-right: 0px
}
.blocklyTreeIcon {
background-image: url(blockly/media/sprites.png);
height: 16px;
vertical-align: middle;
visibility: hidden;
width: 16px;
}
.blocklyTreeIconClosed {
background-position: -32px -1px;
}
.blocklyToolboxDiv[dir="RTL"] .blocklyTreeIconClosed {
background-position: 0 -1px;
}
.blocklyTreeSelected&gt;.blocklyTreeIconClosed {
background-position: -32px -17px;
}
.blocklyToolboxDiv[dir="RTL"] .blocklyTreeSelected&gt;.blocklyTreeIconClosed {
background-position: 0 -17px;
}
.blocklyTreeIconOpen {
background-position: -16px -1px;
}
.blocklyTreeSelected&gt;.blocklyTreeIconOpen {
background-position: -16px -17px;
}
.blocklyTreeLabel {
cursor: default;
font: 16px sans-serif;
padding: 0 3px;
vertical-align: middle;
}
.blocklyToolboxDelete .blocklyTreeLabel {
cursor: url("blockly/media/handdelete.cur"), auto;
}
.blocklyTreeSelected .blocklyTreeLabel {
color: #fff;
}
.blocklyTreeSeparator {
border-bottom: solid #e5e5e5 1px;
height: 0;
margin: 5px 0;
}
.blocklyToolboxDiv[layout="h"] .blocklyTreeSeparator {
border-right: solid #e5e5e5 1px;
border-bottom: none;
height: auto;
margin: 0 5px 0 5px;
padding: 5px 0;
width: 0;
}
.blocklyToolboxDelete {
cursor: url("blockly/media/handdelete.cur"), auto;
}
.blocklyToolboxGrab {
cursor: url("blockly/media/handclosed.cur"), auto;
cursor: grabbing;
cursor: -webkit-grabbing;
}
.blocklyToolboxDiv {
background-color: #ddd;
overflow-x: visible;
overflow-y: auto;
padding: 4px 0 4px 0;
position: absolute;
z-index: 70;
-webkit-tap-highlight-color: transparent;
}
.blocklyToolboxContents {
display: flex;
flex-wrap: wrap;
flex-direction: column;
}
.blocklyToolboxContents:focus {
outline: none;
}
.blocklyZoom&gt;image, .blocklyZoom&gt;svg&gt;image {
opacity: .4;
}
.blocklyZoom&gt;image:hover, .blocklyZoom&gt;svg&gt;image:hover {
opacity: .6;
}
.blocklyZoom&gt;image:active, .blocklyZoom&gt;svg&gt;image:active {
opacity: .8;
}
.blocklyAngleCircle {
stroke: #444;
stroke-width: 1;
fill: #ddd;
fill-opacity: .8;
}
.blocklyAngleMarks {
stroke: #444;
stroke-width: 1;
}
.blocklyAngleGauge {
fill: #f88;
fill-opacity: .8;
pointer-events: none;
}
.blocklyAngleLine {
stroke: #f00;
stroke-width: 2;
stroke-linecap: round;
pointer-events: none;
}
.blocklyColourTable {
border-collapse: collapse;
display: block;
outline: none;
padding: 1px;
}
.blocklyColourTable&gt;tr&gt;td {
border: .5px solid #888;
box-sizing: border-box;
cursor: pointer;
display: inline-block;
height: 20px;
padding: 0;
width: 20px;
}
.blocklyColourTable&gt;tr&gt;td.blocklyColourHighlighted {
border-color: #eee;
box-shadow: 2px 2px 7px 2px rgba(0,0,0,.3);
position: relative;
}
.blocklyColourSelected, .blocklyColourSelected:hover {
border-color: #eee !important;
outline: 1px solid #333;
position: relative;
}
.blocklyHtmlTextAreaInput {
font-family: monospace;
resize: none;
overflow: hidden;
height: 100%;
text-align: left;
}
undefined</style><g class="blocklyBlockCanvas"><g class="blocklyMarker"><g width="100" height="5"><rect width="100" height="5" style="display: none"/><rect class="blocklyVerticalMarker" rx="10" ry="10" style="display: none"/><path transform="" style="display: none"/><path transform="" style="display: none" fill="none" stroke-width="4"/></g></g><g class="blocklyCursor"><g width="100" height="5"><rect width="100" height="5" style="display: none"><animate attributeType="XML" attributeName="fill" dur="1s" values="#cc0a0a;transparent;transparent;" repeatCount="indefinite"/></rect><rect class="blocklyVerticalMarker" rx="10" ry="10" style="display: none"/><path transform="" style="display: none"><animate attributeType="XML" attributeName="fill" dur="1s" values="#cc0a0a;transparent;transparent;" repeatCount="indefinite"/></path><path transform="" style="display: none" fill="none" stroke-width="4"><animate attributeType="XML" attributeName="stroke" dur="1s" values="#cc0a0a;transparent;transparent;" repeatCount="indefinite"/></path></g></g><g data-id=",Z[mpimt~A+N^$k.Ogz/" class="blocklyDraggable" transform="translate(22,7)"><path class="blocklyPathDark" transform="translate(1,1)" fill="#7a00b7" d=" m 0,0  m 0,8 a 8 8 0 0,1 8,-8  h 7  l 6,4  3,0  6,-4  h 145.98133850097656  v 5  H 175.98133850097656  V 5  H 175.98133850097656  c 0,10  -8,-8  -8,7.5  s 8,-2.5  8,7.5  v 311  H 175.98133850097656  V 331  V 335  h -146.48133850097656  l -6,4  -3,0  -6,-4  h -6.5 a 8 8 0 0,1 -8,-8 z&#10;"/><path class="blocklyPath" stroke="none" fill="#9900e5" d=" m 0,0  m 0,8 a 8 8 0 0,1 8,-8  h 7  l 6,4  3,0  6,-4  h 145.98133850097656  v 5  H 175.98133850097656  V 5  H 175.98133850097656  c 0,10  -8,-8  -8,7.5  s 8,-2.5  8,7.5  v 311  H 175.98133850097656  V 331  V 335  h -146.48133850097656  l -6,4  -3,0  -6,-4  h -6.5 a 8 8 0 0,1 -8,-8 z&#10;"/><path class="blocklyPathLight" stroke="#b84ded" d=" m 0,0  m 0.5,8 a 7.5 7.5 0 0,1 8,-7.5  H 14.5  h 0.5  l 6,4  3,0  6,-4  H 175.48133850097656  H 175.48133850097656  M 175.98133850097656,5  m -5,14.3  l 3.68,-2.1  M 0,335  m 2.6966991411008934,-2.6966991411008934 a 7.5 7.5 0 0,1 -2.1966991411008934,-5.303300858899107  V 8 &#10;"/><g data-id="lHOZn=FY%p.,1={peQ~8" class="blocklyDraggable" style="display: block;" transform="translate(168.98133850097656,0)"><path class="blocklyPathDark" transform="translate(1,1)" fill="#b71e00" d=" m 8,0  h 156.85391235351562  v 5  H 164.85391235351562  V 5  H 164.85391235351562  c 0,10  -8,-8  -8,7.5  s 8,-2.5  8,7.5  v 3  H 164.85391235351562  V 33  H 164.85391235351562  c 0,10  -8,-8  -8,7.5  s 8,-2.5  8,7.5  v 3  H 164.85391235351562  V 61  H 164.85391235351562  c 0,10  -8,-8  -8,7.5  s 8,-2.5  8,7.5  v 3  H 164.85391235351562  V 89  H 164.85391235351562  c 0,10  -8,-8  -8,7.5  s 8,-2.5  8,7.5  v 3  H 164.85391235351562  V 117  H 164.85391235351562  c 0,10  -8,-8  -8,7.5  s 8,-2.5  8,7.5  v 3  H 164.85391235351562  V 145  H 164.85391235351562  c 0,10  -8,-8  -8,7.5  s 8,-2.5  8,7.5  v 3  H 164.85391235351562  V 173  H 164.85391235351562  c 0,10  -8,-8  -8,7.5  s 8,-2.5  8,7.5  v 3  H 164.85391235351562  V 201  H 164.85391235351562  c 0,10  -8,-8  -8,7.5  s 8,-2.5  8,7.5  v 3  H 164.85391235351562  V 229  H 164.85391235351562  c 0,10  -8,-8  -8,7.5  s 8,-2.5  8,7.5  v 3  H 164.85391235351562  V 257  H 164.85391235351562  c 0,10  -8,-8  -8,7.5  s 8,-2.5  8,7.5  v 3  H 164.85391235351562  V 285  H 164.85391235351562  c 0,10  -8,-8  -8,7.5  s 8,-2.5  8,7.5  v 3  H 164.85391235351562  V 313  H 164.85391235351562  c 0,10  -8,-8  -8,7.5  s 8,-2.5  8,7.5  v 3  H 164.85391235351562  V 331  V 335  h -156.85391235351562  H 8  V 20  c 0,-10  -8,8  -8,-7.5  s 8,2.5  8,-7.5 z&#10;"/><path class="blocklyPath" stroke="none" fill="#e52600" d=" m 8,0  h 156.85391235351562  v 5  H 164.85391235351562  V 5  H 164.85391235351562  c 0,10  -8,-8  -8,7.5  s 8,-2.5  8,7.5  v 3  H 164.85391235351562  V 33  H 164.85391235351562  c 0,10  -8,-8  -8,7.5  s 8,-2.5  8,7.5  v 3  H 164.85391235351562  V 61  H 164.85391235351562  c 0,10  -8,-8  -8,7.5  s 8,-2.5  8,7.5  v 3  H 164.85391235351562  V 89  H 164.85391235351562  c 0,10  -8,-8  -8,7.5  s 8,-2.5  8,7.5  v 3  H 164.85391235351562  V 117  H 164.85391235351562  c 0,10  -8,-8  -8,7.5  s 8,-2.5  8,7.5  v 3  H 164.85391235351562  V 145  H 164.85391235351562  c 0,10  -8,-8  -8,7.5  s 8,-2.5  8,7.5  v 3  H 164.85391235351562  V 173  H 164.85391235351562  c 0,10  -8,-8  -8,7.5  s 8,-2.5  8,7.5  v 3  H 164.85391235351562  V 201  H 164.85391235351562  c 0,10  -8,-8  -8,7.5  s 8,-2.5  8,7.5  v 3  H 164.85391235351562  V 229  H 164.85391235351562  c 0,10  -8,-8  -8,7.5  s 8,-2.5  8,7.5  v 3  H 164.85391235351562  V 257  H 164.85391235351562  c 0,10  -8,-8  -8,7.5  s 8,-2.5  8,7.5  v 3  H 164.85391235351562  V 285  H 164.85391235351562  c 0,10  -8,-8  -8,7.5  s 8,-2.5  8,7.5  v 3  H 164.85391235351562  V 313  H 164.85391235351562  c 0,10  -8,-8  -8,7.5  s 8,-2.5  8,7.5  v 3  H 164.85391235351562  V 331  V 335  h -156.85391235351562  H 8  V 20  c 0,-10  -8,8  -8,-7.5  s 8,2.5  8,-7.5 z&#10;"/><path class="blocklyPathLight" stroke="#ed674d" d=" m 8,0  m 0.5,0.5  H 164.35391235351562  H 164.35391235351562  M 164.85391235351562,5  m -5,14.3  l 3.68,-2.1  M 164.85391235351562,33  m -5,14.3  l 3.68,-2.1  M 164.85391235351562,61  m -5,14.3  l 3.68,-2.1  M 164.85391235351562,89  m -5,14.3  l 3.68,-2.1  M 164.85391235351562,117  m -5,14.3  l 3.68,-2.1  M 164.85391235351562,145  m -5,14.3  l 3.68,-2.1  M 164.85391235351562,173  m -5,14.3  l 3.68,-2.1  M 164.85391235351562,201  m -5,14.3  l 3.68,-2.1  M 164.85391235351562,229  m -5,14.3  l 3.68,-2.1  M 164.85391235351562,257  m -5,14.3  l 3.68,-2.1  M 164.85391235351562,285  m -5,14.3  l 3.68,-2.1  M 164.85391235351562,313  m -5,14.3  l 3.68,-2.1  M 8.5,334.5  M 8.5,334.5  V 20  v -1.5  m -7.36,-0.5  q -1.52,-5.5  0,-11  m 7.36,1  V 0.5 &#10;"/><g class="blocklyIconGroup" display="block" transform="translate(18,5)"><rect class="blocklyIconShape" rx="4" ry="4" height="16" width="16"/><path class="blocklyIconSymbol" d="m4.203,7.296 0,1.368 -0.92,0.677 -0.11,0.41 0.9,1.559 0.41,0.11 1.043,-0.457 1.187,0.683 0.127,1.134 0.3,0.3 1.8,0 0.3,-0.299 0.127,-1.138 1.185,-0.682 1.046,0.458 0.409,-0.11 0.9,-1.559 -0.11,-0.41 -0.92,-0.677 0,-1.366 0.92,-0.677 0.11,-0.41 -0.9,-1.559 -0.409,-0.109 -1.046,0.458 -1.185,-0.682 -0.127,-1.138 -0.3,-0.299 -1.8,0 -0.3,0.3 -0.126,1.135 -1.187,0.682 -1.043,-0.457 -0.41,0.11 -0.899,1.559 0.108,0.409z"/><circle class="blocklyIconShape" r="2.7" cx="8" cy="8"/></g><g data-id="+cowKR(h?5(|#Kq%bhAy" class="blocklyDraggable" style="display: block;" transform="translate(157.85391235351562,0)"><path class="blocklyPathDark" transform="translate(1,1)" fill="#003db7" d=" m 8,0  h 44.45954895019531  v 5  H 52.45954895019531  V 5  H 52.45954895019531  V 23  H 52.45954895019531  V 23  V 27  h -44.45954895019531  H 8  V 20  c 0,-10  -8,8  -8,-7.5  s 8,2.5  8,-7.5 z&#10;"/><path class="blocklyPath" stroke="none" fill="#004ce5" d=" m 8,0  h 44.45954895019531  v 5  H 52.45954895019531  V 5  H 52.45954895019531  V 23  H 52.45954895019531  V 23  V 27  h -44.45954895019531  H 8  V 20  c 0,-10  -8,8  -8,-7.5  s 8,2.5  8,-7.5 z&#10;"/><path class="blocklyPathLight" stroke="#4d82ed" d=" m 8,0  m 0.5,0.5  H 51.95954895019531  H 51.95954895019531  M 8.5,26.5  M 8.5,26.5  V 20  v -1.5  m -7.36,-0.5  q -1.52,-5.5  0,-11  m 7.36,1  V 0.5 &#10;"/><g class="blocklyEditableText" transform="translate(13,5)" style="cursor: text;"><rect rx="4" ry="4" x="0" y="0" height="18" width="34.45954895019531" class="blocklyFieldRect"/><text class="blocklyText" x="5" y="14">182</text></g></g><g data-id=")hk:]N]tn#J/^/cQg!$%" class="blocklyDraggable" style="display: block;" transform="translate(157.85391235351562,28)"><path class="blocklyPathDark" transform="translate(1,1)" fill="#003db7" d=" m 8,0  h 44.45954895019531  v 5  H 52.45954895019531  V 5  H 52.45954895019531  V 23  H 52.45954895019531  V 23  V 27  h -44.45954895019531  H 8  V 20  c 0,-10  -8,8  -8,-7.5  s 8,2.5  8,-7.5 z&#10;"/><path class="blocklyPath" stroke="none" fill="#004ce5" d=" m 8,0  h 44.45954895019531  v 5  H 52.45954895019531  V 5  H 52.45954895019531  V 23  H 52.45954895019531  V 23  V 27  h -44.45954895019531  H 8  V 20  c 0,-10  -8,8  -8,-7.5  s 8,2.5  8,-7.5 z&#10;"/><path class="blocklyPathLight" stroke="#4d82ed" d=" m 8,0  m 0.5,0.5  H 51.95954895019531  H 51.95954895019531  M 8.5,26.5  M 8.5,26.5  V 20  v -1.5  m -7.36,-0.5  q -1.52,-5.5  0,-11  m 7.36,1  V 0.5 &#10;"/><g class="blocklyEditableText" transform="translate(13,5)" style="cursor: text;"><rect rx="4" ry="4" x="0" y="0" height="18" width="34.45954895019531" class="blocklyFieldRect"/><text class="blocklyText" x="5" y="14">250</text></g></g><g data-id="OX_No,mArk.Ifz%2XV,o" class="blocklyDraggable" style="display: block;" transform="translate(157.85391235351562,56)"><path class="blocklyPathDark" transform="translate(1,1)" fill="#003db7" d=" m 8,0  h 44.45954895019531  v 5  H 52.45954895019531  V 5  H 52.45954895019531  V 23  H 52.45954895019531  V 23  V 27  h -44.45954895019531  H 8  V 20  c 0,-10  -8,8  -8,-7.5  s 8,2.5  8,-7.5 z&#10;"/><path class="blocklyPath" stroke="none" fill="#004ce5" d=" m 8,0  h 44.45954895019531  v 5  H 52.45954895019531  V 5  H 52.45954895019531  V 23  H 52.45954895019531  V 23  V 27  h -44.45954895019531  H 8  V 20  c 0,-10  -8,8  -8,-7.5  s 8,2.5  8,-7.5 z&#10;"/><path class="blocklyPathLight" stroke="#4d82ed" d=" m 8,0  m 0.5,0.5  H 51.95954895019531  H 51.95954895019531  M 8.5,26.5  M 8.5,26.5  V 20  v -1.5  m -7.36,-0.5  q -1.52,-5.5  0,-11  m 7.36,1  V 0.5 &#10;"/><g class="blocklyEditableText" transform="translate(13,5)" style="cursor: text;"><rect rx="4" ry="4" x="0" y="0" height="18" width="34.45954895019531" class="blocklyFieldRect"/><text class="blocklyText" x="5" y="14">225</text></g></g><g data-id="8`1T!ZSO$Uqr9O`/,5$z" class="blocklyDraggable" style="display: block;" transform="translate(157.85391235351562,84)"><path class="blocklyPathDark" transform="translate(1,1)" fill="#003db7" d=" m 8,0  h 44.45954895019531  v 5  H 52.45954895019531  V 5  H 52.45954895019531  V 23  H 52.45954895019531  V 23  V 27  h -44.45954895019531  H 8  V 20  c 0,-10  -8,8  -8,-7.5  s 8,2.5  8,-7.5 z&#10;"/><path class="blocklyPath" stroke="none" fill="#004ce5" d=" m 8,0  h 44.45954895019531  v 5  H 52.45954895019531  V 5  H 52.45954895019531  V 23  H 52.45954895019531  V 23  V 27  h -44.45954895019531  H 8  V 20  c 0,-10  -8,8  -8,-7.5  s 8,2.5  8,-7.5 z&#10;"/><path class="blocklyPathLight" stroke="#4d82ed" d=" m 8,0  m 0.5,0.5  H 51.95954895019531  H 51.95954895019531  M 8.5,26.5  M 8.5,26.5  V 20  v -1.5  m -7.36,-0.5  q -1.52,-5.5  0,-11  m 7.36,1  V 0.5 &#10;"/><g class="blocklyEditableText" transform="translate(13,5)" style="cursor: text;"><rect rx="4" ry="4" x="0" y="0" height="18" width="34.45954895019531" class="blocklyFieldRect"/><text class="blocklyText" x="5" y="14">315</text></g></g><g data-id=";gdFmG1n6m*O87@d=i$Y" class="blocklyDraggable" style="display: block;" transform="translate(157.85391235351562,112)"><path class="blocklyPathDark" transform="translate(1,1)" fill="#003db7" d=" m 8,0  h 44.45954895019531  v 5  H 52.45954895019531  V 5  H 52.45954895019531  V 23  H 52.45954895019531  V 23  V 27  h -44.45954895019531  H 8  V 20  c 0,-10  -8,8  -8,-7.5  s 8,2.5  8,-7.5 z&#10;"/><path class="blocklyPath" stroke="none" fill="#004ce5" d=" m 8,0  h 44.45954895019531  v 5  H 52.45954895019531  V 5  H 52.45954895019531  V 23  H 52.45954895019531  V 23  V 27  h -44.45954895019531  H 8  V 20  c 0,-10  -8,8  -8,-7.5  s 8,2.5  8,-7.5 z&#10;"/><path class="blocklyPathLight" stroke="#4d82ed" d=" m 8,0  m 0.5,0.5  H 51.95954895019531  H 51.95954895019531  M 8.5,26.5  M 8.5,26.5  V 20  v -1.5  m -7.36,-0.5  q -1.52,-5.5  0,-11  m 7.36,1  V 0.5 &#10;"/><g class="blocklyEditableText" transform="translate(13,5)" style="cursor: text;"><rect rx="4" ry="4" x="0" y="0" height="18" width="34.45954895019531" class="blocklyFieldRect"/><text class="blocklyText" x="5" y="14">328</text></g></g><g data-id="zrRu$B;`~{au4KO=UwR{" class="blocklyDraggable" style="display: block;" transform="translate(157.85391235351562,140)"><path class="blocklyPathDark" transform="translate(1,1)" fill="#003db7" d=" m 8,0  h 44.45954895019531  v 5  H 52.45954895019531  V 5  H 52.45954895019531  V 23  H 52.45954895019531  V 23  V 27  h -44.45954895019531  H 8  V 20  c 0,-10  -8,8  -8,-7.5  s 8,2.5  8,-7.5 z&#10;"/><path class="blocklyPath" stroke="none" fill="#004ce5" d=" m 8,0  h 44.45954895019531  v 5  H 52.45954895019531  V 5  H 52.45954895019531  V 23  H 52.45954895019531  V 23  V 27  h -44.45954895019531  H 8  V 20  c 0,-10  -8,8  -8,-7.5  s 8,2.5  8,-7.5 z&#10;"/><path class="blocklyPathLight" stroke="#4d82ed" d=" m 8,0  m 0.5,0.5  H 51.95954895019531  H 51.95954895019531  M 8.5,26.5  M 8.5,26.5  V 20  v -1.5  m -7.36,-0.5  q -1.52,-5.5  0,-11  m 7.36,1  V 0.5 &#10;"/><g class="blocklyEditableText" transform="translate(13,5)" style="cursor: text;"><rect rx="4" ry="4" x="0" y="0" height="18" width="34.45954895019531" class="blocklyFieldRect"/><text class="blocklyText" x="5" y="14">160</text></g></g><g data-id="+RrU#{/a:K$@C;4+1LQn" class="blocklyDraggable" style="display: block;" transform="translate(157.85391235351562,168)"><path class="blocklyPathDark" transform="translate(1,1)" fill="#003db7" d=" m 8,0  h 36.306365966796875  v 5  H 44.306365966796875  V 5  H 44.306365966796875  V 23  H 44.306365966796875  V 23  V 27  h -36.306365966796875  H 8  V 20  c 0,-10  -8,8  -8,-7.5  s 8,2.5  8,-7.5 z&#10;"/><path class="blocklyPath" stroke="none" fill="#004ce5" d=" m 8,0  h 36.306365966796875  v 5  H 44.306365966796875  V 5  H 44.306365966796875  V 23  H 44.306365966796875  V 23  V 27  h -36.306365966796875  H 8  V 20  c 0,-10  -8,8  -8,-7.5  s 8,2.5  8,-7.5 z&#10;"/><path class="blocklyPathLight" stroke="#4d82ed" d=" m 8,0  m 0.5,0.5  H 43.806365966796875  H 43.806365966796875  M 8.5,26.5  M 8.5,26.5  V 20  v -1.5  m -7.36,-0.5  q -1.52,-5.5  0,-11  m 7.36,1  V 0.5 &#10;"/><g class="blocklyEditableText" transform="translate(13,5)" style="cursor: text;"><rect rx="4" ry="4" x="0" y="0" height="18" width="26.306365966796875" class="blocklyFieldRect"/><text class="blocklyText" x="5" y="14">51</text></g></g><g data-id="#3oD@OVf30(6NKIa)VC5" class="blocklyDraggable" style="display: block;" transform="translate(157.85391235351562,196)"><path class="blocklyPathDark" transform="translate(1,1)" fill="#003db7" d=" m 8,0  h 36.306365966796875  v 5  H 44.306365966796875  V 5  H 44.306365966796875  V 23  H 44.306365966796875  V 23  V 27  h -36.306365966796875  H 8  V 20  c 0,-10  -8,8  -8,-7.5  s 8,2.5  8,-7.5 z&#10;"/><path class="blocklyPath" stroke="none" fill="#004ce5" d=" m 8,0  h 36.306365966796875  v 5  H 44.306365966796875  V 5  H 44.306365966796875  V 23  H 44.306365966796875  V 23  V 27  h -36.306365966796875  H 8  V 20  c 0,-10  -8,8  -8,-7.5  s 8,2.5  8,-7.5 z&#10;"/><path class="blocklyPathLight" stroke="#4d82ed" d=" m 8,0  m 0.5,0.5  H 43.806365966796875  H 43.806365966796875  M 8.5,26.5  M 8.5,26.5  V 20  v -1.5  m -7.36,-0.5  q -1.52,-5.5  0,-11  m 7.36,1  V 0.5 &#10;"/><g class="blocklyEditableText" transform="translate(13,5)" style="cursor: text;"><rect rx="4" ry="4" x="0" y="0" height="18" width="26.306365966796875" class="blocklyFieldRect"/><text class="blocklyText" x="5" y="14">36</text></g></g><g data-id="lUwb1fjPBelKZ1dQ).wv" class="blocklyDraggable" style="display: block;" transform="translate(157.85391235351562,224)"><path class="blocklyPathDark" transform="translate(1,1)" fill="#003db7" d=" m 8,0  h 44.45954895019531  v 5  H 52.45954895019531  V 5  H 52.45954895019531  V 23  H 52.45954895019531  V 23  V 27  h -44.45954895019531  H 8  V 20  c 0,-10  -8,8  -8,-7.5  s 8,2.5  8,-7.5 z&#10;"/><path class="blocklyPath" stroke="none" fill="#004ce5" d=" m 8,0  h 44.45954895019531  v 5  H 52.45954895019531  V 5  H 52.45954895019531  V 23  H 52.45954895019531  V 23  V 27  h -44.45954895019531  H 8  V 20  c 0,-10  -8,8  -8,-7.5  s 8,2.5  8,-7.5 z&#10;"/><path class="blocklyPathLight" stroke="#4d82ed" d=" m 8,0  m 0.5,0.5  H 51.95954895019531  H 51.95954895019531  M 8.5,26.5  M 8.5,26.5  V 20  v -1.5  m -7.36,-0.5  q -1.52,-5.5  0,-11  m 7.36,1  V 0.5 &#10;"/><g class="blocklyEditableText" transform="translate(13,5)" style="cursor: text;"><rect rx="4" ry="4" x="0" y="0" height="18" width="34.45954895019531" class="blocklyFieldRect"/><text class="blocklyText" x="5" y="14">340</text></g></g><g data-id="+DSipVcIRY4vwUFXTYQp" class="blocklyDraggable" style="display: block;" transform="translate(157.85391235351562,252)"><path class="blocklyPathDark" transform="translate(1,1)" fill="#003db7" d=" m 8,0  h 44.45954895019531  v 5  H 52.45954895019531  V 5  H 52.45954895019531  V 23  H 52.45954895019531  V 23  V 27  h -44.45954895019531  H 8  V 20  c 0,-10  -8,8  -8,-7.5  s 8,2.5  8,-7.5 z&#10;"/><path class="blocklyPath" stroke="none" fill="#004ce5" d=" m 8,0  h 44.45954895019531  v 5  H 52.45954895019531  V 5  H 52.45954895019531  V 23  H 52.45954895019531  V 23  V 27  h -44.45954895019531  H 8  V 20  c 0,-10  -8,8  -8,-7.5  s 8,2.5  8,-7.5 z&#10;"/><path class="blocklyPathLight" stroke="#4d82ed" d=" m 8,0  m 0.5,0.5  H 51.95954895019531  H 51.95954895019531  M 8.5,26.5  M 8.5,26.5  V 20  v -1.5  m -7.36,-0.5  q -1.52,-5.5  0,-11  m 7.36,1  V 0.5 &#10;"/><g class="blocklyEditableText" transform="translate(13,5)" style="cursor: text;"><rect rx="4" ry="4" x="0" y="0" height="18" width="34.45954895019531" class="blocklyFieldRect"/><text class="blocklyText" x="5" y="14">280</text></g></g><g data-id="[M^4zXhzY8jZgS}HW7?]" class="blocklyDraggable" style="display: block;" transform="translate(157.85391235351562,280)"><path class="blocklyPathDark" transform="translate(1,1)" fill="#003db7" d=" m 8,0  h 44.45954895019531  v 5  H 52.45954895019531  V 5  H 52.45954895019531  V 23  H 52.45954895019531  V 23  V 27  h -44.45954895019531  H 8  V 20  c 0,-10  -8,8  -8,-7.5  s 8,2.5  8,-7.5 z&#10;"/><path class="blocklyPath" stroke="none" fill="#004ce5" d=" m 8,0  h 44.45954895019531  v 5  H 52.45954895019531  V 5  H 52.45954895019531  V 23  H 52.45954895019531  V 23  V 27  h -44.45954895019531  H 8  V 20  c 0,-10  -8,8  -8,-7.5  s 8,2.5  8,-7.5 z&#10;"/><path class="blocklyPathLight" stroke="#4d82ed" d=" m 8,0  m 0.5,0.5  H 51.95954895019531  H 51.95954895019531  M 8.5,26.5  M 8.5,26.5  V 20  v -1.5  m -7.36,-0.5  q -1.52,-5.5  0,-11  m 7.36,1  V 0.5 &#10;"/><g class="blocklyEditableText" transform="translate(13,5)" style="cursor: text;"><rect rx="4" ry="4" x="0" y="0" height="18" width="34.45954895019531" class="blocklyFieldRect"/><text class="blocklyText" x="5" y="14">378</text></g></g><g data-id="aduN,+DL1HCOPSLernR%" class="blocklyDraggable" style="display: block;" transform="translate(157.85391235351562,308)"><path class="blocklyPathDark" transform="translate(1,1)" fill="#003db7" d=" m 8,0  h 44.45954895019531  v 5  H 52.45954895019531  V 5  H 52.45954895019531  V 23  H 52.45954895019531  V 23  V 27  h -44.45954895019531  H 8  V 20  c 0,-10  -8,8  -8,-7.5  s 8,2.5  8,-7.5 z&#10;"/><path class="blocklyPath" stroke="none" fill="#004ce5" d=" m 8,0  h 44.45954895019531  v 5  H 52.45954895019531  V 5  H 52.45954895019531  V 23  H 52.45954895019531  V 23  V 27  h -44.45954895019531  H 8  V 20  c 0,-10  -8,8  -8,-7.5  s 8,2.5  8,-7.5 z&#10;"/><path class="blocklyPathLight" stroke="#4d82ed" d=" m 8,0  m 0.5,0.5  H 51.95954895019531  H 51.95954895019531  M 8.5,26.5  M 8.5,26.5  V 20  v -1.5  m -7.36,-0.5  q -1.52,-5.5  0,-11  m 7.36,1  V 0.5 &#10;"/><g class="blocklyEditableText" transform="translate(13,5)" style="cursor: text;"><rect rx="4" ry="4" x="0" y="0" height="18" width="34.45954895019531" class="blocklyFieldRect"/><text class="blocklyText" x="5" y="14">320</text></g></g><g transform="translate(45,5)"><text class="blocklyText" x="0" y="14">ustvari tabelo iz</text></g></g><g transform="translate(10,5)"><text class="blocklyText" x="0" y="14">nastavi</text></g><g class="blocklyEditableText" transform="translate(61.44950866699219,5)" style="cursor: default;"><rect rx="4" ry="4" x="0" y="0" height="18" width="75.2254638671875" class="blocklyFieldRect blocklyDropdownRect" stroke="#b84ded" fill="transparent"/><text class="blocklyText blocklyDropdownText" text-anchor="start" x="5" y="14">prodaja<tspan style="fill: rgb(153, 0, 229);"> ▾</tspan></text><image style="display: none;"/></g><g transform="translate(141.6749725341797,5)"><text class="blocklyText" x="0" y="14">na</text></g></g></g></svg>