<svg version="1.1" xmlns="http://www.w3.org/2000/svg" xmlns:xlink="http://www.w3.org/1999/xlink" width="1109.4876708984375" height="220" viewBox=" -113 8 1109.4876708984375 220"><defs><style type="text/css" xmlns="http://www.w3.org/1999/xhtml"><![CDATA[.blocklySvg {background-color: #fff;outline: none;overflow: hidden;display: block;}.blocklyWidgetDiv {display: none;position: absolute;z-index: 99999;}.injectionDiv {height: 100%;position: relative;}.blocklyNonSelectable {user-select: none;-moz-user-select: none;-webkit-user-select: none;-ms-user-select: none;}.blocklyTooltipDiv {background-color: #ffffc7;border: 1px solid #ddc;box-shadow: 4px 4px 20px 1px rgba(0,0,0,.15);color: #000;display: none;font-family: sans-serif;font-size: 9pt;opacity: 0.9;padding: 2px;position: absolute;z-index: 100000;}.blocklyResizeSE {cursor: se-resize;fill: #aaa;}.blocklyResizeSW {cursor: sw-resize;fill: #aaa;}.blocklyResizeLine {stroke: #888;stroke-width: 1;}.blocklyHighlightedConnectionPath {fill: none;stroke: #fc3;stroke-width: 4px;}.blocklyPathLight {fill: none;stroke-linecap: round;stroke-width: 1;}.blocklySelected>.blocklyPath {stroke: #fc3;stroke-width: 3px;}.blocklySelected>.blocklyPathLight {display: none;}.blocklyDragging>.blocklyPath,.blocklyDragging>.blocklyPathLight {fill-opacity: .8;stroke-opacity: .8;}.blocklyDragging>.blocklyPathDark {display: none;}.blocklyDisabled>.blocklyPath {fill-opacity: .5;stroke-opacity: .5;}.blocklyDisabled>.blocklyPathLight,.blocklyDisabled>.blocklyPathDark {display: none;}.blocklyText {cursor: default;fill: #fff;font-family: sans-serif;font-size: 11pt;}.blocklyNonEditableText>text {pointer-events: none;}.blocklyNonEditableText>rect,.blocklyEditableText>rect {fill: #fff;fill-opacity: .6;}.blocklyNonEditableText>text,.blocklyEditableText>text {fill: #000;}.blocklyEditableText:hover>rect {stroke: #fff;stroke-width: 2;}.blocklyBubbleText {fill: #000;}.blocklyFlyoutButton {fill: #888;cursor: default;}.blocklyFlyoutButtonShadow {fill: #666;}.blocklyFlyoutButton:hover {fill: #aaa;}.blocklySvg text {user-select: none;-moz-user-select: none;-webkit-user-select: none;cursor: inherit;}.blocklyHidden {display: none;}.blocklyFieldDropdown:not(.blocklyHidden) {display: block;}.blocklyIconGroup {cursor: default;}.blocklyIconGroup:not(:hover),.blocklyIconGroupReadonly {opacity: .6;}.blocklyIconShape {fill: #00f;stroke: #fff;stroke-width: 1px;}.blocklyIconSymbol {fill: #fff;}.blocklyMinimalBody {margin: 0;padding: 0;}.blocklyCommentTextarea {background-color: #ffc;border: 0;margin: 0;padding: 2px;resize: none;}.blocklyHtmlInput {border: none;border-radius: 4px;font-family: sans-serif;height: 100%;margin: 0;outline: none;padding: 0 1px;width: 100%}.blocklyMainBackground {stroke-width: 1;stroke: #c6c6c6;}.blocklyMutatorBackground {fill: #fff;stroke: #ddd;stroke-width: 1;}.blocklyFlyoutBackground {fill: #ddd;fill-opacity: .8;}.blocklyScrollbarBackground {opacity: 0;}.blocklyScrollbarHandle {fill: #ccc;}.blocklyScrollbarBackground:hover+.blocklyScrollbarHandle,.blocklyScrollbarHandle:hover {fill: #bbb;}.blocklyZoom>image {opacity: .4;}.blocklyZoom>image:hover {opacity: .6;}.blocklyZoom>image:active {opacity: .8;}.blocklyFlyout .blocklyScrollbarHandle {fill: #bbb;}.blocklyFlyout .blocklyScrollbarBackground:hover+.blocklyScrollbarHandle,.blocklyFlyout .blocklyScrollbarHandle:hover {fill: #aaa;}.blocklyInvalidInput {background: #faa;}.blocklyAngleCircle {stroke: #444;stroke-width: 1;fill: #ddd;fill-opacity: .8;}.blocklyAngleMarks {stroke: #444;stroke-width: 1;}.blocklyAngleGauge {fill: #f88;fill-opacity: .8;}.blocklyAngleLine {stroke: #f00;stroke-width: 2;stroke-linecap: round;}.blocklyContextMenu {border-radius: 4px;}.blocklyDropdownMenu {padding: 0 !important;}.blocklyWidgetDiv .goog-option-selected .goog-menuitem-checkbox,.blocklyWidgetDiv .goog-option-selected .goog-menuitem-icon {background: url(<<<PATH>>>/sprites.png) no-repeat -48px -16px !important;}.blocklyToolboxDiv {background-color: #ddd;overflow-x: visible;overflow-y: auto;position: absolute;}.blocklyTreeRoot {padding: 4px 0;}.blocklyTreeRoot:focus {outline: none;}.blocklyTreeRow {height: 22px;line-height: 22px;margin-bottom: 3px;padding-right: 8px;white-space: nowrap;}.blocklyHorizontalTree {float: left;margin: 1px 5px 8px 0;}.blocklyHorizontalTreeRtl {float: right;margin: 1px 0 8px 5px;}.blocklyToolboxDiv[dir="RTL"] .blocklyTreeRow {margin-left: 8px;}.blocklyTreeRow:not(.blocklyTreeSelected):hover {background-color: #e4e4e4;}.blocklyTreeSeparator {border-bottom: solid #e5e5e5 1px;height: 0;margin: 5px 0;}.blocklyTreeSeparatorHorizontal {border-right: solid #e5e5e5 1px;width: 0;padding: 5px 0;margin: 0 5px;}.blocklyTreeIcon {background-image: url(<<<PATH>>>/sprites.png);height: 16px;vertical-align: middle;width: 16px;}.blocklyTreeIconClosedLtr {background-position: -32px -1px;}.blocklyTreeIconClosedRtl {background-position: 0px -1px;}.blocklyTreeIconOpen {background-position: -16px -1px;}.blocklyTreeSelected>.blocklyTreeIconClosedLtr {background-position: -32px -17px;}.blocklyTreeSelected>.blocklyTreeIconClosedRtl {background-position: 0px -17px;}.blocklyTreeSelected>.blocklyTreeIconOpen {background-position: -16px -17px;}.blocklyTreeIconNone,.blocklyTreeSelected>.blocklyTreeIconNone {background-position: -48px -1px;}.blocklyTreeLabel {cursor: default;font-family: sans-serif;font-size: 16px;padding: 0 3px;vertical-align: middle;}.blocklyTreeSelected .blocklyTreeLabel {color: #fff;}.blocklyWidgetDiv .goog-palette {outline: none;cursor: default;}.blocklyWidgetDiv .goog-palette-table {border: 1px solid #666;border-collapse: collapse;}.blocklyWidgetDiv .goog-palette-cell {height: 13px;width: 15px;margin: 0;border: 0;text-align: center;vertical-align: middle;border-right: 1px solid #666;font-size: 1px;}.blocklyWidgetDiv .goog-palette-colorswatch {position: relative;height: 13px;width: 15px;border: 1px solid #666;}.blocklyWidgetDiv .goog-palette-cell-hover .goog-palette-colorswatch {border: 1px solid #FFF;}.blocklyWidgetDiv .goog-palette-cell-selected .goog-palette-colorswatch {border: 1px solid #000;color: #fff;}.blocklyWidgetDiv .goog-menu {background: #fff;border-color: #ccc #666 #666 #ccc;border-style: solid;border-width: 1px;cursor: default;font: normal 13px Arial, sans-serif;margin: 0;outline: none;padding: 4px 0;position: absolute;overflow-y: auto;overflow-x: hidden;max-height: 100%;z-index: 20000;}.blocklyWidgetDiv .goog-menuitem {color: #000;font: normal 13px Arial, sans-serif;list-style: none;margin: 0;padding: 4px 7em 4px 28px;white-space: nowrap;}.blocklyWidgetDiv .goog-menuitem.goog-menuitem-rtl {padding-left: 7em;padding-right: 28px;}.blocklyWidgetDiv .goog-menu-nocheckbox .goog-menuitem,.blocklyWidgetDiv .goog-menu-noicon .goog-menuitem {padding-left: 12px;}.blocklyWidgetDiv .goog-menu-noaccel .goog-menuitem {padding-right: 20px;}.blocklyWidgetDiv .goog-menuitem-content {color: #000;font: normal 13px Arial, sans-serif;}.blocklyWidgetDiv .goog-menuitem-disabled .goog-menuitem-accel,.blocklyWidgetDiv .goog-menuitem-disabled .goog-menuitem-content {color: #ccc !important;}.blocklyWidgetDiv .goog-menuitem-disabled .goog-menuitem-icon {opacity: 0.3;-moz-opacity: 0.3;filter: alpha(opacity=30);}.blocklyWidgetDiv .goog-menuitem-highlight,.blocklyWidgetDiv .goog-menuitem-hover {background-color: #d6e9f8;border-color: #d6e9f8;border-style: dotted;border-width: 1px 0;padding-bottom: 3px;padding-top: 3px;}.blocklyWidgetDiv .goog-menuitem-checkbox,.blocklyWidgetDiv .goog-menuitem-icon {background-repeat: no-repeat;height: 16px;left: 6px;position: absolute;right: auto;vertical-align: middle;width: 16px;}.blocklyWidgetDiv .goog-menuitem-rtl .goog-menuitem-checkbox,.blocklyWidgetDiv .goog-menuitem-rtl .goog-menuitem-icon {left: auto;right: 6px;}.blocklyWidgetDiv .goog-option-selected .goog-menuitem-checkbox,.blocklyWidgetDiv .goog-option-selected .goog-menuitem-icon {background: url(//ssl.gstatic.com/editor/editortoolbar.png) no-repeat -512px 0;}.blocklyWidgetDiv .goog-menuitem-accel {color: #999;direction: ltr;left: auto;padding: 0 6px;position: absolute;right: 0;text-align: right;}.blocklyWidgetDiv .goog-menuitem-rtl .goog-menuitem-accel {left: 0;right: auto;text-align: left;}.blocklyWidgetDiv .goog-menuitem-mnemonic-hint {text-decoration: underline;}.blocklyWidgetDiv .goog-menuitem-mnemonic-separator {color: #999;font-size: 12px;padding-left: 4px;}.blocklyWidgetDiv .goog-menuseparator {border-top: 1px solid #ccc;margin: 4px 0;padding: 0;}]]></style></defs><g xmlns="http://www.w3.org/2000/svg" class="blocklyBlockCanvas"><g class="blocklyDraggable" transform="translate(-113,8)"><path class="blocklyPathDark" transform="translate(1,1)" fill="#7a00b7" d="m 0,8 A 8,8 0 0,1 8,0 H 15 l 6,4 3,0 6,-4 H 176.01626777648926 v 5 c 0,10 -8,-8 -8,7.5 s 8,-2.5 8,7.5 v 5 H 29.5 l -6,4 -3,0 -6,-4 H 0 z&#10;"/><path class="blocklyPath" fill="#9900e5" d="m 0,8 A 8,8 0 0,1 8,0 H 15 l 6,4 3,0 6,-4 H 176.01626777648926 v 5 c 0,10 -8,-8 -8,7.5 s 8,-2.5 8,7.5 v 5 H 29.5 l -6,4 -3,0 -6,-4 H 0 z&#10;"/><path class="blocklyPathLight" stroke="#b84ded" d="m 0.5,7.5 A 7.5,7.5 0 0,1 8,0.5 H 15 l 6,4 3,0 6,-4 H 175.51626777648926 M 175.51626777648926,0.5 M 171.01626777648926,19.3 l 3.68,-2.1 M 0.5,24.5 V 8&#10;"/><g class="blocklyDraggable" transform="translate(177.01626777648926,0)"><path class="blocklyPathDark" transform="translate(1,1)" fill="#b71e00" d="m 0,0 H 203.41429138183594 l 8,0 0,4 8,4 -16,8 8,4 v 4 H 0 V 20 c 0,-10 -8,8 -8,-7.5 s 8,2.5 8,-7.5 z&#10;"/><path class="blocklyPath" fill="#e52600" d="m 0,0 H 203.41429138183594 l 8,0 0,4 8,4 -16,8 8,4 v 4 H 0 V 20 c 0,-10 -8,8 -8,-7.5 s 8,2.5 8,-7.5 z&#10;"/><path class="blocklyPathLight" stroke="#ed674d" d="m 0.5,0.5 H 202.91429138183594 M 202.91429138183594,0.5 h 8 M 0.5,23.5 V 18.5 m -7.36,-0.5 q -1.52,-5.5 0,-11 m 7.36,1 V 0.5 H 1&#10;"/><g class="blocklyIconGroup" display="none"><rect class="blocklyIconShape" rx="4" ry="4" height="16" width="16"/><path class="blocklyIconSymbol" d="m4.203,7.296 0,1.368 -0.92,0.677 -0.11,0.41 0.9,1.559 0.41,0.11 1.043,-0.457 1.187,0.683 0.127,1.134 0.3,0.3 1.8,0 0.3,-0.299 0.127,-1.138 1.185,-0.682 1.046,0.458 0.409,-0.11 0.9,-1.559 -0.11,-0.41 -0.92,-0.677 0,-1.366 0.92,-0.677 0.11,-0.41 -0.9,-1.559 -0.409,-0.109 -1.046,0.458 -1.185,-0.682 -0.127,-1.138 -0.3,-0.299 -1.8,0 -0.3,0.3 -0.126,1.135 -1.187,0.682 -1.043,-0.457 -0.41,0.11 -0.899,1.559 0.108,0.409z"/><circle class="blocklyIconShape" r="2.7" cx="8" cy="8"/></g><text class="blocklyText" y="12.5" style="display: none;">ustvari tabelo iz</text><g class="blocklyDraggable" style="display: none;"><path class="blocklyPathDark" transform="translate(1,1)" fill="#003db7" d="m 0,0 H 44.46622276306152 v 25 H 0 V 20 c 0,-10 -8,8 -8,-7.5 s 8,2.5 8,-7.5 z&#10;"/><path class="blocklyPath" fill="#004ce5" d="m 0,0 H 44.46622276306152 v 25 H 0 V 20 c 0,-10 -8,8 -8,-7.5 s 8,2.5 8,-7.5 z&#10;"/><path class="blocklyPathLight" stroke="#4d82ed" d="m 0.5,0.5 H 43.96622276306152 M 43.96622276306152,0.5 M 0.5,24.5 V 18.5 m -7.36,-0.5 q -1.52,-5.5 0,-11 m 7.36,1 V 0.5 H 1&#10;"/><g class="blocklyEditableText" transform="translate(10,5)" style="cursor: text;"><rect rx="4" ry="4" x="-5" y="0" height="16" width="34.46622276306152"/><text class="blocklyText" y="12.5">182</text></g></g><g class="blocklyDraggable" style="display: none;"><path class="blocklyPathDark" transform="translate(1,1)" fill="#003db7" d="m 0,0 H 44.46622276306152 v 25 H 0 V 20 c 0,-10 -8,8 -8,-7.5 s 8,2.5 8,-7.5 z&#10;"/><path class="blocklyPath" fill="#004ce5" d="m 0,0 H 44.46622276306152 v 25 H 0 V 20 c 0,-10 -8,8 -8,-7.5 s 8,2.5 8,-7.5 z&#10;"/><path class="blocklyPathLight" stroke="#4d82ed" d="m 0.5,0.5 H 43.96622276306152 M 43.96622276306152,0.5 M 0.5,24.5 V 18.5 m -7.36,-0.5 q -1.52,-5.5 0,-11 m 7.36,1 V 0.5 H 1&#10;"/><g class="blocklyEditableText" transform="translate(10,5)" style="cursor: text;"><rect rx="4" ry="4" x="-5" y="0" height="16" width="34.46622276306152"/><text class="blocklyText" y="12.5">250</text></g></g><g class="blocklyDraggable" style="display: none;"><path class="blocklyPathDark" transform="translate(1,1)" fill="#003db7" d="m 0,0 H 44.46622276306152 v 25 H 0 V 20 c 0,-10 -8,8 -8,-7.5 s 8,2.5 8,-7.5 z&#10;"/><path class="blocklyPath" fill="#004ce5" d="m 0,0 H 44.46622276306152 v 25 H 0 V 20 c 0,-10 -8,8 -8,-7.5 s 8,2.5 8,-7.5 z&#10;"/><path class="blocklyPathLight" stroke="#4d82ed" d="m 0.5,0.5 H 43.96622276306152 M 43.96622276306152,0.5 M 0.5,24.5 V 18.5 m -7.36,-0.5 q -1.52,-5.5 0,-11 m 7.36,1 V 0.5 H 1&#10;"/><g class="blocklyEditableText" transform="translate(10,5)" style="cursor: text;"><rect rx="4" ry="4" x="-5" y="0" height="16" width="34.46622276306152"/><text class="blocklyText" y="12.5">225</text></g></g><g class="blocklyDraggable" style="display: none;"><path class="blocklyPathDark" transform="translate(1,1)" fill="#003db7" d="m 0,0 H 44.46622276306152 v 25 H 0 V 20 c 0,-10 -8,8 -8,-7.5 s 8,2.5 8,-7.5 z&#10;"/><path class="blocklyPath" fill="#004ce5" d="m 0,0 H 44.46622276306152 v 25 H 0 V 20 c 0,-10 -8,8 -8,-7.5 s 8,2.5 8,-7.5 z&#10;"/><path class="blocklyPathLight" stroke="#4d82ed" d="m 0.5,0.5 H 43.96622276306152 M 43.96622276306152,0.5 M 0.5,24.5 V 18.5 m -7.36,-0.5 q -1.52,-5.5 0,-11 m 7.36,1 V 0.5 H 1&#10;"/><g class="blocklyEditableText" transform="translate(10,5)" style="cursor: text;"><rect rx="4" ry="4" x="-5" y="0" height="16" width="34.46622276306152"/><text class="blocklyText" y="12.5">315</text></g></g><g class="blocklyDraggable" style="display: none;"><path class="blocklyPathDark" transform="translate(1,1)" fill="#003db7" d="m 0,0 H 44.46622276306152 v 25 H 0 V 20 c 0,-10 -8,8 -8,-7.5 s 8,2.5 8,-7.5 z&#10;"/><path class="blocklyPath" fill="#004ce5" d="m 0,0 H 44.46622276306152 v 25 H 0 V 20 c 0,-10 -8,8 -8,-7.5 s 8,2.5 8,-7.5 z&#10;"/><path class="blocklyPathLight" stroke="#4d82ed" d="m 0.5,0.5 H 43.96622276306152 M 43.96622276306152,0.5 M 0.5,24.5 V 18.5 m -7.36,-0.5 q -1.52,-5.5 0,-11 m 7.36,1 V 0.5 H 1&#10;"/><g class="blocklyEditableText" transform="translate(10,5)" style="cursor: text;"><rect rx="4" ry="4" x="-5" y="0" height="16" width="34.46622276306152"/><text class="blocklyText" y="12.5">328</text></g></g><g class="blocklyDraggable" style="display: none;"><path class="blocklyPathDark" transform="translate(1,1)" fill="#003db7" d="m 0,0 H 44.46622276306152 v 25 H 0 V 20 c 0,-10 -8,8 -8,-7.5 s 8,2.5 8,-7.5 z&#10;"/><path class="blocklyPath" fill="#004ce5" d="m 0,0 H 44.46622276306152 v 25 H 0 V 20 c 0,-10 -8,8 -8,-7.5 s 8,2.5 8,-7.5 z&#10;"/><path class="blocklyPathLight" stroke="#4d82ed" d="m 0.5,0.5 H 43.96622276306152 M 43.96622276306152,0.5 M 0.5,24.5 V 18.5 m -7.36,-0.5 q -1.52,-5.5 0,-11 m 7.36,1 V 0.5 H 1&#10;"/><g class="blocklyEditableText" transform="translate(10,5)" style="cursor: text;"><rect rx="4" ry="4" x="-5" y="0" height="16" width="34.46622276306152"/><text class="blocklyText" y="12.5">160</text></g></g><g class="blocklyDraggable" style="display: none;"><path class="blocklyPathDark" transform="translate(1,1)" fill="#003db7" d="m 0,0 H 36.31081581115723 v 25 H 0 V 20 c 0,-10 -8,8 -8,-7.5 s 8,2.5 8,-7.5 z&#10;"/><path class="blocklyPath" fill="#004ce5" d="m 0,0 H 36.31081581115723 v 25 H 0 V 20 c 0,-10 -8,8 -8,-7.5 s 8,2.5 8,-7.5 z&#10;"/><path class="blocklyPathLight" stroke="#4d82ed" d="m 0.5,0.5 H 35.81081581115723 M 35.81081581115723,0.5 M 0.5,24.5 V 18.5 m -7.36,-0.5 q -1.52,-5.5 0,-11 m 7.36,1 V 0.5 H 1&#10;"/><g class="blocklyEditableText" transform="translate(10,5)" style="cursor: text;"><rect rx="4" ry="4" x="-5" y="0" height="16" width="26.310815811157227"/><text class="blocklyText" y="12.5">51</text></g></g><g class="blocklyDraggable" style="display: none;"><path class="blocklyPathDark" transform="translate(1,1)" fill="#003db7" d="m 0,0 H 36.31081581115723 v 25 H 0 V 20 c 0,-10 -8,8 -8,-7.5 s 8,2.5 8,-7.5 z&#10;"/><path class="blocklyPath" fill="#004ce5" d="m 0,0 H 36.31081581115723 v 25 H 0 V 20 c 0,-10 -8,8 -8,-7.5 s 8,2.5 8,-7.5 z&#10;"/><path class="blocklyPathLight" stroke="#4d82ed" d="m 0.5,0.5 H 35.81081581115723 M 35.81081581115723,0.5 M 0.5,24.5 V 18.5 m -7.36,-0.5 q -1.52,-5.5 0,-11 m 7.36,1 V 0.5 H 1&#10;"/><g class="blocklyEditableText" transform="translate(10,5)" style="cursor: text;"><rect rx="4" ry="4" x="-5" y="0" height="16" width="26.310815811157227"/><text class="blocklyText" y="12.5">36</text></g></g><g class="blocklyDraggable" style="display: none;"><path class="blocklyPathDark" transform="translate(1,1)" fill="#003db7" d="m 0,0 H 44.46622276306152 v 25 H 0 V 20 c 0,-10 -8,8 -8,-7.5 s 8,2.5 8,-7.5 z&#10;"/><path class="blocklyPath" fill="#004ce5" d="m 0,0 H 44.46622276306152 v 25 H 0 V 20 c 0,-10 -8,8 -8,-7.5 s 8,2.5 8,-7.5 z&#10;"/><path class="blocklyPathLight" stroke="#4d82ed" d="m 0.5,0.5 H 43.96622276306152 M 43.96622276306152,0.5 M 0.5,24.5 V 18.5 m -7.36,-0.5 q -1.52,-5.5 0,-11 m 7.36,1 V 0.5 H 1&#10;"/><g class="blocklyEditableText" transform="translate(10,5)" style="cursor: text;"><rect rx="4" ry="4" x="-5" y="0" height="16" width="34.46622276306152"/><text class="blocklyText" y="12.5">340</text></g></g><g class="blocklyDraggable" style="display: none;"><path class="blocklyPathDark" transform="translate(1,1)" fill="#003db7" d="m 0,0 H 44.46622276306152 v 25 H 0 V 20 c 0,-10 -8,8 -8,-7.5 s 8,2.5 8,-7.5 z&#10;"/><path class="blocklyPath" fill="#004ce5" d="m 0,0 H 44.46622276306152 v 25 H 0 V 20 c 0,-10 -8,8 -8,-7.5 s 8,2.5 8,-7.5 z&#10;"/><path class="blocklyPathLight" stroke="#4d82ed" d="m 0.5,0.5 H 43.96622276306152 M 43.96622276306152,0.5 M 0.5,24.5 V 18.5 m -7.36,-0.5 q -1.52,-5.5 0,-11 m 7.36,1 V 0.5 H 1&#10;"/><g class="blocklyEditableText" transform="translate(10,5)" style="cursor: text;"><rect rx="4" ry="4" x="-5" y="0" height="16" width="34.46622276306152"/><text class="blocklyText" y="12.5">280</text></g></g><g class="blocklyDraggable" style="display: none;"><path class="blocklyPathDark" transform="translate(1,1)" fill="#003db7" d="m 0,0 H 44.46622276306152 v 25 H 0 V 20 c 0,-10 -8,8 -8,-7.5 s 8,2.5 8,-7.5 z&#10;"/><path class="blocklyPath" fill="#004ce5" d="m 0,0 H 44.46622276306152 v 25 H 0 V 20 c 0,-10 -8,8 -8,-7.5 s 8,2.5 8,-7.5 z&#10;"/><path class="blocklyPathLight" stroke="#4d82ed" d="m 0.5,0.5 H 43.96622276306152 M 43.96622276306152,0.5 M 0.5,24.5 V 18.5 m -7.36,-0.5 q -1.52,-5.5 0,-11 m 7.36,1 V 0.5 H 1&#10;"/><g class="blocklyEditableText" transform="translate(10,5)" style="cursor: text;"><rect rx="4" ry="4" x="-5" y="0" height="16" width="34.46622276306152"/><text class="blocklyText" y="12.5">378</text></g></g><g class="blocklyDraggable" style="display: none;"><path class="blocklyPathDark" transform="translate(1,1)" fill="#003db7" d="m 0,0 H 44.46622276306152 v 25 H 0 V 20 c 0,-10 -8,8 -8,-7.5 s 8,2.5 8,-7.5 z&#10;"/><path class="blocklyPath" fill="#004ce5" d="m 0,0 H 44.46622276306152 v 25 H 0 V 20 c 0,-10 -8,8 -8,-7.5 s 8,2.5 8,-7.5 z&#10;"/><path class="blocklyPathLight" stroke="#4d82ed" d="m 0.5,0.5 H 43.96622276306152 M 43.96622276306152,0.5 M 0.5,24.5 V 18.5 m -7.36,-0.5 q -1.52,-5.5 0,-11 m 7.36,1 V 0.5 H 1&#10;"/><g class="blocklyEditableText" transform="translate(10,5)" style="cursor: text;"><rect rx="4" ry="4" x="-5" y="0" height="16" width="34.46622276306152"/><text class="blocklyText" y="12.5">320</text></g></g><text class="blocklyText" y="12.5" transform="translate(10,5)">ustvari tabelo iz 182 250 2...</text></g><text class="blocklyText" y="12.5" transform="translate(10,5)">nastavi</text><g class="blocklyEditableText" transform="translate(66.46219635009766,5)" style="cursor: default;"><rect rx="4" ry="4" x="-5" y="0" height="16" width="75.24325561523438"/><text class="blocklyText" y="12.5">prodaja<tspan style="fill: rgb(153, 0, 229);"> ▾</tspan></text></g><text class="blocklyText" y="12.5" transform="translate(141.70545196533203,5)">na</text><g class="blocklyDraggable" transform="translate(0,26)"><path class="blocklyPathDark" transform="translate(1,1)" fill="#7a00b7" d="m 0,0 H 15 l 6,4 3,0 6,-4 H 193.1147174835205 v 5 c 0,10 -8,-8 -8,7.5 s 8,-2.5 8,7.5 v 5 H 29.5 l -6,4 -3,0 -6,-4 H 0 z&#10;"/><path class="blocklyPath" fill="#9900e5" d="m 0,0 H 15 l 6,4 3,0 6,-4 H 193.1147174835205 v 5 c 0,10 -8,-8 -8,7.5 s 8,-2.5 8,7.5 v 5 H 29.5 l -6,4 -3,0 -6,-4 H 0 z&#10;"/><path class="blocklyPathLight" stroke="#b84ded" d="m 0.5,0.5 H 15 l 6,4 3,0 6,-4 H 192.6147174835205 M 192.6147174835205,0.5 M 188.1147174835205,19.3 l 3.68,-2.1 M 0.5,24.5 V 0.5&#10;"/><g class="blocklyDraggable" transform="translate(194.1147174835205,0)"><path class="blocklyPathDark" transform="translate(1,1)" fill="#003db7" d="m 0,0 H 28.155407905578613 v 25 H 0 V 20 c 0,-10 -8,8 -8,-7.5 s 8,2.5 8,-7.5 z&#10;"/><path class="blocklyPath" fill="#004ce5" d="m 0,0 H 28.155407905578613 v 25 H 0 V 20 c 0,-10 -8,8 -8,-7.5 s 8,2.5 8,-7.5 z&#10;"/><path class="blocklyPathLight" stroke="#4d82ed" d="m 0.5,0.5 H 27.655407905578613 M 27.655407905578613,0.5 M 0.5,24.5 V 18.5 m -7.36,-0.5 q -1.52,-5.5 0,-11 m 7.36,1 V 0.5 H 1&#10;"/><g class="blocklyEditableText" transform="translate(10,5)" style="cursor: text;"><rect rx="4" ry="4" x="-5" y="0" height="16" width="18.155407905578613"/><text class="blocklyText" y="12.5">0</text></g></g><text class="blocklyText" y="12.5" transform="translate(10,5)">nastavi</text><g class="blocklyEditableText" transform="translate(66.46219635009766,5)" style="cursor: default;"><rect rx="4" ry="4" x="-5" y="0" height="16" width="92.34170532226562"/><text class="blocklyText" y="12.5">indeksMin<tspan style="fill: rgb(153, 0, 229);"> ▾</tspan></text></g><text class="blocklyText" y="12.5" transform="translate(158.80390167236328,5)">na</text><g class="blocklyDraggable" transform="translate(0,26)"><path class="blocklyPathDark" transform="translate(1,1)" fill="#b7007a" d="m 0,0 H 15 l 6,4 3,0 6,-4 H 87.49052810668945 H 505.4804382324219 v 36 H 87.49052810668945 l -6,4 -3,0 -6,-4 h -7 a 8,8 0 0,0 -8,8 v 75 a 8,8 0 0,0 8,8 H 87.49052810668945 v 10 H 29.5 l -6,4 -3,0 -6,-4 H 0 z&#10;M 166.66684436798096,5 h -30.155407905578613 v 5 c 0,10 -8,-8 -8,7.5 s 8,-2.5 8,7.5 v 7 h 30.155407905578613 z M 371.69026470184326,5 h -162.71260452270508 v 5 c 0,10 -8,-8 -8,7.5 s 8,-2.5 8,7.5 v 7 h 162.71260452270508 z M 495.4804382324219,5 h -30.155407905578613 v 5 c 0,10 -8,-8 -8,7.5 s 8,-2.5 8,7.5 v 7 h 30.155407905578613 z"/><path class="blocklyPath" fill="#e50099" d="m 0,0 H 15 l 6,4 3,0 6,-4 H 87.49052810668945 H 505.4804382324219 v 36 H 87.49052810668945 l -6,4 -3,0 -6,-4 h -7 a 8,8 0 0,0 -8,8 v 75 a 8,8 0 0,0 8,8 H 87.49052810668945 v 10 H 29.5 l -6,4 -3,0 -6,-4 H 0 z&#10;M 166.66684436798096,5 h -30.155407905578613 v 5 c 0,10 -8,-8 -8,7.5 s 8,-2.5 8,7.5 v 7 h 30.155407905578613 z M 371.69026470184326,5 h -162.71260452270508 v 5 c 0,10 -8,-8 -8,7.5 s 8,-2.5 8,7.5 v 7 h 162.71260452270508 z M 495.4804382324219,5 h -30.155407905578613 v 5 c 0,10 -8,-8 -8,7.5 s 8,-2.5 8,7.5 v 7 h 30.155407905578613 z"/><path class="blocklyPathLight" stroke="#ed4db8" d="m 0.5,0.5 H 15 l 6,4 3,0 6,-4 H 86.99052810668945 M 86.99052810668945,0.5 H 504.9804382324219 M 86.99052810668945,36.5 M 59.4801204666038,125.01040764008566 a 8.5,8.5 0 0,0 6.0104076400856545,2.4895923599143455 H 86.99052810668945 M 0.5,136.5 V 0.5&#10;M 167.16684436798096,5.5 v 27 h -30.155407905578613 M 131.41143646240235,24.3 l 3.68,-2.1 M 372.19026470184326,5.5 v 27 h -162.71260452270508 M 203.8776601791382,24.3 l 3.68,-2.1 M 495.9804382324219,5.5 v 27 h -30.155407905578613 M 460.22503032684324,24.3 l 3.68,-2.1"/><g class="blocklyDraggable" transform="translate(137.51143646240234,6)"><path class="blocklyPathDark" transform="translate(1,1)" fill="#003db7" d="m 0,0 H 28.155407905578613 v 25 H 0 V 20 c 0,-10 -8,8 -8,-7.5 s 8,2.5 8,-7.5 z&#10;"/><path class="blocklyPath" fill="#004ce5" d="m 0,0 H 28.155407905578613 v 25 H 0 V 20 c 0,-10 -8,8 -8,-7.5 s 8,2.5 8,-7.5 z&#10;"/><path class="blocklyPathLight" stroke="#4d82ed" d="m 0.5,0.5 H 27.655407905578613 M 27.655407905578613,0.5 M 0.5,24.5 V 18.5 m -7.36,-0.5 q -1.52,-5.5 0,-11 m 7.36,1 V 0.5 H 1&#10;"/><g class="blocklyEditableText" transform="translate(10,5)" style="cursor: text;"><rect rx="4" ry="4" x="-5" y="0" height="16" width="18.155407905578613"/><text class="blocklyText" y="12.5">1</text></g></g><g transform="translate(466.32503032684326,6)"><path class="blocklyPathDark" transform="translate(1,1)" fill="#99b7f5" d="m 0,0 H 28.155407905578613 v 25 H 0 V 20 c 0,-10 -8,8 -8,-7.5 s 8,2.5 8,-7.5 z&#10;"/><path class="blocklyPath" fill="#99b7f5" d="m 0,0 H 28.155407905578613 v 25 H 0 V 20 c 0,-10 -8,8 -8,-7.5 s 8,2.5 8,-7.5 z&#10;"/><path class="blocklyPathLight" d="m 0.5,0.5 H 27.655407905578613 M 27.655407905578613,0.5 M 0.5,24.5 V 18.5 m -7.36,-0.5 q -1.52,-5.5 0,-11 m 7.36,1 V 0.5 H 1&#10;" style="display: none;"/><g class="blocklyEditableText" transform="translate(10,5)" style="cursor: text;"><rect rx="4" ry="4" x="-5" y="0" height="16" width="18.155407905578613"/><text class="blocklyText" y="12.5">1</text></g></g><g class="blocklyDraggable" transform="translate(58.49052810668945,37)"><path class="blocklyPathDark" transform="translate(1,1)" fill="#007ab7" d="m 0,8 A 8,8 0 0,1 8,0 H 15 l 6,4 3,0 6,-4 H 87.49052810668945 v 5 c 0,10 -8,-8 -8,7.5 s 8,-2.5 8,7.5 v 27 H 87.49052810668945 l -6,4 -3,0 -6,-4 h -7 a 8,8 0 0,0 -8,8 v 13 a 8,8 0 0,0 8,8 H 87.49052810668945 v 10 H 29.5 l -6,4 -3,0 -6,-4 H 8 a 8,8 0 0,1 -8,-8 z&#10;"/><path class="blocklyPath" fill="#0098e5" d="m 0,8 A 8,8 0 0,1 8,0 H 15 l 6,4 3,0 6,-4 H 87.49052810668945 v 5 c 0,10 -8,-8 -8,7.5 s 8,-2.5 8,7.5 v 27 H 87.49052810668945 l -6,4 -3,0 -6,-4 h -7 a 8,8 0 0,0 -8,8 v 13 a 8,8 0 0,0 8,8 H 87.49052810668945 v 10 H 29.5 l -6,4 -3,0 -6,-4 H 8 a 8,8 0 0,1 -8,-8 z&#10;"/><path class="blocklyPathLight" stroke="#4db7ed" d="m 0.5,7.5 A 7.5,7.5 0 0,1 8,0.5 H 15 l 6,4 3,0 6,-4 H 86.99052810668945 M 86.99052810668945,0.5 M 82.49052810668945,19.3 l 3.68,-2.1 M 86.99052810668945,47.5 M 59.4801204666038,74.01040764008566 a 8.5,8.5 0 0,0 6.0104076400856545,2.4895923599143455 H 86.99052810668945 M 2.6966991411008934,83.3033008588991 A 7.5,7.5 0 0,1 0.5,78 V 8&#10;"/><g class="blocklyIconGroup" display="block" transform="translate(10,5)"><rect class="blocklyIconShape" rx="4" ry="4" height="16" width="16"/><path class="blocklyIconSymbol" d="m4.203,7.296 0,1.368 -0.92,0.677 -0.11,0.41 0.9,1.559 0.41,0.11 1.043,-0.457 1.187,0.683 0.127,1.134 0.3,0.3 1.8,0 0.3,-0.299 0.127,-1.138 1.185,-0.682 1.046,0.458 0.409,-0.11 0.9,-1.559 -0.11,-0.41 -0.92,-0.677 0,-1.366 0.92,-0.677 0.11,-0.41 -0.9,-1.559 -0.409,-0.109 -1.046,0.458 -1.185,-0.682 -0.127,-1.138 -0.3,-0.299 -1.8,0 -0.3,0.3 -0.126,1.135 -1.187,0.682 -1.043,-0.457 -0.41,0.11 -0.899,1.559 0.108,0.409z"/><circle class="blocklyIconShape" r="2.7" cx="8" cy="8"/></g><g class="blocklyDraggable" transform="translate(88.49052810668945,0)"><path class="blocklyPathDark" transform="translate(1,1)" fill="#007ab7" d="m 0,0 H 20 H 961.5066518783569 v 47 H 0 V 20 c 0,-10 -8,8 -8,-7.5 s 8,2.5 8,-7.5 z&#10;M 446.4947409629822,5 h -430.4947409629822 v 5 c 0,10 -8,-8 -8,7.5 s 8,-2.5 8,7.5 v 18 h 430.4947409629822 z M 951.5066518783569,5 h -454.12322759628296 v 5 c 0,10 -8,-8 -8,7.5 s 8,-2.5 8,7.5 v 18 h 454.12322759628296 z"/><path class="blocklyPath" fill="#0098e5" d="m 0,0 H 20 H 961.5066518783569 v 47 H 0 V 20 c 0,-10 -8,8 -8,-7.5 s 8,2.5 8,-7.5 z&#10;M 446.4947409629822,5 h -430.4947409629822 v 5 c 0,10 -8,-8 -8,7.5 s 8,-2.5 8,7.5 v 18 h 430.4947409629822 z M 951.5066518783569,5 h -454.12322759628296 v 5 c 0,10 -8,-8 -8,7.5 s 8,-2.5 8,7.5 v 18 h 454.12322759628296 z"/><path class="blocklyPathLight" stroke="#4db7ed" d="m 0.5,0.5 H 19.5 M 19.5,0.5 H 961.0066518783569 M 0.5,46.5 V 18.5 m -7.36,-0.5 q -1.52,-5.5 0,-11 m 7.36,1 V 0.5 H 1&#10;M 446.9947409629822,5.5 v 38 h -430.4947409629822 M 10.9,24.3 l 3.68,-2.1 M 952.0066518783569,5.5 v 38 h -454.12322759628296 M 492.28342428207395,24.3 l 3.68,-2.1"/><g class="blocklyDraggable" transform="translate(17,6)"><path class="blocklyPathDark" transform="translate(1,1)" fill="#b71e00" d="m 0,0 H 20 H 428.4947409629822 v 36 H 0 V 20 c 0,-10 -8,8 -8,-7.5 s 8,2.5 8,-7.5 z&#10;M 159.70543670654297,5 h -87.24325561523438 v 5 c 0,10 -8,-8 -8,7.5 s 8,-2.5 8,7.5 v 7 h 87.24325561523438 z M 418.4947409629822,5 h -80.71321868896484 v 5 c 0,10 -8,-8 -8,7.5 s 8,-2.5 8,7.5 v 7 h 80.71321868896484 z"/><path class="blocklyPath" fill="#e52600" d="m 0,0 H 20 H 428.4947409629822 v 36 H 0 V 20 c 0,-10 -8,8 -8,-7.5 s 8,2.5 8,-7.5 z&#10;M 159.70543670654297,5 h -87.24325561523438 v 5 c 0,10 -8,-8 -8,7.5 s 8,-2.5 8,7.5 v 7 h 87.24325561523438 z M 418.4947409629822,5 h -80.71321868896484 v 5 c 0,10 -8,-8 -8,7.5 s 8,-2.5 8,7.5 v 7 h 80.71321868896484 z"/><path class="blocklyPathLight" stroke="#ed674d" d="m 0.5,0.5 H 19.5 M 19.5,0.5 H 427.9947409629822 M 0.5,35.5 V 18.5 m -7.36,-0.5 q -1.52,-5.5 0,-11 m 7.36,1 V 0.5 H 1&#10;M 160.20543670654297,5.5 v 27 h -87.24325561523438 M 67.3621810913086,24.3 l 3.68,-2.1 M 418.9947409629822,5.5 v 27 h -80.71321868896484 M 332.6815222740173,24.3 l 3.68,-2.1"/><text class="blocklyText" y="12.5" transform="translate(10,10)">v tabeli</text><g class="blocklyEditableText" transform="translate(169.70543670654297,10)" style="cursor: default;"><rect rx="4" ry="4" x="-5" y="0" height="16" width="49.9536247253418"/><text class="blocklyText" y="12.5">vrni<tspan style="fill: rgb(229, 38, 0);"> ▾</tspan></text></g><text class="blocklyText" y="12.5" transform="translate(219.65906143188477,10)"> </text><g class="blocklyEditableText" transform="translate(233.73318243026733,10)" style="cursor: default;"><rect rx="4" ry="4" x="-5" y="0" height="16" width="98.04833984375"/><text class="blocklyText" y="12.5">element št.<tspan style="fill: rgb(229, 38, 0);"> ▾</tspan></text></g><g class="blocklyDraggable" transform="translate(73.4621810913086,6)"><path class="blocklyPathDark" transform="translate(1,1)" fill="#7a00b7" d="m 0,0 H 85.24325561523438 v 25 H 0 V 20 c 0,-10 -8,8 -8,-7.5 s 8,2.5 8,-7.5 z&#10;"/><path class="blocklyPath" fill="#9900e5" d="m 0,0 H 85.24325561523438 v 25 H 0 V 20 c 0,-10 -8,8 -8,-7.5 s 8,2.5 8,-7.5 z&#10;"/><path class="blocklyPathLight" stroke="#b84ded" d="m 0.5,0.5 H 84.74325561523438 M 84.74325561523438,0.5 M 0.5,24.5 V 18.5 m -7.36,-0.5 q -1.52,-5.5 0,-11 m 7.36,1 V 0.5 H 1&#10;"/><g class="blocklyEditableText" transform="translate(10,5)" style="cursor: default;"><rect rx="4" ry="4" x="-5" y="0" height="16" width="75.24325561523438"/><text class="blocklyText" y="12.5">prodaja<tspan style="fill: rgb(153, 0, 229);"> ▾</tspan></text></g></g><g class="blocklyDraggable" transform="translate(338.78152227401733,6)"><path class="blocklyPathDark" transform="translate(1,1)" fill="#7a00b7" d="m 0,0 H 78.71321868896484 v 25 H 0 V 20 c 0,-10 -8,8 -8,-7.5 s 8,2.5 8,-7.5 z&#10;"/><path class="blocklyPath" fill="#9900e5" d="m 0,0 H 78.71321868896484 v 25 H 0 V 20 c 0,-10 -8,8 -8,-7.5 s 8,2.5 8,-7.5 z&#10;"/><path class="blocklyPathLight" stroke="#b84ded" d="m 0.5,0.5 H 78.21321868896484 M 78.21321868896484,0.5 M 0.5,24.5 V 18.5 m -7.36,-0.5 q -1.52,-5.5 0,-11 m 7.36,1 V 0.5 H 1&#10;"/><g class="blocklyEditableText" transform="translate(10,5)" style="cursor: default;"><rect rx="4" ry="4" x="-5" y="0" height="16" width="68.71321868896484"/><text class="blocklyText" y="12.5">indeks<tspan style="fill: rgb(153, 0, 229);"> ▾</tspan></text></g></g></g><g class="blocklyDraggable" transform="translate(498.383424282074,6)"><path class="blocklyPathDark" transform="translate(1,1)" fill="#b71e00" d="m 0,0 H 20 H 452.12322759628296 v 36 H 0 V 20 c 0,-10 -8,8 -8,-7.5 s 8,2.5 8,-7.5 z&#10;M 159.70543670654297,5 h -87.24325561523438 v 5 c 0,10 -8,-8 -8,7.5 s 8,-2.5 8,7.5 v 7 h 87.24325561523438 z M 442.12322759628296,5 h -104.34170532226562 v 5 c 0,10 -8,-8 -8,7.5 s 8,-2.5 8,7.5 v 7 h 104.34170532226562 z"/><path class="blocklyPath" fill="#e52600" d="m 0,0 H 20 H 452.12322759628296 v 36 H 0 V 20 c 0,-10 -8,8 -8,-7.5 s 8,2.5 8,-7.5 z&#10;M 159.70543670654297,5 h -87.24325561523438 v 5 c 0,10 -8,-8 -8,7.5 s 8,-2.5 8,7.5 v 7 h 87.24325561523438 z M 442.12322759628296,5 h -104.34170532226562 v 5 c 0,10 -8,-8 -8,7.5 s 8,-2.5 8,7.5 v 7 h 104.34170532226562 z"/><path class="blocklyPathLight" stroke="#ed674d" d="m 0.5,0.5 H 19.5 M 19.5,0.5 H 451.62322759628296 M 0.5,35.5 V 18.5 m -7.36,-0.5 q -1.52,-5.5 0,-11 m 7.36,1 V 0.5 H 1&#10;M 160.20543670654297,5.5 v 27 h -87.24325561523438 M 67.3621810913086,24.3 l 3.68,-2.1 M 442.62322759628296,5.5 v 27 h -104.34170532226562 M 332.6815222740173,24.3 l 3.68,-2.1"/><text class="blocklyText" y="12.5" transform="translate(10,10)">v tabeli</text><g class="blocklyEditableText" transform="translate(169.70543670654297,10)" style="cursor: default;"><rect rx="4" ry="4" x="-5" y="0" height="16" width="49.9536247253418"/><text class="blocklyText" y="12.5">vrni<tspan style="fill: rgb(229, 38, 0);"> ▾</tspan></text></g><text class="blocklyText" y="12.5" transform="translate(219.65906143188477,10)"> </text><g class="blocklyEditableText" transform="translate(233.73318243026733,10)" style="cursor: default;"><rect rx="4" ry="4" x="-5" y="0" height="16" width="98.04833984375"/><text class="blocklyText" y="12.5">element št.<tspan style="fill: rgb(229, 38, 0);"> ▾</tspan></text></g><g class="blocklyDraggable" transform="translate(73.4621810913086,6)"><path class="blocklyPathDark" transform="translate(1,1)" fill="#7a00b7" d="m 0,0 H 85.24325561523438 v 25 H 0 V 20 c 0,-10 -8,8 -8,-7.5 s 8,2.5 8,-7.5 z&#10;"/><path class="blocklyPath" fill="#9900e5" d="m 0,0 H 85.24325561523438 v 25 H 0 V 20 c 0,-10 -8,8 -8,-7.5 s 8,2.5 8,-7.5 z&#10;"/><path class="blocklyPathLight" stroke="#b84ded" d="m 0.5,0.5 H 84.74325561523438 M 84.74325561523438,0.5 M 0.5,24.5 V 18.5 m -7.36,-0.5 q -1.52,-5.5 0,-11 m 7.36,1 V 0.5 H 1&#10;"/><g class="blocklyEditableText" transform="translate(10,5)" style="cursor: default;"><rect rx="4" ry="4" x="-5" y="0" height="16" width="75.24325561523438"/><text class="blocklyText" y="12.5">prodaja<tspan style="fill: rgb(153, 0, 229);"> ▾</tspan></text></g></g><g class="blocklyDraggable" transform="translate(338.78152227401733,6)"><path class="blocklyPathDark" transform="translate(1,1)" fill="#7a00b7" d="m 0,0 H 102.34170532226562 v 25 H 0 V 20 c 0,-10 -8,8 -8,-7.5 s 8,2.5 8,-7.5 z&#10;"/><path class="blocklyPath" fill="#9900e5" d="m 0,0 H 102.34170532226562 v 25 H 0 V 20 c 0,-10 -8,8 -8,-7.5 s 8,2.5 8,-7.5 z&#10;"/><path class="blocklyPathLight" stroke="#b84ded" d="m 0.5,0.5 H 101.84170532226562 M 101.84170532226562,0.5 M 0.5,24.5 V 18.5 m -7.36,-0.5 q -1.52,-5.5 0,-11 m 7.36,1 V 0.5 H 1&#10;"/><g class="blocklyEditableText" transform="translate(10,5)" style="cursor: default;"><rect rx="4" ry="4" x="-5" y="0" height="16" width="92.34170532226562"/><text class="blocklyText" y="12.5">indeksMin<tspan style="fill: rgb(153, 0, 229);"> ▾</tspan></text></g></g></g><g class="blocklyEditableText" transform="translate(456.4947409629822,10)" style="cursor: default;"><rect rx="4" ry="4" x="-5" y="0" height="16" width="34.8886833190918"/><text class="blocklyText" y="12.5">&lt;<tspan style="fill: rgb(0, 152, 229);"> ▾</tspan></text></g></g><g class="blocklyDraggable" transform="translate(58.49052810668945,48)"><path class="blocklyPathDark" transform="translate(1,1)" fill="#7a00b7" d="m 0,8 A 8,8 0 0,1 8,0 H 15 l 6,4 3,0 6,-4 H 193.1147174835205 v 5 c 0,10 -8,-8 -8,7.5 s 8,-2.5 8,7.5 v 5 H 29.5 l -6,4 -3,0 -6,-4 H 8 a 8,8 0 0,1 -8,-8 z&#10;"/><path class="blocklyPath" fill="#9900e5" d="m 0,8 A 8,8 0 0,1 8,0 H 15 l 6,4 3,0 6,-4 H 193.1147174835205 v 5 c 0,10 -8,-8 -8,7.5 s 8,-2.5 8,7.5 v 5 H 29.5 l -6,4 -3,0 -6,-4 H 8 a 8,8 0 0,1 -8,-8 z&#10;"/><path class="blocklyPathLight" stroke="#b84ded" d="m 0.5,7.5 A 7.5,7.5 0 0,1 8,0.5 H 15 l 6,4 3,0 6,-4 H 192.6147174835205 M 192.6147174835205,0.5 M 188.1147174835205,19.3 l 3.68,-2.1 M 2.6966991411008934,22.303300858899107 A 7.5,7.5 0 0,1 0.5,17 V 8&#10;"/><g class="blocklyDraggable" transform="translate(194.1147174835205,0)"><path class="blocklyPathDark" transform="translate(1,1)" fill="#7a00b7" d="m 0,0 H 78.71321868896484 v 25 H 0 V 20 c 0,-10 -8,8 -8,-7.5 s 8,2.5 8,-7.5 z&#10;"/><path class="blocklyPath" fill="#9900e5" d="m 0,0 H 78.71321868896484 v 25 H 0 V 20 c 0,-10 -8,8 -8,-7.5 s 8,2.5 8,-7.5 z&#10;"/><path class="blocklyPathLight" stroke="#b84ded" d="m 0.5,0.5 H 78.21321868896484 M 78.21321868896484,0.5 M 0.5,24.5 V 18.5 m -7.36,-0.5 q -1.52,-5.5 0,-11 m 7.36,1 V 0.5 H 1&#10;"/><g class="blocklyEditableText" transform="translate(10,5)" style="cursor: default;"><rect rx="4" ry="4" x="-5" y="0" height="16" width="68.71321868896484"/><text class="blocklyText" y="12.5">indeks<tspan style="fill: rgb(153, 0, 229);"> ▾</tspan></text></g></g><text class="blocklyText" y="12.5" transform="translate(10,5)">nastavi</text><g class="blocklyEditableText" transform="translate(66.46219635009766,5)" style="cursor: default;"><rect rx="4" ry="4" x="-5" y="0" height="16" width="92.34170532226562"/><text class="blocklyText" y="12.5">indeksMin<tspan style="fill: rgb(153, 0, 229);"> ▾</tspan></text></g><text class="blocklyText" y="12.5" transform="translate(158.80390167236328,5)">na</text></g><text class="blocklyText" y="12.5" transform="translate(37,5)">če</text><text class="blocklyText" y="12.5" transform="translate(10,52)">izvedi</text></g><g class="blocklyDraggable" transform="translate(0,138)"><path class="blocklyPathDark" transform="translate(1,1)" fill="#b79900" d="m 0,0 H 15 l 6,4 3,0 6,-4 H 60.592979431152344 v 5 c 0,10 -8,-8 -8,7.5 s 8,-2.5 8,7.5 v 5 H 29.5 l -6,4 -3,0 -6,-4 H 8 a 8,8 0 0,1 -8,-8 z&#10;"/><path class="blocklyPath" fill="#e5bf00" d="m 0,0 H 15 l 6,4 3,0 6,-4 H 60.592979431152344 v 5 c 0,10 -8,-8 -8,7.5 s 8,-2.5 8,7.5 v 5 H 29.5 l -6,4 -3,0 -6,-4 H 8 a 8,8 0 0,1 -8,-8 z&#10;"/><path class="blocklyPathLight" stroke="#edd24d" d="m 0.5,0.5 H 15 l 6,4 3,0 6,-4 H 60.092979431152344 M 60.092979431152344,0.5 M 55.592979431152344,19.3 l 3.68,-2.1 M 2.6966991411008934,22.303300858899107 A 7.5,7.5 0 0,1 0.5,17 V 0.5&#10;"/><g class="blocklyDraggable" transform="translate(61.592979431152344,0)"><path class="blocklyPathDark" transform="translate(1,1)" fill="#7a00b7" d="m 0,0 H 102.34170532226562 v 25 H 0 V 20 c 0,-10 -8,8 -8,-7.5 s 8,2.5 8,-7.5 z&#10;"/><path class="blocklyPath" fill="#9900e5" d="m 0,0 H 102.34170532226562 v 25 H 0 V 20 c 0,-10 -8,8 -8,-7.5 s 8,2.5 8,-7.5 z&#10;"/><path class="blocklyPathLight" stroke="#b84ded" d="m 0.5,0.5 H 101.84170532226562 M 101.84170532226562,0.5 M 0.5,24.5 V 18.5 m -7.36,-0.5 q -1.52,-5.5 0,-11 m 7.36,1 V 0.5 H 1&#10;"/><g class="blocklyEditableText" transform="translate(10,5)" style="cursor: default;"><rect rx="4" ry="4" x="-5" y="0" height="16" width="92.34170532226562"/><text class="blocklyText" y="12.5">indeksMin<tspan style="fill: rgb(153, 0, 229);"> ▾</tspan></text></g></g><text class="blocklyText" y="12.5" transform="translate(10,5)">izpiši</text></g><text class="blocklyText" y="12.5" transform="translate(10,10)">za</text><g class="blocklyEditableText" transform="translate(35.48740196228027,10)" style="cursor: default;"><rect rx="4" ry="4" x="-5" y="0" height="16" width="68.71321868896484"/><text class="blocklyText" y="12.5">indeks<tspan style="fill: rgb(229, 0, 153);"> ▾</tspan></text></g><text class="blocklyText" y="12.5" transform="translate(104.20062065124512,10)">od</text><text class="blocklyText" y="12.5" transform="translate(176.66684436798096,10)">do</text><text class="blocklyText" y="12.5" transform="translate(381.69026470184326,10)">s korakom</text><text class="blocklyText" y="12.5" transform="translate(10,41)">izvedi</text><g class="blocklyDraggable" transform="translate(209.97766017913818,6)"><path class="blocklyPathDark" transform="translate(1,1)" fill="#b71e00" d="m 0,0 H 74.4693489074707 v 5 c 0,10 -8,-8 -8,7.5 s 8,-2.5 8,7.5 v 5 H 0 V 20 c 0,-10 -8,8 -8,-7.5 s 8,2.5 8,-7.5 z&#10;"/><path class="blocklyPath" fill="#e52600" d="m 0,0 H 74.4693489074707 v 5 c 0,10 -8,-8 -8,7.5 s 8,-2.5 8,7.5 v 5 H 0 V 20 c 0,-10 -8,8 -8,-7.5 s 8,2.5 8,-7.5 z&#10;"/><path class="blocklyPathLight" stroke="#ed674d" d="m 0.5,0.5 H 73.9693489074707 M 73.9693489074707,0.5 M 69.4693489074707,19.3 l 3.68,-2.1 M 0.5,24.5 V 18.5 m -7.36,-0.5 q -1.52,-5.5 0,-11 m 7.36,1 V 0.5 H 1&#10;"/><text class="blocklyText" y="12.5" transform="translate(10,5)">dolžina</text><g class="blocklyDraggable" transform="translate(75.4693489074707,0)"><path class="blocklyPathDark" transform="translate(1,1)" fill="#7a00b7" d="m 0,0 H 85.24325561523438 v 25 H 0 V 20 c 0,-10 -8,8 -8,-7.5 s 8,2.5 8,-7.5 z&#10;"/><path class="blocklyPath" fill="#9900e5" d="m 0,0 H 85.24325561523438 v 25 H 0 V 20 c 0,-10 -8,8 -8,-7.5 s 8,2.5 8,-7.5 z&#10;"/><path class="blocklyPathLight" stroke="#b84ded" d="m 0.5,0.5 H 84.74325561523438 M 84.74325561523438,0.5 M 0.5,24.5 V 18.5 m -7.36,-0.5 q -1.52,-5.5 0,-11 m 7.36,1 V 0.5 H 1&#10;"/><g class="blocklyEditableText" transform="translate(10,5)" style="cursor: default;"><rect rx="4" ry="4" x="-5" y="0" height="16" width="75.24325561523438"/><text class="blocklyText" y="12.5">prodaja<tspan style="fill: rgb(153, 0, 229);"> ▾</tspan></text></g></g></g></g></g></g></g></svg>