<svg xmlns="http://www.w3.org/2000/svg" viewBox="7 23 1027.043472290039 347" class="blocklySvg geras-renderer rin_light-theme" width="1027.043472290039" height="347" style="background-color: transparent"><style xmlns="http://www.w3.org/1999/xhtml">.geras-renderer.rin_light-theme .blocklyText, 
.geras-renderer.rin_light-theme .blocklyFlyoutLabelText {
font: normal 11pt sans-serif;
}
.geras-renderer.rin_light-theme .blocklyText {
fill: #fff;
}
.geras-renderer.rin_light-theme .blocklyNonEditableText&gt;rect,
.geras-renderer.rin_light-theme .blocklyEditableText&gt;rect {
fill: #fff;
fill-opacity: .6;
stroke: none;
}
.geras-renderer.rin_light-theme .blocklyNonEditableText&gt;text,
.geras-renderer.rin_light-theme .blocklyEditableText&gt;text {
fill: #000;
}
.geras-renderer.rin_light-theme .blocklyFlyoutLabelText {
fill: #000;
}
.geras-renderer.rin_light-theme .blocklyText.blocklyBubbleText {
fill: #000;
}
.geras-renderer.rin_light-theme .blocklyEditableText:not(.editing):hover&gt;rect {
stroke: #fff;
stroke-width: 2;
}
.geras-renderer.rin_light-theme .blocklyHtmlInput {
font-family: sans-serif;
font-weight: normal;
}
.geras-renderer.rin_light-theme .blocklySelected&gt;.blocklyPath {
stroke: #fc3;
stroke-width: 3px;
}
.geras-renderer.rin_light-theme .blocklyHighlightedConnectionPath {
stroke: #fc3;
}
.geras-renderer.rin_light-theme .blocklyReplaceable .blocklyPath {
fill-opacity: .5;
}
.geras-renderer.rin_light-theme .blocklyReplaceable .blocklyPathLight,
.geras-renderer.rin_light-theme .blocklyReplaceable .blocklyPathDark {
display: none;
}
.geras-renderer.rin_light-theme .blocklyInsertionMarker&gt;.blocklyPath {
fill-opacity: 0.2;
stroke: none;
}
.geras-renderer.rin_light-theme .blocklyInsertionMarker&gt;.blocklyPathLight,
.geras-renderer.rin_light-theme .blocklyInsertionMarker&gt;.blocklyPathDark {
fill-opacity: 0.2;
stroke: none;
}
.blocklySvg {
background-color: #fff;
outline: none;
overflow: hidden;
position: absolute;
display: block;
}
.blocklyWidgetDiv {
display: none;
position: absolute;
z-index: 99999;
}
.injectionDiv {
height: 100%;
position: relative;
overflow: hidden;
touch-action: none;
}
.blocklyNonSelectable {
user-select: none;
-ms-user-select: none;
-webkit-user-select: none;
}
.blocklyWsDragSurface {
display: none;
position: absolute;
top: 0;
left: 0;
}
.blocklyWsDragSurface.blocklyOverflowVisible {
overflow: visible;
}
.blocklyBlockDragSurface {
display: none;
position: absolute;
top: 0;
left: 0;
right: 0;
bottom: 0;
overflow: visible !important;
z-index: 50;
}
.blocklyBlockCanvas.blocklyCanvasTransitioning,
.blocklyBubbleCanvas.blocklyCanvasTransitioning {
transition: transform .5s;
}
.blocklyTooltipDiv {
background-color: #ffffc7;
border: 1px solid #ddc;
box-shadow: 4px 4px 20px 1px rgba(0,0,0,.15);
color: #000;
display: none;
font: 9pt sans-serif;
opacity: .9;
padding: 2px;
position: absolute;
z-index: 100000;
}
.blocklyDropDownDiv {
position: absolute;
left: 0;
top: 0;
z-index: 1000;
display: none;
border: 1px solid;
border-color: #dadce0;
background-color: #fff;
border-radius: 2px;
padding: 4px;
box-shadow: 0 0 3px 1px rgba(0,0,0,.3);
}
.blocklyDropDownDiv.blocklyFocused {
box-shadow: 0 0 6px 1px rgba(0,0,0,.3);
}
.blocklyDropDownContent {
max-height: 300px;
overflow: auto;
overflow-x: hidden;
position: relative;
}
.blocklyDropDownArrow {
position: absolute;
left: 0;
top: 0;
width: 16px;
height: 16px;
z-index: -1;
background-color: inherit;
border-color: inherit;
}
.blocklyDropDownButton {
display: inline-block;
float: left;
padding: 0;
margin: 4px;
border-radius: 4px;
outline: none;
border: 1px solid;
transition: box-shadow .1s;
cursor: pointer;
}
.blocklyArrowTop {
border-top: 1px solid;
border-left: 1px solid;
border-top-left-radius: 4px;
border-color: inherit;
}
.blocklyArrowBottom {
border-bottom: 1px solid;
border-right: 1px solid;
border-bottom-right-radius: 4px;
border-color: inherit;
}
.blocklyResizeSE {
cursor: se-resize;
fill: #aaa;
}
.blocklyResizeSW {
cursor: sw-resize;
fill: #aaa;
}
.blocklyResizeLine {
stroke: #515A5A;
stroke-width: 1;
}
.blocklyHighlightedConnectionPath {
fill: none;
stroke: #fc3;
stroke-width: 4px;
}
.blocklyPathLight {
fill: none;
stroke-linecap: round;
stroke-width: 1;
}
.blocklySelected&gt;.blocklyPathLight {
display: none;
}
.blocklyDraggable {
cursor: url("blockly/media/handopen.cur"), auto;
cursor: grab;
cursor: -webkit-grab;
}
.blocklyDragging {
cursor: url("blockly/media/handclosed.cur"), auto;
cursor: grabbing;
cursor: -webkit-grabbing;
}
.blocklyDraggable:active {
cursor: url("blockly/media/handclosed.cur"), auto;
cursor: grabbing;
cursor: -webkit-grabbing;
}
.blocklyBlockDragSurface .blocklyDraggable {
cursor: url("blockly/media/handclosed.cur"), auto;
cursor: grabbing;
cursor: -webkit-grabbing;
}
.blocklyDragging.blocklyDraggingDelete {
cursor: url("blockly/media/handdelete.cur"), auto;
}
.blocklyDragging&gt;.blocklyPath,
.blocklyDragging&gt;.blocklyPathLight {
fill-opacity: .8;
stroke-opacity: .8;
}
.blocklyDragging&gt;.blocklyPathDark {
display: none;
}
.blocklyDisabled&gt;.blocklyPath {
fill-opacity: .5;
stroke-opacity: .5;
}
.blocklyDisabled&gt;.blocklyPathLight,
.blocklyDisabled&gt;.blocklyPathDark {
display: none;
}
.blocklyInsertionMarker&gt;.blocklyPath,
.blocklyInsertionMarker&gt;.blocklyPathLight,
.blocklyInsertionMarker&gt;.blocklyPathDark {
fill-opacity: .2;
stroke: none;
}
.blocklyMultilineText {
font-family: monospace;
}
.blocklyNonEditableText&gt;text {
pointer-events: none;
}
.blocklyFlyout {
position: absolute;
z-index: 20;
}
.blocklyText text {
cursor: default;
}
.blocklySvg text,
.blocklyBlockDragSurface text {
user-select: none;
-ms-user-select: none;
-webkit-user-select: none;
cursor: inherit;
}
.blocklyHidden {
display: none;
}
.blocklyFieldDropdown:not(.blocklyHidden) {
display: block;
}
.blocklyIconGroup {
cursor: default;
}
.blocklyIconGroup:not(:hover),
.blocklyIconGroupReadonly {
opacity: .6;
}
.blocklyIconShape {
fill: #00f;
stroke: #fff;
stroke-width: 1px;
}
.blocklyIconSymbol {
fill: #fff;
}
.blocklyMinimalBody {
margin: 0;
padding: 0;
}
.blocklyHtmlInput {
border: none;
border-radius: 4px;
height: 100%;
margin: 0;
outline: none;
padding: 0;
width: 100%;
text-align: center;
display: block;
box-sizing: border-box;
}
.blocklyHtmlInput::-ms-clear {
display: none;
}
.blocklyMainBackground {
stroke-width: 1;
stroke: #c6c6c6;
}
.blocklyMutatorBackground {
fill: #fff;
stroke: #ddd;
stroke-width: 1;
}
.blocklyFlyoutBackground {
fill: #ddd;
fill-opacity: .8;
}
.blocklyMainWorkspaceScrollbar {
z-index: 20;
}
.blocklyFlyoutScrollbar {
z-index: 30;
}
.blocklyScrollbarHorizontal,
.blocklyScrollbarVertical {
position: absolute;
outline: none;
}
.blocklyScrollbarBackground {
opacity: 0;
}
.blocklyScrollbarHandle {
fill: #ccc;
}
.blocklyScrollbarBackground:hover+.blocklyScrollbarHandle,
.blocklyScrollbarHandle:hover {
fill: #bbb;
}
.blocklyFlyout .blocklyScrollbarHandle {
fill: #bbb;
}
.blocklyFlyout .blocklyScrollbarBackground:hover+.blocklyScrollbarHandle,
.blocklyFlyout .blocklyScrollbarHandle:hover {
fill: #aaa;
}
.blocklyInvalidInput {
background: #faa;
}
.blocklyVerticalMarker {
stroke-width: 3px;
fill: rgba(255,255,255,.5);
pointer-events: none;
}
.blocklyComputeCanvas {
position: absolute;
width: 0;
height: 0;
}
.blocklyNoPointerEvents {
pointer-events: none;
}
.blocklyContextMenu {
border-radius: 4px;
max-height: 100%;
}
.blocklyDropdownMenu {
border-radius: 2px;
padding: 0 !important;
}
.blocklyDropdownMenu .blocklyMenuItem {
padding-left: 28px;
}
.blocklyDropdownMenu .blocklyMenuItemRtl {
padding-left: 5px;
padding-right: 28px;
}
.blocklyWidgetDiv .blocklyMenu {
background: #fff;
border: 1px solid transparent;
box-shadow: 0 0 3px 1px rgba(0,0,0,.3);
font: normal 13px Arial, sans-serif;
margin: 0;
outline: none;
padding: 4px 0;
position: absolute;
overflow-y: auto;
overflow-x: hidden;
max-height: 100%;
z-index: 20000;
}
.blocklyWidgetDiv .blocklyMenu.blocklyFocused {
box-shadow: 0 0 6px 1px rgba(0,0,0,.3);
}
.blocklyDropDownDiv .blocklyMenu {
font: normal 13px "Helvetica Neue", Helvetica, sans-serif;
outline: none;
z-index: 20000;
}
.blocklyMenuItem {
border: none;
color: #000;
cursor: pointer;
list-style: none;
margin: 0;
min-width: 7em;
padding: 6px 15px;
white-space: nowrap;
}
.blocklyMenuItemDisabled {
color: #ccc;
cursor: inherit;
}
.blocklyMenuItemHighlight {
background-color: rgba(0,0,0,.1);
}
.blocklyMenuItemCheckbox {
height: 16px;
position: absolute;
width: 16px;
}
.blocklyMenuItemSelected .blocklyMenuItemCheckbox {
background: url(blockly/media/sprites.png) no-repeat -48px -16px;
float: left;
margin-left: -24px;
position: static;
}
.blocklyMenuItemRtl .blocklyMenuItemCheckbox {
float: right;
margin-right: -24px;
}
.blocklyCommentTextarea {
background-color: #fef49c;
border: 0;
outline: 0;
margin: 0;
padding: 3px;
resize: none;
display: block;
overflow: hidden;
}
.blocklyFlyoutButton {
fill: #888;
cursor: default;
}
.blocklyFlyoutButtonShadow {
fill: #666;
}
.blocklyFlyoutButton:hover {
fill: #aaa;
}
.blocklyFlyoutLabel {
cursor: default;
}
.blocklyFlyoutLabelBackground {
opacity: 0;
}
.blocklyTreeRow:not(.blocklyTreeSelected):hover {
background-color: rgba(255, 255, 255, 0.2);
}
.blocklyToolboxDiv[layout="h"] .blocklyToolboxCategory {
margin: 1px 5px 1px 0;
}
.blocklyToolboxDiv[dir="RTL"][layout="h"] .blocklyToolboxCategory {
margin: 1px 0 1px 5px;
}
.blocklyTreeRow {
height: 22px;
line-height: 22px;
margin-bottom: 3px;
padding-right: 8px;
white-space: nowrap;
}
.blocklyToolboxDiv[dir="RTL"] .blocklyTreeRow {
margin-left: 8px;
padding-right: 0px
}
.blocklyTreeIcon {
background-image: url(blockly/media/sprites.png);
height: 16px;
vertical-align: middle;
visibility: hidden;
width: 16px;
}
.blocklyTreeIconClosed {
background-position: -32px -1px;
}
.blocklyToolboxDiv[dir="RTL"] .blocklyTreeIconClosed {
background-position: 0 -1px;
}
.blocklyTreeSelected&gt;.blocklyTreeIconClosed {
background-position: -32px -17px;
}
.blocklyToolboxDiv[dir="RTL"] .blocklyTreeSelected&gt;.blocklyTreeIconClosed {
background-position: 0 -17px;
}
.blocklyTreeIconOpen {
background-position: -16px -1px;
}
.blocklyTreeSelected&gt;.blocklyTreeIconOpen {
background-position: -16px -17px;
}
.blocklyTreeLabel {
cursor: default;
font: 16px sans-serif;
padding: 0 3px;
vertical-align: middle;
}
.blocklyToolboxDelete .blocklyTreeLabel {
cursor: url("blockly/media/handdelete.cur"), auto;
}
.blocklyTreeSelected .blocklyTreeLabel {
color: #fff;
}
.blocklyTreeSeparator {
border-bottom: solid #e5e5e5 1px;
height: 0;
margin: 5px 0;
}
.blocklyToolboxDiv[layout="h"] .blocklyTreeSeparator {
border-right: solid #e5e5e5 1px;
border-bottom: none;
height: auto;
margin: 0 5px 0 5px;
padding: 5px 0;
width: 0;
}
.blocklyToolboxDelete {
cursor: url("blockly/media/handdelete.cur"), auto;
}
.blocklyToolboxGrab {
cursor: url("blockly/media/handclosed.cur"), auto;
cursor: grabbing;
cursor: -webkit-grabbing;
}
.blocklyToolboxDiv {
background-color: #ddd;
overflow-x: visible;
overflow-y: auto;
padding: 4px 0 4px 0;
position: absolute;
z-index: 70;
-webkit-tap-highlight-color: transparent;
}
.blocklyToolboxContents {
display: flex;
flex-wrap: wrap;
flex-direction: column;
}
.blocklyToolboxContents:focus {
outline: none;
}
.blocklyZoom&gt;image, .blocklyZoom&gt;svg&gt;image {
opacity: .4;
}
.blocklyZoom&gt;image:hover, .blocklyZoom&gt;svg&gt;image:hover {
opacity: .6;
}
.blocklyZoom&gt;image:active, .blocklyZoom&gt;svg&gt;image:active {
opacity: .8;
}
.blocklyAngleCircle {
stroke: #444;
stroke-width: 1;
fill: #ddd;
fill-opacity: .8;
}
.blocklyAngleMarks {
stroke: #444;
stroke-width: 1;
}
.blocklyAngleGauge {
fill: #f88;
fill-opacity: .8;
pointer-events: none;
}
.blocklyAngleLine {
stroke: #f00;
stroke-width: 2;
stroke-linecap: round;
pointer-events: none;
}
.blocklyColourTable {
border-collapse: collapse;
display: block;
outline: none;
padding: 1px;
}
.blocklyColourTable&gt;tr&gt;td {
border: .5px solid #888;
box-sizing: border-box;
cursor: pointer;
display: inline-block;
height: 20px;
padding: 0;
width: 20px;
}
.blocklyColourTable&gt;tr&gt;td.blocklyColourHighlighted {
border-color: #eee;
box-shadow: 2px 2px 7px 2px rgba(0,0,0,.3);
position: relative;
}
.blocklyColourSelected, .blocklyColourSelected:hover {
border-color: #eee !important;
outline: 1px solid #333;
position: relative;
}
.blocklyHtmlTextAreaInput {
font-family: monospace;
resize: none;
overflow: hidden;
height: 100%;
text-align: left;
}
undefined</style><g class="blocklyBlockCanvas"><g class="blocklyMarker"><g width="100" height="5"><rect width="100" height="5" style="display: none"/><rect class="blocklyVerticalMarker" rx="10" ry="10" style="display: none"/><path transform="" style="display: none"/><path transform="" style="display: none" fill="none" stroke-width="4"/></g></g><g class="blocklyCursor"><g width="100" height="5"><rect width="100" height="5" style="display: none"><animate attributeType="XML" attributeName="fill" dur="1s" values="#cc0a0a;transparent;transparent;" repeatCount="indefinite"/></rect><rect class="blocklyVerticalMarker" rx="10" ry="10" style="display: none"/><path transform="" style="display: none"><animate attributeType="XML" attributeName="fill" dur="1s" values="#cc0a0a;transparent;transparent;" repeatCount="indefinite"/></path><path transform="" style="display: none" fill="none" stroke-width="4"><animate attributeType="XML" attributeName="stroke" dur="1s" values="#cc0a0a;transparent;transparent;" repeatCount="indefinite"/></path></g></g><g data-id="CKmf,@[lz,xrlaEimC=J" class="blocklyDraggable" transform="translate(7,23)"><path class="blocklyPathDark" transform="translate(1,1)" fill="#b79900" d=" m 0,0  m 0,8 a 8 8 0 0,1 8,-8  h 7  l 6,4  3,0  6,-4  h 390.3075866699219  v 5  H 420.3075866699219  V 5  H 420.3075866699219  V 23  H 420.3075866699219  V 23  V 27  h -390.8075866699219  l -6,4  -3,0  -6,-4  h -14.5  H 0 z&#10;"/><path class="blocklyPath" stroke="none" fill="#e5bf00" d=" m 0,0  m 0,8 a 8 8 0 0,1 8,-8  h 7  l 6,4  3,0  6,-4  h 390.3075866699219  v 5  H 420.3075866699219  V 5  H 420.3075866699219  V 23  H 420.3075866699219  V 23  V 27  h -390.8075866699219  l -6,4  -3,0  -6,-4  h -14.5  H 0 z&#10;"/><path class="blocklyPathLight" stroke="#edd24d" d=" m 0,0  m 0.5,8 a 7.5 7.5 0 0,1 8,-7.5  H 14.5  h 0.5  l 6,4  3,0  6,-4  H 419.8075866699219  H 419.8075866699219  M 0.5,26.5  V 8 &#10;"/><g transform="translate(10,5)"><text class="blocklyText" x="0" y="14">komentiraj</text></g><g class="blocklyEditableText" transform="translate(82.62344360351562,5)" style="cursor: text;"><rect rx="4" ry="4" x="0" y="0" height="18" width="332.68414306640625" class="blocklyFieldRect"/><text class="blocklyText" x="5" y="14">Program izpiše najmanjši element v podani tabeli.</text></g><g data-id="10" class="blocklyDraggable" transform="translate(0,28)"><path class="blocklyPathDark" transform="translate(1,1)" fill="#7a00b7" d=" m 0,0  h 15  l 6,4  3,0  6,-4  h 145.98133850097656  v 5  H 175.98133850097656  V 5  H 175.98133850097656  c 0,10  -8,-8  -8,7.5  s 8,-2.5  8,7.5  v 14  H 175.98133850097656  V 34  V 38  h -146.48133850097656  l -6,4  -3,0  -6,-4  h -14.5  H 0 z&#10;"/><path class="blocklyPath" stroke="none" fill="#9900e5" d=" m 0,0  h 15  l 6,4  3,0  6,-4  h 145.98133850097656  v 5  H 175.98133850097656  V 5  H 175.98133850097656  c 0,10  -8,-8  -8,7.5  s 8,-2.5  8,7.5  v 14  H 175.98133850097656  V 34  V 38  h -146.48133850097656  l -6,4  -3,0  -6,-4  h -14.5  H 0 z&#10;"/><path class="blocklyPathLight" stroke="#b84ded" d=" m 0,0  m 0.5,0.5  H 14.5  h 0.5  l 6,4  3,0  6,-4  H 175.48133850097656  H 175.48133850097656  M 175.98133850097656,5  m -5,14.3  l 3.68,-2.1  M 0.5,37.5  V 0.5 &#10;"/><g data-id="11" class="blocklyDraggable" style="display: block;" transform="translate(168.98133850097656,0)"><path class="blocklyPathDark" transform="translate(1,1)" fill="#b71e00" d=" m 8,0  h 849.0621337890625  v 5  H 857.0621337890625  V 5  H 857.0621337890625  V 34  H 857.0621337890625  V 34  V 38  h -849.0621337890625  H 8  V 20  c 0,-10  -8,8  -8,-7.5  s 8,2.5  8,-7.5 z&#10; M 162.85391235351562,5  v 5  c 0,10  -8,-8  -8,7.5  s 8,-2.5  8,7.5  v 9  h 46.45954895019531  v -29 z M 222.31346130371094,5  v 5  c 0,10  -8,-8  -8,7.5  s 8,-2.5  8,7.5  v 9  h 46.45954895019531  v -29 z M 281.77301025390625,5  v 5  c 0,10  -8,-8  -8,7.5  s 8,-2.5  8,7.5  v 9  h 46.45954895019531  v -29 z M 341.23255920410156,5  v 5  c 0,10  -8,-8  -8,7.5  s 8,-2.5  8,7.5  v 9  h 46.45954895019531  v -29 z M 400.6921081542969,5  v 5  c 0,10  -8,-8  -8,7.5  s 8,-2.5  8,7.5  v 9  h 46.45954895019531  v -29 z M 460.1516571044922,5  v 5  c 0,10  -8,-8  -8,7.5  s 8,-2.5  8,7.5  v 9  h 46.45954895019531  v -29 z M 519.6112060546875,5  v 5  c 0,10  -8,-8  -8,7.5  s 8,-2.5  8,7.5  v 9  h 38.306365966796875  v -29 z M 570.9175720214844,5  v 5  c 0,10  -8,-8  -8,7.5  s 8,-2.5  8,7.5  v 9  h 38.306365966796875  v -29 z M 622.2239379882812,5  v 5  c 0,10  -8,-8  -8,7.5  s 8,-2.5  8,7.5  v 9  h 46.45954895019531  v -29 z M 681.6834869384766,5  v 5  c 0,10  -8,-8  -8,7.5  s 8,-2.5  8,7.5  v 9  h 46.45954895019531  v -29 z M 741.1430358886719,5  v 5  c 0,10  -8,-8  -8,7.5  s 8,-2.5  8,7.5  v 9  h 46.45954895019531  v -29 z M 800.6025848388672,5  v 5  c 0,10  -8,-8  -8,7.5  s 8,-2.5  8,7.5  v 9  h 46.45954895019531  v -29 z"/><path class="blocklyPath" stroke="none" fill="#e52600" d=" m 8,0  h 849.0621337890625  v 5  H 857.0621337890625  V 5  H 857.0621337890625  V 34  H 857.0621337890625  V 34  V 38  h -849.0621337890625  H 8  V 20  c 0,-10  -8,8  -8,-7.5  s 8,2.5  8,-7.5 z&#10; M 162.85391235351562,5  v 5  c 0,10  -8,-8  -8,7.5  s 8,-2.5  8,7.5  v 9  h 46.45954895019531  v -29 z M 222.31346130371094,5  v 5  c 0,10  -8,-8  -8,7.5  s 8,-2.5  8,7.5  v 9  h 46.45954895019531  v -29 z M 281.77301025390625,5  v 5  c 0,10  -8,-8  -8,7.5  s 8,-2.5  8,7.5  v 9  h 46.45954895019531  v -29 z M 341.23255920410156,5  v 5  c 0,10  -8,-8  -8,7.5  s 8,-2.5  8,7.5  v 9  h 46.45954895019531  v -29 z M 400.6921081542969,5  v 5  c 0,10  -8,-8  -8,7.5  s 8,-2.5  8,7.5  v 9  h 46.45954895019531  v -29 z M 460.1516571044922,5  v 5  c 0,10  -8,-8  -8,7.5  s 8,-2.5  8,7.5  v 9  h 46.45954895019531  v -29 z M 519.6112060546875,5  v 5  c 0,10  -8,-8  -8,7.5  s 8,-2.5  8,7.5  v 9  h 38.306365966796875  v -29 z M 570.9175720214844,5  v 5  c 0,10  -8,-8  -8,7.5  s 8,-2.5  8,7.5  v 9  h 38.306365966796875  v -29 z M 622.2239379882812,5  v 5  c 0,10  -8,-8  -8,7.5  s 8,-2.5  8,7.5  v 9  h 46.45954895019531  v -29 z M 681.6834869384766,5  v 5  c 0,10  -8,-8  -8,7.5  s 8,-2.5  8,7.5  v 9  h 46.45954895019531  v -29 z M 741.1430358886719,5  v 5  c 0,10  -8,-8  -8,7.5  s 8,-2.5  8,7.5  v 9  h 46.45954895019531  v -29 z M 800.6025848388672,5  v 5  c 0,10  -8,-8  -8,7.5  s 8,-2.5  8,7.5  v 9  h 46.45954895019531  v -29 z"/><path class="blocklyPathLight" stroke="#ed674d" d=" m 8,0  m 0.5,0.5  H 856.5621337890625  H 856.5621337890625  M 8.5,37.5  M 8.5,37.5  V 20  v -1.5  m -7.36,-0.5  q -1.52,-5.5  0,-11  m 7.36,1  V 0.5 &#10; M 209.81346130371094,5.5  v 29  h -46.45954895019531  M 162.85391235351562,10  m -5,14.3  l 3.68,-2.1  M 269.27301025390625,5.5  v 29  h -46.45954895019531  M 222.31346130371094,10  m -5,14.3  l 3.68,-2.1  M 328.73255920410156,5.5  v 29  h -46.45954895019531  M 281.77301025390625,10  m -5,14.3  l 3.68,-2.1  M 388.1921081542969,5.5  v 29  h -46.45954895019531  M 341.23255920410156,10  m -5,14.3  l 3.68,-2.1  M 447.6516571044922,5.5  v 29  h -46.45954895019531  M 400.6921081542969,10  m -5,14.3  l 3.68,-2.1  M 507.1112060546875,5.5  v 29  h -46.45954895019531  M 460.1516571044922,10  m -5,14.3  l 3.68,-2.1  M 558.4175720214844,5.5  v 29  h -38.306365966796875  M 519.6112060546875,10  m -5,14.3  l 3.68,-2.1  M 609.7239379882812,5.5  v 29  h -38.306365966796875  M 570.9175720214844,10  m -5,14.3  l 3.68,-2.1  M 669.1834869384766,5.5  v 29  h -46.45954895019531  M 622.2239379882812,10  m -5,14.3  l 3.68,-2.1  M 728.6430358886719,5.5  v 29  h -46.45954895019531  M 681.6834869384766,10  m -5,14.3  l 3.68,-2.1  M 788.1025848388672,5.5  v 29  h -46.45954895019531  M 741.1430358886719,10  m -5,14.3  l 3.68,-2.1  M 847.5621337890625,5.5  v 29  h -46.45954895019531  M 800.6025848388672,10  m -5,14.3  l 3.68,-2.1 "/><g class="blocklyIconGroup" display="block" transform="translate(18,10)"><rect class="blocklyIconShape" rx="4" ry="4" height="16" width="16"/><path class="blocklyIconSymbol" d="m4.203,7.296 0,1.368 -0.92,0.677 -0.11,0.41 0.9,1.559 0.41,0.11 1.043,-0.457 1.187,0.683 0.127,1.134 0.3,0.3 1.8,0 0.3,-0.299 0.127,-1.138 1.185,-0.682 1.046,0.458 0.409,-0.11 0.9,-1.559 -0.11,-0.41 -0.92,-0.677 0,-1.366 0.92,-0.677 0.11,-0.41 -0.9,-1.559 -0.409,-0.109 -1.046,0.458 -1.185,-0.682 -0.127,-1.138 -0.3,-0.299 -1.8,0 -0.3,0.3 -0.126,1.135 -1.187,0.682 -1.043,-0.457 -0.41,0.11 -0.899,1.559 0.108,0.409z"/><circle class="blocklyIconShape" r="2.7" cx="8" cy="8"/></g><g data-id="12" class="blocklyDraggable" style="display: block;" transform="translate(155.85391235351562,6)"><path class="blocklyPathDark" transform="translate(1,1)" fill="#003db7" d=" m 8,0  h 44.45954895019531  v 5  H 52.45954895019531  V 5  H 52.45954895019531  V 23  H 52.45954895019531  V 23  V 27  h -44.45954895019531  H 8  V 20  c 0,-10  -8,8  -8,-7.5  s 8,2.5  8,-7.5 z&#10;"/><path class="blocklyPath" stroke="none" fill="#004ce5" d=" m 8,0  h 44.45954895019531  v 5  H 52.45954895019531  V 5  H 52.45954895019531  V 23  H 52.45954895019531  V 23  V 27  h -44.45954895019531  H 8  V 20  c 0,-10  -8,8  -8,-7.5  s 8,2.5  8,-7.5 z&#10;"/><path class="blocklyPathLight" stroke="#4d82ed" d=" m 8,0  m 0.5,0.5  H 51.95954895019531  H 51.95954895019531  M 8.5,26.5  M 8.5,26.5  V 20  v -1.5  m -7.36,-0.5  q -1.52,-5.5  0,-11  m 7.36,1  V 0.5 &#10;"/><g class="blocklyEditableText" transform="translate(13,5)" style="cursor: text;"><rect rx="4" ry="4" x="0" y="0" height="18" width="34.45954895019531" class="blocklyFieldRect"/><text class="blocklyText" x="5" y="14">182</text></g></g><g data-id="13" class="blocklyDraggable" style="display: block;" transform="translate(215.31346130371094,6)"><path class="blocklyPathDark" transform="translate(1,1)" fill="#003db7" d=" m 8,0  h 44.45954895019531  v 5  H 52.45954895019531  V 5  H 52.45954895019531  V 23  H 52.45954895019531  V 23  V 27  h -44.45954895019531  H 8  V 20  c 0,-10  -8,8  -8,-7.5  s 8,2.5  8,-7.5 z&#10;"/><path class="blocklyPath" stroke="none" fill="#004ce5" d=" m 8,0  h 44.45954895019531  v 5  H 52.45954895019531  V 5  H 52.45954895019531  V 23  H 52.45954895019531  V 23  V 27  h -44.45954895019531  H 8  V 20  c 0,-10  -8,8  -8,-7.5  s 8,2.5  8,-7.5 z&#10;"/><path class="blocklyPathLight" stroke="#4d82ed" d=" m 8,0  m 0.5,0.5  H 51.95954895019531  H 51.95954895019531  M 8.5,26.5  M 8.5,26.5  V 20  v -1.5  m -7.36,-0.5  q -1.52,-5.5  0,-11  m 7.36,1  V 0.5 &#10;"/><g class="blocklyEditableText" transform="translate(13,5)" style="cursor: text;"><rect rx="4" ry="4" x="0" y="0" height="18" width="34.45954895019531" class="blocklyFieldRect"/><text class="blocklyText" x="5" y="14">250</text></g></g><g data-id="14" class="blocklyDraggable" style="display: block;" transform="translate(274.77301025390625,6)"><path class="blocklyPathDark" transform="translate(1,1)" fill="#003db7" d=" m 8,0  h 44.45954895019531  v 5  H 52.45954895019531  V 5  H 52.45954895019531  V 23  H 52.45954895019531  V 23  V 27  h -44.45954895019531  H 8  V 20  c 0,-10  -8,8  -8,-7.5  s 8,2.5  8,-7.5 z&#10;"/><path class="blocklyPath" stroke="none" fill="#004ce5" d=" m 8,0  h 44.45954895019531  v 5  H 52.45954895019531  V 5  H 52.45954895019531  V 23  H 52.45954895019531  V 23  V 27  h -44.45954895019531  H 8  V 20  c 0,-10  -8,8  -8,-7.5  s 8,2.5  8,-7.5 z&#10;"/><path class="blocklyPathLight" stroke="#4d82ed" d=" m 8,0  m 0.5,0.5  H 51.95954895019531  H 51.95954895019531  M 8.5,26.5  M 8.5,26.5  V 20  v -1.5  m -7.36,-0.5  q -1.52,-5.5  0,-11  m 7.36,1  V 0.5 &#10;"/><g class="blocklyEditableText" transform="translate(13,5)" style="cursor: text;"><rect rx="4" ry="4" x="0" y="0" height="18" width="34.45954895019531" class="blocklyFieldRect"/><text class="blocklyText" x="5" y="14">225</text></g></g><g data-id="15" class="blocklyDraggable" style="display: block;" transform="translate(334.23255920410156,6)"><path class="blocklyPathDark" transform="translate(1,1)" fill="#003db7" d=" m 8,0  h 44.45954895019531  v 5  H 52.45954895019531  V 5  H 52.45954895019531  V 23  H 52.45954895019531  V 23  V 27  h -44.45954895019531  H 8  V 20  c 0,-10  -8,8  -8,-7.5  s 8,2.5  8,-7.5 z&#10;"/><path class="blocklyPath" stroke="none" fill="#004ce5" d=" m 8,0  h 44.45954895019531  v 5  H 52.45954895019531  V 5  H 52.45954895019531  V 23  H 52.45954895019531  V 23  V 27  h -44.45954895019531  H 8  V 20  c 0,-10  -8,8  -8,-7.5  s 8,2.5  8,-7.5 z&#10;"/><path class="blocklyPathLight" stroke="#4d82ed" d=" m 8,0  m 0.5,0.5  H 51.95954895019531  H 51.95954895019531  M 8.5,26.5  M 8.5,26.5  V 20  v -1.5  m -7.36,-0.5  q -1.52,-5.5  0,-11  m 7.36,1  V 0.5 &#10;"/><g class="blocklyEditableText" transform="translate(13,5)" style="cursor: text;"><rect rx="4" ry="4" x="0" y="0" height="18" width="34.45954895019531" class="blocklyFieldRect"/><text class="blocklyText" x="5" y="14">315</text></g></g><g data-id="16" class="blocklyDraggable" style="display: block;" transform="translate(393.6921081542969,6)"><path class="blocklyPathDark" transform="translate(1,1)" fill="#003db7" d=" m 8,0  h 44.45954895019531  v 5  H 52.45954895019531  V 5  H 52.45954895019531  V 23  H 52.45954895019531  V 23  V 27  h -44.45954895019531  H 8  V 20  c 0,-10  -8,8  -8,-7.5  s 8,2.5  8,-7.5 z&#10;"/><path class="blocklyPath" stroke="none" fill="#004ce5" d=" m 8,0  h 44.45954895019531  v 5  H 52.45954895019531  V 5  H 52.45954895019531  V 23  H 52.45954895019531  V 23  V 27  h -44.45954895019531  H 8  V 20  c 0,-10  -8,8  -8,-7.5  s 8,2.5  8,-7.5 z&#10;"/><path class="blocklyPathLight" stroke="#4d82ed" d=" m 8,0  m 0.5,0.5  H 51.95954895019531  H 51.95954895019531  M 8.5,26.5  M 8.5,26.5  V 20  v -1.5  m -7.36,-0.5  q -1.52,-5.5  0,-11  m 7.36,1  V 0.5 &#10;"/><g class="blocklyEditableText" transform="translate(13,5)" style="cursor: text;"><rect rx="4" ry="4" x="0" y="0" height="18" width="34.45954895019531" class="blocklyFieldRect"/><text class="blocklyText" x="5" y="14">328</text></g></g><g data-id="17" class="blocklyDraggable" style="display: block;" transform="translate(453.1516571044922,6)"><path class="blocklyPathDark" transform="translate(1,1)" fill="#003db7" d=" m 8,0  h 44.45954895019531  v 5  H 52.45954895019531  V 5  H 52.45954895019531  V 23  H 52.45954895019531  V 23  V 27  h -44.45954895019531  H 8  V 20  c 0,-10  -8,8  -8,-7.5  s 8,2.5  8,-7.5 z&#10;"/><path class="blocklyPath" stroke="none" fill="#004ce5" d=" m 8,0  h 44.45954895019531  v 5  H 52.45954895019531  V 5  H 52.45954895019531  V 23  H 52.45954895019531  V 23  V 27  h -44.45954895019531  H 8  V 20  c 0,-10  -8,8  -8,-7.5  s 8,2.5  8,-7.5 z&#10;"/><path class="blocklyPathLight" stroke="#4d82ed" d=" m 8,0  m 0.5,0.5  H 51.95954895019531  H 51.95954895019531  M 8.5,26.5  M 8.5,26.5  V 20  v -1.5  m -7.36,-0.5  q -1.52,-5.5  0,-11  m 7.36,1  V 0.5 &#10;"/><g class="blocklyEditableText" transform="translate(13,5)" style="cursor: text;"><rect rx="4" ry="4" x="0" y="0" height="18" width="34.45954895019531" class="blocklyFieldRect"/><text class="blocklyText" x="5" y="14">160</text></g></g><g data-id="18" class="blocklyDraggable" style="display: block;" transform="translate(512.6112060546875,6)"><path class="blocklyPathDark" transform="translate(1,1)" fill="#003db7" d=" m 8,0  h 36.306365966796875  v 5  H 44.306365966796875  V 5  H 44.306365966796875  V 23  H 44.306365966796875  V 23  V 27  h -36.306365966796875  H 8  V 20  c 0,-10  -8,8  -8,-7.5  s 8,2.5  8,-7.5 z&#10;"/><path class="blocklyPath" stroke="none" fill="#004ce5" d=" m 8,0  h 36.306365966796875  v 5  H 44.306365966796875  V 5  H 44.306365966796875  V 23  H 44.306365966796875  V 23  V 27  h -36.306365966796875  H 8  V 20  c 0,-10  -8,8  -8,-7.5  s 8,2.5  8,-7.5 z&#10;"/><path class="blocklyPathLight" stroke="#4d82ed" d=" m 8,0  m 0.5,0.5  H 43.806365966796875  H 43.806365966796875  M 8.5,26.5  M 8.5,26.5  V 20  v -1.5  m -7.36,-0.5  q -1.52,-5.5  0,-11  m 7.36,1  V 0.5 &#10;"/><g class="blocklyEditableText" transform="translate(13,5)" style="cursor: text;"><rect rx="4" ry="4" x="0" y="0" height="18" width="26.306365966796875" class="blocklyFieldRect"/><text class="blocklyText" x="5" y="14">51</text></g></g><g data-id="19" class="blocklyDraggable" style="display: block;" transform="translate(563.9175720214844,6)"><path class="blocklyPathDark" transform="translate(1,1)" fill="#003db7" d=" m 8,0  h 36.306365966796875  v 5  H 44.306365966796875  V 5  H 44.306365966796875  V 23  H 44.306365966796875  V 23  V 27  h -36.306365966796875  H 8  V 20  c 0,-10  -8,8  -8,-7.5  s 8,2.5  8,-7.5 z&#10;"/><path class="blocklyPath" stroke="none" fill="#004ce5" d=" m 8,0  h 36.306365966796875  v 5  H 44.306365966796875  V 5  H 44.306365966796875  V 23  H 44.306365966796875  V 23  V 27  h -36.306365966796875  H 8  V 20  c 0,-10  -8,8  -8,-7.5  s 8,2.5  8,-7.5 z&#10;"/><path class="blocklyPathLight" stroke="#4d82ed" d=" m 8,0  m 0.5,0.5  H 43.806365966796875  H 43.806365966796875  M 8.5,26.5  M 8.5,26.5  V 20  v -1.5  m -7.36,-0.5  q -1.52,-5.5  0,-11  m 7.36,1  V 0.5 &#10;"/><g class="blocklyEditableText" transform="translate(13,5)" style="cursor: text;"><rect rx="4" ry="4" x="0" y="0" height="18" width="26.306365966796875" class="blocklyFieldRect"/><text class="blocklyText" x="5" y="14">36</text></g></g><g data-id="20" class="blocklyDraggable" style="display: block;" transform="translate(615.2239379882812,6)"><path class="blocklyPathDark" transform="translate(1,1)" fill="#003db7" d=" m 8,0  h 44.45954895019531  v 5  H 52.45954895019531  V 5  H 52.45954895019531  V 23  H 52.45954895019531  V 23  V 27  h -44.45954895019531  H 8  V 20  c 0,-10  -8,8  -8,-7.5  s 8,2.5  8,-7.5 z&#10;"/><path class="blocklyPath" stroke="none" fill="#004ce5" d=" m 8,0  h 44.45954895019531  v 5  H 52.45954895019531  V 5  H 52.45954895019531  V 23  H 52.45954895019531  V 23  V 27  h -44.45954895019531  H 8  V 20  c 0,-10  -8,8  -8,-7.5  s 8,2.5  8,-7.5 z&#10;"/><path class="blocklyPathLight" stroke="#4d82ed" d=" m 8,0  m 0.5,0.5  H 51.95954895019531  H 51.95954895019531  M 8.5,26.5  M 8.5,26.5  V 20  v -1.5  m -7.36,-0.5  q -1.52,-5.5  0,-11  m 7.36,1  V 0.5 &#10;"/><g class="blocklyEditableText" transform="translate(13,5)" style="cursor: text;"><rect rx="4" ry="4" x="0" y="0" height="18" width="34.45954895019531" class="blocklyFieldRect"/><text class="blocklyText" x="5" y="14">340</text></g></g><g data-id="21" class="blocklyDraggable" style="display: block;" transform="translate(674.6834869384766,6)"><path class="blocklyPathDark" transform="translate(1,1)" fill="#003db7" d=" m 8,0  h 44.45954895019531  v 5  H 52.45954895019531  V 5  H 52.45954895019531  V 23  H 52.45954895019531  V 23  V 27  h -44.45954895019531  H 8  V 20  c 0,-10  -8,8  -8,-7.5  s 8,2.5  8,-7.5 z&#10;"/><path class="blocklyPath" stroke="none" fill="#004ce5" d=" m 8,0  h 44.45954895019531  v 5  H 52.45954895019531  V 5  H 52.45954895019531  V 23  H 52.45954895019531  V 23  V 27  h -44.45954895019531  H 8  V 20  c 0,-10  -8,8  -8,-7.5  s 8,2.5  8,-7.5 z&#10;"/><path class="blocklyPathLight" stroke="#4d82ed" d=" m 8,0  m 0.5,0.5  H 51.95954895019531  H 51.95954895019531  M 8.5,26.5  M 8.5,26.5  V 20  v -1.5  m -7.36,-0.5  q -1.52,-5.5  0,-11  m 7.36,1  V 0.5 &#10;"/><g class="blocklyEditableText" transform="translate(13,5)" style="cursor: text;"><rect rx="4" ry="4" x="0" y="0" height="18" width="34.45954895019531" class="blocklyFieldRect"/><text class="blocklyText" x="5" y="14">280</text></g></g><g data-id="22" class="blocklyDraggable" style="display: block;" transform="translate(734.1430358886719,6)"><path class="blocklyPathDark" transform="translate(1,1)" fill="#003db7" d=" m 8,0  h 44.45954895019531  v 5  H 52.45954895019531  V 5  H 52.45954895019531  V 23  H 52.45954895019531  V 23  V 27  h -44.45954895019531  H 8  V 20  c 0,-10  -8,8  -8,-7.5  s 8,2.5  8,-7.5 z&#10;"/><path class="blocklyPath" stroke="none" fill="#004ce5" d=" m 8,0  h 44.45954895019531  v 5  H 52.45954895019531  V 5  H 52.45954895019531  V 23  H 52.45954895019531  V 23  V 27  h -44.45954895019531  H 8  V 20  c 0,-10  -8,8  -8,-7.5  s 8,2.5  8,-7.5 z&#10;"/><path class="blocklyPathLight" stroke="#4d82ed" d=" m 8,0  m 0.5,0.5  H 51.95954895019531  H 51.95954895019531  M 8.5,26.5  M 8.5,26.5  V 20  v -1.5  m -7.36,-0.5  q -1.52,-5.5  0,-11  m 7.36,1  V 0.5 &#10;"/><g class="blocklyEditableText" transform="translate(13,5)" style="cursor: text;"><rect rx="4" ry="4" x="0" y="0" height="18" width="34.45954895019531" class="blocklyFieldRect"/><text class="blocklyText" x="5" y="14">378</text></g></g><g data-id="23" class="blocklyDraggable" style="display: block;" transform="translate(793.6025848388672,6)"><path class="blocklyPathDark" transform="translate(1,1)" fill="#003db7" d=" m 8,0  h 44.45954895019531  v 5  H 52.45954895019531  V 5  H 52.45954895019531  V 23  H 52.45954895019531  V 23  V 27  h -44.45954895019531  H 8  V 20  c 0,-10  -8,8  -8,-7.5  s 8,2.5  8,-7.5 z&#10;"/><path class="blocklyPath" stroke="none" fill="#004ce5" d=" m 8,0  h 44.45954895019531  v 5  H 52.45954895019531  V 5  H 52.45954895019531  V 23  H 52.45954895019531  V 23  V 27  h -44.45954895019531  H 8  V 20  c 0,-10  -8,8  -8,-7.5  s 8,2.5  8,-7.5 z&#10;"/><path class="blocklyPathLight" stroke="#4d82ed" d=" m 8,0  m 0.5,0.5  H 51.95954895019531  H 51.95954895019531  M 8.5,26.5  M 8.5,26.5  V 20  v -1.5  m -7.36,-0.5  q -1.52,-5.5  0,-11  m 7.36,1  V 0.5 &#10;"/><g class="blocklyEditableText" transform="translate(13,5)" style="cursor: text;"><rect rx="4" ry="4" x="0" y="0" height="18" width="34.45954895019531" class="blocklyFieldRect"/><text class="blocklyText" x="5" y="14">320</text></g></g><g transform="translate(45,10)"><text class="blocklyText" x="0" y="14">ustvari tabelo iz</text></g></g><g transform="translate(10,5)"><text class="blocklyText" x="0" y="14">nastavi</text></g><g class="blocklyEditableText" transform="translate(61.44950866699219,5)" style="cursor: default;"><rect rx="4" ry="4" x="0" y="0" height="18" width="75.2254638671875" class="blocklyFieldRect blocklyDropdownRect" stroke="#b84ded" fill="transparent"/><text class="blocklyText blocklyDropdownText" text-anchor="start" x="5" y="14">prodaja<tspan style="fill: rgb(153, 0, 229);"> ▾</tspan></text><image style="display: none;"/></g><g transform="translate(141.6749725341797,5)"><text class="blocklyText" x="0" y="14">na</text></g><g data-id=",M+C0n(Q~s_cEsZyF{SQ" class="blocklyDraggable" transform="translate(0,39)"><path class="blocklyPathDark" transform="translate(1,1)" fill="#b79900" d=" m 0,0  h 15  l 6,4  3,0  6,-4  h 382.9704895019531  v 5  H 412.9704895019531  V 5  H 412.9704895019531  V 23  H 412.9704895019531  V 23  V 27  h -383.4704895019531  l -6,4  -3,0  -6,-4  h -14.5  H 0 z&#10;"/><path class="blocklyPath" stroke="none" fill="#e5bf00" d=" m 0,0  h 15  l 6,4  3,0  6,-4  h 382.9704895019531  v 5  H 412.9704895019531  V 5  H 412.9704895019531  V 23  H 412.9704895019531  V 23  V 27  h -383.4704895019531  l -6,4  -3,0  -6,-4  h -14.5  H 0 z&#10;"/><path class="blocklyPathLight" stroke="#edd24d" d=" m 0,0  m 0.5,0.5  H 14.5  h 0.5  l 6,4  3,0  6,-4  H 412.4704895019531  H 412.4704895019531  M 0.5,26.5  V 0.5 &#10;"/><g transform="translate(10,5)"><text class="blocklyText" x="0" y="14">komentiraj</text></g><g class="blocklyEditableText" transform="translate(82.62344360351562,5)" style="cursor: text;"><rect rx="4" ry="4" x="0" y="0" height="18" width="325.3470458984375" class="blocklyFieldRect"/><text class="blocklyText" x="5" y="14">Spremenljivko postavimo na prvi element tabele.</text></g><g data-id="24" class="blocklyDraggable" transform="translate(0,28)"><path class="blocklyPathDark" transform="translate(1,1)" fill="#7a00b7" d=" m 0,0  h 15  l 6,4  3,0  6,-4  h 167.16958618164062  v 5  H 197.16958618164062  V 5  H 197.16958618164062  c 0,10  -8,-8  -8,7.5  s 8,-2.5  8,7.5  v 14  H 197.16958618164062  V 34  V 38  h -167.66958618164062  l -6,4  -3,0  -6,-4  h -14.5  H 0 z&#10;"/><path class="blocklyPath" stroke="none" fill="#9900e5" d=" m 0,0  h 15  l 6,4  3,0  6,-4  h 167.16958618164062  v 5  H 197.16958618164062  V 5  H 197.16958618164062  c 0,10  -8,-8  -8,7.5  s 8,-2.5  8,7.5  v 14  H 197.16958618164062  V 34  V 38  h -167.66958618164062  l -6,4  -3,0  -6,-4  h -14.5  H 0 z&#10;"/><path class="blocklyPathLight" stroke="#b84ded" d=" m 0,0  m 0.5,0.5  H 14.5  h 0.5  l 6,4  3,0  6,-4  H 196.66958618164062  H 196.66958618164062  M 197.16958618164062,5  m -5,14.3  l 3.68,-2.1  M 0.5,37.5  V 0.5 &#10;"/><g data-id="25" class="blocklyDraggable" style="display: block;" transform="translate(190.16958618164062,0)"><path class="blocklyPathDark" transform="translate(1,1)" fill="#b71e00" d=" m 8,0  h 321.6405944824219  v 5  H 329.6405944824219  V 5  H 329.6405944824219  V 34  H 329.6405944824219  V 34  V 38  h -321.6405944824219  H 8  V 20  c 0,-10  -8,8  -8,-7.5  s 8,2.5  8,-7.5 z&#10; M 80.44950866699219,5  v 5  c 0,10  -8,-8  -8,7.5  s 8,-2.5  8,7.5  v 9  h 87.2254638671875  v -29 z M 289.48741149902344,5  v 5  c 0,10  -8,-8  -8,7.5  s 8,-2.5  8,7.5  v 9  h 30.153182983398438  v -29 z"/><path class="blocklyPath" stroke="none" fill="#e52600" d=" m 8,0  h 321.6405944824219  v 5  H 329.6405944824219  V 5  H 329.6405944824219  V 34  H 329.6405944824219  V 34  V 38  h -321.6405944824219  H 8  V 20  c 0,-10  -8,8  -8,-7.5  s 8,2.5  8,-7.5 z&#10; M 80.44950866699219,5  v 5  c 0,10  -8,-8  -8,7.5  s 8,-2.5  8,7.5  v 9  h 87.2254638671875  v -29 z M 289.48741149902344,5  v 5  c 0,10  -8,-8  -8,7.5  s 8,-2.5  8,7.5  v 9  h 30.153182983398438  v -29 z"/><path class="blocklyPathLight" stroke="#ed674d" d=" m 8,0  m 0.5,0.5  H 329.1405944824219  H 329.1405944824219  M 8.5,37.5  M 8.5,37.5  V 20  v -1.5  m -7.36,-0.5  q -1.52,-5.5  0,-11  m 7.36,1  V 0.5 &#10; M 168.1749725341797,5.5  v 29  h -87.2254638671875  M 80.44950866699219,10  m -5,14.3  l 3.68,-2.1  M 320.1405944824219,5.5  v 29  h -30.153182983398438  M 289.48741149902344,10  m -5,14.3  l 3.68,-2.1 "/><g data-id="26" class="blocklyDraggable" style="display: block;" transform="translate(73.44950866699219,6)"><path class="blocklyPathDark" transform="translate(1,1)" fill="#7a00b7" d=" m 8,0  h 85.2254638671875  v 5  H 93.2254638671875  V 5  H 93.2254638671875  V 23  H 93.2254638671875  V 23  V 27  h -85.2254638671875  H 8  V 20  c 0,-10  -8,8  -8,-7.5  s 8,2.5  8,-7.5 z&#10;"/><path class="blocklyPath" stroke="none" fill="#9900e5" d=" m 8,0  h 85.2254638671875  v 5  H 93.2254638671875  V 5  H 93.2254638671875  V 23  H 93.2254638671875  V 23  V 27  h -85.2254638671875  H 8  V 20  c 0,-10  -8,8  -8,-7.5  s 8,2.5  8,-7.5 z&#10;"/><path class="blocklyPathLight" stroke="#b84ded" d=" m 8,0  m 0.5,0.5  H 92.7254638671875  H 92.7254638671875  M 8.5,26.5  M 8.5,26.5  V 20  v -1.5  m -7.36,-0.5  q -1.52,-5.5  0,-11  m 7.36,1  V 0.5 &#10;"/><g class="blocklyEditableText" transform="translate(13,5)" style="cursor: default;"><rect rx="4" ry="4" x="0" y="0" height="18" width="75.2254638671875" class="blocklyFieldRect blocklyDropdownRect" stroke="#b84ded" fill="transparent"/><text class="blocklyText blocklyDropdownText" text-anchor="start" x="5" y="14">prodaja<tspan style="fill: rgb(153, 0, 229);"> ▾</tspan></text><image style="display: none;"/></g></g><g data-id="27" class="blocklyDraggable" style="display: block;" transform="translate(282.48741149902344,6)"><path class="blocklyPathDark" transform="translate(1,1)" fill="#003db7" d=" m 8,0  h 28.153182983398438  v 5  H 36.15318298339844  V 5  H 36.15318298339844  V 23  H 36.15318298339844  V 23  V 27  h -28.153182983398438  H 8  V 20  c 0,-10  -8,8  -8,-7.5  s 8,2.5  8,-7.5 z&#10;"/><path class="blocklyPath" stroke="none" fill="#004ce5" d=" m 8,0  h 28.153182983398438  v 5  H 36.15318298339844  V 5  H 36.15318298339844  V 23  H 36.15318298339844  V 23  V 27  h -28.153182983398438  H 8  V 20  c 0,-10  -8,8  -8,-7.5  s 8,2.5  8,-7.5 z&#10;"/><path class="blocklyPathLight" stroke="#4d82ed" d=" m 8,0  m 0.5,0.5  H 35.65318298339844  H 35.65318298339844  M 8.5,26.5  M 8.5,26.5  V 20  v -1.5  m -7.36,-0.5  q -1.52,-5.5  0,-11  m 7.36,1  V 0.5 &#10;"/><g class="blocklyEditableText" transform="translate(13,5)" style="cursor: text;"><rect rx="4" ry="4" x="0" y="0" height="18" width="18.153182983398438" class="blocklyFieldRect"/><text class="blocklyText" x="5" y="14">0</text></g></g><g transform="translate(18,10)"><text class="blocklyText" x="0" y="14">v tabeli</text></g><g class="blocklyEditableText" transform="translate(172.6749725341797,10)" style="cursor: default;"><rect rx="4" ry="4" x="0" y="0" height="18" width="49.942718505859375" class="blocklyFieldRect blocklyDropdownRect" stroke="#ed674d" fill="transparent"/><text class="blocklyText blocklyDropdownText" text-anchor="start" x="5" y="14">vrni<tspan style="fill: rgb(229, 38, 0);"> ▾</tspan></text><image style="display: none;"/></g><g transform="translate(227.61769104003906,10)"><text class="blocklyText" x="0" y="14"> </text></g><g class="blocklyEditableText" transform="translate(236.69070434570312,10)" style="cursor: default;"><rect rx="4" ry="4" x="0" y="0" height="18" width="41.79670715332031" class="blocklyFieldRect blocklyDropdownRect" stroke="#ed674d" fill="transparent"/><text class="blocklyText blocklyDropdownText" text-anchor="start" x="5" y="14">št.<tspan style="fill: rgb(229, 38, 0);"> ▾</tspan></text><image style="display: none;"/></g></g><g transform="translate(10,5)"><text class="blocklyText" x="0" y="14">nastavi</text></g><g class="blocklyEditableText" transform="translate(61.44950866699219,5)" style="cursor: default;"><rect rx="4" ry="4" x="0" y="0" height="18" width="96.41371154785156" class="blocklyFieldRect blocklyDropdownRect" stroke="#b84ded" fill="transparent"/><text class="blocklyText blocklyDropdownText" text-anchor="start" x="5" y="14">najProdaja<tspan style="fill: rgb(153, 0, 229);"> ▾</tspan></text><image style="display: none;"/></g><g transform="translate(162.86322021484375,5)"><text class="blocklyText" x="0" y="14">na</text></g><g data-id="28" class="blocklyDraggable" transform="translate(0,39)"><path class="blocklyPathDark" transform="translate(1,1)" fill="#b7007a" d=" m 0,0  h 15  l 6,4  3,0  6,-4  h 278.78013610839844  v 5  H 308.78013610839844  V 5  H 308.78013610839844  c 0,10  -8,-8  -8,7.5  s 8,-2.5  8,7.5  v 3  H 308.78013610839844  V 27  H 87.48028564453125  l -6,4  -3,0  -6,-4  h -7 a 8 8 0 0,0 -8,8  v 127 a 8 8 0 0,0 8,8  H 308.78013610839844  H 308.78013610839844  V 170  V 180  h -279.28013610839844  l -6,4  -3,0  -6,-4  h -14.5  H 0 z&#10;"/><path class="blocklyPath" stroke="none" fill="#e50099" d=" m 0,0  h 15  l 6,4  3,0  6,-4  h 278.78013610839844  v 5  H 308.78013610839844  V 5  H 308.78013610839844  c 0,10  -8,-8  -8,7.5  s 8,-2.5  8,7.5  v 3  H 308.78013610839844  V 27  H 87.48028564453125  l -6,4  -3,0  -6,-4  h -7 a 8 8 0 0,0 -8,8  v 127 a 8 8 0 0,0 8,8  H 308.78013610839844  H 308.78013610839844  V 170  V 180  h -279.28013610839844  l -6,4  -3,0  -6,-4  h -14.5  H 0 z&#10;"/><path class="blocklyPathLight" stroke="#ed4db8" d=" m 0,0  m 0.5,0.5  H 14.5  h 0.5  l 6,4  3,0  6,-4  H 308.28013610839844  H 308.28013610839844  M 308.78013610839844,5  m -5,14.3  l 3.68,-2.1  M 57.48028564453125,170  m 1.9895923599143455,-1.9895923599143455 a 8.5 8.5 0 0,0 6.0104076400856545,2.4895923599143455  l 242.7998504638672,0  H 308.28013610839844  M 0.5,179.5  V 0.5 &#10;"/><g data-id="29" class="blocklyDraggable" style="display: block;" transform="translate(301.78013610839844,0)"><path class="blocklyPathDark" transform="translate(1,1)" fill="#7a00b7" d=" m 8,0  h 85.2254638671875  v 5  H 93.2254638671875  V 5  H 93.2254638671875  V 23  H 93.2254638671875  V 23  V 27  h -85.2254638671875  H 8  V 20  c 0,-10  -8,8  -8,-7.5  s 8,2.5  8,-7.5 z&#10;"/><path class="blocklyPath" stroke="none" fill="#9900e5" d=" m 8,0  h 85.2254638671875  v 5  H 93.2254638671875  V 5  H 93.2254638671875  V 23  H 93.2254638671875  V 23  V 27  h -85.2254638671875  H 8  V 20  c 0,-10  -8,8  -8,-7.5  s 8,2.5  8,-7.5 z&#10;"/><path class="blocklyPathLight" stroke="#b84ded" d=" m 8,0  m 0.5,0.5  H 92.7254638671875  H 92.7254638671875  M 8.5,26.5  M 8.5,26.5  V 20  v -1.5  m -7.36,-0.5  q -1.52,-5.5  0,-11  m 7.36,1  V 0.5 &#10;"/><g class="blocklyEditableText" transform="translate(13,5)" style="cursor: default;"><rect rx="4" ry="4" x="0" y="0" height="18" width="75.2254638671875" class="blocklyFieldRect blocklyDropdownRect" stroke="#b84ded" fill="transparent"/><text class="blocklyText blocklyDropdownText" text-anchor="start" x="5" y="14">prodaja<tspan style="fill: rgb(153, 0, 229);"> ▾</tspan></text><image style="display: none;"/></g></g><g data-id="36" class="blocklyDraggable" transform="translate(0,181)"><path class="blocklyPathDark" transform="translate(1,1)" fill="#b79900" d=" m 0,0  h 15  l 6,4  3,0  6,-4  h 30.584075927734375  v 5  H 60.584075927734375  V 5  H 60.584075927734375  c 0,10  -8,-8  -8,7.5  s 8,-2.5  8,7.5  v 3  H 60.584075927734375  V 23  V 27  h -31.084075927734375  l -6,4  -3,0  -6,-4  h -6.5 a 8 8 0 0,1 -8,-8 z&#10;"/><path class="blocklyPath" stroke="none" fill="#e5bf00" d=" m 0,0  h 15  l 6,4  3,0  6,-4  h 30.584075927734375  v 5  H 60.584075927734375  V 5  H 60.584075927734375  c 0,10  -8,-8  -8,7.5  s 8,-2.5  8,7.5  v 3  H 60.584075927734375  V 23  V 27  h -31.084075927734375  l -6,4  -3,0  -6,-4  h -6.5 a 8 8 0 0,1 -8,-8 z&#10;"/><path class="blocklyPathLight" stroke="#edd24d" d=" m 0,0  m 0.5,0.5  H 14.5  h 0.5  l 6,4  3,0  6,-4  H 60.084075927734375  H 60.084075927734375  M 60.584075927734375,5  m -5,14.3  l 3.68,-2.1  M 0,27  m 2.6966991411008934,-2.6966991411008934 a 7.5 7.5 0 0,1 -2.1966991411008934,-5.303300858899107  V 0.5 &#10;"/><g data-id="38" class="blocklyDraggable" style="display: block;" transform="translate(53.584075927734375,0)"><path class="blocklyPathDark" transform="translate(1,1)" fill="#7a00b7" d=" m 8,0  h 106.41371154785156  v 5  H 114.41371154785156  V 5  H 114.41371154785156  V 23  H 114.41371154785156  V 23  V 27  h -106.41371154785156  H 8  V 20  c 0,-10  -8,8  -8,-7.5  s 8,2.5  8,-7.5 z&#10;"/><path class="blocklyPath" stroke="none" fill="#9900e5" d=" m 8,0  h 106.41371154785156  v 5  H 114.41371154785156  V 5  H 114.41371154785156  V 23  H 114.41371154785156  V 23  V 27  h -106.41371154785156  H 8  V 20  c 0,-10  -8,8  -8,-7.5  s 8,2.5  8,-7.5 z&#10;"/><path class="blocklyPathLight" stroke="#b84ded" d=" m 8,0  m 0.5,0.5  H 113.91371154785156  H 113.91371154785156  M 8.5,26.5  M 8.5,26.5  V 20  v -1.5  m -7.36,-0.5  q -1.52,-5.5  0,-11  m 7.36,1  V 0.5 &#10;"/><g class="blocklyEditableText" transform="translate(13,5)" style="cursor: default;"><rect rx="4" ry="4" x="0" y="0" height="18" width="96.41371154785156" class="blocklyFieldRect blocklyDropdownRect" stroke="#b84ded" fill="transparent"/><text class="blocklyText blocklyDropdownText" text-anchor="start" x="5" y="14">najProdaja<tspan style="fill: rgb(153, 0, 229);"> ▾</tspan></text><image style="display: none;"/></g></g><g transform="translate(10,5)"><text class="blocklyText" x="0" y="14">izpiši</text></g></g><g transform="translate(10,5)"><text class="blocklyText" x="0" y="14">za vsak element</text></g><g class="blocklyEditableText" transform="translate(120.92694091796875,5)" style="cursor: default;"><rect rx="4" ry="4" x="0" y="0" height="18" width="118.4036865234375" class="blocklyFieldRect blocklyDropdownRect" stroke="#ed4db8" fill="transparent"/><text class="blocklyText blocklyDropdownText" text-anchor="start" x="5" y="14">prodajaMesec<tspan style="fill: rgb(229, 0, 153);"> ▾</tspan></text><image style="display: none;"/></g><g transform="translate(244.33062744140625,5)"><text class="blocklyText" x="0" y="14">v tabeli</text></g><g transform="translate(10,32)"><text class="blocklyText" x="0" y="14">izvedi</text></g><g data-id="m*8e;kk6izwFV.sZu~jG" class="blocklyDraggable" style="display: block;" transform="translate(58.48028564453125,28)"><path class="blocklyPathDark" transform="translate(1,1)" fill="#b79900" d=" m 0,0  m 0,8 a 8 8 0 0,1 8,-8  h 7  l 6,4  3,0  6,-4  h 405.7980041503906  v 5  H 435.7980041503906  V 5  H 435.7980041503906  V 23  H 435.7980041503906  V 23  V 27  h -406.2980041503906  l -6,4  -3,0  -6,-4  h -14.5  H 0 z&#10;"/><path class="blocklyPath" stroke="none" fill="#e5bf00" d=" m 0,0  m 0,8 a 8 8 0 0,1 8,-8  h 7  l 6,4  3,0  6,-4  h 405.7980041503906  v 5  H 435.7980041503906  V 5  H 435.7980041503906  V 23  H 435.7980041503906  V 23  V 27  h -406.2980041503906  l -6,4  -3,0  -6,-4  h -14.5  H 0 z&#10;"/><path class="blocklyPathLight" stroke="#edd24d" d=" m 0,0  m 0.5,8 a 7.5 7.5 0 0,1 8,-7.5  H 14.5  h 0.5  l 6,4  3,0  6,-4  H 435.2980041503906  H 435.2980041503906  M 0.5,26.5  V 8 &#10;"/><g transform="translate(10,5)"><text class="blocklyText" x="0" y="14">komentiraj</text></g><g class="blocklyEditableText" transform="translate(82.62344360351562,5)" style="cursor: text;"><rect rx="4" ry="4" x="0" y="0" height="18" width="348.174560546875" class="blocklyFieldRect"/><text class="blocklyText" x="5" y="14">Če je prodaja v trenutnem mesecu manjša od doslej</text></g><g data-id="k0)^Cl=M.S)02PuXYJ#I" class="blocklyDraggable" transform="translate(0,28)"><path class="blocklyPathDark" transform="translate(1,1)" fill="#b79900" d=" m 0,0  h 15  l 6,4  3,0  6,-4  h 373.2066345214844  v 5  H 403.2066345214844  V 5  H 403.2066345214844  V 23  H 403.2066345214844  V 23  V 27  h -373.7066345214844  l -6,4  -3,0  -6,-4  h -14.5  H 0 z&#10;"/><path class="blocklyPath" stroke="none" fill="#e5bf00" d=" m 0,0  h 15  l 6,4  3,0  6,-4  h 373.2066345214844  v 5  H 403.2066345214844  V 5  H 403.2066345214844  V 23  H 403.2066345214844  V 23  V 27  h -373.7066345214844  l -6,4  -3,0  -6,-4  h -14.5  H 0 z&#10;"/><path class="blocklyPathLight" stroke="#edd24d" d=" m 0,0  m 0.5,0.5  H 14.5  h 0.5  l 6,4  3,0  6,-4  H 402.7066345214844  H 402.7066345214844  M 0.5,26.5  V 0.5 &#10;"/><g data-id="30" class="blocklyDraggable" transform="translate(0,28)"><path class="blocklyPathDark" transform="translate(1,1)" fill="#007ab7" d=" m 0,0  h 15  l 6,4  3,0  6,-4  h 57.48028564453125  v 5  H 87.48028564453125  V 5  H 87.48028564453125  c 0,10  -8,-8  -8,7.5  s 8,-2.5  8,7.5  v 14  H 87.48028564453125  V 38  H 87.48028564453125  l -6,4  -3,0  -6,-4  h -7 a 8 8 0 0,0 -8,8  v 17 a 8 8 0 0,0 8,8  H 87.48028564453125  H 87.48028564453125  V 71  V 81  h -57.98028564453125  l -6,4  -3,0  -6,-4  h -6.5 a 8 8 0 0,1 -8,-8 z&#10;"/><path class="blocklyPath" stroke="none" fill="#0098e5" d=" m 0,0  h 15  l 6,4  3,0  6,-4  h 57.48028564453125  v 5  H 87.48028564453125  V 5  H 87.48028564453125  c 0,10  -8,-8  -8,7.5  s 8,-2.5  8,7.5  v 14  H 87.48028564453125  V 38  H 87.48028564453125  l -6,4  -3,0  -6,-4  h -7 a 8 8 0 0,0 -8,8  v 17 a 8 8 0 0,0 8,8  H 87.48028564453125  H 87.48028564453125  V 71  V 81  h -57.98028564453125  l -6,4  -3,0  -6,-4  h -6.5 a 8 8 0 0,1 -8,-8 z&#10;"/><path class="blocklyPathLight" stroke="#4db7ed" d=" m 0,0  m 0.5,0.5  H 14.5  h 0.5  l 6,4  3,0  6,-4  H 86.98028564453125  H 86.98028564453125  M 87.48028564453125,5  m -5,14.3  l 3.68,-2.1  M 57.48028564453125,71  m 1.9895923599143455,-1.9895923599143455 a 8.5 8.5 0 0,0 6.0104076400856545,2.4895923599143455  l 21.5,0  H 86.98028564453125  M 0,81  m 2.6966991411008934,-2.6966991411008934 a 7.5 7.5 0 0,1 -2.1966991411008934,-5.303300858899107  V 0.5 &#10;"/><g class="blocklyIconGroup" display="block" transform="translate(10,5)"><rect class="blocklyIconShape" rx="4" ry="4" height="16" width="16"/><path class="blocklyIconSymbol" d="m4.203,7.296 0,1.368 -0.92,0.677 -0.11,0.41 0.9,1.559 0.41,0.11 1.043,-0.457 1.187,0.683 0.127,1.134 0.3,0.3 1.8,0 0.3,-0.299 0.127,-1.138 1.185,-0.682 1.046,0.458 0.409,-0.11 0.9,-1.559 -0.11,-0.41 -0.92,-0.677 0,-1.366 0.92,-0.677 0.11,-0.41 -0.9,-1.559 -0.409,-0.109 -1.046,0.458 -1.185,-0.682 -0.127,-1.138 -0.3,-0.299 -1.8,0 -0.3,0.3 -0.126,1.135 -1.187,0.682 -1.043,-0.457 -0.41,0.11 -0.899,1.559 0.108,0.409z"/><circle class="blocklyIconShape" r="2.7" cx="8" cy="8"/></g><g data-id="31" class="blocklyDraggable" style="display: block;" transform="translate(80.48028564453125,0)"><path class="blocklyPathDark" transform="translate(1,1)" fill="#007ab7" d=" m 8,0  h 315.6992950439453  v 5  H 323.6992950439453  V 5  H 323.6992950439453  V 34  H 323.6992950439453  V 34  V 38  h -315.6992950439453  H 8  V 20  c 0,-10  -8,8  -8,-7.5  s 8,2.5  8,-7.5 z&#10; M 24,5  v 5  c 0,10  -8,-8  -8,7.5  s 8,-2.5  8,7.5  v 9  h 130.4036865234375  v -29 z M 205.28558349609375,5  v 5  c 0,10  -8,-8  -8,7.5  s 8,-2.5  8,7.5  v 9  h 108.41371154785156  v -29 z"/><path class="blocklyPath" stroke="none" fill="#0098e5" d=" m 8,0  h 315.6992950439453  v 5  H 323.6992950439453  V 5  H 323.6992950439453  V 34  H 323.6992950439453  V 34  V 38  h -315.6992950439453  H 8  V 20  c 0,-10  -8,8  -8,-7.5  s 8,2.5  8,-7.5 z&#10; M 24,5  v 5  c 0,10  -8,-8  -8,7.5  s 8,-2.5  8,7.5  v 9  h 130.4036865234375  v -29 z M 205.28558349609375,5  v 5  c 0,10  -8,-8  -8,7.5  s 8,-2.5  8,7.5  v 9  h 108.41371154785156  v -29 z"/><path class="blocklyPathLight" stroke="#4db7ed" d=" m 8,0  m 0.5,0.5  H 323.1992950439453  H 323.1992950439453  M 8.5,37.5  M 8.5,37.5  V 20  v -1.5  m -7.36,-0.5  q -1.52,-5.5  0,-11  m 7.36,1  V 0.5 &#10; M 154.9036865234375,5.5  v 29  h -130.4036865234375  M 24,10  m -5,14.3  l 3.68,-2.1  M 314.1992950439453,5.5  v 29  h -108.41371154785156  M 205.28558349609375,10  m -5,14.3  l 3.68,-2.1 "/><g data-id="32" class="blocklyDraggable" style="display: block;" transform="translate(17,6)"><path class="blocklyPathDark" transform="translate(1,1)" fill="#7a00b7" d=" m 8,0  h 128.4036865234375  v 5  H 136.4036865234375  V 5  H 136.4036865234375  V 23  H 136.4036865234375  V 23  V 27  h -128.4036865234375  H 8  V 20  c 0,-10  -8,8  -8,-7.5  s 8,2.5  8,-7.5 z&#10;"/><path class="blocklyPath" stroke="none" fill="#9900e5" d=" m 8,0  h 128.4036865234375  v 5  H 136.4036865234375  V 5  H 136.4036865234375  V 23  H 136.4036865234375  V 23  V 27  h -128.4036865234375  H 8  V 20  c 0,-10  -8,8  -8,-7.5  s 8,2.5  8,-7.5 z&#10;"/><path class="blocklyPathLight" stroke="#b84ded" d=" m 8,0  m 0.5,0.5  H 135.9036865234375  H 135.9036865234375  M 8.5,26.5  M 8.5,26.5  V 20  v -1.5  m -7.36,-0.5  q -1.52,-5.5  0,-11  m 7.36,1  V 0.5 &#10;"/><g class="blocklyEditableText" transform="translate(13,5)" style="cursor: default;"><rect rx="4" ry="4" x="0" y="0" height="18" width="118.4036865234375" class="blocklyFieldRect blocklyDropdownRect" stroke="#b84ded" fill="transparent"/><text class="blocklyText blocklyDropdownText" text-anchor="start" x="5" y="14">prodajaMesec<tspan style="fill: rgb(153, 0, 229);"> ▾</tspan></text><image style="display: none;"/></g></g><g data-id="33" class="blocklyDraggable" style="display: block;" transform="translate(198.28558349609375,6)"><path class="blocklyPathDark" transform="translate(1,1)" fill="#7a00b7" d=" m 8,0  h 106.41371154785156  v 5  H 114.41371154785156  V 5  H 114.41371154785156  V 23  H 114.41371154785156  V 23  V 27  h -106.41371154785156  H 8  V 20  c 0,-10  -8,8  -8,-7.5  s 8,2.5  8,-7.5 z&#10;"/><path class="blocklyPath" stroke="none" fill="#9900e5" d=" m 8,0  h 106.41371154785156  v 5  H 114.41371154785156  V 5  H 114.41371154785156  V 23  H 114.41371154785156  V 23  V 27  h -106.41371154785156  H 8  V 20  c 0,-10  -8,8  -8,-7.5  s 8,2.5  8,-7.5 z&#10;"/><path class="blocklyPathLight" stroke="#b84ded" d=" m 8,0  m 0.5,0.5  H 113.91371154785156  H 113.91371154785156  M 8.5,26.5  M 8.5,26.5  V 20  v -1.5  m -7.36,-0.5  q -1.52,-5.5  0,-11  m 7.36,1  V 0.5 &#10;"/><g class="blocklyEditableText" transform="translate(13,5)" style="cursor: default;"><rect rx="4" ry="4" x="0" y="0" height="18" width="96.41371154785156" class="blocklyFieldRect blocklyDropdownRect" stroke="#b84ded" fill="transparent"/><text class="blocklyText blocklyDropdownText" text-anchor="start" x="5" y="14">najProdaja<tspan style="fill: rgb(153, 0, 229);"> ▾</tspan></text><image style="display: none;"/></g></g><g class="blocklyEditableText" transform="translate(159.4036865234375,10)" style="cursor: default;"><rect rx="4" ry="4" x="0" y="0" height="18" width="34.88189697265625" class="blocklyFieldRect blocklyDropdownRect" stroke="#4db7ed" fill="transparent"/><text class="blocklyText blocklyDropdownText" text-anchor="start" x="5" y="14">‏&lt;<tspan style="fill: rgb(0, 152, 229);"> ▾</tspan></text><image style="display: none;"/></g></g><g data-id="34" class="blocklyDraggable" style="display: block;" transform="translate(58.48028564453125,39)"><path class="blocklyPathDark" transform="translate(1,1)" fill="#7a00b7" d=" m 0,0  m 0,8 a 8 8 0 0,1 8,-8  h 7  l 6,4  3,0  6,-4  h 167.16958618164062  v 5  H 197.16958618164062  V 5  H 197.16958618164062  c 0,10  -8,-8  -8,7.5  s 8,-2.5  8,7.5  v 3  H 197.16958618164062  V 23  V 27  h -167.66958618164062  l -6,4  -3,0  -6,-4  h -6.5 a 8 8 0 0,1 -8,-8 z&#10;"/><path class="blocklyPath" stroke="none" fill="#9900e5" d=" m 0,0  m 0,8 a 8 8 0 0,1 8,-8  h 7  l 6,4  3,0  6,-4  h 167.16958618164062  v 5  H 197.16958618164062  V 5  H 197.16958618164062  c 0,10  -8,-8  -8,7.5  s 8,-2.5  8,7.5  v 3  H 197.16958618164062  V 23  V 27  h -167.66958618164062  l -6,4  -3,0  -6,-4  h -6.5 a 8 8 0 0,1 -8,-8 z&#10;"/><path class="blocklyPathLight" stroke="#b84ded" d=" m 0,0  m 0.5,8 a 7.5 7.5 0 0,1 8,-7.5  H 14.5  h 0.5  l 6,4  3,0  6,-4  H 196.66958618164062  H 196.66958618164062  M 197.16958618164062,5  m -5,14.3  l 3.68,-2.1  M 0,27  m 2.6966991411008934,-2.6966991411008934 a 7.5 7.5 0 0,1 -2.1966991411008934,-5.303300858899107  V 8 &#10;"/><g data-id="35" class="blocklyDraggable" style="display: block;" transform="translate(190.16958618164062,0)"><path class="blocklyPathDark" transform="translate(1,1)" fill="#7a00b7" d=" m 8,0  h 128.4036865234375  v 5  H 136.4036865234375  V 5  H 136.4036865234375  V 23  H 136.4036865234375  V 23  V 27  h -128.4036865234375  H 8  V 20  c 0,-10  -8,8  -8,-7.5  s 8,2.5  8,-7.5 z&#10;"/><path class="blocklyPath" stroke="none" fill="#9900e5" d=" m 8,0  h 128.4036865234375  v 5  H 136.4036865234375  V 5  H 136.4036865234375  V 23  H 136.4036865234375  V 23  V 27  h -128.4036865234375  H 8  V 20  c 0,-10  -8,8  -8,-7.5  s 8,2.5  8,-7.5 z&#10;"/><path class="blocklyPathLight" stroke="#b84ded" d=" m 8,0  m 0.5,0.5  H 135.9036865234375  H 135.9036865234375  M 8.5,26.5  M 8.5,26.5  V 20  v -1.5  m -7.36,-0.5  q -1.52,-5.5  0,-11  m 7.36,1  V 0.5 &#10;"/><g class="blocklyEditableText" transform="translate(13,5)" style="cursor: default;"><rect rx="4" ry="4" x="0" y="0" height="18" width="118.4036865234375" class="blocklyFieldRect blocklyDropdownRect" stroke="#b84ded" fill="transparent"/><text class="blocklyText blocklyDropdownText" text-anchor="start" x="5" y="14">prodajaMesec<tspan style="fill: rgb(153, 0, 229);"> ▾</tspan></text><image style="display: none;"/></g></g><g transform="translate(10,5)"><text class="blocklyText" x="0" y="14">nastavi</text></g><g class="blocklyEditableText" transform="translate(61.44950866699219,5)" style="cursor: default;"><rect rx="4" ry="4" x="0" y="0" height="18" width="96.41371154785156" class="blocklyFieldRect blocklyDropdownRect" stroke="#b84ded" fill="transparent"/><text class="blocklyText blocklyDropdownText" text-anchor="start" x="5" y="14">najProdaja<tspan style="fill: rgb(153, 0, 229);"> ▾</tspan></text><image style="display: none;"/></g><g transform="translate(162.86322021484375,5)"><text class="blocklyText" x="0" y="14">na</text></g></g><g transform="translate(37,5)"><text class="blocklyText" x="0" y="14">če</text></g><g transform="translate(10,43)"><text class="blocklyText" x="0" y="14">izvedi</text></g></g><g transform="translate(10,5)"><text class="blocklyText" x="0" y="14">komentiraj</text></g><g class="blocklyEditableText" transform="translate(82.62344360351562,5)" style="cursor: text;"><rect rx="4" ry="4" x="0" y="0" height="18" width="315.58319091796875" class="blocklyFieldRect"/><text class="blocklyText" x="5" y="14">najmanjše prodaje, posodobimo spremenljivko.</text></g></g></g></g></g></g></g></g></g></svg>